<svg xmlns="http://www.w3.org/2000/svg" width="692" height="621" fill="none"  xmlns:v="https://vecta.io/nano"><style><![CDATA[.B{fill:#1b1616}.C{stroke-miterlimit:10}.D{stroke-width:3}.E{stroke:#1b1616}.F{fill:#3d3d3d}]]></style><g fill="#e8e8e8"><path d="M398.526 574.572H242.63c-1.115 0-1.115-1.762 0-1.762h155.896c1.115 0 1.115 1.762 0 1.762zM226.26 576.04c-27.107-2.115-54.156-2.702-81.321-.411-1.115.117-1.115-1.645 0-1.762 27.165-2.291 54.155-1.704 81.321.411 1.115.058 1.115 1.82 0 1.762z"/><path d="M152.801 585.319c-14.61 1.292-29.102-2.349-43.653-3.289-14.962-.94-29.982 0-44.768 2.643-1.115.176-1.584-1.527-.469-1.703 14.551-2.584 29.337-3.583 44.123-2.761 14.903.823 29.806 4.699 44.768 3.348 1.115-.117 1.115 1.645 0 1.762zm-9.153-11.863c6.102-4.699 11.793-9.984 16.839-15.799 1.115-1.292 2.171-2.584 3.227-3.876.763-.939 1.584-1.938 2.112-2.995.704-1.409.411-2.408.411-3.994 0-2.76 1.584-2.642 3.403-4.522 2.758-2.878 3.169-7.047 3.99-10.747.763-3.465 2.171-6.519 3.755-9.632 3.697-7.459 5.398-15.975 7.628-23.962.176.353.41.705.586 1.057-7.744-1.057-16.135 4.757-22.296 8.986-3.168 2.173-6.16 4.522-9.035 7.048-2.875 2.584-7.276 6.225-5.692 10.571.235.587-.352 1.116-.821 1.116-4.811.176-8.449 4.992-11.031 8.574-2.523 3.407-4.576 7.165-6.102 11.1-3.051 7.929-3.99 16.562-2.64 24.96.176 1.116-1.526 1.586-1.702.47a49.85 49.85 0 0 1 3.462-27.838c1.878-4.287 4.342-8.339 7.334-11.981 2.758-3.347 6.102-6.93 10.738-7.106-.294.353-.587.764-.822 1.116-1.349-3.641.763-6.989 3.227-9.573 3.169-3.348 6.865-6.225 10.62-8.868 6.924-4.933 16.37-11.57 25.347-10.278.47.059.704.646.587 1.057-2.288 8.164-3.99 16.738-7.804 24.373a50.43 50.43 0 0 0-4.165 11.922c-.646 3.172-1.585 6.461-3.932 8.869-.997 1.057-2.757 1.644-2.933 3.171-.118 1.409.352 2.408-.176 3.935-1.115 3.113-3.99 5.932-6.102 8.339-5.164 5.932-10.972 11.277-17.192 16.092-.821.588-1.701-.939-.821-1.585z"/><path d="M133.615 534.753c-2.054-7.576-8.156-14.154-12.967-20.144l-3.814-4.64c-1.056-1.292-2.406-3.7-4.225-3.994-.762-.117-1.114.353-1.936-.176-.88-.528-1.232-1.585-1.701-2.408-3.521-6.401-9.153-11.041-15.079-15.211-4.635-3.289-9.212-6.577-11.5-11.981.587-.176 1.115-.293 1.702-.469 2.406 8.927 2.406 17.795.88 26.898-1.584 9.455-1.936 18.617.645 28.014 4.929 17.913 18.482 29.952 32.27 41.346.88.705-.352 1.938-1.232 1.233-13.495-11.158-26.814-22.963-32.153-40.23-2.523-8.222-3.227-16.914-2.054-25.43.704-5.051 1.819-9.984 1.995-15.152.176-5.521-.528-10.983-1.995-16.268-.293-1.116 1.291-1.469 1.701-.47 2.699 6.46 9.329 9.749 14.61 13.801 2.698 2.056 5.221 4.346 7.51 6.872.997 1.116 1.936 2.349 2.757 3.582.646.999 1.643 3.7 2.699 4.053.704.235 1.467-.177 2.289.176 1.173.47 1.936 1.879 2.699 2.76l7.627 9.338c4.283 5.403 9.153 11.159 11.031 17.913.235 1.233-1.467 1.703-1.76.587zm44.709-26.722c-5.281 3.759-9.27 8.81-13.202 13.919-4.165 5.286-8.273 10.63-12.145 16.151-7.452 10.571-13.964 21.906-17.426 34.474-.293 1.116-1.995.646-1.702-.469 3.579-13.038 10.386-24.784 18.189-35.708 3.814-5.345 7.804-10.513 11.852-15.681 4.049-5.227 8.156-10.336 13.613-14.154.88-.705 1.76.822.821 1.468zm-88.01-17.09c9.329 24.549 30.862 42.873 37.023 68.831.234 1.116-1.408 1.586-1.702.47-6.102-25.959-27.694-44.282-37.023-68.831-.411-1.057 1.291-1.527 1.701-.47z"/><path d="M104.747 495.111c-.88 8.163-.352 16.268 1.584 24.196.294 1.116-1.408 1.586-1.701.47-1.936-8.105-2.523-16.385-1.643-24.666.117-1.116 1.878-1.116 1.76 0zm-5.339 16.62c-5.515-3.465-10.737-7.341-15.666-11.628-.88-.764.411-1.997 1.232-1.233 4.811 4.169 9.916 7.987 15.314 11.334.997.646.117 2.173-.88 1.527zm78.271 11.746c-4.049-.117-9.74-1.292-13.437.646-.997.529-1.877-.998-.88-1.526 4.166-2.232 9.799-1.057 14.317-.881 1.173.058 1.173 1.82 0 1.761zM155.5 514.55c.704 5.697.587 11.276-.235 16.973-.176 1.115-1.877.646-1.701-.47.821-5.521.821-10.982.176-16.503-.176-1.116 1.584-1.116 1.76 0zm36.084 79.99c-9.505.528-18.893-1.586-28.398-1.41-9.094.176-17.954 2.584-27.048 1.116-1.115-.176-.646-1.879.469-1.703 9.271 1.527 18.424-1.175 27.694-1.175 9.094 0 18.13 1.938 27.283 1.41 1.115-.118 1.115 1.644 0 1.762zM81.63 572.456c-6.806-.939-13.671-1.233-20.536-.939-6.747.293-13.436 1.116-20.242.528-6.63-.528-13.202-1.585-19.89-1.527-6.747.059-13.436.823-20.125 1.704-1.115.117-1.115-1.645 0-1.762 6.689-.823 13.378-1.645 20.125-1.703 7.041-.059 13.964 1.115 21.005 1.585 6.748.47 13.436-.411 20.184-.646 6.689-.235 13.319.176 19.89 1.057 1.174.177.704 1.88-.411 1.703zm608.798 11.278c-18.189 2.525-36.202-1.527-54.332-2.76-9.623-.646-19.069.058-28.692.939s-19.244 1.292-28.926 1.351c-11.03.059-22.12-.235-33.15-.587-1.115-.059-1.115-1.821 0-1.762l37.199.529c12.145-.177 24.115-1.527 36.202-2.291 23.821-1.586 47.467 6.167 71.229 2.878 1.115-.118 1.585 1.527.47 1.703zm-102.738 9.925c-6.865 0-13.671-1.644-20.477-2.173a174.97 174.97 0 0 0-20.771-.352c-1.114.058-1.114-1.704 0-1.762 6.924-.294 13.847-.235 20.771.352 6.806.529 13.671 2.173 20.477 2.173 1.115 0 1.115 1.762 0 1.762zM472.279 368.02c-19.831 7.458-39.135 16.326-58.38 25.195-.998.469-1.936-1.058-.88-1.527 19.421-8.927 38.842-17.854 58.791-25.372 1.056-.411 1.525 1.293.469 1.704zm152.669-154.694v352.261c0 1.116-1.76 1.116-1.76 0V213.326c0-1.116 1.76-1.116 1.76 0zm-147.74-21.496v302.576c0 1.116-1.761 1.116-1.761 0V191.83c0-1.116 1.761-1.116 1.761 0zm-3.521 167.792l-100.038 41.11c-1.057.411-1.526-1.292-.47-1.703l100.039-41.11c1.056-.411 1.467 1.292.469 1.703zm-93.174 39.936v170.08c0 1.116-1.76 1.116-1.76 0v-170.08c0-1.116 1.76-1.116 1.76 0zM220.217 568.993V458.052c0-1.116 1.76-1.116 1.76 0v110.941c0 1.116-1.76 1.116-1.76 0zm16.37-106.947c-35.85-15.446-71.817-30.951-105.906-50.097a480.11 480.11 0 0 1-28.75-17.442c-.939-.646-.059-2.173.88-1.527 32.74 21.436 68.062 38.35 103.735 54.09l30.862 13.39c1.115.528.176 1.997-.821 1.586zm-45.237-22.787V256.374c0-1.115 1.76-1.115 1.76 0v182.885c0 1.116-1.76 1.116-1.76 0z"/><path d="M201.618 259.958H33.048c-1.115 0-1.115-1.763 0-1.763h168.57c1.173 0 1.173 1.763 0 1.763zm-152.259 5.813v294.471c0 1.116-1.76 1.116-1.76 0V265.771c0-1.115 1.76-1.115 1.76 0zm583.099-50.507c-41.013-13.214-84.783-16.092-127.322-20.966l-37.316-4.287c-1.115-.118-1.115-1.88 0-1.762l66.595 7.634c21.063 2.408 42.245 4.699 63.074 8.751 11.969 2.29 23.821 5.227 35.439 8.927 1.056.352.586 2.055-.47 1.703zm-20.125 42.755v-29.365c0-1.116 1.761-1.116 1.761 0v29.365c0 1.116-1.761 1.116-1.761 0z"/><path d="M613.741 228.537h-17.25c-1.115 0-1.115-1.762 0-1.762h17.25c1.115 0 1.115 1.762 0 1.762z"/><path d="M597.312 228.126v30.598c0 1.116-1.76 1.116-1.76 0v-30.598c0-1.115 1.76-1.115 1.76 0z"/><path d="M612.979 259.898h-15.314c-1.115 0-1.115-1.762 0-1.762h15.314c1.114 0 1.173 1.762 0 1.762zm-50.166-2.114V228.42c0-1.116 1.76-1.116 1.76 0v29.364c0 1.116-1.76 1.116-1.76 0z"/><path d="M564.162 228.243h-17.25c-1.115 0-1.115-1.762 0-1.762h17.25c1.173 0 1.173 1.762 0 1.762z"/><path d="M547.792 227.891v30.598c0 1.116-1.76 1.116-1.76 0v-30.598c0-1.116 1.76-1.116 1.76 0z"/><path d="M563.458 259.605h-15.314c-1.115 0-1.115-1.762 0-1.762h15.314c1.115 0 1.115 1.762 0 1.762zm-51.516-2.937v-29.364c0-1.116 1.761-1.116 1.761 0v29.364c0 1.116-1.761 1.116-1.761 0z"/><path d="M513.351 227.127h-17.25c-1.115 0-1.115-1.761 0-1.761h17.25c1.114 0 1.114 1.761 0 1.761z"/><path d="M496.922 226.774v30.599c0 1.115-1.76 1.115-1.76 0v-30.599c0-1.174 1.76-1.174 1.76 0z"/><path d="M512.588 258.489h-15.314c-1.115 0-1.115-1.761 0-1.761h15.314c1.115 0 1.115 1.761 0 1.761zm117.699 82.104v116.051c0 1.115-1.76 1.115-1.76 0V340.593c0-1.174 1.76-1.174 1.76 0zm-12.321 123.45v53.855c0 1.116-1.76 1.116-1.76 0v-53.855c0-1.116 1.76-1.116 1.76 0zm20.066-253.83c-18.893-6.578-38.079-11.981-57.617-16.151-1.115-.235-.646-1.938.469-1.703a476.3 476.3 0 0 1 57.618 16.151c1.056.352.586 2.055-.47 1.703zM460.779 430.098v-29.366c0-1.115 1.76-1.115 1.76 0v29.366c0 1.174-1.76 1.174-1.76 0z"/><path d="M462.129 400.615h-17.25c-1.115 0-1.115-1.762 0-1.762h17.25c1.173 0 1.173 1.762 0 1.762z"/><path d="M445.759 400.262v30.599c0 1.116-1.761 1.116-1.761 0v-30.599c0-1.174 1.761-1.174 1.761 0z"/><path d="M461.424 431.976h-15.313c-1.115 0-1.115-1.762 0-1.762h15.313c1.115 0 1.115 1.762 0 1.762zm-249.011 28.015c-38.314-14.389-75.043-32.712-109.602-54.619-.939-.587-.059-2.114.88-1.527 34.441 21.848 71.054 40.113 109.192 54.443 1.056.411.586 2.114-.47 1.703zM43.961 269.941l-.117 136.311c0 1.116-1.76 1.116-1.76 0l.117-136.311c0-1.116 1.76-1.116 1.76 0zm127.088-15.916H32.403c-1.115 0-1.115-1.762 0-1.762h138.646c1.114 0 1.114 1.762 0 1.762zm3.285 58.378v-29.365c0-1.116 1.76-1.116 1.76 0v29.365c0 1.174-1.76 1.174-1.76 0z"/><path d="M175.684 282.92h-17.25c-1.115 0-1.115-1.761 0-1.761h17.25c1.114 0 1.114 1.761 0 1.761z"/><path d="M159.314 282.568v30.599c0 1.115-1.761 1.115-1.761 0v-30.599c0-1.174 1.761-1.174 1.761 0z"/><path d="M174.921 314.282h-15.314c-1.115 0-1.115-1.761 0-1.761h15.314c1.174 0 1.174 1.761 0 1.761zm-82.084-1.879v-29.365c0-1.116 1.76-1.116 1.76 0v29.365c0 1.174-1.76 1.174-1.76 0z"/><path d="M94.245 282.92h-17.25c-1.115 0-1.115-1.761 0-1.761h17.25c1.115 0 1.115 1.761 0 1.761z"/><path d="M77.816 282.568v30.599c0 1.115-1.76 1.115-1.76 0v-30.599c0-1.174 1.76-1.174 1.76 0z"/><path d="M93.482 314.282H78.168c-1.115 0-1.115-1.761 0-1.761h15.314c1.115 0 1.115 1.761 0 1.761z"/></g><path d="M536.145 73.723C516.735 73.723 501 57.71 501 37.957S516.735 2.19 536.145 2.19s35.146 16.013 35.146 35.767-15.735 35.767-35.146 35.767z" stroke="#c92627" class="C D"/><path d="M184.784 119.093c-9.74-6.637-21.592-2.467-31.684.94-4.753 1.585-9.564 3.054-14.551 3.524-5.398.528-10.796-.059-16.077-1.116-20.946-4.347-43.594-19.147-65.127-9.104-.998.47-1.936-1.057-.88-1.527 15.842-7.4 33.268-1.586 48.757 3.7 9.036 3.113 18.365 6.226 28.046 6.461 9.916.235 18.6-3.818 27.929-6.402 8.097-2.291 17.25-2.937 24.526 1.997.88.646 0 2.173-.939 1.527zm423.031 34.329c-16.956 4.875-33.62-3.113-49.52-8.105-8.684-2.702-17.837-4.875-26.99-3.7-9.329 1.233-17.837 5.697-26.403 9.397-8.684 3.759-17.72 6.871-27.342 5.344-1.115-.176-.646-1.879.469-1.703 18.365 2.937 33.737-11.452 51.105-14.506 16.956-2.996 33.092 5.109 48.934 9.808 9.563 2.819 19.479 4.522 29.278 1.703 1.115-.294 1.584 1.409.469 1.762zM455.968 178.91c-6.278-.176-11.794-2.995-17.368-5.52-3.403-1.527-6.923-2.996-10.678-3.289-4.166-.353-7.804 1.116-11.383 3.112-6.571 3.642-12.673 6.989-20.242 8.164-7.158 1.174-14.434.646-21.416-1.468-1.056-.353-.646-2.056.469-1.704 7.745 2.35 15.959 2.643 23.88.764 3.756-.881 7.393-2.291 10.796-4.111 3.227-1.762 6.278-3.876 9.682-5.227 13.084-5.227 23.586 7.106 36.26 7.459 1.115.117 1.115 1.879 0 1.82zM236.094 69.486c-16.898 7.87-35.849 7.517-53.803 4.052-20.301-3.935-39.429-12.92-60.434-12.568-11.852.235-23.587 2.819-34.5 7.517-1.056.47-1.936-1.057-.88-1.527 17.602-7.635 37.2-9.69 55.974-5.755 10.268 2.173 20.184 5.755 30.334 8.398 9.623 2.467 19.48 4.228 29.396 4.581 11.324.352 22.648-1.351 32.975-6.167 1.056-.528 1.936.998.938 1.468z" fill="#e8e8e8"/><path d="M269.251 517.074l-47.364 44.217c18.47 37.275 25.886 56.988 22.248 59.209-4.478 2.777-26.166-21.726-65.135-73.647l80.596-58.377 9.655 28.598z" class="B"/><path d="M336.974 302.169c5.877 8.885 2.519 17.007-.839 47.687-3.428 31.098-.56 27.835-3.358 49.353-4.758 36.373-15.252 62.681-23.648 83.296 0 0-11.823 29.223-34.981 56.086-.629.764-2.099 2.291-4.197 3.749s-6.577 4.511-11.824 3.748c-5.527-.764-9.725-5.414-11.404-9.649-1.889-4.789.35-7.01-2.099-10.897-1.819-2.777-3.428-2.361-8.045-5.831-3.219-2.499-7.346-5.623-9.305-10.898-2.169-5.97-.49-11.384 0-12.98 1.469-4.582 4.267-7.497 5.037-8.399 3.428-3.679 8.745-14.022 19.379-34.707 8.256-15.965 21.199-52.129 25.327-97.456 3.638-40.26-2.659-54.49 8.885-63.166 13.642-10.274 41.348-4.651 51.072 10.064z" fill="#fff"/><g class="B"><path d="M280.095 316.884c.63 24.156-2.379 48.243-7.626 71.843-5.107 22.906-11.683 46.021-20.779 67.678-4.617 11.106-10.354 21.726-17.84 31.166-.839 1.042-2.309-.416-1.469-1.457 13.992-17.492 21.268-39.08 27.845-60.112 7.136-22.698 12.803-45.882 15.741-69.552 1.609-13.119 2.309-26.377 1.959-39.566 0-1.388 2.099-1.388 2.169 0zm56.599 30.682c-.14 37.136-5.107 74.48-16.791 109.881-5.736 17.353-13.082 34.29-22.248 50.117-4.617 8.051-9.724 15.895-15.321 23.392-4.688 6.316-10.215 13.327-18.33 15.34-7.486 1.874-14.972-1.111-17.911-8.399-3.008-7.566-.979-17.423-7.276-23.531-.979-.972.49-2.429 1.47-1.458 4.827 4.651 5.107 11.384 6.086 17.562.49 3.054 1.05 6.247 2.729 8.885 2.798 4.581 8.185 6.108 13.293 5.136 9.165-1.735 15.111-10.412 20.149-17.422 4.967-6.942 9.584-14.161 13.852-21.588 17.281-30.403 27.985-64.207 33.512-98.636 3.148-19.575 4.618-39.427 4.687-59.279 0-1.388 2.099-1.388 2.099 0z"/><path d="M235.529 485.629c-5.667 6.664-10.074 15.34-7.066 24.156 1.539 4.65 5.037 6.386 8.885 8.815 3.358 2.152 6.157 4.998 8.466 8.26.769 1.111-1.05 2.152-1.819 1.042-1.959-2.638-4.198-5.137-6.927-7.011-1.749-1.18-3.708-2.082-5.457-3.332-3.288-2.36-5.107-6.039-5.807-9.926-1.539-8.885 2.659-16.868 8.256-23.531.839-.972 2.309.555 1.469 1.527z"/></g><g fill="#6d6c6c"><path opacity=".16" d="M335.365 345.971c.14 9.162-.14 18.741-.839 28.806-2.519 35.47-10.145 66.22-18.89 91.348 0 0-10.984 31.166-25.606 52.962-1.609 2.36-4.688 6.317-10.914 14.16-6.437 8.191-8.326 10.204-11.754 11.662-.49.208-9.235 3.817-15.112-.417-1.609-1.11-2.868-3.818-5.457-9.162-2.658-5.484-3.988-8.399-4.617-12.495-3.429-.139-5.947-2.013-6.297-4.164-.42-2.638 2.659-4.859 2.938-4.998 4.198-2.846 10.005-.486 12.594 0 12.803 2.29 28.824-27.974 33.651-37.136 19.94-38.386 29.944-57.544 37.01-78.784 4.128-13.119 9.235-30.611 13.293-51.782z"/><path opacity=".13" d="M326.13 426.904c-.63-.208-1.749 2.916-12.593 24.573-21.129 42.133-26.166 48.242-31.553 52.962-6.436 5.692-17.98 13.466-37.849 16.659-.21 1.249-2.729 14.993 5.457 21.24 3.568 2.777 7.695 2.916 8.815 2.916 12.663.416 25.816-16.729 37.43-37.136 22.597-39.705 32.602-80.45 30.293-81.214z"/></g><path d="M423.237 521.333l28.055 58.237c41.348-6.108 62.616-7.08 63.666-2.985 1.329 5.067-28.895 18.117-90.531 39.08l-31.413-93.985 30.223-.347z" class="B"/><path d="M340.053 295.744c7.206 6.108 9.304 12.633 15.111 25.96 8.955 20.476 19.1 40.467 28.195 60.943 18.12 40.815 23.997 49.838 37.71 81.907 7.905 18.463 7.835 19.782 12.103 27.487 4.408 7.913 8.955 14.576 12.104 25.96 1.889 6.802 2.308 11.869.489 17.006-.699 2.013-2.868 8.329-8.535 10.481-3.638 1.388-7.346.555-11.544-.486-3.428-.833-6.157-2.013-8.045-2.985-1.26 1.597-3.499 3.957-7.067 5.484-6.646 2.985-13.013.972-16.091 0-1.819-.555-8.605-2.915-13.573-9.51-3.428-4.511-4.407-9.023-5.037-11.452-2.519-10.343-7.696-19.852-11.054-29.986-1.819-5.553-5.317-14.022-28.684-47.895-25.187-36.51-26.446-34.359-38.759-54.419-13.363-21.795-20.849-33.734-24.137-51.92-2.659-14.715-6.577-36.302 6.436-49.074 14.762-14.854 44.636-10.967 60.378 2.499z" fill="#fff"/><g class="B"><path d="M272.889 309.21c-4.408 39.982 17.42 76.284 40.298 107.242 11.614 15.687 23.857 30.888 34.422 47.2 10.914 16.798 19.379 34.845 26.305 53.586 3.498 9.509 5.737 21.726 15.182 27.418 7.906 4.72 18.26 4.373 25.606-1.18 1.05-.833 2.099.971 1.05 1.804-12.524 9.371-30.364 4.165-37.08-9.44-4.408-8.954-6.997-18.949-10.705-28.181-4.197-10.342-8.955-20.546-14.412-30.264-20.569-36.302-51.492-65.941-69.682-103.701-9.655-20.129-15.602-42.202-13.083-64.553.14-1.249 2.239-1.319 2.099.069zm68.283-19.713l100.326 217.606c3.498 7.844 6.856 16.659 5.527 25.336-1.12 7.01-5.527 14.437-13.293 14.993-5.597.416-11.264-2.222-16.441-3.887l-18.33-5.9c-1.26-.417-.7-2.43.559-2.013l14.412 4.65c5.038 1.597 10.075 3.61 15.252 4.72 10.145 2.083 15.742-6.525 16.091-15.548.35-9.995-4.687-19.644-8.745-28.459l-13.363-29.014-83.674-181.512c-.7-1.18 1.119-2.221 1.679-.972z"/><path d="M417.571 543.961c-.7.416-1.4.902-2.029 1.388-.42.347-1.05.416-1.47 0-.349-.347-.419-1.111 0-1.458.77-.624 1.61-1.18 2.449-1.735 1.119-.694 2.169 1.111 1.05 1.805z"/></g><g fill="#6d6c6c"><path opacity=".09" d="M303.812 283.39c8.466 4.164 5.877 21.101 7.136 39.634.91 13.674 3.218 17.839 35.331 90.513 27.005 61.152 30.224 69.204 40.788 85.1 13.083 19.643 26.236 34.428 35.751 44.215l-6.717-.416c-1.469 1.388-3.848 3.193-7.136 4.581-1.609.694-8.815 3.748-16.371 1.249-7.416-2.429-11.054-8.815-13.853-13.743-4.197-7.427-5.317-14.022-5.876-17.076-1.54-8.121-6.367-17.353-15.952-35.886-12.943-24.919-25.536-35.122-48.763-69.204-19.03-28.042-29.524-43.799-34.492-67.538-3.987-18.949-2.798-35.261-1.259-45.881 10.285-9.648 23.437-19.505 31.413-15.548z"/><path opacity=".16" d="M273.588 332.186c1.19-.486 7.067 13.535 18.89 34.22 16.301 28.32 21.968 30.958 43.726 63.373 21.969 32.763 21.619 38.246 44.566 71.703a742.88 742.88 0 0 0 29.454 40.051c2.029 3.262 1.68 4.789 1.26 5.414-1.749 2.984-10.565.971-14.692 0-5.317-1.25-8.046-1.874-10.914-3.749-6.087-3.956-7.416-10.134-11.754-22.906-2.309-6.871-5.247-13.535-7.556-20.407-5.037-14.715-12.173-25.057-23.927-41.716-40.298-56.849-40.158-53.656-47.084-66.289-16.581-29.986-23.648-59-21.969-59.694z"/></g><path d="M502.203 100.275c-.763-1.762 6.747-5.404 5.984-7.459-.762-2.114-10.091-2.643-16.37 1.997-6.571 4.816-6.16 11.863-9.915 20.908-4.284 10.16-11.031 15.68-21.299 24.138-6.161 5.109-30.217 24.255-64.893 23.198-15.725-.47-28.868-4.992-38.607-9.749l4.107 50.625c7.979 1.821 18.951 3.406 31.801 2.29 46.704-4.052 76.686-40.112 85.957-51.212 5.633-6.754 13.319-17.149 20.36-31.303 5.515 1.644 14.081 3.524 24.349 2.466 7.276-.704 15.959-2.936 15.901-4.992-.059-2.701-15.021-4.522-14.903-5.461.117-.823 11.91 2.407 14.903-1.997 2.347-3.465-.939-11.276-6.454-14.448-1.702-.94-3.638-1.527-8.449-1.468-13.026 0-21.768 4.052-22.472 2.467z" fill="#fff" class="C D E"/><path d="M539.754 110.376c-2.993-.704-6.454.764-9.505.881-2.699.117-5.398-.117-8.039-.646-1.114-.235-.645-1.938.47-1.703 3.344.646 6.689.822 10.092.352 2.581-.352 4.87-1.174 7.451-.587 1.115.235.646 1.938-.469 1.703zm-2.465-5.814c-3.52-.704-6.63.764-10.033.94-2.992.176-5.984-.411-8.918-1.175-1.115-.293-.646-1.996.469-1.703 3.814.999 7.51 1.468 11.442.646 2.64-.528 4.87-.998 7.569-.469 1.056.293.586 1.996-.529 1.761zm-32.446 1.761c-2.992 3.172-7.041 4.816-11.383 4.699-1.115-.059-1.115-1.821 0-1.762 3.931.176 7.452-1.292 10.092-4.17.822-.822 2.054.411 1.291 1.233z" class="B"/><g class="F"><path opacity=".18" d="M539.578 113.255c-.176-1.586-12.967-1.997-24.702-.294-6.337.881-12.497 1.762-18.306 4.522-12.674 5.932-16.839 17.266-23.411 27.661 0 0-14.727 23.081-41.071 36.002-26.169 12.802-56.034 4.228-72.873-2.585l1.936 25.371c15.549 3.172 27.987 2.408 35.967 1.292 44.416-6.284 72.286-40.464 83.375-54.03 8.977-10.983 14.962-21.084 18.6-27.956 5.809 2.115 14.434 4.288 24.701 3.231 7.1-.764 15.49-3.113 15.432-5.169-.118-2.642-14.258-4.228-14.141-4.815.059-.294 4.049.587 8.977-.646 1.937-.47 5.574-1.704 5.516-2.584z"/><path opacity=".24" d="M406.33 195.182c-20.947.294-37.141-7.928-45.59-13.155l.939 22.493c11.618 1.938 31.977 3.583 55.212-3.876 42.069-13.449 62.722-46.925 68.062-56.263-1.702 3.054-29.337 50.155-78.623 50.801z"/><path opacity=".19" d="M519.629 122.886c-12.556.058-21.005-1.821-21.181-.94-.118.705 5.104 2.819 10.619 3.876 16.018 3.054 30.687-3.582 30.511-4.522-.176-.646-6.748 1.527-19.949 1.586z"/></g><path d="M501.546 71.353c-9.138 0-16.546-7.415-16.546-16.562s7.408-16.562 16.546-16.562 16.546 7.415 16.546 16.562-7.408 16.562-16.546 16.562z" fill="#c92627"/><path d="M504.243 72.78c-10.369 0-18.775-8.44-18.775-18.852s8.406-18.852 18.775-18.852 18.776 8.44 18.776 18.852-8.406 18.852-18.776 18.852z" stroke-width="2" class="C E"/><path d="M339.383 149.136c1.937.118 8.449.412 16.781 2.467 4.753 1.175 8.508 2.526 10.679 3.406 3.931 7.988 8.977 20.321 10.854 35.943 2.699 22.259-2.699 36.589-6.395 58.73-2.523 15.211-17.119 37.008-14.302 64.846-6 4.505-9.05 18.433-32.755 21.721-33.561 4.699-48.641-7.893-53.745-11.71-3.11-19.264-15.607-44.2-18.247-64.462-4.518-34.298-7.921-67.48-10.444-99.371 16.253-15.328 30.334-19.439 40.25-20.262 19.069-1.644 36.319 7.518 57.324 8.692z" fill="#c92627"/><g class="F"><path opacity=".17" d="M313.039 163.937c-3.638 3.759-8.625 9.456-13.084 17.208-21.416 37.235-8.156 80.695-2.23 99.958 4.107 13.508 11.911 33.3 27.283 54.677-5.867.999-13.26 1.586-21.709.764-20.066-1.997-25.524-5.601-32.799-11.004-5.515-31.361-19.303-70.219-22.941-105.457-2.112-20.673-3.696-40.817-4.87-60.257 2.288-2.231 5.809-5.227 10.503-8.222 7.569-4.874 19.479-12.45 32.916-10.101 17.132 2.936 25.816 20.085 26.931 22.434z"/><path opacity=".11" d="M245.33 173.274c2.992 8.398 7.627 21.789 12.321 38.585 13.964 49.275 12.967 70.417 29.924 95.847 5.163 7.753 13.847 18.735 28.456 29.6a96.74 96.74 0 0 1-29.571-4.874c-10.796-3.583-10.328-3.459-15.96-7.393-4.577-24.549-17.367-55.977-20.359-84.343-2.406-23.61-3.99-46.162-4.811-67.422z"/></g><g fill="#fff" class="C D E"><path d="M272.554 286.33c1.232-2.291-.059-5.697-1.995-7.518-3.579-3.406-10.092-2.114-13.026 1.586-.41.529-2.405 2.995-1.584 5.109 1.76 4.287 14.082 5.403 16.605.823z"/><path d="M256.008 150.724c-8.742 6.049-19.538 14.858-29.924 27.192-11.324 13.39-18.717 26.898-23.645 38.233-4.166 9.69-6.689 18.323-8.273 24.842 5.222 12.04 15.02 29.776 33.092 45.34 6.513 5.638 12.967 9.984 18.893 13.39a104.32 104.32 0 0 0 13.201 12.392c3.755 2.995 8.86 6.989 10.033 5.99.939-.822-.704-4.874-3.227-7.693-2.992-3.289-6.688-4.287-6.63-4.464s3.345.411 6.396 2.761c3.52 2.76 3.344 5.344 5.104 5.755 3.697.881 12.204-8.046 10.914-17.09-1.056-7.576-8.508-11.629-11.031-13.038-6.923-3.818-13.671-3.113-16.135-2.761l-26.403-40.993c2.405-1.938 5.574-4.698 9.035-8.281 4.049-4.17 15.432-16.033 20.888-32.301 7.334-21.848.587-41.992-2.288-49.274z"/></g><path d="M280.534 304.829c-2.171-4.816-5.868-8.575-10.679-10.689-1.056-.47-.117-1.997.88-1.527a22.22 22.22 0 0 1 11.324 11.335c.469.998-1.056 1.879-1.525.881zm-6.455 8.164c1.819-5.521-3.52-11.218-7.921-13.743-.997-.587-.117-2.114.881-1.527 5.104 2.936 10.854 9.397 8.742 15.74-.352 1.057-2.054.587-1.702-.47z" class="B"/><g class="F"><path opacity=".18" d="M258.707 160.413c-7.041 7.283-16.957 18.148-27.577 32.419-14.903 19.909-22.296 29.893-22.824 40.406-.939 19.498 13.671 43.871 32.916 53.15 5.574 2.702 20.066 8.164 28.398 18.852 2.406 3.054 4.87 7.283 3.99 8.222-.763.764-3.579-1.233-4.518-.293-1.115 1.116 1.584 4.522.822 5.285-.939.94-6.161-2.407-11.442-6.636-3.403-2.76-7.569-6.519-11.969-11.452-5.574-3.172-11.5-7.165-17.544-12.216-19.186-16.033-29.513-34.768-35.028-47.571 1.35-5.168 3.403-12.157 6.63-20.203 9.74-24.255 22.766-39.936 27.049-44.869 6.161-7.165 15.431-16.503 28.398-25.489l2.699 10.395z"/><path opacity=".21" d="M202.439 249.154c5.633 7.283 8.508 11.922 10.855 15.387 4.459 6.461 11.089 12.627 24.408 24.961 4.752 4.404 11.206 10.277 19.127 17.031 8.332 7.224 12.38 10.924 12.204 11.159-.234.294-8.273-5.814-24.173-18.324-2.992-1.762-7.217-4.346-11.969-7.987-27.342-20.967-39.605-51.095-38.49-51.8.469-.235 2.992 2.996 8.038 9.573z"/></g><g class="C D E"><path d="M351.646 52.82c17.25 14.154 16.546 42.873 9.798 61.432-4.283 11.746-11.148 19.791-15.665 24.255l2.816 20.438c-4.987 2.29-12.146 4.698-20.888 5.109-22.883 1.116-39.253-12.274-43.712-16.15l12.146-40.759 2.347-16.855c2.523-18.676 2.405-19.674 3.52-22.728.469-1.233 7.51-19.146 23.88-22.317 13.202-2.467 24.115 6.225 25.758 7.576z" fill="#fff"/><path d="M365.845 100.627c.997 3.935 2.053 10.102 1.349 17.502-.469 4.933-1.291 13.507-7.451 21.788-6.63 8.927-15.549 12.334-19.363 13.567.294-.999.646-2.232.822-3.7.176-1.527.117-2.937 0-3.994l-12.204 6.637c-10.268-9.456-13.671-18.148-14.845-24.432-.938-4.933-1.525-13.978-3.696-30.539-.411-2.936-1.174-8.222-4.518-9.573-1.584-.646-3.696-.352-5.046.822-4.048 3.406.059 13.273-.821 13.567s-7.98-9.632-5.574-20.967c1.232-5.873 4.635-9.925 6.63-11.922 4.459 7.048 9.388 14.33 14.844 21.789 3.462 4.757 6.924 9.22 10.327 13.566 1.291.705 3.227 1.468 5.456 1.292 1.761-.176 2.347-.763 3.638-1.116 4.811-1.35 7.393 4.346 12.146 3.583 3.872-.646 4.224-4.816 8.507-4.933 2.054-.059 2.875.881 4.988.469 2.229-.646 3.813-2.173 4.811-3.406z" class="B"/></g><path d="M345.896 83.948c1.467 6.813 2.405 13.684 2.816 20.614.059.705-.763 1.057-1.349.763l-7.276-3.758c-.997-.529-.117-2.056.88-1.527l7.276 3.758c-.47.235-.88.529-1.35.764-.41-6.813-1.291-13.508-2.757-20.144-.176-1.116 1.525-1.586 1.76-.47z" class="B"/><path d="M355.284 90.995c-.746 0-1.35-1.525-1.35-3.406s.604-3.406 1.35-3.406 1.349 1.525 1.349 3.406-.604 3.406-1.349 3.406zm-22.766 0c-1.004 0-1.819-1.525-1.819-3.406s.815-3.406 1.819-3.406 1.819 1.525 1.819 3.406-.814 3.406-1.819 3.406z" class="C D E B"/><path d="M358.569 80.953c-1.114-2.055-3.579-1.586-5.397-.94-1.057.352-1.526-1.351-.47-1.703 2.582-.94 5.867-.998 7.393 1.762.528.94-.997 1.879-1.526.881zm-22.178-2.409c-2.758-2.643-6.983-2.408-9.329.764-.646.881-2.171 0-1.526-.881 2.992-4.053 8.39-4.581 12.087-1.116.821.763-.411 1.997-1.232 1.233zm43.066-8.398c-24.701 1.468-49.344 3.524-73.87 6.225-3.344.352-3.344-4.933 0-5.286 24.584-2.701 49.227-4.757 73.87-6.225 3.403-.176 3.403 5.109 0 5.286z" class="B"/><path d="M363.498 66.505c-.411-3.817-1.936-13.625-9.446-21.612-9.799-10.395-27.929-14.741-42.011-5.932-11.03 6.93-16.956 20.32-14.962 33.945l66.419-6.401z" class="B"/><path opacity=".69" d="M332.283 36.26c2.875 2.408 2.875 7.517 1.878 12.92-1.115 5.932-3.99 13.155-8.273 20.614l-28.867 3.406c-.411-2.114-.822-5.168-.47-8.809 0 0 .646-6.695 4.166-12.744 7.041-12.098 25.464-20.555 31.566-15.387z" fill="#363636"/><g class="F"><path opacity=".24" d="M302.125 105.208c2.171 1.174 4.342.881 5.105.704-1.878 3.583-7.686 15.681-4.87 31.303 2.699 14.859 11.5 23.845 14.551 26.723-3.814-.764-8.156-1.997-12.85-3.877a72.35 72.35 0 0 1-20.125-12.392l14.082-49.509c0 .294.235 4.992 4.107 7.048z"/><path opacity=".19" d="M323.835 74.434c-.705 2.995-1.291 7.517-.587 12.803 1.232 8.927 5.515 15.093 7.745 17.971l-4.049-1.292c-2.699-3.289-5.456-6.813-8.155-10.395-4.46-5.932-8.567-11.805-12.322-17.443l17.368-1.644z"/></g></svg>