<svg xmlns="http://www.w3.org/2000/svg" xmlns:xlink="http://www.w3.org/1999/xlink" width="42" height="42" fill="none" xmlns:v="https://vecta.io/nano"><g fill-rule="evenodd"><use xlink:href="#B" fill="url(#A)"/><use xlink:href="#B" fill="#1b1616"/></g><defs><radialGradient id="A" cx="0" cy="0" r="1" gradientUnits="userSpaceOnUse" gradientTransform="translate(6.27083 42.1458) scale(53.6655)"><stop stop-color="#ffb140"/><stop offset=".256" stop-color="#ff5445"/><stop offset=".599" stop-color="#fc2b82"/><stop offset="1" stop-color="#8e40b7"/></radialGradient><path id="B" d="M34.73 9.79a2.52 2.52 0 1 1-5.04 0 2.52 2.52 0 1 1 5.04 0zM21 28a7 7 0 0 1 0-14 7 7 0 0 1 0 14zm0-17.784c-5.956 0-10.784 4.828-10.784 10.784S15.044 31.784 21 31.784 31.784 26.956 31.784 21 26.956 10.216 21 10.216zm0-6.432l8.486.122c2.047.094 3.16.435 3.899.723.98.381 1.68.836 2.415 1.571a6.5 6.5 0 0 1 1.571 2.415c.287.74.63 1.852.723 3.899.101 2.215.122 2.879.122 8.486l-.122 8.486c-.093 2.047-.435 3.16-.723 3.899-.381.98-.836 1.68-1.571 2.415a6.5 6.5 0 0 1-2.415 1.571c-.74.287-1.852.63-3.899.723-2.214.101-2.878.122-8.486.122s-6.272-.021-8.486-.122c-2.047-.094-3.159-.436-3.899-.723-.98-.381-1.68-.836-2.415-1.571s-1.19-1.434-1.571-2.415c-.287-.74-.63-1.852-.723-3.899-.101-2.215-.122-2.879-.122-8.486l.122-8.486c.094-2.047.435-3.16.723-3.899.381-.98.836-1.68 1.571-2.415A6.5 6.5 0 0 1 8.615 4.63c.74-.287 1.852-.63 3.899-.723 2.215-.101 2.879-.122 8.486-.122zM21 0c-5.703 0-6.418.024-8.658.126s-3.762.457-5.097.976a10.29 10.29 0 0 0-3.72 2.422 10.29 10.29 0 0 0-2.422 3.72C.583 8.58.228 10.107.126 12.342S0 15.297 0 21l.126 8.658c.102 2.235.457 3.762.976 5.097a10.29 10.29 0 0 0 2.422 3.72c1.167 1.167 2.339 1.885 3.72 2.422 1.336.519 2.862.874 5.097.976S15.297 42 21 42s6.419-.024 8.658-.126 3.762-.457 5.097-.976c1.381-.537 2.552-1.255 3.72-2.422s1.885-2.339 2.422-3.72c.519-1.336.874-2.862.976-5.097S42 26.703 42 21l-.126-8.658c-.102-2.235-.457-3.762-.976-5.097-.537-1.381-1.255-2.552-2.422-3.72s-2.339-1.885-3.72-2.422C33.42.583 31.893.228 29.658.126S26.703 0 21 0z"/></defs></svg>