<svg width="78" height="72" viewBox="0 0 78 72" fill="none" xmlns="http://www.w3.org/2000/svg">
<path d="M52.6016 4.92556C51.604 4.92556 50.5701 5.10414 49.6088 5.38987C45.5641 6.65778 42.8616 10.1758 42.7528 14.3903C42.7165 15.426 42.7165 16.4975 42.7165 17.5332C42.7165 17.9976 42.7165 18.4619 42.7165 18.944C42.7165 19.1226 42.7165 19.319 42.7528 19.3726C42.7528 19.3369 42.9523 19.3369 43.1337 19.3369H57.1179C58.7865 19.3369 60.4552 19.3369 62.1239 19.3726C62.3234 19.3726 62.3959 19.319 62.3959 19.319C62.3959 19.319 62.4503 19.2655 62.4503 19.0869C62.4141 18.2476 62.4141 17.4082 62.4141 16.5689C62.4141 15.9082 62.4141 15.2653 62.4141 14.6046C62.4141 12.9973 62.0332 11.4794 61.3077 10.1401C59.5846 6.92565 56.2472 4.92556 52.6016 4.92556ZM41.2292 27.3015C40.9934 27.3015 40.7395 27.4087 40.5219 27.623C40.3223 27.8016 40.2316 28.0516 40.2316 28.3194C40.2316 28.873 40.667 29.3016 41.2292 29.3016C41.8096 29.3016 42.2631 28.873 42.2631 28.3194C42.2631 28.0516 42.1543 27.8016 41.9366 27.6051C41.7371 27.4087 41.5013 27.3015 41.2292 27.3015ZM63.9195 27.3015C63.6837 27.3015 63.4298 27.4087 63.2121 27.5873C63.0308 27.7837 62.9219 28.0516 62.9219 28.3016C62.9219 28.8552 63.3572 29.2838 63.9195 29.2838C64.4818 29.2838 64.9534 28.8552 64.9534 28.3016C64.9534 28.0337 64.8445 27.7837 64.6269 27.5873C64.4455 27.4087 64.1916 27.3015 63.9195 27.3015ZM30.5098 62.5352C30.5461 62.5352 30.5461 62.5888 30.5461 62.6424C30.4373 64.6603 30.3466 66.6782 30.2196 68.6783C30.2196 68.8569 30.2196 69.0176 30.2196 69.0891C30.2559 69.0534 30.4554 69.0534 30.5643 69.0534H74.5301C74.7296 69.0534 74.9472 69.0534 75.0016 69.0176C74.9654 69.0176 74.9654 68.8212 74.9472 68.6426C74.8565 66.964 74.4575 58.3743 74.4575 58.3743C74.3487 56.1599 74.2217 53.9098 74.1129 51.6776C74.0222 50.1775 73.9315 48.6775 73.8771 47.1774C73.7683 45.338 73.6413 43.463 73.5506 41.57C73.4599 39.8021 73.3692 38.0163 73.2786 36.2305C73.2241 34.6411 73.1335 33.0339 73.0791 31.4446C72.9884 30.0338 72.8977 28.623 72.8433 27.2301C72.7526 26.0693 72.6982 24.9264 72.6437 23.7657C72.6075 23.3906 72.6437 23.0156 72.6437 22.6406C72.6437 22.5513 72.6437 22.462 72.6437 22.3728H65.4249V22.712C65.4249 23.3192 65.4249 23.9443 65.4612 24.5514C65.4975 24.5514 65.5519 24.605 65.7514 24.73C67.275 25.5336 68.0005 26.8015 67.9823 28.4802C67.9279 30.5517 66.1142 32.2303 63.9376 32.2303C63.8288 32.2303 63.7019 32.2303 63.6112 32.2303C61.5072 32.0517 59.8022 30.1767 59.9111 28.1409C60.0018 26.6051 60.7273 25.4622 62.0876 24.8014C62.3778 24.6228 62.4685 24.5157 62.4685 24.1943C62.4141 23.6228 62.4322 23.0335 62.4322 22.5156C62.4685 22.3728 62.4322 22.337 62.4322 22.337C62.4322 22.337 62.3778 22.3013 62.2871 22.3013C61.7974 22.337 61.3258 22.337 60.8542 22.337H59.0586H52.3839C49.2824 22.337 46.1445 22.337 43.0249 22.3013C42.7891 22.3013 42.7347 22.3549 42.7347 22.3549C42.7347 22.3549 42.6984 22.3906 42.7347 22.587C42.7709 23.1049 42.7709 23.6585 42.7347 24.23C42.6984 24.4978 42.7891 24.605 43.0611 24.7121C44.5847 25.4979 45.3465 26.7658 45.2921 28.4087C45.2014 30.5517 43.4239 32.2125 41.2111 32.2125C41.1204 32.2125 41.0116 32.2125 40.8846 32.2125C39.8508 32.1232 38.8895 31.641 38.1821 30.8195C37.4747 30.0159 37.1301 28.998 37.2208 27.998C37.3296 26.5336 38.0733 25.4086 39.3973 24.7657C39.6875 24.5871 39.7782 24.48 39.7782 24.1585C39.7238 23.73 39.7419 23.3014 39.7419 22.8549V22.3906C39.7419 22.3013 39.7419 22.2835 39.7419 22.2835C38.3635 22.3192 36.985 22.3192 35.6428 22.3192H32.5957L30.6368 60.7316L30.6005 60.8744L30.5643 61.4459C30.6005 61.5887 30.6005 61.7673 30.6005 61.9102C30.6005 61.9638 30.6005 62.0173 30.6005 62.0888C30.6005 62.1423 30.5643 62.1959 30.5461 62.2316L30.5098 62.5352ZM28.6598 71.9999C28.1882 71.9642 27.7892 71.8213 27.5171 71.5356C27.2451 71.2677 27.1362 70.8927 27.1362 70.4463C27.1906 69.3569 27.2451 68.2497 27.3176 67.1604L27.4083 65.1603L27.372 65.0532L27.6985 59.3386C27.6985 59.3386 27.6985 59.3029 27.6985 59.2494L27.7892 57.1064C27.898 54.6242 28.0612 52.1419 28.1701 49.6954C28.2789 47.5346 28.4059 45.3737 28.5147 43.1951L28.7142 39.1771C28.8956 35.5698 29.0951 31.9625 29.2765 28.3552C29.3853 25.9086 29.5123 23.4799 29.6211 21.0334C29.6755 19.9084 30.2378 19.3905 31.3804 19.3548H39.3248C39.5061 19.3548 39.7057 19.3548 39.7601 19.3548C39.7238 19.319 39.7238 19.1583 39.7238 18.9797C39.7238 18.4976 39.7238 18.0333 39.7238 17.5332C39.7238 16.4975 39.6875 15.3903 39.7601 14.3367C39.9415 9.4079 42.3175 5.67559 46.8156 3.33621C48.5206 2.4076 50.3888 1.979 52.3839 1.979C53.0369 1.979 53.708 2.01472 54.3791 2.12187C58.5689 2.72903 61.7974 4.92556 63.9014 8.67572C64.8989 10.4079 65.3887 12.3366 65.3887 14.426C65.3887 14.9439 65.3887 15.4974 65.3887 16.0153C65.3887 17.0511 65.3887 18.0868 65.3887 19.1405C65.3887 19.319 65.4249 19.3369 65.4249 19.3369C65.4249 19.3369 65.4612 19.3905 65.6607 19.3905C66.8397 19.3548 67.9824 19.3548 69.125 19.3548H73.6413C74.9654 19.3548 75.4914 19.8726 75.5458 21.1941C75.6546 23.4442 75.7816 25.73 75.8904 27.9801L76.0718 31.641L76.4527 38.802L77.0149 49.5704L77.3595 56.7492C77.3595 56.7492 77.7949 65.4282 77.8855 67.4818C77.94 68.464 77.9944 69.4462 77.9944 70.4284C78.0306 70.9106 77.8855 71.2856 77.6135 71.5535C77.3414 71.8392 76.9061 71.9821 76.3801 71.9821C70.1589 71.9821 63.9739 71.9821 57.789 71.9821H28.6598V71.9999Z" fill="#2B2A29"/>
<path d="M41.2292 27.3015C40.9934 27.3015 40.7395 27.4087 40.5219 27.623C40.3223 27.8016 40.2316 28.0516 40.2316 28.3194C40.2316 28.873 40.667 29.3016 41.2292 29.3016C41.8096 29.3016 42.2631 28.873 42.2631 28.3194C42.2631 28.0516 42.1543 27.8016 41.9366 27.6051C41.7371 27.4087 41.5013 27.3015 41.2292 27.3015Z" fill="#2B2A29"/>
<path d="M63.9195 27.3015C63.6837 27.3015 63.4298 27.4087 63.2121 27.5873C63.0308 27.7837 62.9219 28.0516 62.9219 28.3016C62.9219 28.8552 63.3572 29.2838 63.9195 29.2838C64.4818 29.2838 64.9534 28.8552 64.9534 28.3016C64.9534 28.0337 64.8445 27.7837 64.6269 27.5873C64.4455 27.4087 64.1916 27.3015 63.9195 27.3015Z" fill="#2B2A29"/>
<path d="M2.03143 23.2689C1.74122 23.2689 1.08827 23.2689 0.652964 22.6617H0.616687C0.525998 22.6081 0.471587 22.5724 0.380899 22.5546C0.181384 22.4474 0.0544153 22.2331 0.0362776 22.0367V21.8938C2.21277e-06 21.7152 0 21.5545 0 21.3759C0 16.3043 0 11.2505 0 6.16098C0 4.92879 0.525998 4.37519 1.79564 4.37519H12.9322C14.0749 4.37519 14.6553 4.94664 14.6553 6.05383V6.42885C14.9818 6.10741 15.3082 5.78596 15.6166 5.50024L15.671 5.44667L15.7254 5.39309L17.7568 3.51801L17.8475 3.46444L18.0289 3.35729C18.1196 3.30371 18.174 3.268 18.2284 3.21443C19.6069 2.19652 21.1667 1.5715 22.7628 1.33934C23.5246 1.25005 24.3227 1.19648 25.1389 1.19648C26.3178 1.19648 27.6056 1.30363 29.0385 1.51792C29.6914 1.60721 30.29 1.6965 30.9429 1.78579C32.14 1.96437 33.4278 2.12509 34.6612 2.33939C35.3141 2.42868 35.9127 2.67869 36.4568 3.00013C37.6902 3.83945 38.3068 5.00021 38.3068 6.46456L39.3951 6.00026C40.2476 5.66096 41.1001 5.28595 41.9707 4.92879L42.8413 4.55377C45.3261 3.51801 47.8291 2.48225 50.314 1.46435L52.3998 0.535738L52.69 0.446448C52.8351 0.392874 52.9803 0.339301 53.1616 0.267869C53.5425 0.0892896 53.9778 0 54.4131 0C55.5195 0 56.5534 0.553597 57.0431 1.44649C57.8593 2.85727 57.5147 4.57163 56.1725 5.5181C54.5582 6.67886 52.944 7.82177 51.3116 9.01825C49.3164 10.429 47.3213 11.8398 45.3624 13.2863C43.458 14.6435 41.227 16.2507 39.0686 17.8758C37.7446 18.8937 36.1666 19.3401 34.2259 19.3401C34.117 19.3401 33.9538 19.3401 33.845 19.3401C30.5076 19.2508 27.1703 19.1437 23.8148 19.0723C23.3795 19.0365 22.9442 19.0365 22.4726 19.0187C21.6202 18.983 20.7495 18.9651 19.8971 18.9651C19.3348 18.9651 18.8088 18.9651 18.3372 19.0008C17.4666 19.0544 16.5779 19.233 15.671 19.4294C15.3264 19.5187 14.9636 19.5723 14.6371 19.6616C14.6371 20.3759 14.6371 21.0723 14.6371 21.7688C14.6009 22.6974 14.0205 23.3046 13.1136 23.3046C11.4449 23.3046 9.77623 23.3046 8.10756 23.3046H2.62997C2.46673 23.2689 2.03143 23.2689 2.03143 23.2689Z" fill="#2B2A29"/>
<path d="M25.8132 4.16523C25.5411 4.16523 25.2872 4.16523 25.0151 4.16523C24.1627 4.21881 23.2195 4.36167 22.2582 4.64739C21.17 4.93312 20.2993 5.6653 19.4106 6.43319C18.8846 6.91535 18.3586 7.41537 17.7963 7.89754C16.9257 8.70114 16.037 9.50475 15.1301 10.2905L15.0757 10.3441C15.112 11.8799 15.112 13.3978 15.112 14.9693V16.6479C15.384 16.5943 15.6017 16.5408 15.8737 16.4693C16.6718 16.3265 17.488 16.1479 18.3042 16.13C18.9753 16.13 19.6464 16.13 20.3356 16.13C21.6234 16.13 22.9112 16.13 24.1989 16.1658C24.9607 16.1658 25.6862 16.2015 26.448 16.2015H27.5907C28.7334 16.2372 29.9123 16.2372 31.0731 16.255C31.6898 16.2908 32.3065 16.3086 32.8869 16.3443C33.6124 16.3979 34.3561 16.4336 35.0816 16.4336H35.1723C36.0429 16.4336 36.7502 16.2372 37.3669 15.7907C39.0356 14.5585 40.7405 13.3085 42.4455 12.0941C44.6946 10.4869 46.9255 8.86187 49.1927 7.27251L52.4756 4.89741C53.2737 4.32596 54.0536 3.77236 54.8517 3.20091C54.9424 3.11162 54.9605 3.02232 54.9605 2.96875H54.8698L54.761 3.00447L54.6522 3.04018L54.5433 3.0759L50.553 4.75454L47.0706 6.21889C44.0597 7.45109 40.9401 8.75472 37.8929 10.0583C36.8047 10.5227 35.7164 10.7548 34.5737 10.7548H34.3742C33.3766 10.7191 32.3791 10.7191 31.3815 10.7191C30.7104 10.7191 30.0393 10.7191 29.3501 10.7191C28.6608 10.7191 28.0079 10.7191 27.3005 10.7191H27.1917H27.101C27.0466 10.7191 26.9922 10.7548 26.9196 10.7548C26.8289 10.7548 26.5931 10.7548 26.3573 10.5762C26.0127 10.3441 25.6862 10.0941 25.5049 9.7369C25.2147 9.09402 25.4504 8.41542 26.0671 8.05826C26.448 7.86182 26.8833 7.79039 27.1735 7.79039C28.3525 7.79039 29.4952 7.79039 30.656 7.79039H34.4105C35.1723 7.79039 35.789 7.21894 35.789 6.48676C35.789 5.7903 35.2085 5.21885 34.4468 5.16528C33.159 5.02241 31.8712 4.87955 30.6016 4.64739C29.0054 4.39738 27.4275 4.16523 25.8132 4.16523Z" fill="#FEFEFE"/>
<path d="M11.6806 20.2688V17.6437C11.6806 14.1793 11.6806 10.7506 11.7169 7.28613C9.68545 7.28613 7.70844 7.28613 5.67702 7.28613H3.06519V20.2688H11.6806Z" fill="#C92627"/>
<path d="M74.53 69.3391H53.0368H30.5642C29.9112 69.3391 29.9112 69.3034 29.9475 68.6784C30.0382 66.6604 30.147 64.6604 30.2377 62.6424V62.5353L30.274 62.1245H30.3102C30.3102 61.9281 30.3646 61.6959 30.3102 61.5174L30.3465 60.7673H30.3828C31.0357 47.8739 31.7068 34.9983 32.3417 22.0692H39.7237C40.0139 22.0692 40.0502 22.2121 40.0502 22.4442C40.0502 23.0157 40.0139 23.605 40.0502 24.1764C40.0865 24.6408 39.9051 24.8372 39.5242 25.0336C38.2727 25.6765 37.6197 26.7123 37.4928 28.0695C37.3477 30.0338 38.9619 31.8196 40.9208 31.9625C43.0973 32.1411 44.9111 30.5517 45.0018 28.4445C45.0562 26.9087 44.3307 25.6944 42.9159 25.0158C42.5713 24.8372 42.4262 24.6408 42.4444 24.2657C42.4806 23.7121 42.4806 23.1764 42.4444 22.6585C42.4081 22.1942 42.5532 22.0871 43.0248 22.0871H59.0585C60.1468 22.0871 61.1987 22.1228 62.2507 22.0871C62.6316 22.0871 62.7223 22.1942 62.7223 22.5514C62.686 23.105 62.686 23.6407 62.7223 24.1943C62.7586 24.6229 62.6135 24.855 62.1963 25.0515C60.9085 25.6944 60.2556 26.7837 60.1649 28.1766C60.0742 29.9981 61.5434 31.8196 63.5929 31.9804C65.6969 32.1589 67.6376 30.5696 67.6739 28.4802C67.7283 26.9266 67.021 25.7301 65.6243 24.98C65.443 24.8908 65.189 24.7479 65.189 24.605C65.1346 23.7657 65.1528 22.9264 65.1528 22.0871H72.8976C72.8976 22.6585 72.8976 23.2121 72.9339 23.73C73.0427 26.3015 73.2241 28.8731 73.351 31.4089C73.5253 34.6521 73.6661 37.9282 73.8056 41.174L73.8226 41.5701C74.004 44.9095 74.2035 48.3025 74.403 51.6419C74.5462 54.6562 74.6895 57.653 74.8327 60.6496L74.8383 60.7673C74.9834 63.3924 75.1104 65.9818 75.2555 68.5891C75.2555 69.3391 75.2555 69.3391 74.53 69.3391Z" fill="#C92627"/>
</svg>
