<svg width="32" height="24" viewBox="0 0 32 24" fill="none" xmlns="http://www.w3.org/2000/svg">
<path d="M30.1225 4.56886L30.1228 4.56996C30.4198 5.68461 30.5841 7.50215 30.668 9.13043C30.7494 10.7109 30.75 11.9889 30.75 12.0001C30.75 12.0088 30.7495 13.2878 30.6681 14.8699C30.5844 16.4982 30.4205 18.316 30.124 19.4309L30.1238 19.4316C29.9993 19.9009 29.7537 20.3292 29.4115 20.6736C29.0697 21.0177 28.6435 21.266 28.1757 21.3937C27.6819 21.5266 26.7021 21.6474 25.4046 21.7428C24.1411 21.8356 22.6765 21.898 21.278 21.9398C19.8815 21.9816 18.561 22.0025 17.5891 22.013C17.1034 22.0182 16.7053 22.0209 16.4289 22.0222C16.2908 22.0228 16.1831 22.0231 16.1102 22.0233L16.0274 22.0234L16.0066 22.0235L16.0015 22.0235H16.0003H16H16V23.2735L16 22.0235H15.9997H15.9985L15.9934 22.0235L15.9726 22.0234L15.8898 22.0233C15.8169 22.0231 15.7092 22.0228 15.5711 22.0222C15.2947 22.0209 14.8967 22.0182 14.4109 22.013C13.439 22.0025 12.1186 21.9816 10.7222 21.9398C9.3238 21.898 7.85927 21.8356 6.59602 21.7428C5.29853 21.6474 4.31905 21.5266 3.82572 21.3937C3.35789 21.2659 2.93178 21.0175 2.58997 20.6735C2.24777 20.329 2.00207 19.9007 1.87748 19.4314L1.87719 19.4303C1.58019 18.3156 1.4159 16.4981 1.33201 14.8698C1.29103 14.0743 1.27049 13.3545 1.26022 12.8335C1.25509 12.5733 1.25253 12.3633 1.25126 12.2192C1.25062 12.1471 1.25031 12.0915 1.25015 12.0543L1.25002 12.0127L1.25 12.0027L1.25 12.0005L1.25 12.0002V12.0002V12.0001V12L1.25 11.9998L1.25 11.9976L1.25002 11.9876L1.25015 11.9459C1.25031 11.9087 1.25062 11.8532 1.25126 11.7811C1.25253 11.6369 1.25509 11.427 1.26022 11.1668C1.27049 10.6458 1.29103 9.92595 1.33201 9.13044C1.4159 7.50215 1.58019 5.68461 1.87719 4.56996L1.87746 4.56897C2.00207 4.09976 2.24769 3.67149 2.58976 3.327C2.93137 2.98297 3.3572 2.73454 3.82478 2.60648C4.31029 2.47586 5.28188 2.35202 6.5761 2.24942C7.83709 2.14945 9.30645 2.07621 10.7228 2.02301C13.5537 1.91666 16.1309 1.89189 16.3197 1.89019L16.3202 1.89019C16.5083 1.89201 18.9253 1.91698 21.5954 2.02332C22.9313 2.07652 24.32 2.14969 25.5199 2.24943C26.7499 2.35169 27.6859 2.47502 28.1741 2.60654C28.642 2.73432 29.0682 2.98268 29.41 3.32678L30.2889 2.45363L29.41 3.32678C29.7522 3.67124 29.9979 4.09956 30.1225 4.56886ZM11.4767 13.0995C11.4767 15.69 14.2726 17.3162 16.5243 16.0355L18.4571 14.9361C20.7341 13.641 20.7341 10.3593 18.4571 9.06416L16.5243 7.96476C14.2726 6.68402 11.4767 8.31027 11.4767 10.9007V13.0995Z" stroke="black" stroke-width="2.5"/>
</svg>
