<svg xmlns="http://www.w3.org/2000/svg" width="50" height="38" fill="none"  xmlns:v="https://vecta.io/nano"><path d="M47.155 7.117v-.002a4.42 4.42 0 0 0-3.109-3.131c-.778-.21-2.265-.404-4.206-.564l-6.188-.354-8.152-.204-8.654.204-6.535.354c-2.041.161-3.584.356-4.358.564-.746.204-1.426.601-1.971 1.15s-.938 1.233-1.136 1.982v.001c-.467 1.752-.724 4.601-.855 7.145l-.112 3.185-.014.961-.002.258v.086.004.016.065l.002.258.014.961.112 3.185c.131 2.544.388 5.393.855 7.144v.002a4.42 4.42 0 0 0 1.137 1.982l-1.056 1.049 1.056-1.049a4.42 4.42 0 0 0 1.972 1.149c.78.21 2.319.399 4.346.548l6.451.308 5.765.114 1.813.014.498.002h.183.033.129l.498-.002 1.813-.014 5.766-.114 6.452-.308c2.027-.149 3.566-.338 4.347-.548a4.42 4.42 0 0 0 3.108-3.13v-.001c.466-1.752.722-4.601.853-7.145l.128-4.489-.983-11.633zm0 0c.467 1.752.724 4.601.855 7.145m-.855-7.145l.855 7.145m0 0l.128 4.489-.128-4.489zm-29.986 8.264c0 3.06 3.302 4.98 5.962 3.468l6.638-3.775c2.689-1.53 2.689-5.406 0-6.935l-6.638-3.775c-2.659-1.513-5.962.408-5.962 3.468v7.551z" stroke="#1b1616" stroke-width="3.723"/></svg>