<svg xmlns="http://www.w3.org/2000/svg" width="684" height="460" fill="none"  xmlns:v="https://vecta.io/nano"><style><![CDATA[.B{fill:#1b1616}.C{stroke:#1b1616}.D{stroke-width:3}.E{stroke-miterlimit:10}.F{fill:#3d3d3d}.G{opacity:.12}]]></style><g class="B C D E"><path d="M396.742 428l33.346-8.198c7.119.533 17.693.692 30.257-1.437 11.935-2.023 34.811-7.719 34.654-14-.104-4.152-10.312-7.133-27.168-12.084a260.28 260.28 0 0 0-26.75-6.281c-6.91 3.46-14.344 6.867-22.353 10.114-10.836 4.418-21.148 7.878-30.728 10.593L396.742 428z"/><path d="M368.824 417l33.657-8.198c7.186.533 17.859.692 30.54-1.437 12.047-2.023 35.137-7.719 34.978-14-.105-4.152-10.409-7.133-27.422-12.084a264.73 264.73 0 0 0-27-6.281c-6.975 3.46-14.477 6.867-22.562 10.114-10.937 4.418-21.346 7.878-31.015 10.593L368.824 417z"/></g><g fill="#fff" class="C D E"><path d="M311.096 319.344c-9.908 5.376-18.452 11.331-19.92 12.333-5.033 3.531-16.775 11.805-28.413 23.874-17.194 17.813-31.663 32.78-30.719 51.753.838 17.075 13.682 28.933 15.097 30.198 22.909 20.554 71.871 13.07 121.305-18.604l-5.295-28.248c4.404-.896 14.364-3.584 23.433-12.174 11.271-10.699 13.787-23.663 14.416-27.879a67.29 67.29 0 0 0-2.254-16.549c-4.98-18.762-16.828-30.62-23.118-36.048-16.304 2.846-40.837 8.59-64.532 21.344z"/><path d="M349.129 329.726c-10.136 5.459-19.163 11.652-20.061 12.282-13.092 9.08-22.331 17.793-28.613 23.776-22.436 21.414-38.379 35.953-36.267 53.588 2.058 16.953 19.11 27.187 20.535 27.975 9.978 5.773 20.114 5.93 28.244 5.511 36.531-1.89 77.498-17.373 93.916-24.039l-5.332-28.132c4.434-1.47 16.999-6.403 25.287-19.42 1.267-1.994 5.701-9.29 6.915-19.734.37-2.992.792-9.29-2.534-22.359-2.058-8.083-5.754-19.368-12.67-32.174-14.57 2.572-43.024 8.555-69.42 22.726z"/></g><g class="B"><path d="M343.997 410.756c19.554.474 39.054-2.477 57.554-8.749.948-.316.527-1.845-.422-1.529-18.394 6.272-37.684 9.224-57.132 8.697-1.001-.053-1.001 1.528 0 1.581z"/><path d="M338.885 405.221c1.318 2.266 3.321 4.058 5.745 5.059.949.369 1.739-.948.791-1.37-2.214-.949-3.953-2.424-5.166-4.48-.527-.896-1.897-.105-1.37.791z"/></g><g class="F"><path d="M372.23 365.867c-18.322 10.3-27.799 8.61-46.016 22.871-4.738 3.751-32.432 25.46-28.905 47.487.316 1.848 1.949 12.201 9.635 16.269 3.265 1.743 6.476 1.637 10.952 1.32 15.005-1.162 26.588-4.014 28.009-4.384 18.428-4.596 15.321-2.694 28.01-6.127 8.371-2.272 19.691-5.863 32.853-11.41l-5.265-27.678c3.844-1.796 9.109-4.807 14.479-9.666 3.896-3.539 15.005-13.575 17.532-29.422 1.369-8.504-.316-15.001-3.053-25.512-2.791-10.723-6.687-19.069-9.635-24.615-16.427 28.893-34.854 43.208-48.596 50.867z" class="G"/><path opacity=".11" d="M351.981 321.102c-.736-1.263-23.873 9.263-50.324 28.474-32.708 23.737-50.85 37.79-51.639 57.791-.894 23.316 31.026 42.79 32.393 41.579.736-.684-18.51-14-18.826-33.263-.21-12.58 7.783-22.527 21.876-36.79 36.021-36.475 67.414-56.265 66.52-57.791z"/><path d="M427.277 332c-2.445 9.606-7.492 23.804-18.543 37.791-23.538 29.715-56.958 36.577-66.734 38.213 1.647 1.583 3.241 3.378 4.888 5.278 8.82 10.556 13.177 21.851 15.461 30.718l43.303-14.937-6.642-26.337c4.57-1.848 12.008-5.595 19.022-12.72 2.922-3.009 9.988-10.345 13.283-21.957 4.781-17.206-1.913-31.879-4.038-36.049z" class="G"/></g><path d="M313.341 179.024c4.436.633 6.338 13.884 6.972 18.266 2.588 17.791-2.905 25.762-3.75 47.565-.687 17.316 2.482 18.108 1.056 26.555-2.113 12.353-11.884 28.191-46.585 42.55-2.588 2.798-7.184 7.18-13.839 9.978-13.996 5.912-32.377 2.851-34.859-5.649-.845-2.851-.053-6.81 1.901-8.658 3.169-3.062 8.029 1.32 16.057-1.584.422-.158 4.014-1.478 3.908-2.428-.052-.581-1.426-.792-3.063-1.003-7.447-1.056-9.666-.845-9.824-1.478-.264-1.056 5.44-4.699 12.834-6.81 5.705-1.637 13.416-3.062 22.923-2.587l24.93-28.033c-.792-12.036-.633-29.194 3.909-48.674 3.327-14.148 11.197-38.908 17.43-38.01z" fill="#fff" class="C D E"/><path d="M312.87 179.001c-6.428.105-12.23 25.923-13.432 44.243-1.516 23.178 4.495 30.411 0 44.613-2.979 9.398-10.505 21.488-30.732 32.47-15.941 13.463-26.551 14.888-33.554 13.199-4.286-1.003-9.617-3.801-12.021-1.426-2.038 2.007-1.098 6.97 1.045 10.349 5.122 7.866 20.54 5.966 29.321 2.851 8.153-2.904 13.537-7.973 16.62-11.404 7.161-1.954 23.885-7.603 37.788-23.548 13.537-15.522 16.725-32.047 18.345-41.023 6.22-34.159-5.54-70.483-13.38-70.324z" class="F G"/><path d="M393.189 148.904c18.743 3.946 32.958 19.781 39.118 34.354 6.792 15.993 2.843 28.514-.947 54.976-2.58 18.15-5.371 44.297-5.371 76.967-5.686 4.314-32.59 23.99-69.234 18.992-23.271-3.157-39.171-14.678-46.174-20.518a167.38 167.38 0 0 0 .948-37.247c-2.001-22.201-7.371-30.881-8.371-48.453-.632-11.1.315-27.462 8.845-47.979 4.791-3.262 11.583-7.576 20.059-12.1 26.325-14.047 42.805-22.833 61.127-18.992z" fill="#c92627"/><g class="F"><path opacity=".14" d="M374.845 172.784c4.889 13.002 11.797 37.103 8.13 66.912-6.111 49.523-37.304 80.125-46.975 88.899 7.758 3.065 23.806 8.139 44.265 5.813 23.116-2.642 38.951-13.319 45.594-18.392a395.48 395.48 0 0 1 2.232-53.858c4.57-40.908 12.806-55.654 4.038-78.116-2.072-5.339-9.034-23.203-26.623-31.448-4.623-2.167-8.821-3.118-11.743-3.594-1.063 3.753-3.508 10.465-9.459 16.596-3.295 3.488-6.749 5.708-9.459 7.188z"/><path opacity=".21" d="M433.239 192l-41.285 112.992L356 334.599c8.936.792 23.151.845 39.508-4.011 13.587-4.063 23.882-10.08 30.624-14.777-.157-5.594-.262-13.827 0-23.749.731-24.91 1.045-37.365 4.442-52.459 3.135-13.932 7.368-24.54 4.442-40.373-.575-3.166-1.254-5.647-1.777-7.23z"/></g><path d="M215.194 299.156a5 5 0 0 0-3.088 6.691l15.061 35.843a5 5 0 0 0 6.232 2.794l67.524-23.183c2.744-.941 4.114-4.011 2.983-6.682l-14.526-34.401c-1.005-2.387-3.666-3.613-6.133-2.824l-68.053 21.762z" fill="#fff" class="C D E"/><path d="M222.321 307.439c2.272 5.498 4.871 10.896 7.666 16.246.536.99 2.247.213 1.71-.777-2.737-5.177-5.213-10.456-7.49-15.84-.47-1.044-2.356-.672-1.886.371zm9.884 6.464l3.64 8.459c.246.512.786-.004.54-.516l-3.555-8.247c-.226-.545-.852-.241-.625.304zm2.653-1.327l3.641 8.46c.245.511.785-.005.539-.516l-3.555-8.248c-.226-.544-.851-.24-.625.304zm2.652 0l3.641 8.46c.246.511.786-.005.54-.516l-3.556-8.248c-.226-.544-.851-.24-.625.304z" class="B"/><path d="M420.407 170.032c7.137-.948 15.807 19.688 19.508 32.006 6.238 20.846 4.018 39.113 1.903 56.063-2.273 18.056-3.383 27.111-7.719 36.586-14.01 30.638-49.22 42.377-63.018 46.167-3.754 2.737-10.468 7.107-19.72 9.949-19.614 6.001-45.36 3.422-48.902-6.633-1.164-3.369-.053-8.001 2.643-10.159 4.494-3.58 11.208 1.526 22.522-1.896.581-.158 5.604-1.737 5.445-2.842-.106-.685-1.956-.895-4.282-1.158-10.415-1.211-13.534-1.001-13.746-1.738-.317-1.263 7.666-5.474 17.975-8.001 8.036-1.948 18.821-3.632 32.144-3.053l39.016-35.744c-.106-29.058 2.221-53.01 4.6-70.593 4.969-35.691 9.252-38.639 11.631-38.954z" fill="#fff" class="C D E"/><path d="M301.886 343.767c2.003 2.161 5.693 2.793 8.381 3.584 3.952 1.107 8.011 1.95 12.122 2.477 1.001.158 1.423-1.37.421-1.528-3.426-.475-6.851-1.107-10.224-2.003-2.899-.738-7.537-1.37-9.593-3.689-.685-.686-1.792.421-1.107 1.159zm.896-4.797c6.588 4.059 13.967 6.325 21.715 6.694 1.001.053 1.001-1.529 0-1.581-7.484-.317-14.547-2.53-20.924-6.483-.843-.527-1.687.843-.791 1.37zm2.794-3.689c7.378 3.742 15.39 5.692 23.664 5.692 1.002 0 1.002-1.581 0-1.581-8.011 0-15.759-1.845-22.874-5.481-.896-.474-1.686.896-.79 1.37z" class="B"/><g class="F"><path opacity=".15" d="M417.953 172.008c4.743 10.324 11.014 27.076 12.858 48.516 1.37 16.066 3.636 43.458-12.858 70.745-16.23 26.813-40.84 37.454-49.956 41.352-9.169 3.951-24.557 10.378-44.528 8.27-8.063-.842-14.597-2.844-19.129-4.582-1.001 2.212-1.95 5.373-.843 8.27 3.583 9.429 25.926 9.271 37.941 7.427 6.692-1 17.811-3.687 30.248-11.957 14.965-4.425 52.169-17.595 63.341-47.357 3.267-8.692 5.217-21.177 6.27-27.972 1.476-9.587 3.636-23.968 2.266-42.511 0 0-2.002-26.813-16.862-48.779-.685-1.054-2.266-3.266-4.585-3.424-1.792-.105-3.373 1.212-4.163 2.002z"/><path opacity=".09" d="M442.35 243.003c-1.584-.262-4.964 17.126-8.556 28.073C427.562 290.035 412.351 315.122 372 340c9.137-2.043 22.13-6.337 35.175-15.608 6.602-4.713 17.746-12.622 25.457-27.234 5.334-10.108 6.761-19.169 8.556-30.901 1.638-10.318 2.483-23.045 1.162-23.254z"/></g><g class="C D E"><path d="M296.891 72.845l-.788 36.651c-3.676 15.466 2.049 31.144 13.971 39.088 12.972 8.634 27.467 4.291 29.568 3.602.105 2.966 0 6.674-.788 10.858-.682 3.866-1.785 7.097-2.783 9.639 6.407 6.038 12.342 7.574 15.598 8.051 15.441 2.278 33.088-10.222 42.331-31.832-2.784-2.966-6.512-7.415-9.979-13.294-1.995-3.337-6.617-11.758-9.191-23.781-2.626-12.288-.052-13.93-1.995-22.934-2.206-10.275-8.561-21.927-17.174-27.807-14.496-9.693-38.865-5.402-58.77 11.758z" fill="#fff"/><path d="M294.502 114.32c-3.685 2.01-3.948 7.934-4.317 15.763-.368 7.3-.737 16.027 4.739 24.755 4.159 6.665 9.793 9.945 12.109 11.267 12.005 6.877 24.22 4.761 28.063 3.915l-7.318-3.016c3.001-.105 8.055-.687 13.373-3.491 5.476-2.856 8.582-6.665 11.215-9.997 3.106-3.914 8.003-11.161 10.793-22.111-1.369-2.38-6.634-12.007-3.896-23.856 1.527-6.559 4.844-11.055 6.897-13.436 3.212.212 4.95 1.534 5.634 2.169 3.528 3.227 3.949 9.839.421 16.081 1.527-1.111 5.16-4.179 6.897-9.575 1.843-5.606.369-10.314-.421-13.012-1-3.227-2.474-8.04-6.897-10.42-1.264-.688-3.264-1.534-5.634-1.322-7.581.74-9.161 12.959-18.006 24.227-6.634 8.41-20.271 19.941-33.697 18.407-10.109-1.163-14.953-9.098-19.955-6.347z" class="B"/></g><path d="M312.954 93.262c.632 8.328.738 16.708.263 25.035-.052.738.896 1.001 1.371.58l7.853-6.957c.738-.686-.369-1.792-1.107-1.107l-7.853 6.957c.474.211.896.369 1.37.58.475-8.328.369-16.708-.263-25.035-.106-1.054-1.687-1.054-1.634-.053zm-11.385 8.117c-.21-.58-.895-2.899.369-2.899.738 0 .738 1.265.738 1.739s0 1.265-.369 1.687c-.369.474-.896.105-1.054-.422s-.052-1.107 0-1.634c.158-1.001-1.37-1.423-1.528-.422-.264 1.686-.053 4.427 2.319 4.269 1.686-.106 2.161-2.108 2.161-3.532 0-1.475-.633-3.531-2.53-3.32-2.477.316-2.319 3.162-1.739 4.902.421 1.001 1.95.579 1.633-.369z" class="B"/><path d="M302.676 100.904c-.369-.422-.369-1.16 0-1.634l-1.265-.158c.422.58.528 1.423.053 2.002l1.265.159c-.158-.264-1.265-1.792-.369-1.845-.105 0 0-.158-.053.105 0 .211.053.475.053.738 0 .158-.105.843-.369.685-.843-.579-1.634.791-.79 1.371.948.632 2.161 0 2.529-.949.369-.896.369-2.688-.579-3.268-.844-.527-2.003-.053-2.477.738-.633 1.107 0 2.319.632 3.268.264.369.896.58 1.265.158.896-1.107 1.054-2.688.211-3.9-.264-.369-.896-.58-1.265-.158a2.95 2.95 0 0 0 0 3.847c.685.685 1.792-.421 1.159-1.159zm29.568-1.687c-.527-.474-1.159-1.581-.211-2.055s1.107.791 1.107 1.423c0 .369.105 1.845-.527 1.845-.58 0-.896-1.213-1.054-1.582-.264-.949-1.792-.58-1.529.422.422 1.37 1.476 3.215 3.163 2.635 1.634-.527 1.686-2.951 1.423-4.322-.316-1.634-1.95-2.688-3.479-1.739-1.686 1.054-1.317 3.268 0 4.48.738.685 1.845-.422 1.107-1.107z" class="B"/><path d="M333.351 99.639c-.211-.685-.264-1.37-.106-2.055l-1.159.474c.369.211.369.896 0 1.107l1.159.474-.896-2.108c-.158-.369-.527-.685-.948-.527-.369.105-.738.58-.527.949l.896 2.108c.21.474.685.79 1.159.474 1.37-.843 1.37-3.004 0-3.847-.422-.264-1.054-.053-1.159.474-.211 1.001-.159 1.95.105 2.899s1.739.527 1.476-.422zm-34.048-7.852c1.687-3.11 5.85-3.531 7.959-.58.579.843 1.95.053 1.37-.791-2.793-3.847-8.38-3.689-10.699.58-.475.896.896 1.687 1.37.791zm27.67-.159c2.267-3.742 7.59-3.426 9.224.685.369.949 1.897.527 1.528-.422-2.161-5.376-9.118-6.061-12.122-1.054-.527.843.843 1.634 1.37.791zm-49.964-13.914c27.407 1.581 54.761 3.795 82.062 6.641 3.057.316 3.004-4.427 0-4.743a1644.09 1644.09 0 0 0-82.062-6.641c-3.056-.158-3.056 4.585 0 4.743z" class="B"/><path d="M295 74.507c.423-4.065 2.166-14.517 10.568-23.068 11.361-11.561 31.176-15.572 46.817-6.335 12.259 7.285 19.393 21.168 18.547 35.896L295 74.507z" class="B"/><g class="F"><path opacity=".11" d="M371.596 112c-.051.42-.718 3.938-3.798 5.513-1.591.787-3.079.787-3.798.682 3.131 4.095 15.963 21.841 11.908 43.577-1.078 5.67-3.08 10.448-5.133 14.228 3.388-2.153 7.802-5.46 12.113-10.343 5.339-6.038 8.367-12.075 10.112-16.276-3.234-4.147-6.775-9.24-10.112-15.383-4.362-8.032-7.134-15.593-8.982-21.788-.821-.052-1.54-.157-2.31-.21z"/><path d="M313.254 94L307 115.512l7 2.488-.746-24z" class="G"/></g><g class="B"><path opacity=".69" d="M329.64 42.058c-5.332 4.967-2.381 19.973 6.987 35.877L369.858 81c.362-4.65.414-13.685-4.71-22.351-8.748-14.742-28.935-22.668-35.508-16.591z"/><ellipse cx="236" cy="331.5" rx="5" ry="5.5"/></g><path d="M245.836 305.578c-.413.028-3.024-6.263-4.278-9.412.446-1.052 9.125-3.18 9.676-2.707s4.175 7.887 3.728 8.939-8.609 3.144-9.126 3.18zm14.145-3.814c-.413.028-3.388-6.137-4.643-9.286.447-1.052 8.734-3.126 9.286-2.653s4.049 7.541 3.602 8.594-7.728 3.309-8.245 3.345zm12.384-4.146c-.413.029-2.436-6.466-4.279-9.412.447-1.052 8.587-3.497 9.139-3.024s4.712 8.204 4.265 9.257-8.608 3.144-9.125 3.179zm-19.68 20.727c-.413.028-3.242-7.091-4.496-10.24.447-1.052 9.25-3.498 9.802-3.025s4.642 7.959 3.602 9.257c-.715.892-8.391 3.972-8.908 4.008zm13.048-4.808c-.413.028-3.025-6.263-4.279-9.412.447-1.052 9.125-3.18 9.677-2.707s4.174 7.887 3.727 8.939-8.608 3.144-9.125 3.18zm13.264-3.98c-.413.029-2.508-5.971-3.762-9.12.447-1.052 8.609-3.471 9.16-2.998s3.888 7.251 3.441 8.304-8.322 3.779-8.839 3.814zm-19.896 21.224c-.414.028-3.025-6.263-4.279-9.412.447-1.052 9.125-3.18 9.676-2.707s4.175 7.887 3.728 8.939-8.609 3.145-9.125 3.18zm13.48-5.141c-.413.028-3.979-5.969-4.642-9.286-1.326-.662 9.272-3.471 9.823-2.998s3.888 7.915 3.441 8.968-8.105 3.28-8.622 3.316zm13.048-4.144c-.413.028-3.024-6.263-4.279-9.412.447-1.052 9.126-3.18 9.677-2.707s4.175 7.887 3.728 8.939-8.609 3.144-9.126 3.18z" fill="#c92627" class="C"/></svg>