<svg xmlns="http://www.w3.org/2000/svg" width="588" height="441" fill="none"  xmlns:v="https://vecta.io/nano"><style><![CDATA[.B{fill:#1b1616}.C{fill:#6d6c6c}.D{fill:#fff}.E{stroke:#1b1616}.F{stroke-width:.578}.G{stroke-miterlimit:10}.H{fill:#c92627}]]></style><g fill="#e8e8e8"><path d="M83.937 374.923c18.081.809 36.162 1.213 54.243 1.176.698 0 .698-1.102 0-1.102-18.081.037-36.162-.368-54.243-1.176-.698-.037-.698 1.066 0 1.102zm110.434-.367h177.024c.699 0 .699-1.102 0-1.102H194.371c-.735 0-.735 1.102 0 1.102zm155.746-90.037v16.096c0 .698 1.103.698 1.103 0v-16.096c0-.699-1.103-.699-1.103 0zm-25.357 18.558h53.471c.698 0 .698-1.102 0-1.102H324.76c-.699 0-.735 1.102 0 1.102z"/><path d="M336.74 303.371v13.928c0 .699 1.103.699 1.103 0v-13.928c0-.735-1.103-.735-1.103 0zm27.563-.294v12.275c0 .698 1.102.698 1.102 0v-12.275c0-.698-1.102-.698-1.102 0zm-17.457 15.288h40.903c.698 0 .698-1.102 0-1.102h-40.903c-.698 0-.698 1.102 0 1.102zm-30.833 66.849h90.295c.698 0 .698-1.103 0-1.103h-90.295c-.698 0-.698 1.103 0 1.103zm124.472-9.519H554.08c.698 0 .698-1.102 0-1.102H440.485c-.698 0-.698 1.102 0 1.102zm-366.36 18.816h90.883c.698 0 .698-1.102 0-1.102H74.125c-.698 0-.698 1.102 0 1.102zm61.078 11.025h74.198c.699 0 .699-1.102 0-1.102h-74.198c-.735 0-.735 1.102 0 1.102zm399.914-174.452v13.267c0 .698 1.102.698 1.102 0v-13.267c0-.698-1.102-.698-1.102 0z"/><path d="M521.776 245.968h30.025c.698 0 .698-1.103 0-1.103h-30.025c-.698 0-.698 1.103 0 1.103z"/><path d="M526.003 246.299v6.247c0 .698 1.102.698 1.102 0v-6.247c0-.699-1.102-.699-1.102 0zm16.059.33v7.424c0 .698 1.103.698 1.103 0v-7.424c0-.735-1.103-.735-1.103 0z"/><path d="M534.271 255.486h20.838c.698 0 .698-1.102 0-1.102h-20.838c-.698 0-.698 1.102 0 1.102z"/></g><g class="B"><path d="M279.998 362.943c11.577-7.828 17.383-11.76 18.89-12.238 3.675-1.176 15.582-4.961 25.982 1.397 7.46 4.557 14.333 14.443 11.466 21.058-2.058 4.704-8.342 6.174-14.038 7.533-8.416 1.985-15.619.882-19.662-.073-1.58 1.543-4.116 3.601-7.68 4.961-5.917 2.279-12.753 1.874-13.083.515-.147-.699 1.323-2.058 8.452-4.851-.845-.919-2.095-2.022-3.859-2.793-5.218-2.389-10.437-.074-11.429.404 5.108 2.977 6.211 4.52 5.954 5.365-.662 2.132-11.062 2.83-13.855-2.058-.294-.477-1.103-2.131-.441-5.255 1.323-5.733 6.1-9.077 13.303-13.965z"/><path d="M330.419 371.101c1.176-2.425 6.468-1.837 8.526-1.617 2.646.294 4.998.552 7.13 2.426 1.617 1.396 3.969 4.447 3.124 6.909-.772 2.352-3.675 2.168-9.298 4.924-.956.478-10.143 4.998-9.518 7.975.257 1.213 1.911 1.176 7.166 3.418 4.557 1.911 7.24 3.087 9.481 5.659 1.103 1.287 3.308 3.822 2.72 6.395-1.103 4.741-10.952 5.549-11.209 4.814-.22-.625 6.689-2.352 6.762-5.586.074-2.462-3.785-4.447-6.211-5.733-7.129-3.712-11.943-2.389-13.818-5.953-1.065-2.022-.477-4.19-.367-4.594.551-1.985 2.095-3.675 9.628-7.46 6.873-3.455 9.923-4.263 9.886-5.807-.037-1.433-2.683-2.609-4.3-3.013-4.557-1.213-7.901 1.653-9.444.036-.662-.735-.625-1.984-.258-2.793zm-62.769-17.786l6.946 5.182 9.886-.956 6.174-5.99.551 5.439c1.286 12.238 1.397 13.303.625 14.7-2.536 4.52-11.099 6.358-16.023 3.197-2.389-1.543-3.308-3.859-5.035-8.305a48.6 48.6 0 0 1-3.124-13.267z"/></g><g class="D"><path d="M276.985 366.03c-.552 1.139-1.764 1.838-3.014 1.617-.33-.073-.477.478-.147.515 1.507.257 3.014-.478 3.638-1.875.147-.294-.294-.588-.477-.257zm5.108-.367c1.213 1.176 2.83 1.69 4.484 1.433.367-.037.183-.588-.147-.514-1.47.22-2.904-.258-3.969-1.287-.258-.257-.625.111-.368.368zm-1.948 3.491c-.11 0-.184-.037-.294-.037.037-.037.037-.11.074-.147.073.074.184.147.257.221 0-.074-.037-.111-.037-.184-.11-.331-.624-.184-.514.147.184.808.477 2.058-.515 2.462-.331.147-.183.662.147.515 1.323-.552 1.176-1.985.919-3.161-.184.037-.368.11-.515.147 0 .074.037.11.037.184.037.11.147.22.257.22.956-.073.184-1.396-.257-.624-.184.257.257.551.441.257z"/><path d="M279.778 369.411c.184.625.22 1.323.625 1.874.33.441.845.662 1.396.552.331-.074.184-.588-.147-.515-1.029.221-1.176-1.396-1.36-2.058-.073-.331-.588-.184-.514.147zm-1.764.514a6.97 6.97 0 0 0-3.344-.624c-.368.036-.368.588 0 .551 1.065-.074 2.094.11 3.05.551.331.147.625-.331.294-.478zm-.956.736c-.918.073-1.727.441-2.352 1.065-.257.258.147.625.405.405.551-.515 1.212-.846 1.984-.919.294-.037.294-.588-.037-.551zm5.255-.993a7.09 7.09 0 0 1 3.271-.441c.368.037.368-.514 0-.551-1.176-.11-2.315.074-3.418.478-.33.11-.22.661.147.514zm.736.993c.808-.11 1.58-.037 2.352.257.33.11.477-.404.147-.514-.809-.294-1.654-.368-2.499-.258-.368 0-.368.588 0 .515zm-8.673-6.248a1.69 1.69 0 0 1 1.764 0c.294.184.588-.294.294-.478-.735-.404-1.581-.404-2.316 0-.33.184-.036.662.258.478zm7.717-.735c.551-.294 1.176-.367 1.837-.294.331.037.515-.478.147-.514-.771-.111-1.543 0-2.241.367-.368.11-.074.588.257.441z"/></g><g class="B"><path d="M273.31 352.138l3.381-1.47c-.221-.147-.404-.294-.625-.477-.441 1.396-1.102 2.646-1.984 3.822-.221.294.147.735.477.624l3.749-1.396c.478-.184.294-.992-.221-.809l-3.748 1.397c.147.22.294.404.478.625.955-1.213 1.617-2.536 2.094-4.006.111-.368-.294-.588-.624-.478l-3.381 1.47c-.515.221-.074.919.404.698zm1.837-6.688c.772-.441 1.544-.735 2.389-.919-.147-.22-.294-.404-.478-.624a12.22 12.22 0 0 1-1.212 2.131c-.184.294.073.588.367.625.992.073 1.911-.184 2.683-.772.404-.331 0-1.029-.405-.698-.661.514-1.396.735-2.241.661.11.221.22.405.367.625.478-.698.882-1.396 1.213-2.131.147-.331-.11-.699-.478-.625a8.34 8.34 0 0 0-2.609.992c-.478.294-.073.992.404.735zm6.064 8.894c-1.213-1.213.882-1.911 1.102-2.977.221-1.25-1.249-2.426.405-3.381.477-.257.036-.992-.405-.698-.588.33-1.065.845-1.212 1.543-.221 1.176.808 1.874-.074 2.94-.404.515-.882.662-1.029 1.36s.147 1.286.625 1.801c.404.367.992-.221.588-.588z"/><path fill-rule="evenodd" d="M277.212 44.032c.385.061.629.317.788.738l-.248 44.291c0 .552-.359.971-.939.971l-58.017-.03c-.508 0-.82-.173-.82-.756L218 44.779c.01-.538.303-.767.796-.778l58.416.031zm-58.22 44.972l57.799.03.246-43.953-58.022-.03c-.222.271-.023 43.953-.023 43.953z"/><path d="M284.025 57.038L284 105.062c-.001 1.296 1.252 1.296 1.253 0l.025-48.023c0-.249-1.253-1.472-1.253-.001z"/><path d="M285.078 57.279l63.976.034c1.364 2.087 1.145-1.261.001-1.261l-63.977-.017c-1.147 0-1.61 1.245 0 1.245z"/><path d="M348.852 57.552l-.14 47.136c0 1.296 1.148 1.297 1.149.001L350 57.552c.001-1.296-1.148-1.297-1.148-.001z"/><path d="M284.928 106.019l63.553.016c1.29 0 1.291-1.271 0-1.272l-63.364-.033c-1.29-.001-.825 1.289-.189 1.289zM117.527 79h53.946c.703 0 .703-1 0-1h-53.946c-.703 0-.703 1 0 1zm20.011 4h53.95c.682 0 .682-1 0-1h-53.95c-.717 0-.717 1 0 1zm53.452 138.329h4.777c.699 0 .699-1.103 0-1.103h-4.777c-.698 0-.698 1.103 0 1.103zm8.93 0h12.201c.698 0 .698-1.103 0-1.103H199.92c-.698 0-.698 1.103 0 1.103zm21.425-.589h14.59c.698 0 .698-1.102 0-1.102h-14.59c-.698 0-.698 1.102 0 1.102zm-23.777 8.306h17.86c.699 0 .699-1.103 0-1.103h-17.86c-.735 0-.735 1.103 0 1.103zm8.599-4.153h20.838c.698 0 .698-1.102 0-1.102h-20.838c-.698 0-.698 1.102 0 1.102zM71.694 260.601h35.096c.698 0 .698-1.102 0-1.102H71.694c-.698 0-.698 1.102 0 1.102zm28.848 2.977h18.449c.698 0 .698-1.102 0-1.102h-18.449c-.698 0-.698 1.102 0 1.102zm16.06-4.484h18.155c.698 0 .698-1.102 0-1.102h-18.155c-.698 0-.698 1.102 0 1.102zm202.315-112.572h33.626c.698 0 .698-1.103 0-1.103h-33.626c-.699 0-.699 1.103 0 1.103zm-10.401 1.764h10.694c.699 0 .699-1.103 0-1.103h-10.694c-.735 0-.735 1.103 0 1.103zm2.058 2.976h35.978c.699 0 .699-1.102 0-1.102h-35.978c-.698 0-.698 1.102 0 1.102zm44.357-2.682h6.836c.698 0 .698-1.103 0-1.103h-6.836c-.735 0-.735 1.103 0 1.103zm-8.93 44.908h10.106c.699 0 .699-1.102 0-1.102h-10.106c-.735 0-.735 1.102 0 1.102zm-6.541 2.977h10.988c.698 0 .698-1.103 0-1.103H339.46c-.735 0-.735 1.103 0 1.103zm5.329 2.977h21.719c.698 0 .698-1.103 0-1.103h-21.719c-.699 0-.699 1.103 0 1.103zm13.707-3.565h6.542c.698 0 .698-1.102 0-1.102h-6.542c-.735 0-.735 1.102 0 1.102zM207.123 150.05h15.398c.699 0 .699-1.103 0-1.103h-15.398c-.698 0-.698 1.103 0 1.103zm11.209 3.16h22.748c.698 0 .698-1.102 0-1.102h-22.748c-.699 0-.735 1.102 0 1.102zm19.955-4.226h12.936c.698 0 .698-1.103 0-1.103h-12.936c-.698 0-.698 1.103 0 1.103zm113.664 86.132l-55.309 1.653c-.698.037-.698 1.14 0 1.103l55.309-1.654c.698 0 .698-1.102 0-1.102zm75.709 153.001v12.422c-29.4 11.649-35.39 15.802-34.949 17.309.11.367.882 1.47 16.317-.331 15.288-1.801 27.672-4.41 36.272-6.541l-4.557-25.468-13.083 2.609z"/></g><path d="M440.853 212.342c-.845 1.58-1.139 2.866-1.213 3.16-5.255 22.344-12.127 35.538-16.611 61.446-8.562 49.907-1.176 106.612-.477 111.941 2.352 1.029 6.872 2.572 12.642 2.352 5.071-.221 9.003-1.727 11.245-2.793-.845-16.28 0-36.383 5.623-58.543 6.872-27.158 15.582-36.162 23.41-67.914 5.806-23.52 12.531-50.899.918-59.02-8.893-6.321-29.73-1.691-35.537 9.371z" fill="#272727"/><g class="C"><path opacity=".2" d="M461.176 224.065c-5.88 26.828-11.356 55.419-15.987 85.664-4.373 28.445-7.644 55.677-10.069 81.549l11.098-2.316c-.477-11.429.037-21.168.772-28.628.882-9.261 3.124-30.833 12.128-52.369 1.176-2.756 2.683-6.1 5.145-12.384 4.152-10.401 7.166-19.294 8.526-23.484 6.394-19.992 9.591-43.181 10.584-50.825l-22.197 2.793z"/><path opacity=".19" d="M473.303 270.775c-14.406 18.779-21.131 35.794-24.512 47.223-3.087 10.401-4.447 19.588-6.211 31.495-2.499 16.905-3.454 31.164-3.858 41.307l7.239-1.801c-.404-14.222.588-26.386 1.801-35.868 1.47-11.245 3.161-24.291 9.041-39.984 2.131-5.696 3.16-7.313 8.011-19.624l8.489-22.748z"/></g><path d="M507.04 383.89l6.21 15.362c-17.272 10.988-25.431 17.382-24.512 19.257 1.139 2.315 16.06-2.279 44.762-13.708l-9.151-29.731-17.309 8.82z" class="B"/><path d="M492.854 212.782c9.004 8.232 8.71 19.772 9.849 38.882 0 0 2.793 47.003 12.165 84.782 2.352 9.445 6.615 24.108 14.516 41.675-1.323 1.69-4.925 5.806-11.246 7.974-6.468 2.205-11.98 1.029-14.038.478-11.246-19.183-19.22-35.537-24.365-46.856-23.851-52.259-25.762-79.784-25.762-94.154 0-14.773.257-32.487 11.245-38.403 8.269-4.447 20.397-.993 27.636 5.622z" fill="#272727"/><g class="C"><path opacity=".15" d="M467.35 218.405l13.193 47.811c12.274 41.969 25.615 81.622 39.616 118.813 1.36-.698 3.014-1.654 4.704-2.94 1.728-1.323 3.087-2.646 4.116-3.822a304.27 304.27 0 0 1-7.35-18.779c-4.226-12.091-11.098-34.325-14.663-63.945-3.418-28.445-5.145-42.667-4.998-51.634.11-7.387.772-22.417-8.783-30.502-1.985-1.654-3.932-2.646-5.292-3.234l-20.543 8.232z"/><path opacity=".22" d="M502.409 253.464c-1.69 17.089-2.242 39.984 1.874 66.444 4.153 26.607 11.687 48.327 18.486 64.129l6.284-5.218c-2.499-5.917-5.77-14.149-9.041-24.219-6.284-19.367-9.003-34.471-11.355-48.032a501.9 501.9 0 0 1-6.248-53.104z"/></g><g class="D"><g class="E F G"><path d="M330.346 78.535c-1.47.735-3.491 2.021-5.072 4.226-.845 1.139-1.874 2.646-2.021 4.778-.037.845-.147 2.683 1.029 3.895.331.368 1.213 1.066 5.549.919 3.859-.147 5.807-.221 6.799-1.249 1.911-1.985 1.213-5.733 0-7.975-1.911-3.565-5.659-4.447-6.284-4.594z"/><path d="M352.543 87.759c5.182 5.917 13.487 9.445 28.738 15.729 19.221 7.938 28.849 11.907 40.242 13.304 12.311 1.506 18.889-.074 21.168 3.932 2.976 5.182-4.006 14.884-11.209 23.005-5.366-1.176-10.915-2.646-16.648-4.557-31.421-10.4-54.133-28.701-69.053-43.916-1.874.404-5.072.808-8.71-.294-3.124-.919-7.534-3.271-7.276-5.145.33-2.278 8.305-2.683 8.783-2.719a46.44 46.44 0 0 1-9.702-5.439c-1.103-.808-7.424-5.476-6.652-6.946.662-1.286 6.395.478 11.797 2.132 4.924 1.507 8.342 2.573 12.091 5.145 3.601 2.425 5.696 4.924 6.431 5.77z"/></g><path d="M327.112 78.939c.882.992 1.066 2.315 1.837 3.344.662.919 1.617 1.58 2.61 2.132 2.976 1.654 6.137 3.014 9.187 4.52.515.257 1.176-.441.662-.882-1.581-1.36-3.271-2.572-5.035-3.675-.588-.367-1.176.588-.551.956 1.69 1.066 3.307 2.205 4.814 3.491l.661-.882-8.673-4.263c-1.359-.698-2.572-1.507-3.27-2.903-.478-.956-.735-1.874-1.47-2.683-.478-.441-1.25.331-.772.845z"/><path d="M329.978 82.798a22.41 22.41 0 0 1 4.778 2.83c.551.441 1.323-.331.772-.772-1.544-1.213-3.198-2.205-4.998-3.013-.662-.294-1.213.662-.552.956z"/><path d="M325.642 78.278c1.396 2.242 3.234 4.079 5.402 5.549.588.404 1.139-.551.551-.956-2.021-1.36-3.712-3.087-4.998-5.182-.367-.551-1.323 0-.955.588z"/></g><g class="B"><path d="M327.296 81.291c.735.992 1.543 1.911 2.462 2.719.661.588 3.565 2.683 2.058 3.749-.294.184 0 .661.294.478 1.029-.698.625-1.948 0-2.793-.478-.625-1.139-1.102-1.764-1.654-.956-.845-1.801-1.764-2.573-2.756-.22-.331-.698-.037-.477.257z"/><path d="M326.524 85.113c1.102 1.507 3.197 3.638 5.255 3.014.331-.11.184-.625-.147-.514-1.764.551-3.712-1.47-4.63-2.756-.221-.294-.699-.037-.478.257zm-1.617 2.572a6.53 6.53 0 0 0 5.035 2.719c.367.037.367-.514 0-.551a6.07 6.07 0 0 1-4.557-2.462c-.221-.294-.699 0-.478.294zm-1.176 3.308c1.727 1.801 4.594 1.838 6.321 0 .257-.257-.147-.662-.404-.404-1.507 1.617-4.006 1.58-5.513 0-.257-.257-.661.147-.404.404zm.367-12.789c4.08 2.683 7.02 7.203 12.128 8.085.331.074.514-.478.147-.514-5.035-.845-7.975-5.365-11.981-8.011-.33-.257-.588.221-.294.441z"/></g><g class="C"><path opacity=".2" d="M323.657 90.221c-1.323-1.801-.22-5.659 2.977-9.298l10.768 6.321c-.662 0-6.468.073-6.872 1.874-.074.294 0 .735.551 1.36a21.97 21.97 0 0 0 8.893 2.168c2.058.037 3.859-.221 5.256-.551 7.497 7.57 20.69 18.999 40.094 27.305a127.01 127.01 0 0 0 42.446 9.959l-.992 12.973c-16.648-4.41-39.212-12.789-61.63-29.621-7.644-5.733-14.185-11.649-19.771-17.346-5.145.845-8.343-.037-10.364-1.066-1.727-.882-2.83-1.984-5.108-2.168-1.507-.11-2.793.257-4.447-.551-.184-.074-1.249-.625-1.801-1.36z"/><path opacity=".14" d="M370.991 116.167c5.145 2.756 11.099 5.549 17.898 7.938 14.81 5.255 28.224 6.909 38.477 7.276l-.404 11.282c-10.658-2.499-24.035-6.872-38.22-14.81-6.799-3.785-12.679-7.791-17.751-11.686z"/></g><path d="M429.093 126.64c-2.095 4.741-2.205 8.673-2.389 15.729-.147 5.329.221 11.062 3.087 26.13 3.492 18.228 5.145 21.168 5.697 30.833a93.16 93.16 0 0 1-.699 17.897c4.631 2.536 12.385 5.99 22.528 6.762 17.934 1.36 31.201-6.541 35.758-9.555l1.69-34.655a185.68 185.68 0 0 0-6.137-22.638c-5.439-15.986-10.51-23.557-7.276-31.568 1.8-4.447 5.365-7.167 7.827-8.673-1.727-1.323-19.845-14.737-39.616-7.791-2.058.698-15.068 5.292-20.47 17.529z" class="D E F G"/><g class="C"><path opacity=".19" d="M449.489 109.074c5.513 8.82 8.6 16.611 10.364 22.05 0 0 8.636 26.24 2.315 61.446-1.36 7.497-3.785 18.155-8.563 30.356a38.43 38.43 0 0 0 6.542.845s3.859.184 8.195-.368c5.292-.698 14.369-3.528 25.064-8.967l.551-36.897a308.45 308.45 0 0 0-7.534-24.585c-4.961-13.929-8.452-20.47-5.586-27.379 1.874-4.52 5.696-7.313 8.673-8.93-3.895-2.573-11.098-6.579-20.947-8.122-8.122-1.25-14.811-.368-19.074.551z"/><path opacity=".11" d="M454.524 108.229c5.917 7.276 12.826 17.897 17.089 31.899 12.091 39.984-7.791 75.043-12.385 82.724 3.859-.037 8.379-.368 13.304-1.323 8.783-1.69 15.802-4.704 20.837-7.387l.551-34.361-10.069-34.361c-2.72-9.371-4.851-17.052-.846-23.189 1.948-2.977 4.668-4.631 6.726-5.586l-35.207-8.416z"/></g><g class="D E F G"><path d="M451.291 183L451 159.821 507 157l2 21.48-57.709 4.52z"/><path d="M446 180v-8.576L518.414 166l.586 10.592L446 180z"/><path d="M448 167.315l.837 12.685 66.581-5.458L516 163l-68 4.315z"/><path d="M442 177.495L444.039 228l75.626-8.381L522 170l-80 7.495z"/></g><g class="B"><path d="M446.88 183.824c11.356-1.507 22.712-2.573 34.141-3.234.514-.037.514-.845 0-.845-11.429.661-22.822 1.727-34.141 3.233-.514.074-.514.919 0 .846zm12.679 2.241l26.166-3.344c.514-.073.514-.882 0-.845l-26.166 3.344c-.515.11-.515.919 0 .845zm41.541 23.333c-.144 2.389-.144 4.815.072 7.204.036.531.863.531.827 0-.216-2.389-.252-4.815-.072-7.204.036-.531-.791-.531-.827 0z"/><path d="M501.392 209.522c4.371.109 8.707-.144 13.043-.723l-.388-.397c-.07 2.097 0 4.158.141 6.218.035.507.846.507.811 0a52.26 52.26 0 0 1-.141-6.218c0-.217-.176-.434-.388-.398-4.336.578-8.671.795-13.042.723-.564-.036-.564.759-.036.795z"/><path d="M501.384 216.993c4.503.067 8.932-.363 13.324-1.256.513-.099.293-.827-.219-.728-4.32.86-8.676 1.29-13.105 1.224-.512 0-.512.727 0 .76zm2.001-5.053c2.786.142 5.536.029 8.323-.312.513-.057.293-.681-.22-.624-2.677.34-5.39.425-8.103.283-.513-.028-.513.625 0 .653zm1.009 3.06a31.22 31.22 0 0 0 8.333-1.319c.471-.15.29-.809-.217-.659-2.609.809-5.326 1.229-8.116 1.319-.507-.03-.543.659 0 .659z"/></g><path opacity=".2" d="M512.773 163.905c.11 4.263-.11 9.335-1.213 14.957-2.719 13.818-9.261 23.778-13.708 29.4l9.078 12.018-27.673 3.197 4.41-50.458-1.47-6.615 30.576-2.499z" class="C"/><path d="M486.383 115.043c7.538-1.024 16.519 16.534 20.089 29.153 4.112 14.522 2.309 27.069.83 33.689-2.885 12.986-8.873 22.131-12.624 27.069.578 1.938 1.912 7.206-.288 12.985-3.246 8.45-12.046 12.51-12.732 11.742-.216-.256.217-1.317 3.643-5.304-.721.768-5.915 5.999-11.758 4.755-1.01-.219-2.272-.475-2.993-1.499-1.695-2.488 1.118-8.121 7.105-14.376-6.528 1.646-8.259 1.207-8.584.476-.83-1.756 5.843-6.731 8.259-8.56a64.24 64.24 0 0 1 8.981-5.633c6.167-12.985 5.843-23.118 5.302-27.873-.794-7.023-3.39-14.668-3.895-16.131-1.443-4.207-2.128-5.158-5.014-12.73-4.652-12.144-4.652-14.229-4.472-15.838.649-4.829 3.859-11.34 8.151-11.925z" class="D E F G"/><path d="M470.694 226.609c4.003-2.305 7.502-5.267 10.423-8.852.433-.549-.324-1.317-.757-.768-2.849 3.511-6.276 6.438-10.207 8.705-.613.293-.072 1.244.541.915zm3.535 2.451c3.967-2.085 7.357-4.975 10.098-8.559.433-.549-.505-1.098-.937-.549-2.597 3.438-5.915 6.182-9.702 8.157-.614.329-.073 1.28.541.951z" class="B"/><g class="C"><path opacity=".17" d="M483.353 116.799c-7.177 6.329 22.11 34.092 17.096 65.623-3.426 21.618-17.637 35.737-17.637 35.737-3.967 4.024-11.433 8.962-10.531 10.681.649 1.244 5.157.11 6.781-.402a17.33 17.33 0 0 0 6.383-3.621c-1.803 2.048-3.859 4.572-3.426 5.084.613.659 5.735-2.048 8.945-5.852 5.554-6.585 4.76-15.729 4.219-19.46a64.27 64.27 0 0 0 4.725-7.206c1.587-2.744 6.168-11.303 8.151-22.935 3.499-20.594-3.678-36.835-6.564-43.2-2.597-5.67-6.997-15.07-13.669-15.473-.866-.11-3.066-.219-4.473 1.024z"/><path opacity=".22" d="M507.663 173.862c-1.948 5.743-4.256 11.779-6.997 18.107-1.948 4.499-3.932 8.706-5.951 12.693-1.01 3.292-2.922 8.23-6.709 13.314-3.967 5.341-8.331 8.596-11.253 10.462.83.036 1.84-.037 2.958-.329 2.813-.659 4.688-2.232 5.626-3.183l-3.282 4.134c.866-.147 2.236-.403 3.751-1.098 7.935-3.621 9.594-13.461 9.702-14.119.289-1.792.469-4.865-.613-8.669a55.36 55.36 0 0 0 8.512-14.01c2.921-6.877 3.895-13.059 4.256-17.302z"/></g><path d="M420.641 91.728c-5.917 6.762-1.838 16.206-1.287 17.493 2.058 4.777 7.387 11.576 14.149 11.025 4.924-.441 8.048-4.594 8.82-5.697 5.439-7.827 3.638-22.785-5.549-26.643-5.072-2.132-12.054-.882-16.133 3.822z" class="H"/><g class="D E F G"><path d="M435.561 97.754c.257 2.904 3.307 3.528 5.365 8.306 1.47 3.454 1.47 6.835 1.213 9.261 2.389.22 6.799.331 11.797-1.58 3.932-1.507 6.688-3.675 8.342-5.182l-3.271-7.277c-5.88-12.825-6.835-13.928-8.268-14.479-5.733-2.168-15.656 5.549-15.178 10.951z"/><path d="M414.393 59.792c-1.25 1.764-2.021 3.932-2.132 13.23-.073 7.938.368 15.178 1.103 21.609l4.961-2.867c.735 1.801 1.985 4.263 4.116 6.652 4.226 4.741 9.371 6.358 11.65 6.946 2.389-.588 8.342-2.426 12.862-8.049 2.977-3.749 3.933-7.46 4.153-8.305 1.36-5.549.037-10.143-.661-12.054.882-.404 2.241-1.176 3.27-2.572 2.169-2.94 2.757-8.195.074-9.959-1.984-1.323-5.513-.551-8.159 2.168-.588-1.36-1.506-3.234-2.976-5.182-.368-.478-3.124-4.079-6.505-5.954-6.505-3.748-17.273-1.984-21.756 4.337z"/></g><path d="M411.71 71.332c-1.47-.257-4.189-1.029-5.476-3.271-2.205-3.785 1.029-9.555 1.838-10.988.661-1.213 2.425-4.116 9.922-9.371 5.697-4.006 8.563-5.99 11.65-6.946 10.952-3.271 20.984 2.389 22.859 3.454 3.932 2.242 6.431 4.667 8.415 6.578 3.051 2.94 6.468 6.321 10.29 10.217 9.813 12.715 13.267 24.329 14.664 31.274 1.58 7.865 3.197 15.876-1.507 20.58s-13.304 3.749-18.559 1.507c-7.313-3.124-10.437-9.739-12.862-14.847-4.116-8.747-4.374-17.126-3.969-22.565 3.675-1.066 5.549-4.52 4.704-7.129-.662-2.058-3.124-4.116-5.66-3.381-1.948.551-3.344 2.572-3.234 4.924a19.19 19.19 0 0 1-10.951-3.822c-3.271-2.462-4.925-5.402-5.697-7.019-2.021.257-6.063.992-10.143 3.932-3.417 2.352-5.328 5.182-6.284 6.872z" class="H"/><path opacity=".24" d="M436.039 78.35c4.41 5.329 5.806 10.952 5.806 10.952 1.433 6.321-.625 11.686-1.543 13.855l6.982-5.292 4.814 16.059c1.213-.11 3.712-.551 6.211-2.315 1.911-1.36 3.05-2.94 3.675-3.932-2.977-2.756-8.673-8.857-11.282-18.449-1.25-4.63-1.433-8.746-1.286-11.833 3.344-1.36 5.071-4.631 4.373-7.35-.515-1.984-2.536-4.373-5.145-4.006-2.168.331-3.969 2.462-3.932 5.072-1.654 0-5.55-.184-9.629-2.646-4.226-2.536-6.247-6.064-7.019-7.57.184 7.056 2.352 11.135 4.3 13.561 1.286 1.654 1.874 1.727 3.675 3.895z" class="C"/><g class="B"><path d="M418.95 76.807c-.404 1.47-.368 2.977.184 4.41.183.514.882.551 1.065 0 .441-1.323.441-2.719.037-4.043-.22-.661-1.286-.404-1.066.294.368 1.176.331 2.315-.036 3.491h1.065c-.477-1.249-.551-2.536-.183-3.822.183-.735-.846-1.029-1.066-.331zm-1.323-2.278c.955-.588 2.131-.478 2.94.294.514.478 1.286-.294.772-.772-1.14-1.102-2.904-1.323-4.263-.478-.588.368-.037 1.323.551.956zm3.969 9.334c.698 0 .698-1.102 0-1.102-.735 0-.735 1.102 0 1.102zm2.425-3.197v.11c0 .294.258.551.552.551s.551-.257.551-.551v-.11c0-.294-.257-.551-.551-.551a.54.54 0 0 0-.552.551zm.111 2.756c.698 0 .698-1.103 0-1.103s-.699 1.103 0 1.103zm-3.381 12.311c2.829-.514 5.292-2.021 7.129-4.263.331-.404-.257-.992-.588-.588-1.727 2.132-4.042 3.528-6.762 4.043-.514.11-.294.919.221.808z"/><path d="M426.484 90.955c.661.221 1.212.551 1.69 1.029.368.368.956-.22.588-.588a5.18 5.18 0 0 0-2.058-1.249c-.514-.147-.735.662-.22.808z"/></g><path opacity=".45" d="M449.379 42.887c4.667 6.468 10.657 15.619 16.354 27.305 6.027 12.348 10.437 21.646 7.019 25.321-4.52 4.888-20.139-2.867-22.638-4.153.514 3.344 1.801 8.673 5.586 14.001 1.911 2.683 5.255 7.424 11.429 9.629 3.712 1.323 7.019 1.249 8.306 1.139 1.727-.11 3.711-.257 5.88-1.433 0 0 2.829-1.507 4.74-4.594 2.904-4.704 1.36-11.062-.698-19.036-2.462-9.555-5.77-15.913-9.004-22.197-.808-1.544-1.764-3.344-3.307-5.439-1.544-2.131-2.683-3.271-7.46-7.864-7.093-6.872-8.196-7.864-10.327-9.298-2.352-1.617-4.447-2.683-5.88-3.381z" fill="#990900"/><path opacity=".43" d="M440.522 105.398c.294.846.956 3.234 0 5.88-1.433 3.933-5.402 5.256-6.027 5.439-4.52 1.47-10.216-.845-14.038-5.88.514 1.323 1.653 3.675 4.005 5.733 1.176 1.029 4.374 3.786 8.894 3.455.772-.074 5.733-.441 8.011-4.741 1.654-3.05 1.287-6.872-.845-9.886z" class="H"/><path d="M318.485 52.58c.348.282.406.803.042 1.063-.202.144-.421.263-.654.354a3 3 0 0 1-1.528.173c-.516-.076-1.002-.285-1.413-.607-.196-.154-.372-.332-.523-.528-.274-.354-.067-.837.347-1.006l.087-.036c.366-.149.778.05 1.089.294h0a1.38 1.38 0 0 0 1.353.199h0c.368-.143.82-.216 1.127.033l.073.06zM322 56a5.99 5.99 0 0 0-1.757-4.243 6.01 6.01 0 0 0-1.947-1.301 6 6 0 0 0-4.592 0 6.01 6.01 0 0 0-1.947 1.301A5.99 5.99 0 0 0 310 56h.855c0-.676.133-1.345.392-1.969a5.13 5.13 0 0 1 1.115-1.669 5.15 5.15 0 0 1 1.669-1.115c.624-.258 1.293-.392 1.969-.392s1.345.133 1.969.392a5.15 5.15 0 0 1 1.669 1.115 5.13 5.13 0 0 1 1.115 1.669c.259.624.392 1.293.392 1.969H322z" class="B"/></svg>