<svg xmlns="http://www.w3.org/2000/svg" width="610" height="469" fill="none"  xmlns:v="https://vecta.io/nano"><style><![CDATA[.B{fill:#fff}.C{fill:#1b1616}.D{fill:#3f3f3f}.E{opacity:.13}]]></style><g fill="#e8e8e8"><path d="M532.131 261.99h76.276c.91 0 .91-1.435 0-1.435h-76.276c-.91 0-.91 1.435 0 1.435z"/><path d="M552.947 261.655v22.203c0 .909 1.435.909 1.435 0v-22.203c0-.91-1.435-.91-1.435 0zm35.506-.719v-31.008c0-.909-1.435-.909-1.435 0v31.008c0 .957 1.435.957 1.435 0z"/><path d="M571.561 230.504h28.855c.91 0 .91-1.436 0-1.436h-28.855c-.909 0-.909 1.436 0 1.436zM552.66 58.187v26.797c0 .909 1.435.909 1.435 0V58.187c0-.909-1.435-.909-1.435 0z"/><path d="M530.313 87.04h51.776c.909 0 .909-1.436 0-1.436h-51.776c-.958 0-.958 1.436 0 1.436z"/><path d="M581.61 86.85v17.801c0 .909 1.436.909 1.436 0V86.85c0-.909-1.436-.909-1.436 0zM101.029 30.288h50.723c.909 0 .909-1.436 0-1.436h-50.723c-.91 0-.957 1.436 0 1.436z"/><path d="M149.646 30.145v13.782c0 .909 1.436.909 1.436 0V30.145c0-.957-1.436-.957-1.436 0zm-15.36-1.149V6.936c0-.909-1.436-.909-1.436 0v22.06c0 .957 1.436.957 1.436 0zM.682 177.77H35.71c.909 0 .909-1.436 0-1.436H.682c-.909 0-.909 1.436 0 1.436z"/><path d="M22.072 163.367v12.921c0 .909 1.436.909 1.436 0v-12.921c0-.909-1.436-.909-1.436 0z"/><path d="M13.65 164.083h18.662c.909 0 .909-1.436 0-1.436H13.65c-.957 0-.957 1.436 0 1.436zm210.742 301.712h46.8c.909 0 .909-1.436 0-1.436h-46.8c-.957 0-.957 1.436 0 1.436z"/><path d="M253.199 464.357V454.26c0-.909-1.435-.909-1.435 0v10.097c0 .957 1.435.957 1.435 0z"/><path d="M248.844 454.309h19.429c.909 0 .909-1.436 0-1.436h-19.429c-.909 0-.909 1.436 0 1.436zM1.782 440.622h46.8c.909 0 .909-1.435 0-1.435h-46.8c-.909 0-.909 1.435 0 1.435zm21.63-18.757v16.557c0 .91 1.436.91 1.436 0v-16.557c0-.909-1.436-.909-1.436 0zm0-2.154H4.701c-.909 0-.909 1.436 0 1.436h18.71c.909 0 .909-1.436 0-1.436zm498.574-21.198c-1.579-1.579-1.196-4.641 1.244-5.168 1.292-.287 2.537.527 3.781.67.957.144 1.962.048 2.584-.813.957-1.244.191-2.68.143-4.068-.095-4.354 5.073-4.067 7.657-2.536.574.335 1.196-.239 1.052-.813-1.244-5.982 5.599-10.097 10.289-6.126.717.575 1.722-.43 1.005-1.004-5.791-4.881-14.26.095-12.681 7.56.335-.287.717-.526 1.052-.813-2.201-1.34-5.024-2.01-7.369-.527-.861.527-1.627 1.34-2.01 2.297-.287.67-.43 1.292-.382 2.01.047 1.292.478 1.196-.479 2.441-1.053 1.387-1.148.765-2.632.43-.526-.143-1.005-.239-1.579-.191-1.196.048-2.297.622-3.063 1.483-1.674 1.867-1.244 4.498.431 6.173.622.67 1.627-.335.957-1.005zm9.331 1.435c-.526-4.354 6.604-4.402 8.614-7.417.526-.766.717-1.627 1.052-2.44.622-1.484 1.723-2.441 3.35-2.872 2.632-.669 5.36.527 7.752 1.532.861.335 1.244-1.053.383-1.388-4.402-1.818-10.336-3.206-12.777 2.153-.861 1.914-1.148 2.967-3.158 3.972-1.196.574-2.44.909-3.589 1.579-1.818 1.053-3.254 2.68-3.015 4.881.096.909 1.532.909 1.388 0zM325.504 260.794l2.871 7.226c.096-.288.24-.527.335-.814l-1.579 1.053c-.813-1.914-.478-2.393 1.053-1.531.909.574 1.34 1.818 1.531 2.823.431 2.297-.048 4.689-.813 6.891-.192.574.383.957.861.861 2.871-.574 4.02 2.871 3.446 5.024-.431 1.58-1.292 2.967-2.154 4.355-.478.766.766 1.483 1.244.718 1.532-2.393 3.302-5.36 2.249-8.327-.813-2.201-2.823-3.588-5.168-3.158l.862.862c.957-2.776 1.579-6.269.383-9.092-.814-1.867-2.68-3.302-4.786-2.68-1.627.478-2.44 2.105-1.675 3.685 1.292 2.631 3.542.861 5.216-.24.24-.143.431-.526.335-.813l-2.871-7.226c-.287-.813-1.675-.478-1.34.383zm-30.913-156.19c-2.01-1.196-.574-4.737 1.675-3.254 2.153 1.436-.718 3.876-2.105 2.201-.575-.718-1.58.287-1.005 1.005 1.1 1.34 3.206 1.244 4.45.144 1.436-1.292 1.053-3.398-.431-4.451s-3.636-.861-4.546.862c-.909 1.627-.287 3.828 1.292 4.737.718.431 1.436-.766.67-1.244z"/><path d="M491.107 4.291c-.956-1.347.695-3.39 2.216-2.782-.13-.087-.26-.217-.391-.304.826 1.434-.391 3.39-1.999 3.303.217.174.435.304.608.478l-.825-2.26c-.305-.782-1.565-.435-1.261.348l.826 2.26c.087.304.304.478.609.478 1.39.087 2.607-.782 3.216-1.999.478-.956.739-2.955-.435-3.564-2.564-1.26-5.215 2.564-3.694 4.694.478.695 1.608.043 1.13-.652zm-5.106 66.815c-.239-1.101.574-2.297 1.675-2.536 1.005-.191 1.914.622 2.153 1.531.623 2.153-2.201 3.158-3.541 1.675-.622-.67-1.627.335-1.005 1.005 2.489 2.775 7.274.048 5.743-3.493-.67-1.579-2.345-2.584-4.02-2.058-1.77.574-2.823 2.44-2.44 4.259.287.909 1.674.526 1.435-.383zM330.672 467.18c-1.818-.861-1.675-3.349 0-4.306 1.627-.91 3.158-.096 4.642.574 1.244.574 2.68 1.1 3.78 0 1.005-.957.814-2.441.861-3.685.192-4.833 4.881-3.876 8.088-2.68.861.335 1.244-1.052.382-1.387-2.823-1.101-6.747-2.154-8.996.622-.67.813-.861 1.77-.909 2.775-.048.67.239 2.154-.144 2.776-1.052 1.579-2.488.143-3.589-.335-2.105-.909-5.12-.67-6.412 1.531-1.1 1.866-.431 4.402 1.531 5.312.862.43 1.58-.814.766-1.197zm23.161-112.786c-1.436 17.562-.67 35.171 2.296 52.542.144.909 1.532.526 1.388-.383-2.919-17.227-3.684-34.741-2.249-52.159.096-.909-1.34-.909-1.435 0z"/><path d="M354.79 355.494c7.465 2.584 15.169 4.307 23.017 5.168 7.369.766 15.839 1.579 22.921-1.196.861-.335.479-1.723-.383-1.388-6.891 2.728-15.265 1.914-22.538 1.149-7.705-.814-15.313-2.584-22.634-5.121-.91-.335-1.245 1.053-.383 1.388z"/><path d="M366.179 357.454c-2.489-3.876-4.546-7.992-5.982-12.394-.67-2.105-1.244-4.211-1.675-6.364-.239-1.292-.478-2.584-.622-3.876 0-.144-.526-3.541.479-3.063.478.239 1.292-.191 1.052-.813-2.631-6.652-4.067-13.638-4.211-20.816l-.717.718c.383.143.717.287 1.1.43.479.574 1.388-.048 1.197-.718-.957-3.062-1.58-6.22-1.771-9.474-.048-.766.096-9.379.622-9.236.574.144.957-.383.861-.861-.909-5.408-1.339-10.911-1.1-16.366a65.15 65.15 0 0 1 .766-8.087c.382-2.44.574-5.407 2.488-7.178l-1.149-.143c4.02 7.56 6.269 15.839 8.327 24.07 2.009 8.087 3.78 16.269 5.311 24.5 3.111 16.988 5.073 34.167 5.934 51.441.048.91 1.483.91 1.436 0-.862-17.37-2.824-34.693-5.982-51.824-1.579-8.518-3.397-16.987-5.503-25.409-2.058-8.087-4.307-16.127-8.278-23.544-.24-.431-.814-.43-1.149-.143-1.627 1.483-2.105 3.445-2.488 5.503-.527 2.919-.909 5.933-1.101 8.9-.383 6.221 0 12.442 1.053 18.615l.861-.862c-2.775-.765-2.44 5.216-2.488 6.556-.191 4.69.526 9.379 1.914 13.877.383-.239.814-.478 1.196-.717-.622-.718-1.148-.957-2.105-.862-.383.048-.718.287-.718.718.144 7.274 1.579 14.404 4.259 21.199.335-.287.718-.527 1.053-.814-4.786-2.297-2.01 8.518-1.627 10.145 1.435 6.221 4.019 12.154 7.465 17.514.574.861 1.818.143 1.292-.622z"/><path d="M373.787 309.651c-.431-3.063-.526-6.173-.143-9.236.095-.765 1.914-9.762 2.823-9.379a.75.75 0 0 0 1.1-.622c.288-6.125 2.202-11.58 4.451-17.227 2.249-5.598 4.45-11.006 8.183-15.839h-1.005c2.727 3.111 2.392 7.848 2.536 11.724l.383 13.064c.095 8.565-.048 17.131-.431 25.696-.814 17.514-2.776 34.981-5.742 52.255-.144.91 1.244 1.292 1.387.383 3.111-17.992 5.073-36.224 5.886-54.504a440.59 440.59 0 0 0 .287-27.563c-.095-4.594-.191-9.187-.526-13.781-.191-3.015-.67-5.982-2.775-8.327-.24-.287-.766-.287-1.005 0-3.685 4.786-5.982 10.049-8.183 15.648-2.441 6.03-4.498 11.868-4.833 18.471.383-.191.718-.43 1.1-.622-2.919-1.292-3.876 4.929-4.259 6.604-1.052 4.498-1.148 9.044-.478 13.59-.048.957 1.34.574 1.244-.335zM356.8 408.132a71.86 71.86 0 0 0 46.034-.67c.861-.287.478-1.675-.383-1.388a70.83 70.83 0 0 1-45.269.67c-.909-.287-1.292 1.101-.382 1.388z"/><path d="M400.537 358.987l1.723 23.256c.526 7.896.717 15.887-.575 23.735-.143.909 1.244 1.292 1.388.382 1.292-7.704 1.196-15.456.67-23.208l-1.771-24.165c-.047-.91-1.483-.91-1.435 0z"/></g><path d="M145 420.421l29.334-15.63 18.472 2.82c15.122 2.103 39.479 5.497 70.297 6.405s53.931-1.052 62.736-1.912c21.199-2.007 34.024-4.732 44.504-7.552 9.523-2.581 17.371-5.401 22.969-7.552a105.69 105.69 0 0 1 15.17 6.405c3.111 1.625 5.982 3.298 8.518 4.971-8.996 2.581-21.103 5.879-35.507 9.225-30.34 7.074-53.596 10.42-58.478 11.137-27.898 3.967-67.665 9.559-117.672 3.776A390.01 390.01 0 0 1 145 420.421z" class="B"/><g class="C"><path d="M145 420.544l.764 5.765c3.583.969 8.838 2.352 15.334 3.736 12.42 2.675 25.031 4.52 41.511 5.765 60.858 4.612 109.487.507 109.487.507 24.314-2.075 47.912-4.197 78.389-12.775 11.465-3.228 20.827-6.503 27.515-9.039L416.424 408a232.56 232.56 0 0 1-8.026 2.998c-23.024 8.117-41.989 10.792-58.899 12.775-37.164 4.427-55.746 6.595-83.022 7.01-31.05.507-72.705-1.291-121.477-10.239z"/><path d="M144.287 421.386v4.594c0 .909 1.436.909 1.436 0v-4.594c0-.957-1.436-.957-1.436 0z"/><path d="M144.813 427.321c35.746 9.666 73.071 10.91 109.869 11.436 35.363.479 70.966-1.052 105.802-7.513 19.62-3.636 38.952-8.948 57.615-16.174.861-.335.478-1.722-.383-1.387-32.923 12.776-67.903 19.284-103.074 22.012-35.459 2.727-71.253 2.105-106.711-.048-21.199-1.34-42.206-4.115-62.735-9.666-.909-.287-1.292 1.1-.383 1.34z"/><path d="M418.099 414.065c.287-2.01.383-4.068.191-6.077-.096-.91-1.531-.91-1.435 0 .143 1.914.143 3.828-.144 5.694-.143.861 1.244 1.292 1.388.383zm-272.663 7.179c10.049-4.786 19.906-9.906 29.573-15.457.813-.478.095-1.675-.718-1.244-9.666 5.503-19.524 10.671-29.573 15.456-.861.383-.144 1.627.718 1.245z"/><path d="M174.625 405.115c57.088 10.863 116.425 12.873 173.992 4.642 15.312-2.201 30.53-5.599 44.694-11.915.861-.383.096-1.627-.718-1.244-12.729 5.646-26.319 8.948-40.052 11.101-13.973 2.202-28.09 3.542-42.206 4.451a543.68 543.68 0 0 1-86.039-1.388c-16.557-1.579-32.97-3.972-49.288-7.034-.909-.144-1.292 1.244-.383 1.387z"/><path d="M393.024 397.602a99.04 99.04 0 0 1 23.974 11.581c.765.526 1.483-.718.718-1.244-7.561-4.977-15.696-8.901-24.309-11.724-.91-.287-1.292 1.1-.383 1.387z"/><path d="M145.531 420.476c16.892 5.694 34.502 8.374 52.207 9.809 17.945 1.436 36.033 1.867 54.025 1.867 35.746 0 71.588-2.441 106.807-8.853 20.002-3.637 39.813-8.566 59.098-15.026.861-.287.478-1.675-.383-1.387-33.927 11.293-69.195 17.896-104.797 21.15-35.411 3.254-71.204 3.446-106.711 1.34-20.289-1.244-40.626-3.78-59.959-10.288-.765-.287-1.148 1.101-.287 1.388zm27.563-273.284c58.476-13.542 118.674-16.509 178.49-17.083l50.819-.144c.909 0 .909-1.435 0-1.435-60.007-.096-120.301-.144-179.877 8.135-16.749 2.344-33.353 5.311-49.815 9.139-.909.24-.526 1.627.383 1.388z"/></g><path d="M405.433 128.861c.622 22.221 1.005 47.979.861 76.604-.096 16.631-.239 8.698-1.723 77.896-.861 39.855-1.101 54.861-3.924 77.895-1.819 15.005-4.02 27.335-5.647 35.698l34.456 9.557c15.984 4.445 20.243 5.639 26.608 6.547 9.858 1.338 21.87 1.529 35.748-1.29 5.121-41.863 7.944-77.561 9.571-104.896 5.839-96.054.383-140.306-1.722-155.838-2.872-20.931-6.413-38.135-9.141-50.034-10.241 1.959-18.568 4.062-24.406 5.639-20.052 5.496-35.94 11.947-49.244 17.395l-11.437 4.827zM74.984 102l-1.185 13.541-13.082 164.443c-1.327 31.182-1.422 76.381 5.166 132.594.521 1.145 1.469 2.718 3.176 4.005 2.228 1.669 4.266 1.621 8.295 2.766 3.176.906 4.835 1.812 6.352 2.384 4.361 1.716 14.125 3.671 26.544 3.194 17.822-.715 31.52-6.198 41.568-10.346 9.433-3.862 16.969-8.01 22.183-11.157-2.939-26.557-5.119-54.592-6.351-84.01a1218.44 1218.44 0 0 1 5.166-171.213l-9.101-3.576c-6.446-2.623-21.898-8.964-49.105-22.314-10.759-5.245-24.22-12.063-39.625-20.311z" class="B"/><g class="C"><path d="M490 101l2.367 12.702c1.287 7.401 4.168 24.925 6.278 47.941 2.161 23.97 2.676 44.599 2.727 61.025.155 33.329-1.183 57.777-4.682 114.791L492.007 413l6.278-.382c1.029-7.927 2.419-19.721 3.499-34.141.823-10.41 1.184-18.002 1.544-26.168l2.727-52.286c1.235-30.13.978-53.289.772-74.108-.154-14.373-.617-27.982-1.544-55.2-.669-18.527-1.338-34.953-5.866-56.297-1.184-5.444-2.316-9.98-3.139-13.084L490 101zm-421.535 1l-1.357 7.423c-1.498 9.146-1.872 16.042-2.012 18.293-1.03 16.282-3.089 24.232-6.084 60.388l-1.825 24.04-3.182 49.038c-.655 14.989-.749 25.572-.889 46.739l.234 48.799c.374 13.792 1.123 32.516 2.948 54.832L67.623 415c-.047-2.155-.187-6.034-.468-10.871-1.123-21.502-2.948-30.217-3.37-48.128-.14-5.507-.047-9.146 0-14.366l.234-78.873c.562-39.7 3.183-70.731 5.429-97.166 2.106-24.998 4.493-46.404 6.552-63.165L68.465 102zm335.756 27.487c1.771 35.123 1.532 70.343 1.053 105.466-.526 34.358-.765 68.812-3.397 103.122-1.484 19.524-3.829 39-7.465 58.285-.192.909 1.196 1.292 1.387.382 6.365-33.736 8.709-68.046 9.762-102.308 1.101-34.98 1.579-70.056 1.532-105.084-.048-19.955-.383-39.909-1.388-59.863-.096-.91-1.531-.91-1.484 0z"/><path d="M405.992 129.487c26.558-13.159 54.743-22.634 83.838-28.233.909-.191.526-1.579-.383-1.387-29.19 5.646-57.519 15.217-84.173 28.376-.813.431-.095 1.675.718 1.244z"/><path d="M489.351 100.822c7.896 39.766 10.288 80.392 10.24 120.875-.095 40.484-2.488 80.871-4.45 121.306l-3.445 69.865c-.048.909 1.388.909 1.435 0l6.078-123.794c1.818-40.484 2.967-81.062.239-121.498-1.531-22.538-4.259-44.981-8.661-67.089-.24-.957-1.627-.574-1.436.335zm-94.7 295.826c2.153 2.488 5.981 2.967 8.996 3.876l12.394 3.732c8.326 2.489 16.605 5.12 25.027 7.226 16.461 4.02 33.353 4.833 50.053 1.962.909-.144.527-1.531-.383-1.388-16.461 2.823-33.113 2.01-49.288-1.962-7.704-1.866-15.264-4.259-22.825-6.556l-17.227-5.168c-2.01-.622-4.259-1.052-5.694-2.727-.67-.67-1.675.335-1.053 1.005z"/><path d="M490.308 100.871l5.359 1.292c.91.239 1.292-1.149.383-1.388l-5.359-1.292c-.909-.191-1.292 1.196-.383 1.388z"/><path d="M495.572 101.685c4.785 19.332 6.077 39.526 7.465 59.384 1.435 20.29 2.201 40.627 2.536 61.012.574 40.435-.814 80.871-3.111 121.258l-4.594 68.621c-.047.909 1.388.909 1.436 0 3.015-40.675 5.742-81.35 7.034-122.12 1.292-40.674 1.197-81.445-1.387-122.119-1.388-22.108-2.632-44.79-7.944-66.371-.287-.957-1.675-.575-1.435.335z"/><path d="M492.461 413.682l6.269-.574c.909-.096.909-1.531 0-1.435l-6.269.574c-.909.095-.909 1.531 0 1.435zM173.046 147.623a1285.65 1285.65 0 0 0-5.742 99.725c-.622 33.449.048 66.945 2.058 100.346 1.1 18.758 2.679 37.469 4.594 56.131.095.909 1.531.909 1.435 0-3.445-33.114-5.599-66.371-6.46-99.676-.861-33.449-.431-66.946 1.34-100.347a1380.4 1380.4 0 0 1 4.163-56.179c.144-.909-1.292-.909-1.388 0z"/><path d="M76.384 102.785c31.056 17.275 63.309 32.396 96.423 45.269.861.335 1.244-1.053.383-1.388-33.019-12.824-65.127-27.898-96.088-45.125-.814-.478-1.531.766-.718 1.244z"/><path d="M74.901 102.449c-5.312 40.484-8.996 81.206-11.006 122.024s-2.297 81.684-.957 122.502a1498.43 1498.43 0 0 0 3.876 68.716c.096.91 1.531.91 1.436 0-3.254-40.722-4.785-81.588-4.689-122.406.096-40.866 1.914-81.684 5.359-122.407 1.962-22.873 4.45-45.651 7.417-68.429.096-.909-1.34-.909-1.436 0z"/><path d="M66.766 416.6c26.654 14.499 58.572 11.389 85.656-.096 8.135-3.445 15.983-7.608 23.544-12.154.765-.479.047-1.723-.718-1.244-25.218 15.265-54.791 25.936-84.603 20.385-8.087-1.484-15.935-4.211-23.161-8.135-.766-.431-1.531.813-.718 1.244z"/><path d="M56.191 412.629c3.35 1.579 6.795 2.919 10.288 4.115.861.287 1.244-1.1.383-1.387-3.398-1.149-6.699-2.441-9.953-3.972-.861-.383-1.579.861-.718 1.244z"/><path d="M67.197 102.785c-5.168 40.1-9.475 80.296-12.298 120.636-2.775 40.148-4.115 80.392-3.254 120.636.479 22.777 1.627 45.555 3.589 68.237.096.909 1.531.909 1.436 0-3.445-40.244-4.45-80.631-3.493-121.019.909-40.244 3.685-80.44 7.656-120.54l7.8-67.998c.144-.862-1.292-.862-1.436.048z"/><path d="M68.01 103.789c2.776-.574 5.551-.766 8.422-.622.909.048.909-1.388 0-1.436-2.967-.143-5.886.096-8.805.67-.909.191-.526 1.579.383 1.388zm354.539 28.951c2.01 55.509 1.914 111.066-.383 166.575l-2.44 46.608c-.048.909 1.387.909 1.435 0 3.494-55.413 4.833-110.97 4.02-166.526l-1.196-46.657c-.048-.909-1.484-.909-1.436 0zm23.208-19.907c1.914 38.617 2.871 77.33 2.823 115.995a2344.28 2344.28 0 0 1-2.871 115.994l-4.115 65.51c-.048.909 1.388.909 1.436 0 2.966-38.569 4.976-77.186 6.077-115.851 1.053-38.665 1.196-77.377.383-116.042l-2.297-65.606c-.048-.909-1.484-.909-1.436 0zm27.85-8.517c2.68 40.148 4.307 80.392 4.738 120.683.43 40.436-.24 80.823-2.058 121.211-1.005 22.634-2.393 45.268-4.163 67.854-.048.91 1.387.91 1.435 0 3.063-40.148 5.073-80.392 5.886-120.636.814-40.387.527-80.822-.909-121.258-.814-22.634-1.962-45.268-3.493-67.902-.048-.909-1.484-.909-1.436.048zM417.62 363.867c-1.1 12.538-3.11 24.979-6.029 37.23-.191.909 1.148 1.292 1.388.382 2.966-12.393 4.976-24.931 6.077-37.612.096-.909-1.34-.909-1.436 0zM92.08 112.116c-5.742 40.148-8.183 80.727-8.566 121.258-.335 40.77 1.34 81.492 3.828 122.167l4.642 69.003c.048.909 1.484.909 1.436 0l-7.321-121.641c-1.579-40.483-1.818-81.062.526-121.545 1.34-23.017 3.541-46.034 6.795-68.859.191-.862-1.196-1.293-1.34-.383zm27.515 13.4c-3.636 38.808-6.077 77.76-6.89 116.76-.766 38.952.143 77.903 3.349 116.76 1.771 21.581 4.259 43.067 7.513 64.457.144.909 1.532.526 1.388-.383-5.838-38.569-9.188-77.521-10.432-116.521-1.244-38.473-.526-77.042 1.579-115.467 1.197-21.869 2.871-43.738 4.929-65.558.096-.957-1.34-.957-1.436-.048zm27.563 11.436c-4.69 36.224-7.417 72.687-8.135 109.199s.526 73.07 3.733 109.438c1.818 20.29 4.211 40.484 7.225 60.629.144.91 1.532.527 1.388-.382-5.407-36.081-8.853-72.401-10.336-108.817-1.484-36.32-.957-72.736 1.483-109.056a1006.2 1006.2 0 0 1 6.03-61.059c.191-.862-1.244-.862-1.388.048z"/></g><g class="D"><path opacity=".12" d="M463.078 108.032a398.98 398.98 0 0 1 11.158 75.53c3.623 72.421-13.574 131.592-28.548 169.573L414 403.504c10.289 4.401 25.553 9.519 44.585 11.05 13.139 1.052 24.539.096 33.427-1.339l1.788-36.211 5.796-121.882c.87-29.992.725-73.043-4.444-126.761L489.79 101l-26.712 7.032z"/><path d="M128.501 130.71l-5.319 22.537c-9.774 42.491-16.961 73.738-20.794 102.495-6.804 50.674-13.368 99.768 14.614 140.058 8.145 11.723 17.057 19.618 22.998 24.308-5.75 2.249-12.889 4.306-21.226 5.311-23.19 2.727-41.78-4.785-50.884-9.283a1171.27 1171.27 0 0 1-6.612-101.634A1179.11 1179.11 0 0 1 75.892 102l52.609 28.71z" class="E"/></g><g class="C"><path d="M77.698 79.248c-.626.475-.145 2.329.723 5.513l.867 2.804-1.108 7.699c-.771.095-2.747.523-4.578 2.091-1.687 1.473-2.361 3.184-2.602 3.944 1.542.143 3.421.475 5.445 1.093 2.939.903 5.252 2.139 6.939 3.184 0 .571.096 1.664.867 2.472.675.665 1.494.76 1.976.855l6.457 1.236 5.445 3.041c7.999 4.278 10.89 4.99 18.889 9.173 5.156 2.708 4.723 2.803 8.337 4.514 5.541 2.662 10.312 4.23 13.54 5.133 1.349-1.473 3.518-4.325 4.723-8.459.963-3.28.915-6.131.722-7.984.82.427 2.121.902 3.614.712 3.855-.427 6.313-4.752 7.084-7.841.674-2.709.048-4.42-.482-7.604-1.205-7.129-2.265-13.497.723-17.537 2.505-3.374 7.661-4.943 11.806-9.457.385-.428 1.108-1.236.867-1.616-.434-.713-3.807.523-5.445 1.236-1.06.475-9.011 4.087-11.42 12.261-.386 1.283-.434 4.99-.482 12.356-.049 5.371.048 8.412-2.121 10.171-1.108.903-2.746 1.425-4.24 1.093-2.217-.475-3.277-2.614-4.24-4.04-2.506-3.754-6.072-5.322-10.457-7.461-3.421-1.663-6.361-2.281-12.288-3.564-5.589-1.188-7.276-1.046-9.685-2.804-2.699-1.996-4.192-4.8-4.963-6.368-.771-1.473-1.976-3.802-2.506-7.129-.289-1.948-.241-3.327-.723-3.422-.867-.19-1.301 3.754-4.24 5.133-1.783.856-2.939.048-6.071.143-2.024.048-4.337.475-6.939 1.616-.867-.618-3.566-2.804-4.433-2.186z"/><path d="M80.165 95.225c-1.005-7.896 6.173-15.074 14.117-14.26 7.513.766 12.49 9.905 12.251 16.748-.048.909 1.387.909 1.435 0 .239-7.561-5.407-17.514-13.686-18.184-8.709-.718-16.653 6.986-15.552 15.696.144.861 1.579.909 1.436 0z"/><path d="M80.021 100.202c2.919 5.694 9.188 9.714 15.743 8.852 5.981-.813 11.054-5.646 11.963-11.628.144-.909-1.244-1.292-1.388-.383-.813 5.455-5.311 9.858-10.767 10.576-5.982.813-11.628-2.919-14.308-8.135-.431-.814-1.675-.096-1.244.718z"/><path d="M85.19 107.14c-.144-1.819 5.025-2.584 6.317-2.871 2.345-.527 4.737-.814 7.13-.814 4.45 0 8.709 1.149 12.49 3.493.765.479 1.531-.765.717-1.244-4.88-3.015-10.575-4.067-16.222-3.541a38.72 38.72 0 0 0-8.709 1.866c-1.531.527-3.35 1.197-3.206 3.111.096.909 1.579.909 1.484 0zm20.576-16.557c3.015 3.637 7.896 4.498 12.25 5.455 5.791 1.34 11.772 2.536 16.844 5.742 10.48 6.604 12.442 21.007 4.164 30.243-.623.67.382 1.723 1.004 1.005 7.37-8.183 7.561-20.72-.047-28.855-4.02-4.307-9.762-6.556-15.361-8.04-5.694-1.483-13.877-1.723-17.897-6.604-.526-.67-1.531.335-.957 1.053zm33.496 25.027c-2.392-3.158-6.603-4.259-10.288-2.728-4.546 1.867-4.785 7.465-4.259 11.724.096.909 1.532.909 1.436 0-.431-3.35-.479-8.518 2.967-10.192 2.967-1.484 6.843-.718 8.852 1.962.575.717 1.819-.001 1.292-.766z"/><path d="M125.96 123.937c-2.632-2.01-5.36-3.733-8.757-2.823-.383.095-.575.526-.479.861.861 3.35 6.125 4.737 8.901 5.934 4.259 1.866 8.613 3.445 13.015 4.833.862.287 1.245-1.101.383-1.388-3.541-1.101-6.986-2.297-10.432-3.733-1.866-.765-3.684-1.579-5.503-2.44-1.627-.766-4.546-1.675-5.024-3.589-.144.287-.335.574-.479.861 2.967-.813 5.408.957 7.609 2.68.766.622 1.483-.622.766-1.196zm-42.063-16.941c1.866 3.062 5.647 3.588 8.948 4.067 4.881.718 9.762.718 14.643.191.909-.095.909-1.531 0-1.435-3.924.431-7.848.526-11.772.143-3.302-.335-8.613-.526-10.623-3.684-.431-.814-1.675-.096-1.196.718zm-11.149-4.88c.622-3.349 3.541-5.072 6.795-5.216-.239-.191-.478-.335-.67-.526.239 1.148.574 2.249 1.053 3.302.335.861 1.723.478 1.388-.383a26.41 26.41 0 0 1-1.053-3.302c-.048-.287-.383-.526-.67-.526-3.828.192-7.465 2.297-8.183 6.269-.191.909 1.196 1.292 1.34.382zm8.326-14.836c-.718-2.058-1.244-4.211-1.436-6.412 0-.192-.048-.383-.048-.574-.048-.431 0-.383.191.144l1.292.957c.718.622 1.388 1.292 1.962 2.01.622.718 1.627-.335 1.005-1.005-.814-.957-4.211-4.881-5.647-3.35-.718.766-.191 2.536-.048 3.397.239 1.77.718 3.541 1.292 5.216.383.861 1.77.526 1.436-.383zm16.174-6.699l1.34-2.297.526-.957c.287-.478.287-.909.861-.766.67.144.431 1.723.431 2.297l.047 2.728c0 .909 1.436.909 1.436 0l-.048-4.45c-.048-.957-.383-2.01-1.435-2.345-.957-.287-1.627.335-2.106 1.053l-2.297 3.972c-.478.861.766 1.579 1.244.766zm45.843 31.297c.287 3.637 4.355 4.833 7.178 3.062 4.163-2.584 5.072-8.422 4.546-12.824-.718-6.029-2.154-11.628-.096-17.61 1.962-5.694 6.843-10.336 13.016-10.719.909-.048.909-1.483 0-1.436-8.422.526-14.164 7.704-15.361 15.648-.717 4.737.335 9.14.957 13.782.383 3.063.192 5.982-1.196 8.805-.622 1.196-1.483 2.392-2.632 3.158-1.77 1.101-4.833.766-5.024-1.818 0-.957-1.436-1.005-1.388-.048z"/><path d="M143.856 114.46c1.484 3.972 6.652 2.202 8.901-.095 3.685-3.733 2.871-9.954 2.584-14.691-.048-.909-1.483-.909-1.436 0 .192 3.015.479 6.269-.047 9.283-.24 1.436-.766 2.776-1.723 3.924-1.053 1.292-5.647 4.546-6.891 1.197-.335-.862-1.723-.479-1.388.382z"/><path d="M167.783 72.304c-5.455 2.105-10.958 5.072-13.16 10.815-2.536 6.604-.717 13.782-.861 20.625 0 .909 1.436.909 1.436 0 .143-5.982-1.292-12.107.143-18.041 1.579-6.508 6.987-9.762 12.825-12.011.861-.335.478-1.723-.383-1.388z"/><path d="M166.682 73.115c-5.024 2.297-9.618 6.317-11.963 11.437-1.244 2.68-1.053 5.647-1.053 8.566 0 3.732.144 7.512.431 11.245.048.909 1.483.909 1.436 0-.192-3.015-.335-5.982-.383-8.996-.048-3.158-.479-6.891.718-9.858 2.057-5.025 6.699-8.9 11.532-11.15.861-.383.144-1.627-.718-1.244z"/></g><g class="B"><path d="M82.988 90.439c1.34 2.345 4.737 1.531 5.072-1.053.048-.478-.67-.431-.718 0-.239 1.962-2.728 2.345-3.733.718-.239-.431-.861-.048-.622.335zm10.145-1.866c1.483 2.536 5.264 1.531 5.312-1.388 0-.479-.718-.479-.718 0-.048 2.249-2.823 2.967-3.972 1.053-.239-.431-.861-.096-.622.335zm-2.871 3.159c.335 1.388.048 2.775-.813 3.924-.287.383.335.718.622.383.957-1.292 1.244-2.919.909-4.498-.143-.431-.861-.239-.718.191z"/><path d="M90.549 91.684c-.144 1.818.861 3.541 2.536 4.307.431.191.766-.431.383-.622-1.435-.67-2.345-2.106-2.201-3.685 0-.478-.718-.478-.718 0zm-11.676 4.257c4.211-.335 6.891 3.111 9.714 5.647.335.287.861-.191.526-.526-2.967-2.68-5.838-6.173-10.24-5.886-.431.048-.431.766 0 .766zm7.848 8.424c5.407-3.446 11.82-4.594 18.088-3.207.43.096.622-.574.191-.67-6.46-1.387-13.064-.239-18.614 3.302-.431.192-.048.814.335.575zm13.59 6.553a16.59 16.59 0 0 0 12.059-4.019c.335-.288-.144-.814-.527-.527-3.254 2.776-7.273 4.115-11.532 3.828-.431 0-.431.718 0 .718zm-1.292-33.972a7.03 7.03 0 0 0-.67 5.79c.144.431.813.239.67-.191-.574-1.771-.383-3.637.574-5.216.287-.431-.335-.814-.574-.383zm-18.95 4.449c1.148.718 1.866 1.818 2.153 3.11.096.431.766.239.67-.191-.335-1.483-1.196-2.727-2.488-3.541-.383-.239-.718.383-.335.622zm25.314 7.657c.909 1.101 1.962 2.058 3.158 2.776.383.239.766-.383.383-.622-1.148-.718-2.201-1.627-3.015-2.68-.335-.335-.813.192-.526.526zm29.525 23.494c-1.005-2.536-5.838-.813-7.417.191-2.823 1.867-4.067 5.36-3.015 8.566.144.431.814.239.67-.191-.813-2.537-.143-5.264 1.867-7.13.861-.814 2.009-1.388 3.158-1.675.813-.239 3.589-.766 4.02.383.191.478.861.287.717-.144z"/><path d="M125.051 121.352c-3.733-1.579-7.705-1.722-11.581-.526-.43.144-.239.813.192.67 3.78-1.196 7.56-1.005 11.197.526.431.192.622-.526.192-.67z"/></g><path d="M256.501 320.371c-1.962 4.689-1.962 8.182-2.249 17.179-.335 11.101-1.292 22.155-1.388 33.209l-.622 41.823c15.313.862 32.253 1.053 50.628.144 17.514-.862 33.688-2.632 48.283-4.833-6.891-23.304-11.437-40.292-14.691-53.451-1.722-7.035-4.258-17.562-11.245-29.86a95.87 95.87 0 0 0-10.719-15.217c-.765-.67-17.657-14.883-37.181-8.183-.957.383-15.169 5.551-20.816 19.189z" class="C"/><g class="B"><path d="M284.686 348.268l9.571 17.084c.43.813 1.674.095 1.244-.718l-9.571-17.084c-.43-.813-1.675-.095-1.244.718z"/><path d="M284.303 347.98c7.37 9.188 11.628 19.667 13.925 31.152 2.154 10.862 3.541 21.868 4.355 32.922.048.91 1.483.91 1.435 0-.861-11.341-2.296-22.682-4.498-33.831-2.297-11.533-6.795-22.06-14.164-31.248-.574-.766-1.627.287-1.053 1.005z"/></g><g class="D"><path opacity=".19" d="M295.836 300.082c1.675 3.349 4.067 8.278 6.747 14.212 7.8 17.322 15.887 35.602 20.194 58.093 1.77 9.092 3.445 22.251 2.727 38.664 4.02-.191 8.279-.526 12.729-1.004s8.709-1.053 12.729-1.723l-5.503-19.189c-6.269-23.161-7.13-30.386-12.49-45.651-3.972-11.341-7.656-19.045-12.968-26.415-4.785-6.651-9.283-10.814-14.978-13.733-3.541-1.819-6.843-2.728-9.187-3.254z"/><path opacity=".11" d="M284.399 348.508c1.866 6.986 3.493 15.312 4.259 24.692 1.34 16.221-.383 30.051-2.488 40.387l16.461-1.005c-.574-10.862-1.819-20.002-3.015-26.941-3.015-17.657-6.173-24.213-8.709-28.424a60.76 60.76 0 0 0-6.508-8.709z"/></g><path d="M223.1 238.829c-1.579 1.053-2.536 3.062-4.403 7.034-1.531 3.254-2.249 5.79-3.397 9.571l-3.924 12.968c-1.436 5.407-4.02 14.882-5.455 27.371-1.388 12.107-1.101 21.438-1.053 23.687.526 14.212 3.015 24.788 4.69 31.583 2.966 12.202 6.938 22.347 14.834 42.588l4.163 10.432-3.254.431c-7.226.861-8.231.67-11.15 1.292-3.732.813-7.082 1.627-8.374 4.45-.574 1.292-.813 3.111-.095 3.733.909.765 2.679-.957 5.742-1.962 2.584-.814 4.881-.766 6.46-.527-1.244 2.441-1.962 4.642-2.393 6.221-1.052 3.637-1.866 6.604-.526 8.709.67 1.053 1.962 2.01 3.015 1.723.574-.144 1.1-.67 2.536-4.45 1.388-3.781 1.483-4.977 2.632-6.46 1.005-1.244 2.153-1.914 2.919-2.297-.383 1.196-.814 2.967-1.005 5.12-.096 1.292-.239 2.488 0 4.02.191 1.387.622 4.354 2.823 5.981.383.287 1.962 1.484 2.919.861.814-.478.574-1.818.909-6.125.287-3.636.574-4.641.814-5.216.622-1.674 1.579-2.871 2.297-3.588-.24 3.445-.192 6.316-.096 8.422.191 3.397.526 4.928 1.627 5.885.622.527 1.675 1.053 2.536.67s1.149-1.579 1.388-3.062c1.053-5.599.43-7.226 1.627-10.049.478-1.101 1.005-2.441 2.297-3.398 2.727-2.01 6.603-.813 7.13-.67 2.297.718 3.158 1.962 4.306 1.436.957-.431 1.484-1.818 1.532-2.967.048-2.823-3.063-4.977-5.743-6.747-1.339-.909-3.349-2.106-6.029-3.063-2.345-4.641-5.312-11.389-7.752-19.954-1.627-5.742-2.393-10.145-3.11-14.308-2.537-14.595-1.627-20.194-4.451-34.693a161.54 161.54 0 0 0-1.722-7.848l1.004-10.671c1.58-14.834 2.632-24.118 5.838-35.028 2.537-8.565 5.121-15.6 5.121-15.6 3.254-8.757 4.306-9.953 3.924-12.776-1.34-8.901-15.265-16.653-21.151-12.729z" class="B"/><g class="C"><path d="M219.415 243.375c-8.518 19.668-13.877 40.675-15.025 62.113-1.197 21.868 2.584 43.258 9.666 63.931 4.019 11.819 8.9 23.304 13.877 34.788.383.862 1.579.096 1.244-.718-8.613-19.906-17.035-40.1-21.055-61.442-3.972-21.055-3.158-42.828 1.436-63.74 2.584-11.723 6.316-23.16 11.101-34.166.335-.861-.861-1.627-1.244-.766z"/><path d="M237.264 270.699c-6.029 18.232-9.187 37.325-9.522 56.514 0 .909 1.435.909 1.435 0 .335-19.093 3.493-37.995 9.475-56.131.287-.861-1.101-1.244-1.388-.383z"/><path d="M222.717 318.504c4.259 5.933 5.982 13.015 6.986 20.098 1.053 7.225 1.532 14.547 2.585 21.772 2.105 14.691 5.55 29.334 12.489 42.493.431.814 1.675.096 1.244-.717-7.226-13.686-10.623-28.951-12.633-44.168-1.77-13.351-1.244-28.807-9.427-40.196-.526-.718-1.77 0-1.244.718zm5.025 85.033c-4.451.24-8.901.67-13.256 1.484-3.11.622-6.412 1.627-8.565 4.115-1.244 1.483-2.823 5.024-.096 6.029 1.196.431 2.249-.382 3.254-.957 2.488-1.435 5.072-2.919 8.039-2.105.91.239 1.292-1.149.383-1.388-2.44-.67-4.642-.096-6.843 1.005-.67.335-1.292.67-1.914 1.053-.383.191-.718.43-1.1.67-.431-.766-.91-1.532-1.34-2.297.095-1.197 2.488-2.584 3.349-3.063 2.345-1.244 5.073-1.675 7.657-2.057 3.493-.527 6.986-.862 10.479-1.053.91-.048.91-1.484-.047-1.436z"/><path d="M223.818 407.795c-3.781.622-6.891 3.206-8.327 6.699-1.531 3.637-2.823 9.044-1.052 12.777 1.34 2.823 4.641 3.828 5.885.383.766-2.154.623-4.498 1.388-6.652.957-2.68 2.584-4.976 4.977-6.556.765-.526.048-1.77-.718-1.244-2.249 1.484-3.924 3.494-5.024 5.934-.575 1.244-1.005 2.536-1.292 3.876-.24 1.101-.383 6.652-3.015 5.025-1.484-.91-1.627-3.829-1.579-5.312.095-2.201.67-4.737 1.387-6.843 1.197-3.541 4.02-6.077 7.705-6.699.957-.144.574-1.532-.335-1.388z"/><path d="M228.316 411.338c-2.967 1.914-4.02 6.077-4.307 9.427-.287 3.589.718 7.465 3.398 10.001 1.579 1.483 4.019 2.249 4.45-.527.718-4.641-1.149-11.197 3.924-13.972.813-.431.095-1.675-.718-1.245-1.818 1.005-2.967 2.632-3.685 4.594-1.005 2.871-.43 5.79-.861 8.757-.191 1.34-.574 2.776-2.058 1.388-.526-.479-1.005-1.101-1.387-1.723-.91-1.435-1.436-3.062-1.58-4.737-.335-3.35.527-8.709 3.589-10.719.718-.526 0-1.771-.765-1.244z"/><path d="M235.111 415.165c-.909 3.446-1.771 7.034-1.196 10.623.239 1.723 1.244 5.934 3.445 6.365 2.488.478 3.493-3.924 3.732-5.551.527-3.541-.143-7.8 2.632-10.528.67-.67-.335-1.675-1.005-1.005-3.349 3.302-2.201 8.087-3.206 12.298-.335 1.532-1.292 3.829-2.871 2.058-.861-.909-1.101-2.68-1.292-3.876-.478-3.35.335-6.699 1.196-9.953.192-.909-1.196-1.292-1.435-.431z"/><path d="M245.447 403.681c2.823 1.149 5.742 2.393 7.943 4.594 1.005 1.005 2.249 2.536 2.537 3.972.717 3.972-2.249 1.435-3.35.957-3.015-1.34-8.996-.383-10.719 2.68-.431.813.813 1.531 1.244.717.909-1.674 3.398-2.105 5.12-2.344 1.053-.144 2.249-.24 3.254.047 1.149.335 1.867 1.34 2.967 1.675 1.579.479 2.776-.622 3.015-2.153.431-2.488-1.723-5.264-3.398-6.891-2.344-2.249-5.359-3.493-8.326-4.689-.766-.287-1.101 1.1-.287 1.435z"/></g><path d="M235.781 255.242c-5.503.335-8.805 14.404-10.623 22.204-2.058 8.757-3.924 20.816-3.541 38.378.334 15.695 2.344 27.658 3.014 31.821 3.015 17.897 7.752 32.923 12.394 44.695l4.546 12.872-2.536 10.958c-1.053 4.977-2.01 9.858-2.776 14.547.91.096 2.154.048 3.015-.813 1.101-1.101.957-2.871 1.005-4.403.048-1.435.191-8.374 3.302-10.958 1.914-1.579 4.976-1.579 7.082-.813 2.153.813 3.11 2.392 4.546 1.914 1.101-.335 1.866-1.675 2.01-2.728.478-3.493-6.221-7.082-7.322-7.656-2.153-1.149-3.158-1.292-4.546-2.728-1.722-1.818-2.297-3.972-2.536-4.929-3.972-15.121-5.934-14.164-8.613-31.534-2.01-13.112-.718-12.346-2.776-22.778-1.435-7.369-2.632-10.384-3.014-16.749-.431-6.986.382-12.441 1.244-17.274 3.589-19.763 10.479-43.69 12.154-49.384-1.531-2.393-3.637-4.785-6.029-4.642z" class="D E"/><path d="M326.87 73.331c-1.484-.044-2.626 2.638-2.911 3.357-.428 1.054-1.093 3.113-.607 6.031 0 0 .292 2.009 1.28 14.161.246 2.727.304 6.699-.401 11.677-1.901 5.269-3.709 9.389-4.947 12.071-4.188 9.007-7.003 12.603-12.86 24.007-2.19 4.264-2.38 4.935-4.951 10.205-6.427 13.08-11.144 21.274-15.955 30.043-4.24 7.667-10.193 18.928-17.191 33.397-.332 1.245-1.99 7.9 1.901 13.729 4.13 6.162 12.751 8.916 21.07 6.216 1.288-1.822 3.099-4.65 4.765-8.339 1.618-3.593 2.376-6.37 2.898-8.142s2.613-7.759 6.841-19.828l6.226-16.908 9.127-24.188c3.757-9.484 6.612-16.047 12.226-28.79l10.755-24.001c2.437-1.394 5.781-3.556 9.362-6.675 5.157-4.463 7.732-8.25 12.69-15.441 3.195-4.698 5.625-8.819 4.945-12.933-.098-.574-.341-2.248-1.251-2.485-1.149-.332-2.579 1.968-4.153 3.982-1.622 2.062-4.056 4.748-7.685 7.532 1.235-3.448 2.472-6.131 3.329-7.904 1.952-4.025 3.573-6.613 4.566-11.065 1.089-4.74.082-5.599-.206-5.837-1.294-.954-3.491.87-4.785-.179-1.151-1.002-.152-3.206-1.062-3.73s-2.917 1.06-4.348 2.739c-2.481 2.877-3.048 5.654-3.951 8.336-.855 2.634-2.425 6.227-5.382 10.206-.717.097-1.674.148-2.106-.425-.48-.669.187-1.771.804-3.543.143-.431.048-.192 1.042-4.596l1.656-7.278c.805-3.591 1.184-5.075.414-6.653-.144-.335-.77-1.625-1.679-1.671-1.053-.045-1.862 1.632-2.481 2.925l-4.141 8.767c-1.664 4.55-3.895 11.494-4.224 13.888-.047.287-.14 1.292-.616 2.586-.237.623-.38.862-.523 1.246-1.19 2.683-.18 4.451-1.422 5.411-.143.096-.86.624-1.434.434-.623-.19-.912-1.003-1.254-3.729-.488-3.731-.204-4.833-1.069-6.457-.576-.716-1.297-2.102-2.302-2.148z" class="B"/><g class="C"><path d="M324.628 95.493c.326-3.494-.208-6.89-.409-10.383-.1-1.674-.104-3.397.131-5.073.141-.957.33-1.915.615-2.825.475-1.389.52-2.538 2.051-2.589 1.436-.051 1.342.81 1.585 2.006.241 1.052.292 2.153.343 3.205.099 1.483.151 3.014.489 4.449.339 1.483 1.251 2.724 2.925 2.194.86-.289.522-1.676-.387-1.387-1.673.483-1.544-5.164-1.642-6.121-.147-1.531-.295-3.11-.873-4.544-.818-2.008-2.687-3.008-4.261-1.138-2.052 2.398-2.472 6.706-2.464 9.672.01 4.211.834 8.324.462 12.536-.046.909 1.39.906 1.435-.004z"/><path d="M332.931 85.9c2.381-4.648 3.085-9.913 4.46-14.893 1.47-5.363 3.323-10.632 6.087-15.424.619-1.054 1.238-2.539 2.145-3.355 1.766-1.631 1.774 1.479 1.634 2.819-.28 2.968-1.038 5.984-1.7 8.905-.616 2.681-1.471 5.267-2.086 7.949-.331 1.484-.328 2.776.728 3.922.623.668 1.626-.339 1.002-1.007-1.2-1.289.038-3.876.417-5.265.427-1.58.854-3.16 1.185-4.74.662-2.921 1.325-5.889 1.748-8.905.235-1.58.563-4.356-.827-5.549-1.199-1.002-2.393-.042-3.204.917-3.482 4.363-5.621 10.111-7.331 15.379-1.947 6.082-2.552 12.879-5.504 18.581-.429.767.817 1.481 1.246.667z"/><path d="M344.534 75.966c1.436.14 1.96-.914 2.627-2.064l2.905-5.606c1.761-3.641 2.995-7.616 5.14-11.019.477-.767 1.048-1.725 1.813-2.301.62-.719 1.433-.961 2.486-.628.146.67.243 1.339.245 2.009.053 2.345-.706 4.691-1.514 6.895-1.616 4.359-3.424 8.67-5.184 13.029-.332.862 1.056 1.242 1.389.379.999-2.491 11.28-24.337 4.533-24.464-1.34-.044-2.867 1.634-3.631 2.545-1.336 1.582-2.288 3.403-3.145 5.272l-2.95 6.707c-.619 1.341-1.333 2.731-2 4.025-.428.862-1.473 3.832-2.67 3.739-.957-.045-.954 1.39-.044 1.484z"/><path d="M361.429 58.313c.52-2.777 3.539-.87 3.927.899.338 1.482-.232 2.967-.707 4.356l-2.377 6.179c-1.665 3.928-3.618 7.666-5.81 11.356-.476.815.769 1.529 1.246.715 2.049-3.403 3.859-6.948 5.477-10.541 1.379-3.114 3.046-6.564 3.564-9.962.329-2.154-.3-4.928-2.694-5.688-1.772-.57-3.684.536-4.014 2.355-.142.862 1.247 1.241 1.388.332z"/><path d="M358.714 82.389l5.392-6.187c.954-1.103 1.813-2.301 2.863-3.261l.955-.816 2.491.855c.24.43-.331 1.676-.474 2.059-1.472 4.55-3.614 8.862-6.14 12.888-5.1 8.1-12.118 14.913-20.336 19.862-.812.481-.043 1.723.721 1.243 10.225-6.151 18.625-15.168 23.909-25.853 1.286-2.587 2.523-5.318 3.33-8.095.474-1.628.756-3.83-1.113-4.687-1.82-.857-3.73.823-4.875 2.022-2.721 2.83-5.201 5.995-7.778 8.968-.572.671.435 1.674 1.055 1.002zm-35.333 11.622c.346 4.402.692 8.899-.015 13.303-.707 4.356-2.515 8.38-4.515 12.309l-51.578 98.323c-.428.815.818 1.529 1.246.715l51.34-97.94c2-3.881 3.856-7.857 4.659-12.118.945-4.836.597-9.716.202-14.596.046-.909-1.39-.906-1.339.003z"/><path d="M343.369 107.456c-15.232 32.386-28.5 65.534-40.186 99.347-3.421 9.818-6.842 19.637-10.981 29.17-.381.862.865 1.577 1.246.714 7.089-16.239 12.262-33.24 18.346-49.812 6.226-17.051 12.978-33.96 20.162-50.631l12.659-28.073c.38-.815-.865-1.53-1.246-.715z"/></g><g class="D"><path opacity=".1" d="M364.873 57.73c-1.962-.282-4.574 7.764-6.095 11.787-4.611 12.358-8.531 13.803-18.442 30.576-3.67 6.182-8.719 15.478-13.808 27.598l-45.648 96.92 11.184 13.658 7.935-22.559c6.13-17.003 14.067-38.891 25.293-65.526 4.472-10.538 10.657-24.766 18.606-41.487 2.198-1.393 5.255-3.554 8.597-6.529 4.489-3.935 10.409-9.262 14.455-17.933 1.285-2.683 2.902-6.802 3.749-12.212-.622-.285-1.532-.618-2.537-.424-1.722.339-2.627 2.016-3.342 3.167-2.764 4.266-6.825 7.099-7.352 6.766-.288-.239.522-1.628 2.712-6.132 4.475-9.247 2.615-6.802 4.378-9.916 1-1.773 2.001-3.307 1.661-5.268-.002-.861-.532-2.343-1.346-2.485z"/><path d="M362.036 90.374c-2.389 1.537-5.78 3.795-9.649 6.772-4.442 3.361-9.218 7.01-13.226 11.614-5.44 6.234-7.817 12.413-9.243 16.006-13.075 33.625-28.632 70.128-33.056 80.283-2.427 5.557-6.234 13.941-11.281 24.003l6.961 9.027c6.553-20.163 14.109-41.285 22.763-63.175 9.32-23.519 18.979-45.508 28.689-65.965 2.628-1.777 5.589-4.034 8.596-6.96a61.61 61.61 0 0 0 9.446-11.604z" class="E"/></g><path d="M241.332 214.185c-1.771 1.196-5.743 3.972-9.81 8.47-4.211 4.641-6.652 8.996-8.661 12.681-1.579 2.823-2.728 5.311-3.541 7.13 1.244 2.392 3.254 6.077 6.029 10.479 4.929 7.8 8.757 12.011 15.361 20.481 2.775 3.541 6.795 8.853 11.58 15.552.766 3.589 1.435 7.37 2.01 11.341a161.01 161.01 0 0 1 1.579 22.491 28.03 28.03 0 0 0 9.331 6.651c7.465 3.302 14.26 2.345 17.801 1.771 7.848-1.196 13.207-4.69 16.892-7.13 6.699-4.402 11.245-9.666 14.26-14.021-.622-7.465-1.436-15.169-2.44-23.16-.862-6.795-1.819-13.399-2.872-19.811-.095-5.025-.574-11.868-2.201-19.811-1.34-6.652-2.967-14.404-7.8-23.591-6.029-11.437-13.542-18.376-16.461-20.912-2.584-2.249-4.929-3.924-6.651-5.12-6.987 4.45-13.016 7.226-17.132 8.9-7.656 3.159-11.245 3.637-17.274 7.609z" class="B"/><g class="C"><path d="M220.085 242.657c1.484-5.647 5.599-10.911 9.14-15.504 3.733-4.786 7.944-9.14 12.968-12.634.766-.526.048-1.77-.718-1.244-5.168 3.589-9.522 8.04-13.351 12.968-3.684 4.738-7.847 10.097-9.379 15.983-.239.957 1.149 1.292 1.34.431z"/><path d="M219.033 243.137c9.857 17.226 21.533 33.401 34.788 48.187.622.67 1.627-.335 1.005-1.005-13.159-14.691-24.74-30.769-34.549-47.9-.479-.814-1.723-.096-1.244.718zm40.483-35.89c5.359-3.781 11.245-6.604 17.514-8.422.909-.24.526-1.627-.383-1.388a60.26 60.26 0 0 0-17.849 8.565c-.766.527-.048 1.771.718 1.245z"/><path d="M275.833 199.206c22.874 15.935 32.684 43.881 31.583 70.917-.048.91 1.388.91 1.435 0 1.149-27.611-8.996-55.939-32.3-72.161-.718-.527-1.435.718-.718 1.244zm-25.122 89.293c2.488 5.121 2.775 11.485 3.302 17.036.574 5.647.765 11.341.765 17.035 0 .91 1.436.91 1.436 0 .048-6.316-.239-12.633-.957-18.901-.574-5.312-.957-11.054-3.302-15.935-.431-.814-1.627-.096-1.244.765z"/><path d="M255.687 322.858c7.178 8.805 19.428 11.293 30.1 8.566 5.933-1.532 11.436-4.451 16.365-8.088s9.618-7.847 12.394-13.398c.431-.814-.814-1.532-1.244-.718-2.68 5.312-7.178 9.379-11.916 12.872-4.593 3.398-9.714 6.173-15.264 7.752-10.432 2.919-22.443.67-29.478-7.991-.526-.718-1.531.287-.957 1.005z"/><path d="M307.942 267.972c2.345 14.021 4.642 28.042 5.455 42.206.048.909 1.484.909 1.436 0-.861-14.308-3.158-28.472-5.503-42.589-.144-.909-1.531-.526-1.388.383z"/></g><g class="D"><path d="M261.334 205.332c5.312 6.269 12.585 16.031 18.663 29.238 8.9 19.332 10.671 36.033 12.01 50.245 1.053 10.815 1.627 25.888-.478 43.881 4.067-1.771 9.81-4.833 15.361-10.145 3.062-2.967 5.359-5.934 7.082-8.518l-4.738-40.1c.287-11.006-1.435-19.907-3.062-25.936-5.025-18.663-14.691-30.673-17.945-34.454a85.92 85.92 0 0 0-12.011-11.58l-14.882 7.369z" class="E"/><path opacity=".14" d="M296.984 222.082c-.861.239 1.149 8.039 3.063 19.571 0 0 2.919 17.514 3.541 34.454.43 11.198-.144 27.563-5.168 47.9a45.15 45.15 0 0 0 8.039-5.168c3.541-2.871 6.077-5.886 7.8-8.278-.622-19.285-2.249-29.286-3.78-34.932-.288-1.101-1.053-3.685-1.675-7.322-1.149-6.795-.575-9.714-1.197-15.36-.478-4.499-1.387-7.465-3.062-12.968-2.536-8.279-6.604-18.184-7.561-17.897z"/></g><path d="M240.662 135.468c-3.159 1.771-7.178 4.45-11.054 8.518-8.039 8.565-10.623 18.136-11.533 22.873-.717-.096-2.679-.239-4.259 1.005-2.344 1.818-2.392 5.407-1.483 7.513.335.766.814 1.388 1.818 2.632 1.197 1.483 1.962 2.392 3.207 2.919.526.239 1.722.574 3.445.191.526 1.579 1.388 3.781 2.68 6.317 1.674 3.254 4.211 8.087 9.283 12.298 1.483 1.244 3.78 2.871 6.891 4.354 1.148 1.484 3.254 4.594 3.493 8.805.479 7.417-4.929 13.59-10.049 16.318-8.901 4.737-18.567 0-22.108-1.771-1.914-.957-11.532-5.933-15.552-16.844-4.881-13.159 1.484-26.319 5.264-34.166 3.828-7.896 5.599-7.37 8.518-15.074 3.876-10.192 1.818-13.781 6.268-21.581 1.723-3.063 5.216-9.188 12.538-12.059 6.268-2.441 12.058-1.196 14.547-.479 2.057-1.244 5.694-3.014 10.288-3.014 10.91 0 17.897 10.336 19.572 12.824 4.976 7.322 2.344 9.571 6.795 19.859 5.598 12.968 11.054 12.202 16.078 24.357 2.441 5.933 6.508 15.743 2.01 25.122-4.642 9.666-15.217 12.49-16.557 12.825-2.44.622-8.996 2.249-15.552-1.244-.622-.335-8.853-4.834-9.523-12.538-.239-2.823.575-5.455.766-6.029 1.005-3.111 2.728-5.12 3.254-5.79 2.058-2.537 4.546-7.226 6.269-16.557.813-.048 2.153-.24 3.493-1.005 2.823-1.627 4.163-4.929 4.019-7.8-.047-.67-.239-4.498-3.014-5.79-1.149-.527-2.345-.383-3.015-.24l-26.797-26.749z" fill="#c92627"/><path d="M240.662 135.42c-5.312 3.11-8.997 6.556-11.341 9.092-7.8 8.47-10.289 17.322-10.815 19.38-.335 1.292-.574 2.345-.67 3.111-.526-.192-1.723-.527-2.919 0-1.818.813-2.201 3.014-2.393 4.115-.478 2.536.479 4.546.862 5.311.526 1.101 1.387 2.872 3.445 3.781 1.675.765 3.254.478 3.924.335.67 1.722 1.627 4.115 3.11 6.843 2.249 4.306 4.355 8.278 8.422 11.819 1.58 1.388 4.164 3.302 7.896 4.785.766 1.197 1.818 3.063 2.393 5.503.478 1.915.574 3.542.526 4.786 1.244.622 3.589 1.579 6.508 1.531 5.599-.096 9.283-3.589 10.145-4.45-.909-2.728-1.723-6.078-2.058-9.954a61.75 61.75 0 0 1-.191-4.976c1.483-1.579 3.301-3.828 4.785-6.843 2.632-5.216 3.062-10.049 3.11-12.872.67.095 2.01.239 3.446-.335 2.01-.814 2.919-2.584 3.445-3.589.144-.24 2.153-4.355.335-8.422-.431-.91-1.148-2.584-2.584-2.728-1.053-.096-1.914.718-2.249 1.053l-10.815-12.681c-4.45-5.216-7.273-8.47-12.011-11.82-1.722-1.244-3.254-2.153-4.306-2.775z" class="B"/><g class="C"><path d="M234.058 186.192c-.478 1.101 1.771 3.063 2.823 3.876 2.202 1.627 4.546 1.866 5.408 1.914 1.005.096 4.306.335 7.321-1.818.718-.526 2.728-1.914 3.493-4.498.527-1.866.383-4.45-.622-4.881-.765-.287-1.483.67-3.11 1.818-2.871 1.962-5.838 2.441-8.374 2.824-4.307.669-6.46-.192-6.939.765zm-15.169-11.054c1.723 7.178 4.498 14.212 9.092 20.05 4.067 5.216 10.097 10.24 17.131 9.57 6.508-.622 11.82-5.694 15.265-10.862 4.067-6.03 6.029-13.255 5.838-20.529-.048-.909-1.484-.909-1.436 0 .192 6.652-1.531 13.16-5.024 18.806-3.302 5.312-8.757 10.911-15.409 11.198-7.034.287-12.824-5.456-16.557-10.815s-6.029-11.532-7.56-17.849c-.192-.861-1.579-.478-1.34.431z"/><path d="M239.226 204.089a17.98 17.98 0 0 1 3.015 10.096c0 .91 1.435.91 1.435 0 0-3.876-1.1-7.56-3.206-10.814-.478-.814-1.722-.096-1.244.718z"/><path d="M242.911 214.76c5.838 3.35 13.398 1.723 17.37-3.637.574-.717-.67-1.435-1.244-.717-3.541 4.737-10.336 6.077-15.409 3.11-.813-.431-1.531.814-.717 1.244z"/><path d="M256.692 197.677c.048 4.354.718 8.661 2.106 12.824.287.861 1.675.479 1.387-.383-1.292-4.067-2.009-8.183-2.057-12.441 0-.957-1.436-.957-1.436 0zm-36.368-17.994c-.622.67-2.153.431-2.871.048-.574-.287-1.1-.718-1.531-1.148-.957-.909-1.723-2.01-2.201-3.206-.957-2.249-1.388-8.709 2.871-7.561.909.239 1.292-1.148.383-1.388-5.264-1.387-6.077 5.599-4.738 9.092 1.053 2.824 5.886 8.662 9.14 5.168.574-.67-.43-1.675-1.053-1.005zm48.092-16.749c.574-1.914 3.063 1.771 3.35 2.441.574 1.531.765 3.206.526 4.833-.383 3.254-2.967 6.364-6.556 5.455-.909-.239-1.292 1.149-.382 1.388 5.79 1.483 8.9-4.546 8.374-9.475-.239-2.153-1.101-4.929-3.158-6.077-1.34-.718-3.063-.527-3.542 1.005-.287.957 1.101 1.292 1.388.43zm-42.971-10.143a10.18 10.18 0 0 1 7.704-5.456c.909-.143.526-1.531-.383-1.387-3.685.526-6.843 2.823-8.566 6.125-.43.813.814 1.531 1.245.718zm22.107-7.37c4.02-.957 8.04 1.053 9.858 4.69.431.813 1.627.095 1.244-.718-2.105-4.259-6.891-6.46-11.484-5.36-.91.24-.527 1.627.382 1.388zm-10.431 5.886c.909 5.073 1.148 10.289.622 15.457-.192 1.579-.957 3.828-.24 5.407.766 1.723 2.824 3.206 4.116 4.546.622.67 1.674-.335 1.005-1.005l-2.584-2.68c-1.34-1.387-1.484-1.818-1.197-3.828.239-1.818.479-3.685.574-5.551.192-4.259-.143-8.517-.909-12.681-.143-.957-1.531-.574-1.387.335zm-6.03 12.299c-.718-1.149-1.053-2.393-.957-3.733 0-.287.192-1.531.431-1.579.143 0 .383 1.675.43 1.866a12.86 12.86 0 0 1 .144 1.915c0 .191-.048 1.77-.048.813-.048-1.388.048-2.775.096-4.163l-1.388.191a28.1 28.1 0 0 1 .383 4.498h1.436v-.574c0-.909-1.436-.909-1.436 0v.574c0 .91 1.436.91 1.436 0 0-1.627-.144-3.254-.431-4.881-.144-.813-1.388-.574-1.388.192-.048 1.531-.239 3.206-.048 4.737.096.718.431 1.388 1.244 1.532 2.393.478 1.675-4.211 1.484-5.36-.144-.909-.287-2.297-1.149-2.823-.717-.431-1.483 0-1.914.67-1.196 2.01-.526 4.976.575 6.795.335.813 1.579.095 1.1-.67zm22.108-2.537c-.718-1.148-1.053-2.392-.957-3.732 0-.287.191-1.531.431-1.579.143 0 .383 1.675.43 1.866.096.622.144 1.292.144 1.914 0 .191-.048 1.771-.048.814-.048-1.388.048-2.776.096-4.164l-1.388.192a28.09 28.09 0 0 1 .383 4.498h1.435v-.574c0-.91-1.435-.91-1.435 0v.574c0 .909 1.435.909 1.435 0 0-1.627-.143-3.254-.43-4.881-.144-.814-1.388-.574-1.388.191-.048 1.532-.239 3.206-.048 4.738.096.718.431 1.387 1.244 1.531 2.393.479 1.675-4.211 1.484-5.359-.144-.91-.287-2.297-1.149-2.824-.717-.43-1.483 0-1.914.67-1.196 2.01-.526 4.977.574 6.795.335.862 1.58.144 1.101-.67zm-29.19 6.938c.909 0 .909-1.436 0-1.436s-.909 1.436 0 1.436zm5.647 1.053h.191a.74.74 0 0 0 .718-.718c0-.383-.335-.717-.718-.717h-.191c-.383 0-.718.334-.718.717s.287.718.718.718zm-3.35 4.403c.909 0 .909-1.435 0-1.435s-.957 1.435 0 1.435zm27.18-6.173h.192c.382 0 .717-.335.717-.718s-.335-.718-.717-.718h-.192a.74.74 0 0 0-.718.718c0 .383.287.718.718.718zm5.264-3.541c.909 0 .909-1.436 0-1.436s-.909 1.436 0 1.436zm-.718 3.876h.192c.382 0 .717-.335.717-.718s-.335-.718-.717-.718h-.192a.74.74 0 0 0-.718.718c.048.383.335.718.718.718zm-22.778 19.667c-.765-1.101-2.009-2.68-1.483-4.116.622-1.627 2.584-1.387 3.876-1.196 1.579.239 2.871.526 4.402.048 1.245-.383 2.345-1.196 3.494-1.819 2.727-1.531 5.933-1.674 6.795 1.915 2.44 9.809-14.882 12.585-17.562 3.971-.287-.861-1.675-.526-1.388.383 3.302 10.576 23.783 6.652 20.194-5.072-.622-1.962-2.106-3.637-4.211-3.876-3.445-.335-5.695 3.11-8.996 3.349-2.441.192-5.408-1.674-7.37.623-1.77 2.057-.335 4.689.957 6.507.575.766 1.819.048 1.292-.717z"/><path d="M232.479 184.564c1.053 2.919 6.316 2.01 8.613 1.675 4.403-.67 8.422-2.584 11.82-5.408.718-.574-.287-1.627-1.005-1.005a22.15 22.15 0 0 1-8.518 4.499c-1.387.382-8.709 2.009-9.474-.096-.383-.909-1.771-.526-1.436.335zm8.518 21.007c5.598 1.436 13.063-2.105 16.222-6.747.526-.765-.718-1.483-1.245-.717-2.775 4.067-9.714 7.321-14.595 6.077-.909-.24-1.292 1.148-.382 1.387z"/><path d="M241.523 206.003c4.977 3.11 13.159-1.292 15.552-6.03.431-.813-.813-1.531-1.244-.717-2.01 4.019-9.331 8.182-13.59 5.551-.814-.527-1.531.717-.718 1.196z"/></g><g class="D"><path opacity=".2" d="M261.382 155.28c.335 1.723.765 4.45 1.053 7.752.67 8.805 1.818 23.544-7.083 33.353-1.914 2.106-5.981 5.838-13.494 7.944 2.393-.096 5.312-.383 8.47-1.196a30.45 30.45 0 0 0 4.307-1.388l.526 12.776 4.833-3.11c-2.201-4.881-2.201-8.661-1.914-11.054.431-3.35 1.675-6.077 2.919-8.805 1.101-2.392 2.249-4.306 3.158-5.646.096 1.005.335 2.057 1.005 3.062 2.919 4.355 12.059 4.785 17.801 1.053 5.312-3.445 7.896-10.432 6.556-17.61.909.766 1.866 1.675 2.775 2.776.718.861 2.585 3.349 5.169 12.106.813 2.728 1.196 4.116 1.435 5.503.287 1.915.814 5.551-.191 9.667-1.723 7.082-6.843 11.149-8.374 12.298a25.36 25.36 0 0 1-9.475 4.402c-2.393.527-9.571 2.249-16.318-1.675-2.536-1.483-3.924-2.584-4.689-3.924-.814-1.483-.91-2.871-1.005-3.924-.431-6.555-.622-9.857-.192-12.106 1.292-6.508 4.211-7.178 5.838-14.595.574-2.68.718-4.929.766-6.365.622.096 1.579.192 2.727-.095 2.393-.622 3.589-2.584 4.02-3.302 1.723-2.728 2.488-7.609-.191-9.858-.383-.335-1.723-1.34-4.307-1.148-1.962-2.297-4.02-4.594-6.125-6.891z"/><path d="M238.7 170.783l7.369 2.201-1.914 1.675-1.819 1.436a10.13 10.13 0 0 1-2.727-3.111c-.479-.813-.766-1.579-.909-2.201z" class="E"/><path opacity=".16" d="M200.322 176.766c-5.216 18.423-1.34 33.305 6.46 36.559 6.125 2.536 17.179-1.053 19.237-7.322.287-.813.574-2.249-.527-6.651-.957-3.876-2.919-9.714-7.321-16.366-.766-.478-1.77-1.244-2.728-2.392a10.86 10.86 0 0 1-2.296-5.312c1.387 1.436 3.397 3.254 4.689 2.68 1.244-.574 2.01-2.297 1.579-4.02.431 2.201 1.101 5.216 2.345 8.709 1.627 4.642 3.254 9.14 7.034 13.399 1.723 1.962 5.121 5.168 10.863 7.465.957 1.196 2.727 3.78 3.302 7.561.095.574.43 3.206-.431 6.508-.191.765-1.34 4.928-5.12 8.517-4.403 4.211-9.666 4.977-11.389 5.216-12.968 1.723-23.017-9.618-24.788-11.58-1.77-2.01-4.689-5.359-6.364-10.528-2.68-8.23-.622-15.647.861-21.055 1.388-5.072 3.254-8.9 4.594-11.388z"/></g></svg>