<svg width="514" height="441" viewBox="0 0 514 441" fill="none" xmlns="http://www.w3.org/2000/svg">
<g clip-path="url(#clip0)">
<path d="M9.93702 374.923C28.018 375.732 46.099 376.136 64.18 376.099C64.8783 376.099 64.8783 374.997 64.18 374.997C46.099 375.034 28.018 374.629 9.93702 373.821C9.23877 373.784 9.23877 374.887 9.93702 374.923Z" fill="#E8E8E8"/>
<path d="M120.371 374.556C166.418 374.556 212.429 374.556 258.477 374.556C271.45 374.556 284.423 374.556 297.395 374.556C298.094 374.556 298.094 373.454 297.395 373.454C251.348 373.454 205.337 373.454 159.289 373.454C146.316 373.454 133.343 373.454 120.371 373.454C119.636 373.454 119.636 374.556 120.371 374.556Z" fill="#E8E8E8"/>
<path d="M276.117 284.519C276.117 289.884 276.117 295.25 276.117 300.615C276.117 301.313 277.22 301.313 277.22 300.615C277.22 295.25 277.22 289.884 277.22 284.519C277.22 283.82 276.117 283.82 276.117 284.519Z" fill="#E8E8E8"/>
<path d="M250.76 303.077C268.583 303.077 286.407 303.077 304.231 303.077C304.929 303.077 304.929 301.975 304.231 301.975C286.407 301.975 268.583 301.975 250.76 301.975C250.061 301.975 250.025 303.077 250.76 303.077Z" fill="#E8E8E8"/>
<path d="M262.74 303.371C262.74 308.002 262.74 312.632 262.74 317.299C262.74 317.998 263.843 317.998 263.843 317.299C263.843 312.669 263.843 308.038 263.843 303.371C263.843 302.636 262.74 302.636 262.74 303.371Z" fill="#E8E8E8"/>
<path d="M290.303 303.077C290.303 307.157 290.303 311.272 290.303 315.352C290.303 316.05 291.405 316.05 291.405 315.352C291.405 311.272 291.405 307.157 291.405 303.077C291.405 302.379 290.303 302.379 290.303 303.077Z" fill="#E8E8E8"/>
<path d="M272.846 318.365C286.481 318.365 300.115 318.365 313.749 318.365C314.447 318.365 314.447 317.263 313.749 317.263C300.115 317.263 286.481 317.263 272.846 317.263C272.148 317.263 272.148 318.365 272.846 318.365Z" fill="#E8E8E8"/>
<path d="M242.013 385.214C272.112 385.214 302.21 385.214 332.308 385.214C333.006 385.214 333.006 384.111 332.308 384.111C302.21 384.111 272.112 384.111 242.013 384.111C241.315 384.111 241.315 385.214 242.013 385.214Z" fill="#E8E8E8"/>
<path d="M366.485 375.695C396.032 375.695 425.616 375.695 455.163 375.695C463.469 375.695 471.774 375.695 480.08 375.695C480.778 375.695 480.778 374.593 480.08 374.593C450.533 374.593 420.949 374.593 391.402 374.593C383.097 374.593 374.791 374.593 366.485 374.593C365.787 374.593 365.787 375.695 366.485 375.695Z" fill="#E8E8E8"/>
<path d="M0.124762 394.511C30.4068 394.511 60.7255 394.511 91.0075 394.511C91.7058 394.511 91.7058 393.409 91.0075 393.409C60.7255 393.409 30.4068 393.409 0.124762 393.409C-0.573488 393.409 -0.573488 394.511 0.124762 394.511Z" fill="#E8E8E8"/>
<path d="M61.2032 405.536C85.936 405.536 110.669 405.536 135.401 405.536C136.1 405.536 136.1 404.434 135.401 404.434C110.669 404.434 85.936 404.434 61.2032 404.434C60.4682 404.434 60.4682 405.536 61.2032 405.536Z" fill="#E8E8E8"/>
<path d="M461.117 231.084C461.117 235.494 461.117 239.941 461.117 244.351C461.117 245.049 462.219 245.049 462.219 244.351C462.219 239.941 462.219 235.494 462.219 231.084C462.219 230.386 461.117 230.386 461.117 231.084Z" fill="#E8E8E8"/>
<path d="M447.776 245.968C457.772 245.968 467.805 245.968 477.801 245.968C478.499 245.968 478.499 244.865 477.801 244.865C467.805 244.865 457.772 244.865 447.776 244.865C447.078 244.865 447.078 245.968 447.776 245.968Z" fill="#E8E8E8"/>
<path d="M452.003 246.299C452.003 248.393 452.003 250.451 452.003 252.546C452.003 253.244 453.105 253.244 453.105 252.546C453.105 250.451 453.105 248.393 453.105 246.299C453.105 245.6 452.003 245.6 452.003 246.299Z" fill="#E8E8E8"/>
<path d="M468.062 246.629C468.062 249.091 468.062 251.59 468.062 254.053C468.062 254.751 469.165 254.751 469.165 254.053C469.165 251.59 469.165 249.091 469.165 246.629C469.165 245.894 468.062 245.894 468.062 246.629Z" fill="#E8E8E8"/>
<path d="M460.271 255.486C467.217 255.486 474.163 255.486 481.109 255.486C481.807 255.486 481.807 254.384 481.109 254.384C474.163 254.384 467.217 254.384 460.271 254.384C459.573 254.384 459.573 255.486 460.271 255.486Z" fill="#E8E8E8"/>
<path d="M205.998 362.943C217.575 355.115 223.381 351.183 224.888 350.705C228.563 349.529 240.47 345.744 250.87 352.102C258.33 356.659 265.203 366.545 262.336 373.16C260.278 377.864 253.994 379.334 248.298 380.693C239.882 382.678 232.679 381.575 228.636 380.62C227.056 382.163 224.52 384.221 220.956 385.581C215.039 387.86 208.203 387.455 207.873 386.096C207.726 385.397 209.196 384.038 216.325 381.245C215.48 380.326 214.23 379.223 212.466 378.452C207.248 376.063 202.029 378.378 201.037 378.856C206.145 381.833 207.248 383.376 206.991 384.221C206.329 386.353 195.929 387.051 193.136 382.163C192.842 381.686 192.033 380.032 192.695 376.908C194.018 371.175 198.795 367.831 205.998 362.943Z" fill="#1B1616"/>
<path d="M256.419 371.101C257.595 368.676 262.887 369.264 264.945 369.484C267.591 369.778 269.943 370.036 272.075 371.91C273.692 373.306 276.044 376.357 275.199 378.819C274.427 381.171 271.524 380.987 265.901 383.743C264.945 384.221 255.758 388.741 256.383 391.718C256.64 392.931 258.294 392.894 263.549 395.136C268.106 397.047 270.789 398.223 273.03 400.795C274.133 402.082 276.338 404.617 275.75 407.19C274.647 411.931 264.798 412.739 264.541 412.004C264.321 411.379 271.23 409.652 271.303 406.418C271.377 403.956 267.518 401.971 265.092 400.685C257.963 396.973 253.149 398.296 251.274 394.732C250.209 392.71 250.797 390.542 250.907 390.138C251.458 388.153 253.002 386.463 260.535 382.678C267.408 379.223 270.458 378.415 270.421 376.871C270.384 375.438 267.738 374.262 266.121 373.858C261.564 372.645 258.22 375.511 256.677 373.894C256.015 373.159 256.052 371.91 256.419 371.101Z" fill="#1B1616"/>
<path d="M193.65 353.315C195.966 355.042 198.281 356.769 200.596 358.497C203.904 358.166 207.174 357.872 210.482 357.541C212.54 355.557 214.598 353.535 216.656 351.551C216.803 352.8 217.097 355.63 217.207 356.99C218.493 369.228 218.604 370.293 217.832 371.69C215.296 376.21 206.733 378.048 201.809 374.887C199.42 373.344 198.501 371.028 196.774 366.582C194.679 361.216 193.944 356.512 193.65 353.315Z" fill="#1B1616"/>
<path d="M202.985 366.03C202.433 367.169 201.221 367.868 199.971 367.647C199.641 367.574 199.494 368.125 199.824 368.162C201.331 368.419 202.838 367.684 203.462 366.287C203.609 365.993 203.168 365.699 202.985 366.03Z" fill="white"/>
<path d="M208.093 365.663C209.306 366.839 210.923 367.353 212.577 367.096C212.944 367.059 212.76 366.508 212.43 366.582C210.96 366.802 209.526 366.324 208.461 365.295C208.203 365.038 207.836 365.406 208.093 365.663Z" fill="white"/>
<path d="M206.145 369.154C206.035 369.154 205.961 369.117 205.851 369.117C205.888 369.08 205.888 369.007 205.925 368.97C205.998 369.044 206.109 369.117 206.182 369.191C206.182 369.117 206.145 369.08 206.145 369.007C206.035 368.676 205.521 368.823 205.631 369.154C205.815 369.962 206.108 371.212 205.116 371.616C204.785 371.763 204.933 372.278 205.263 372.131C206.586 371.579 206.439 370.146 206.182 368.97C205.998 369.007 205.814 369.08 205.667 369.117C205.667 369.191 205.704 369.227 205.704 369.301C205.741 369.411 205.851 369.521 205.961 369.521C206.917 369.448 206.145 368.125 205.704 368.897C205.52 369.154 205.961 369.448 206.145 369.154Z" fill="white"/>
<path d="M205.778 369.411C205.962 370.036 205.998 370.734 206.403 371.285C206.733 371.726 207.248 371.947 207.799 371.837C208.13 371.763 207.983 371.249 207.652 371.322C206.623 371.543 206.476 369.926 206.292 369.264C206.219 368.933 205.704 369.08 205.778 369.411Z" fill="white"/>
<path d="M204.014 369.925C202.948 369.448 201.846 369.227 200.67 369.301C200.302 369.337 200.302 369.889 200.67 369.852C201.735 369.778 202.764 369.962 203.72 370.403C204.051 370.55 204.345 370.072 204.014 369.925Z" fill="white"/>
<path d="M203.058 370.661C202.14 370.734 201.331 371.102 200.706 371.726C200.449 371.984 200.853 372.351 201.111 372.131C201.662 371.616 202.323 371.285 203.095 371.212C203.389 371.175 203.389 370.624 203.058 370.661Z" fill="white"/>
<path d="M208.313 369.668C209.379 369.264 210.445 369.117 211.584 369.227C211.952 369.264 211.952 368.713 211.584 368.676C210.408 368.566 209.269 368.75 208.166 369.154C207.836 369.264 207.946 369.815 208.313 369.668Z" fill="white"/>
<path d="M209.049 370.661C209.857 370.551 210.629 370.624 211.401 370.918C211.731 371.028 211.878 370.514 211.548 370.404C210.739 370.11 209.894 370.036 209.049 370.146C208.681 370.146 208.681 370.734 209.049 370.661Z" fill="white"/>
<path d="M200.376 364.413C200.927 364.082 201.588 364.082 202.14 364.413C202.434 364.597 202.728 364.119 202.434 363.935C201.699 363.531 200.853 363.531 200.118 363.935C199.788 364.119 200.082 364.597 200.376 364.413Z" fill="white"/>
<path d="M208.093 363.678C208.644 363.384 209.269 363.311 209.93 363.384C210.261 363.421 210.445 362.906 210.077 362.87C209.306 362.759 208.534 362.87 207.836 363.237C207.468 363.347 207.762 363.825 208.093 363.678Z" fill="white"/>
<path d="M199.31 352.138C200.449 351.661 201.588 351.183 202.691 350.668C202.47 350.521 202.287 350.374 202.066 350.191C201.625 351.587 200.964 352.837 200.082 354.013C199.861 354.307 200.229 354.748 200.559 354.637C201.809 354.16 203.058 353.719 204.308 353.241C204.786 353.057 204.602 352.249 204.087 352.432C202.838 352.91 201.588 353.351 200.339 353.829C200.486 354.049 200.633 354.233 200.817 354.454C201.772 353.241 202.434 351.918 202.911 350.448C203.022 350.08 202.617 349.86 202.287 349.97C201.147 350.448 200.008 350.926 198.906 351.44C198.391 351.661 198.832 352.359 199.31 352.138Z" fill="#1B1616"/>
<path d="M201.147 345.45C201.919 345.009 202.691 344.715 203.536 344.531C203.389 344.311 203.242 344.127 203.058 343.907C202.728 344.642 202.323 345.377 201.846 346.038C201.662 346.332 201.919 346.626 202.213 346.663C203.205 346.736 204.124 346.479 204.896 345.891C205.3 345.56 204.896 344.862 204.491 345.193C203.83 345.707 203.095 345.928 202.25 345.854C202.36 346.075 202.47 346.259 202.617 346.479C203.095 345.781 203.499 345.083 203.83 344.348C203.977 344.017 203.72 343.649 203.352 343.723C202.434 343.907 201.552 344.237 200.743 344.715C200.265 345.009 200.67 345.707 201.147 345.45Z" fill="#1B1616"/>
<path d="M207.211 354.344C205.998 353.131 208.093 352.433 208.313 351.367C208.534 350.117 207.064 348.941 208.718 347.986C209.195 347.729 208.754 346.994 208.313 347.288C207.725 347.618 207.248 348.133 207.101 348.831C206.88 350.007 207.909 350.705 207.027 351.771C206.623 352.286 206.145 352.433 205.998 353.131C205.851 353.829 206.145 354.417 206.623 354.932C207.027 355.299 207.615 354.711 207.211 354.344Z" fill="#1B1616"/>
<path fill-rule="evenodd" clip-rule="evenodd" d="M203.031 44.0311C203.412 44.092 203.652 44.3499 203.809 44.7725C203.706 59.6049 203.635 74.4373 203.564 89.2698C203.564 89.824 203.21 90.2455 202.638 90.2452L145.409 90.2153C144.909 90.215 144.601 90.0414 144.601 89.4561L144.624 44.7826C144.635 44.2419 144.924 44.0123 145.41 44.001L203.031 44.0311ZM145.603 89.213L202.616 89.2428C202.718 74.5235 202.788 59.8041 202.859 45.0847C202.859 45.0847 145.845 44.7826 145.626 45.0548C145.407 45.327 145.603 89.213 145.603 89.213Z" fill="#1B1616"/>
<path d="M208.163 61.9988C208.155 77.8897 208.147 93.713 208.138 109.604C208.138 110.889 209.392 110.889 209.393 109.605C209.401 93.7137 209.41 77.8904 209.418 61.9994C209.418 61.7527 208.163 60.5401 208.163 61.9988Z" fill="#1B1616"/>
<path d="M209.218 62.2373C230.594 62.2484 251.902 62.2595 273.278 62.2706C274.644 64.3397 274.424 61.0202 273.279 61.0202C251.903 61.0091 230.594 61.0148 209.218 61.0037C208.069 61.0037 207.606 62.2373 209.218 62.2373Z" fill="#1B1616"/>
<path d="M273.075 62.5078C273.029 78.0606 272.982 93.6134 272.936 109.234C272.935 110.519 274.085 110.519 274.085 109.234C274.132 93.6816 274.178 78.1288 274.225 62.5084C274.226 61.2236 273.076 61.223 273.075 62.5078Z" fill="#1B1616"/>
<path d="M209.068 110.553C230.217 110.564 251.554 110.557 272.703 110.569C273.996 110.569 273.996 109.309 272.704 109.308C251.555 109.297 230.406 109.286 209.257 109.275C207.965 109.275 208.431 110.553 209.068 110.553Z" fill="#1B1616"/>
<path d="M43.4458 78.6279C61.3063 78.6279 79.2036 78.6279 97.0641 78.6279C97.7623 78.6279 97.7623 77.5254 97.0641 77.5254C79.2036 77.5254 61.3063 77.5254 43.4458 77.5254C42.7476 77.5254 42.7476 78.6279 43.4458 78.6279Z" fill="#1B1616"/>
<path d="M63.5113 83.1477C81.9231 83.1477 100.335 83.1477 118.747 83.1477C119.445 83.1477 119.445 82.0452 118.747 82.0452C100.335 82.0452 81.9231 82.0452 63.5113 82.0452C62.7763 82.0452 62.7763 83.1477 63.5113 83.1477Z" fill="#1B1616"/>
<path d="M116.99 221.329C118.57 221.329 120.15 221.329 121.767 221.329C122.466 221.329 122.466 220.226 121.767 220.226C120.187 220.226 118.607 220.226 116.99 220.226C116.292 220.226 116.292 221.329 116.99 221.329Z" fill="#1B1616"/>
<path d="M125.92 221.329C129.999 221.329 134.042 221.329 138.121 221.329C138.819 221.329 138.819 220.226 138.121 220.226C134.042 220.226 129.999 220.226 125.92 220.226C125.222 220.226 125.222 221.329 125.92 221.329Z" fill="#1B1616"/>
<path d="M147.345 220.74C152.196 220.74 157.047 220.74 161.935 220.74C162.633 220.74 162.633 219.638 161.935 219.638C157.084 219.638 152.233 219.638 147.345 219.638C146.647 219.638 146.647 220.74 147.345 220.74Z" fill="#1B1616"/>
<path d="M123.568 229.046C129.521 229.046 135.475 229.046 141.428 229.046C142.127 229.046 142.127 227.943 141.428 227.943C135.475 227.943 129.521 227.943 123.568 227.943C122.833 227.943 122.833 229.046 123.568 229.046Z" fill="#1B1616"/>
<path d="M132.167 224.893C139.113 224.893 146.059 224.893 153.005 224.893C153.703 224.893 153.703 223.791 153.005 223.791C146.059 223.791 139.113 223.791 132.167 223.791C131.469 223.791 131.469 224.893 132.167 224.893Z" fill="#1B1616"/>
<path d="M-2.30627 260.601C9.38023 260.601 21.1035 260.601 32.79 260.601C33.4882 260.601 33.4882 259.499 32.79 259.499C21.1035 259.499 9.38023 259.499 -2.30627 259.499C-3.00452 259.499 -3.00452 260.601 -2.30627 260.601Z" fill="#1B1616"/>
<path d="M26.5425 263.578C32.6797 263.578 38.8537 263.578 44.991 263.578C45.6892 263.578 45.6892 262.476 44.991 262.476C38.8537 262.476 32.6797 262.476 26.5425 262.476C25.8442 262.476 25.8442 263.578 26.5425 263.578Z" fill="#1B1616"/>
<path d="M42.6023 259.094C48.666 259.094 54.6931 259.094 60.7568 259.094C61.4551 259.094 61.4551 257.992 60.7568 257.992C54.6931 257.992 48.666 257.992 42.6023 257.992C41.9041 257.992 41.9041 259.094 42.6023 259.094Z" fill="#1B1616"/>
<path d="M244.917 146.522C256.125 146.522 267.334 146.522 278.543 146.522C279.241 146.522 279.241 145.419 278.543 145.419C267.334 145.419 256.125 145.419 244.917 145.419C244.218 145.419 244.218 146.522 244.917 146.522Z" fill="#1B1616"/>
<path d="M234.516 148.286C238.081 148.286 241.646 148.286 245.21 148.286C245.909 148.286 245.909 147.183 245.21 147.183C241.646 147.183 238.081 147.183 234.516 147.183C233.781 147.183 233.781 148.286 234.516 148.286Z" fill="#1B1616"/>
<path d="M236.574 151.262C248.555 151.262 260.572 151.262 272.552 151.262C273.251 151.262 273.251 150.16 272.552 150.16C260.572 150.16 248.555 150.16 236.574 150.16C235.876 150.16 235.876 151.262 236.574 151.262Z" fill="#1B1616"/>
<path d="M280.931 148.58C283.21 148.58 285.488 148.58 287.767 148.58C288.465 148.58 288.465 147.477 287.767 147.477C285.488 147.477 283.21 147.477 280.931 147.477C280.196 147.477 280.196 148.58 280.931 148.58Z" fill="#1B1616"/>
<path d="M272.001 193.488C275.382 193.488 278.726 193.488 282.107 193.488C282.806 193.488 282.806 192.386 282.107 192.386C278.726 192.386 275.382 192.386 272.001 192.386C271.266 192.386 271.266 193.488 272.001 193.488Z" fill="#1B1616"/>
<path d="M265.46 196.465C269.135 196.465 272.81 196.465 276.448 196.465C277.146 196.465 277.146 195.362 276.448 195.362C272.773 195.362 269.098 195.362 265.46 195.362C264.725 195.362 264.725 196.465 265.46 196.465Z" fill="#1B1616"/>
<path d="M270.789 199.442C278.028 199.442 285.268 199.442 292.508 199.442C293.206 199.442 293.206 198.339 292.508 198.339C285.268 198.339 278.028 198.339 270.789 198.339C270.09 198.339 270.09 199.442 270.789 199.442Z" fill="#1B1616"/>
<path d="M284.496 195.877C286.664 195.877 288.869 195.877 291.038 195.877C291.736 195.877 291.736 194.775 291.038 194.775C288.869 194.775 286.664 194.775 284.496 194.775C283.761 194.775 283.761 195.877 284.496 195.877Z" fill="#1B1616"/>
<path d="M133.123 150.05C138.268 150.05 143.376 150.05 148.521 150.05C149.22 150.05 149.22 148.947 148.521 148.947C143.376 148.947 138.268 148.947 133.123 148.947C132.425 148.947 132.425 150.05 133.123 150.05Z" fill="#1B1616"/>
<path d="M144.332 153.21C151.902 153.21 159.509 153.21 167.08 153.21C167.778 153.21 167.778 152.108 167.08 152.108C159.509 152.108 151.902 152.108 144.332 152.108C143.633 152.108 143.597 153.21 144.332 153.21Z" fill="#1B1616"/>
<path d="M164.287 148.984C168.587 148.984 172.923 148.984 177.223 148.984C177.921 148.984 177.921 147.881 177.223 147.881C172.923 147.881 168.587 147.881 164.287 147.881C163.589 147.881 163.589 148.984 164.287 148.984Z" fill="#1B1616"/>
<path d="M277.951 235.116C259.502 235.667 241.09 236.218 222.642 236.769C221.944 236.806 221.944 237.909 222.642 237.872C241.09 237.321 259.502 236.769 277.951 236.218C278.649 236.218 278.649 235.116 277.951 235.116Z" fill="#1B1616"/>
<path d="M353.66 388.117C353.66 392.27 353.66 396.386 353.66 400.539C324.26 412.188 318.27 416.341 318.711 417.848C318.821 418.215 319.593 419.318 335.028 417.517C350.316 415.716 362.7 413.107 371.3 410.976C369.793 402.486 368.25 393.997 366.743 385.508C362.37 386.39 357.996 387.272 353.66 388.117Z" fill="#1B1616"/>
<path d="M366.853 212.342C366.008 213.922 365.714 215.208 365.64 215.502C360.385 237.846 353.513 251.04 349.029 276.948C340.467 326.855 347.853 383.56 348.552 388.889C350.904 389.918 355.424 391.461 361.194 391.241C366.265 391.02 370.197 389.514 372.439 388.448C371.594 372.168 372.439 352.065 378.062 329.905C384.934 302.747 393.644 293.743 401.472 261.991C407.278 238.471 414.003 211.092 402.39 202.971C393.497 196.65 372.66 201.28 366.853 212.342Z" fill="#272727"/>
<path opacity="0.2" d="M387.176 224.065C381.296 250.893 375.82 279.484 371.189 309.729C366.816 338.174 363.545 365.406 361.12 391.278C364.832 390.506 368.507 389.734 372.218 388.962C371.741 377.533 372.255 367.794 372.99 360.334C373.872 351.073 376.114 329.501 385.118 307.965C386.294 305.209 387.801 301.865 390.263 295.581C394.415 285.18 397.429 276.287 398.789 272.097C405.183 252.105 408.38 228.916 409.373 221.272C401.949 222.154 394.562 223.11 387.176 224.065Z" fill="#6D6C6C"/>
<path opacity="0.19" d="M399.303 270.775C384.897 289.554 378.172 306.569 374.791 317.998C371.704 328.399 370.344 337.586 368.58 349.493C366.081 366.398 365.126 380.657 364.722 390.8C367.147 390.212 369.536 389.587 371.961 388.999C371.557 374.777 372.549 362.613 373.762 353.131C375.232 341.886 376.923 328.84 382.803 313.147C384.934 307.451 385.963 305.834 390.814 293.523C394.563 283.894 397.429 275.993 399.303 270.775Z" fill="#6D6C6C"/>
<path d="M433.04 383.89C435.098 388.998 437.192 394.107 439.25 399.252C421.978 410.24 413.819 416.634 414.738 418.509C415.877 420.824 430.798 416.23 459.5 404.801C456.449 394.878 453.399 384.993 450.349 375.07C444.579 378.01 438.809 380.95 433.04 383.89Z" fill="#1B1616"/>
<path d="M418.854 212.782C427.858 221.014 427.564 232.554 428.703 251.664C428.703 251.664 431.496 298.667 440.868 336.446C443.22 345.891 447.483 360.554 455.384 378.121C454.061 379.811 450.459 383.927 444.138 386.095C437.67 388.3 432.158 387.124 430.1 386.573C418.854 367.39 410.88 351.036 405.735 339.717C381.884 287.458 379.973 259.933 379.973 245.563C379.973 230.79 380.23 213.076 391.218 207.16C399.487 202.713 411.615 206.167 418.854 212.782Z" fill="#272727"/>
<path opacity="0.15" d="M393.35 218.405C397.429 234.097 401.839 250.046 406.543 266.216C418.817 308.185 432.158 347.838 446.159 385.029C447.519 384.331 449.173 383.375 450.863 382.089C452.591 380.766 453.95 379.443 454.979 378.267C453.068 373.821 450.422 367.389 447.629 359.488C443.403 347.397 436.531 325.163 432.966 295.543C429.548 267.098 427.821 252.876 427.968 243.909C428.078 236.522 428.74 221.492 419.185 213.407C417.2 211.753 415.253 210.761 413.893 210.173C407.021 212.929 400.185 215.685 393.35 218.405Z" fill="#6D6C6C"/>
<path opacity="0.22" d="M428.409 253.464C426.719 270.553 426.167 293.448 430.283 319.908C434.436 346.515 441.97 368.235 448.769 384.037C450.863 382.31 452.958 380.583 455.053 378.819C452.554 372.902 449.283 364.67 446.012 354.6C439.728 335.233 437.009 320.129 434.657 306.568C432.268 292.677 429.769 274.706 428.409 253.464Z" fill="#6D6C6C"/>
<path d="M256.346 78.5347C254.876 79.2697 252.855 80.5559 251.274 82.7609C250.429 83.9002 249.4 85.4069 249.253 87.5384C249.216 88.3837 249.106 90.2212 250.282 91.4339C250.613 91.8014 251.495 92.4997 255.831 92.3527C259.69 92.2057 261.638 92.1322 262.63 91.1032C264.541 89.1187 263.843 85.3702 262.63 83.1284C260.719 79.5637 256.971 78.6817 256.346 78.5347Z" fill="white" stroke="#1B1616" stroke-width="0.578333" stroke-miterlimit="10"/>
<path d="M278.543 87.7592C283.725 93.676 292.03 97.204 307.281 103.488C326.502 111.426 336.13 115.395 347.523 116.792C359.834 118.298 366.412 116.718 368.691 120.724C371.667 125.906 364.685 135.608 357.482 143.729C352.116 142.553 346.567 141.083 340.834 139.172C309.413 128.772 286.701 110.471 271.781 95.2562C269.907 95.6605 266.709 96.0647 263.071 94.9622C259.947 94.0435 255.537 91.6915 255.795 89.8172C256.125 87.5387 264.1 87.1345 264.578 87.0977C262.152 86.1055 258.661 84.415 254.876 81.6587C253.773 80.8502 247.452 76.183 248.224 74.713C248.886 73.4267 254.619 75.1907 260.021 76.8445C264.945 78.3512 268.363 79.417 272.112 81.9895C275.713 84.415 277.808 86.914 278.543 87.7592Z" fill="white" stroke="#1B1616" stroke-width="0.578333" stroke-miterlimit="10"/>
<path d="M253.112 78.9389C253.994 79.9312 254.178 81.2542 254.949 82.2832C255.611 83.2019 256.566 83.8634 257.559 84.4147C260.535 86.0684 263.696 87.4282 266.746 88.9349C267.261 89.1922 267.922 88.4939 267.408 88.0529C265.827 86.6932 264.137 85.4804 262.373 84.3779C261.785 84.0104 261.197 84.9659 261.822 85.3334C263.512 86.3992 265.129 87.5384 266.636 88.8246C266.856 88.5307 267.077 88.2367 267.297 87.9427C264.394 86.5462 261.491 85.1864 258.624 83.6797C257.265 82.9814 256.052 82.1729 255.354 80.7764C254.876 79.8209 254.619 78.9022 253.884 78.0937C253.406 77.6527 252.634 78.4244 253.112 78.9389Z" fill="white"/>
<path d="M255.978 82.7976C257.669 83.5326 259.286 84.4881 260.756 85.6274C261.307 86.0684 262.079 85.2966 261.528 84.8556C259.984 83.6429 258.33 82.6506 256.53 81.8421C255.868 81.5481 255.317 82.5036 255.978 82.7976Z" fill="white"/>
<path d="M251.642 78.2776C253.038 80.5193 254.876 82.3568 257.044 83.8268C257.632 84.2311 258.183 83.2756 257.595 82.8713C255.574 81.5116 253.883 79.7843 252.597 77.6896C252.23 77.1383 251.274 77.6896 251.642 78.2776Z" fill="white"/>
<path d="M253.296 81.2911C254.031 82.2833 254.839 83.2021 255.758 84.0106C256.419 84.5986 259.323 86.6933 257.816 87.7591C257.522 87.9428 257.816 88.4206 258.11 88.2368C259.139 87.5386 258.735 86.2891 258.11 85.4438C257.632 84.8191 256.971 84.3413 256.346 83.7901C255.39 82.9448 254.545 82.0261 253.773 81.0338C253.553 80.7031 253.075 80.9971 253.296 81.2911Z" fill="#1B1616"/>
<path d="M252.524 85.1129C253.626 86.6197 255.721 88.7512 257.779 88.1264C258.11 88.0162 257.963 87.5017 257.632 87.6119C255.868 88.1632 253.92 86.1419 253.002 84.8557C252.781 84.5617 252.303 84.8189 252.524 85.1129Z" fill="#1B1616"/>
<path d="M250.907 87.6856C252.12 89.3393 253.884 90.2948 255.942 90.405C256.309 90.4418 256.309 89.8905 255.942 89.8538C254.104 89.7435 252.487 88.8616 251.385 87.3916C251.164 87.0976 250.686 87.3916 250.907 87.6856Z" fill="#1B1616"/>
<path d="M249.731 90.9932C251.458 92.794 254.325 92.8307 256.052 90.9932C256.309 90.736 255.905 90.3317 255.648 90.589C254.141 92.206 251.642 92.1692 250.135 90.589C249.878 90.3317 249.474 90.736 249.731 90.9932Z" fill="#1B1616"/>
<path d="M250.098 78.2038C254.178 80.8866 257.118 85.4068 262.226 86.2888C262.557 86.3623 262.74 85.8111 262.373 85.7743C257.338 84.9291 254.398 80.4088 250.392 77.7628C250.062 77.5056 249.804 77.9833 250.098 78.2038Z" fill="#1B1616"/>
<path opacity="0.2" d="M249.657 90.2213C248.334 88.4206 249.437 84.5618 252.634 80.9236C256.236 83.0183 259.8 85.1498 263.402 87.2446C262.74 87.2446 256.934 87.3181 256.53 89.1188C256.456 89.4128 256.53 89.8538 257.081 90.4786C258.918 91.3606 262.005 92.5366 265.974 92.6468C268.032 92.6836 269.833 92.4263 271.23 92.0956C278.727 99.6661 291.92 111.095 311.324 119.401C328.376 126.677 343.664 128.772 353.77 129.36C353.439 133.697 353.109 137.996 352.778 142.333C336.13 137.923 313.566 129.544 291.148 112.712C283.504 106.979 276.963 101.063 271.377 95.3663C266.232 96.2116 263.034 95.3296 261.013 94.3006C259.286 93.4186 258.183 92.3161 255.905 92.1323C254.398 92.0221 253.112 92.3896 251.458 91.5811C251.274 91.5076 250.209 90.9563 249.657 90.2213Z" fill="#6D6C6C"/>
<path opacity="0.14" d="M296.991 116.167C302.136 118.923 308.09 121.716 314.889 124.105C329.699 129.36 343.113 131.014 353.366 131.381C353.219 135.13 353.109 138.915 352.962 142.663C342.304 140.164 328.927 135.791 314.742 127.853C307.943 124.068 302.063 120.062 296.991 116.167Z" fill="#6D6C6C"/>
<path d="M355.093 126.64C352.998 131.381 352.888 135.313 352.704 142.369C352.557 147.698 352.925 153.431 355.791 168.499C359.283 186.727 360.936 189.667 361.488 199.332C361.929 206.902 361.341 213.113 360.789 217.229C365.42 219.765 373.174 223.219 383.317 223.991C401.251 225.351 414.518 217.45 419.075 214.436C419.626 202.897 420.177 191.32 420.765 179.781C418.744 169.932 416.355 162.214 414.628 157.143C409.189 141.157 404.118 133.586 407.352 125.575C409.152 121.128 412.717 118.408 415.179 116.902C413.452 115.579 395.334 102.165 375.563 109.111C373.505 109.809 360.495 114.403 355.093 126.64Z" fill="white" stroke="#1B1616" stroke-width="0.578333" stroke-miterlimit="10"/>
<path opacity="0.19" d="M375.489 109.074C381.002 117.894 384.089 125.685 385.853 131.124C385.853 131.124 394.489 157.364 388.168 192.57C386.808 200.067 384.383 210.725 379.605 222.926C381.443 223.33 383.648 223.661 386.147 223.771C386.147 223.771 390.006 223.955 394.342 223.403C399.634 222.705 408.711 219.875 419.406 214.436C419.589 202.125 419.773 189.851 419.957 177.539C417.237 167.139 414.481 158.797 412.423 152.954C407.462 139.025 403.971 132.484 406.837 125.575C408.711 121.055 412.533 118.262 415.51 116.645C411.615 114.072 404.412 110.066 394.563 108.523C386.441 107.273 379.752 108.155 375.489 109.074Z" fill="#6D6C6C"/>
<path opacity="0.11" d="M380.524 108.229C386.441 115.505 393.35 126.126 397.613 140.128C409.704 180.112 389.822 215.171 385.228 222.852C389.087 222.815 393.607 222.484 398.532 221.529C407.315 219.839 414.334 216.825 419.369 214.142C419.553 202.676 419.736 191.21 419.92 179.781C416.796 169.16 413.856 159.091 409.851 145.42C407.131 136.049 405 128.368 409.005 122.231C410.953 119.254 413.673 117.6 415.731 116.645C404.007 113.815 392.247 111.022 380.524 108.229Z" fill="#6D6C6C"/>
<path d="M377.805 183.309C377.694 175.445 377.621 167.617 377.51 159.752C396.363 158.797 415.216 157.841 434.106 156.886C434.767 164.162 435.429 171.439 436.127 178.715C416.686 180.259 397.245 181.766 377.805 183.309Z" fill="white" stroke="#1B1616" stroke-width="0.578333" stroke-miterlimit="10"/>
<path d="M372.072 180.737C372.072 177.87 372.072 175.004 372.072 172.137C396.29 170.336 420.508 168.499 444.726 166.698C444.91 170.226 445.094 173.791 445.314 177.319C420.912 178.421 396.474 179.597 372.072 180.737Z" fill="white" stroke="#1B1616" stroke-width="0.578333" stroke-miterlimit="10"/>
<path d="M374.093 167.801C374.387 172.027 374.681 176.216 374.938 180.443C397.356 178.642 419.736 176.804 442.154 175.004C442.338 171.182 442.521 167.36 442.742 163.501C419.847 164.934 396.951 166.367 374.093 167.801Z" fill="white" stroke="#1B1616" stroke-width="0.578333" stroke-miterlimit="10"/>
<path d="M368.617 177.282C369.279 194.04 369.94 210.798 370.638 227.556C395.628 224.763 420.618 222.007 445.608 219.214C446.38 202.75 447.152 186.286 447.923 169.822C421.464 172.321 395.04 174.783 368.617 177.282Z" fill="white" stroke="#1B1616" stroke-width="0.578333" stroke-miterlimit="10"/>
<path d="M372.88 183.824C384.236 182.317 395.592 181.251 407.021 180.59C407.535 180.553 407.535 179.745 407.021 179.745C395.592 180.406 384.199 181.472 372.88 182.978C372.366 183.052 372.366 183.897 372.88 183.824Z" fill="#1B1616"/>
<path d="M385.559 186.065C394.268 184.963 402.978 183.824 411.725 182.721C412.239 182.648 412.239 181.839 411.725 181.876C403.015 182.978 394.305 184.118 385.559 185.22C385.044 185.33 385.044 186.139 385.559 186.065Z" fill="#1B1616"/>
<path d="M427.417 209.585C427.27 211.901 427.27 214.253 427.491 216.568C427.527 217.082 428.373 217.082 428.336 216.568C428.115 214.253 428.079 211.901 428.262 209.585C428.299 209.071 427.454 209.071 427.417 209.585Z" fill="#1B1616"/>
<path d="M427.785 209.659C432.342 209.769 436.862 209.512 441.382 208.924C441.235 208.777 441.088 208.63 440.978 208.52C440.904 210.651 440.978 212.746 441.125 214.841C441.162 215.355 442.007 215.355 441.97 214.841C441.786 212.746 441.75 210.614 441.823 208.52C441.823 208.299 441.639 208.078 441.419 208.115C436.899 208.703 432.378 208.924 427.821 208.85C427.233 208.813 427.233 209.622 427.785 209.659Z" fill="#1B1616"/>
<path d="M428.115 217.229C432.635 217.303 437.082 216.825 441.492 215.833C442.007 215.723 441.786 214.914 441.272 215.024C436.935 215.98 432.562 216.458 428.115 216.384C427.601 216.384 427.601 217.193 428.115 217.229Z" fill="#1B1616"/>
<path d="M429.843 212.232C432.636 212.415 435.392 212.268 438.185 211.827C438.699 211.754 438.479 210.945 437.964 211.019C435.282 211.46 432.562 211.57 429.843 211.386C429.328 211.35 429.328 212.195 429.843 212.232Z" fill="#1B1616"/>
<path d="M431.607 214.547C434.51 214.473 437.303 213.922 440.059 212.93C440.537 212.746 440.353 211.937 439.839 212.121C437.193 213.113 434.436 213.628 431.607 213.738C431.092 213.701 431.055 214.547 431.607 214.547Z" fill="#1B1616"/>
<path opacity="0.2" d="M380.487 225.645C381.149 210.137 381.81 194.628 382.435 179.083C403.897 177.356 425.396 175.665 446.858 173.938C446.38 188.638 445.866 203.338 445.388 218.038C423.742 220.574 402.133 223.11 380.487 225.645Z" fill="#6D6C6C"/>
<path opacity="0.2" d="M438.773 163.905C438.883 168.168 438.663 173.24 437.56 178.862C434.841 192.68 428.299 202.64 423.852 208.262C426.866 212.268 429.879 216.274 432.93 220.28C423.705 221.345 414.481 222.411 405.257 223.477C406.727 206.645 408.197 189.814 409.667 173.019C409.189 170.814 408.674 168.609 408.197 166.404C418.376 165.522 428.593 164.714 438.773 163.905Z" fill="#6D6C6C"/>
<path d="M413.195 115.91C420.875 114.881 430.026 132.521 433.664 145.199C437.854 159.789 436.016 172.394 434.51 179.046C431.57 192.092 425.469 201.28 421.647 206.241C422.235 208.189 423.595 213.481 421.353 219.287C418.046 227.776 409.079 231.856 408.38 231.084C408.16 230.827 408.601 229.761 412.092 225.755C411.357 226.527 406.065 231.782 400.112 230.533C399.083 230.312 397.796 230.055 397.061 229.026C395.334 226.527 398.201 220.868 404.301 214.583C397.649 216.237 395.885 215.796 395.555 215.061C394.709 213.297 401.508 208.299 403.97 206.461C407.609 203.779 410.879 201.941 413.121 200.802C419.405 187.756 419.075 177.576 418.523 172.799C417.715 165.743 415.069 158.062 414.554 156.592C413.084 152.366 412.386 151.41 409.446 143.803C404.705 131.602 404.705 129.507 404.889 127.89C405.551 123.039 408.821 116.498 413.195 115.91Z" fill="white" stroke="#1B1616" stroke-width="0.578333" stroke-miterlimit="10"/>
<path d="M397.208 227.997C401.288 225.682 404.852 222.705 407.829 219.104C408.27 218.553 407.498 217.781 407.057 218.332C404.154 221.86 400.663 224.8 396.657 227.079C396.032 227.373 396.584 228.328 397.208 227.997Z" fill="#1B1616"/>
<path d="M400.81 230.46C404.852 228.365 408.307 225.462 411.1 221.861C411.541 221.309 410.585 220.758 410.144 221.309C407.498 224.764 404.117 227.52 400.259 229.505C399.634 229.835 400.185 230.791 400.81 230.46Z" fill="#1B1616"/>
<path opacity="0.17" d="M410.108 117.674C402.794 124.032 432.635 151.925 427.527 183.604C424.036 205.323 409.556 219.508 409.556 219.508C405.514 223.551 397.907 228.512 398.825 230.239C399.487 231.489 404.081 230.35 405.734 229.835C408.858 228.88 411.026 227.263 412.239 226.197C410.402 228.255 408.307 230.791 408.748 231.305C409.373 231.967 414.591 229.247 417.862 225.425C423.521 218.81 422.713 209.623 422.162 205.874C423.485 204.147 425.212 201.721 426.976 198.634C428.593 195.878 433.26 187.279 435.281 175.592C438.846 154.902 431.533 138.585 428.593 132.19C425.947 126.494 421.463 117.049 414.665 116.645C413.783 116.535 411.541 116.425 410.108 117.674Z" fill="#6D6C6C"/>
<path opacity="0.22" d="M434.877 175.004C432.893 180.774 430.541 186.838 427.748 193.195C425.763 197.716 423.742 201.942 421.684 205.948C420.655 209.255 418.707 214.216 414.848 219.325C410.806 224.69 406.359 227.961 403.382 229.835C404.228 229.872 405.257 229.798 406.396 229.504C409.262 228.843 411.173 227.263 412.129 226.307C411.026 227.704 409.887 229.063 408.785 230.46C409.667 230.313 411.063 230.056 412.607 229.357C420.692 225.719 422.382 215.833 422.492 215.172C422.786 213.371 422.97 210.284 421.868 206.462C424.514 203.338 427.858 198.671 430.541 192.387C433.517 185.478 434.51 179.267 434.877 175.004Z" fill="#6D6C6C"/>
<path d="M346.641 91.7277C340.724 98.4897 344.803 107.934 345.354 109.221C347.412 113.998 352.741 120.797 359.503 120.246C364.427 119.805 367.551 115.652 368.323 114.549C373.762 106.722 371.961 91.7644 362.774 87.9057C357.702 85.7742 350.72 87.0237 346.641 91.7277Z" fill="#C92627"/>
<path d="M361.561 97.7541C361.818 100.657 364.868 101.282 366.926 106.06C368.396 109.514 368.396 112.895 368.139 115.321C370.528 115.541 374.938 115.651 379.936 113.74C383.868 112.234 386.624 110.065 388.278 108.559C387.506 106.831 386.367 104.296 385.007 101.282C379.127 88.4564 378.172 87.3539 376.739 86.8026C371.006 84.6344 361.083 92.3519 361.561 97.7541Z" fill="white" stroke="#1B1616" stroke-width="0.578333" stroke-miterlimit="10"/>
<path d="M340.393 59.7917C339.143 61.5557 338.372 63.724 338.261 73.0217C338.188 80.9597 338.629 88.1995 339.364 94.6307C341.018 93.6752 342.671 92.7197 344.325 91.7642C345.06 93.565 346.31 96.0272 348.441 98.416C352.667 103.157 357.812 104.774 360.091 105.362C362.48 104.774 368.433 102.936 372.953 97.3134C375.93 93.5649 376.886 89.8532 377.106 89.008C378.466 83.4587 377.143 78.865 376.445 76.954C377.327 76.5497 378.686 75.778 379.715 74.3815C381.884 71.4415 382.472 66.1862 379.789 64.4222C377.805 63.0992 374.276 63.871 371.63 66.5905C371.042 65.2307 370.124 63.3565 368.654 61.4087C368.286 60.931 365.53 57.3295 362.149 55.4552C355.644 51.7067 344.876 53.4707 340.393 59.7917Z" fill="white" stroke="#1B1616" stroke-width="0.578333" stroke-miterlimit="10"/>
<path d="M337.71 71.3318C336.24 71.0745 333.521 70.3028 332.234 68.061C330.029 64.2758 333.263 58.506 334.072 57.0728C334.733 55.86 336.497 52.9568 343.994 47.7015C349.691 43.6958 352.557 41.7113 355.644 40.7558C366.596 37.485 376.628 43.1445 378.503 44.2103C382.435 46.452 384.934 48.8775 386.918 50.7885C389.969 53.7285 393.386 57.1095 397.208 61.005C407.021 73.7205 410.475 85.3335 411.872 92.2793C413.452 100.144 415.069 108.155 410.365 112.859C405.661 117.563 397.061 116.608 391.806 114.366C384.493 111.242 381.369 104.627 378.944 99.519C374.828 90.7725 374.57 82.3935 374.975 76.9545C378.65 75.8888 380.524 72.4343 379.679 69.825C379.017 67.767 376.555 65.709 374.019 66.444C372.071 66.9953 370.675 69.0165 370.785 71.3685C369.021 71.3318 364.317 70.9275 359.834 67.5465C356.563 65.0843 354.909 62.1443 354.137 60.5273C352.116 60.7845 348.074 61.5195 343.994 64.4595C340.577 66.8115 338.666 69.6413 337.71 71.3318Z" fill="#C92627"/>
<path opacity="0.24" d="M362.039 78.3503C366.449 83.679 367.845 89.3018 367.845 89.3018C369.278 95.6228 367.22 100.988 366.302 103.157C368.617 101.393 370.969 99.6285 373.284 97.8645C374.901 103.23 376.481 108.559 378.098 113.924C379.311 113.814 381.81 113.373 384.309 111.609C386.22 110.249 387.359 108.669 387.984 107.677C385.007 104.921 379.311 98.82 376.702 89.2283C375.452 84.5978 375.269 80.4818 375.416 77.3948C378.76 76.035 380.487 72.7643 379.789 70.0448C379.274 68.0603 377.253 65.6715 374.644 66.039C372.476 66.3698 370.675 68.5013 370.712 71.1105C369.058 71.1105 365.162 70.9268 361.083 68.4645C356.857 65.9288 354.836 62.4008 354.064 60.894C354.248 67.95 356.416 72.0293 358.364 74.4548C359.65 76.1085 360.238 76.182 362.039 78.3503Z" fill="#6D6C6C"/>
<path d="M344.95 76.8069C344.546 78.2769 344.582 79.7836 345.134 81.2169C345.317 81.7314 346.016 81.7681 346.199 81.2169C346.64 79.8939 346.64 78.4974 346.236 77.1744C346.016 76.5129 344.95 76.7701 345.17 77.4684C345.538 78.6444 345.501 79.7836 345.134 80.9596C345.501 80.9596 345.832 80.9596 346.199 80.9596C345.722 79.7101 345.648 78.4239 346.016 77.1376C346.199 76.4026 345.17 76.1086 344.95 76.8069Z" fill="#1B1616"/>
<path d="M343.627 74.5287C344.582 73.9407 345.758 74.051 346.567 74.8227C347.081 75.3005 347.853 74.5287 347.339 74.051C346.199 72.9485 344.435 72.728 343.076 73.5732C342.488 73.9407 343.039 74.8962 343.627 74.5287Z" fill="#1B1616"/>
<path d="M347.596 83.8628C348.294 83.8628 348.294 82.7603 347.596 82.7603C346.861 82.7603 346.861 83.8628 347.596 83.8628Z" fill="#1B1616"/>
<path d="M350.021 80.6658C350.021 80.7025 350.021 80.7393 350.021 80.776C350.021 81.07 350.279 81.3273 350.573 81.3273C350.867 81.3273 351.124 81.07 351.124 80.776C351.124 80.7393 351.124 80.7025 351.124 80.6658C351.124 80.3718 350.867 80.1145 350.573 80.1145C350.279 80.1145 350.021 80.335 350.021 80.6658Z" fill="#1B1616"/>
<path d="M350.132 83.4221C350.83 83.4221 350.83 82.3196 350.132 82.3196C349.433 82.3196 349.433 83.4221 350.132 83.4221Z" fill="#1B1616"/>
<path d="M346.751 95.7332C349.58 95.2187 352.043 93.712 353.88 91.4702C354.211 91.066 353.623 90.478 353.292 90.8822C351.565 93.0137 349.25 94.4102 346.53 94.9247C346.016 95.035 346.236 95.8435 346.751 95.7332Z" fill="#1B1616"/>
<path d="M352.484 90.9554C353.145 91.1759 353.696 91.5067 354.174 91.9844C354.542 92.3519 355.13 91.7639 354.762 91.3964C354.174 90.8084 353.476 90.4042 352.704 90.1469C352.19 89.9999 351.969 90.8084 352.484 90.9554Z" fill="#1B1616"/>
<path opacity="0.45" d="M375.379 42.8865C380.046 49.3545 386.036 58.5052 391.733 70.1917C397.76 82.5397 402.17 91.8375 398.752 95.5125C394.232 100.4 378.613 92.646 376.114 91.3597C376.628 94.704 377.915 100.033 381.7 105.361C383.611 108.044 386.955 112.785 393.129 114.99C396.841 116.313 400.148 116.239 401.435 116.129C403.162 116.019 405.146 115.872 407.315 114.696C407.315 114.696 410.144 113.189 412.055 110.102C414.959 105.398 413.415 99.0405 411.357 91.0657C408.895 81.5107 405.587 75.153 402.353 68.8687C401.545 67.3252 400.589 65.5245 399.046 63.4297C397.502 61.2982 396.363 60.159 391.586 55.5652C384.493 48.693 383.39 47.7007 381.259 46.2675C378.907 44.6505 376.812 43.5847 375.379 42.8865Z" fill="#990900"/>
<path opacity="0.43" d="M366.522 105.398C366.816 106.244 367.478 108.632 366.522 111.278C365.089 115.211 361.12 116.534 360.495 116.717C355.975 118.187 350.279 115.872 346.457 110.837C346.971 112.16 348.11 114.512 350.462 116.57C351.638 117.599 354.836 120.356 359.356 120.025C360.128 119.951 365.089 119.584 367.367 115.284C369.021 112.234 368.654 108.412 366.522 105.398Z" fill="#C92627"/>
<path d="M244.957 53.0082C245.31 53.2945 245.369 53.8249 244.999 54.0899C244.797 54.2348 244.577 54.3552 244.344 54.4478C243.855 54.6424 243.323 54.7079 242.801 54.6379C242.279 54.568 241.783 54.3649 241.362 54.0483C241.162 53.8976 240.981 53.7236 240.825 53.5306C240.538 53.1777 240.734 52.6814 241.15 52.4982L241.237 52.4602C241.605 52.298 242.03 52.4897 242.352 52.7318C242.548 52.8787 242.777 52.9729 243.02 53.0053C243.262 53.0378 243.508 53.0074 243.736 52.9171C244.11 52.7683 244.57 52.6952 244.883 52.9488L244.957 53.0082Z" fill="#1B1616"/>
<path d="M248.807 55.9194C248.807 55.0849 248.643 54.2586 248.323 53.4877C248.004 52.7167 247.536 52.0162 246.946 51.4261C246.356 50.8361 245.655 50.368 244.884 50.0486C244.113 49.7293 243.287 49.5649 242.452 49.5649C241.618 49.5649 240.792 49.7293 240.021 50.0486C239.25 50.368 238.549 50.8361 237.959 51.4261C237.369 52.0162 236.901 52.7167 236.582 53.4877C236.262 54.2586 236.098 55.0849 236.098 55.9194H237.004C237.004 55.2039 237.145 54.4953 237.418 53.8343C237.692 53.1732 238.094 52.5725 238.6 52.0665C239.106 51.5606 239.706 51.1592 240.367 50.8854C241.028 50.6116 241.737 50.4706 242.452 50.4706C243.168 50.4706 243.877 50.6116 244.538 50.8854C245.199 51.1592 245.799 51.5606 246.305 52.0665C246.811 52.5725 247.213 53.1732 247.487 53.8343C247.76 54.4953 247.901 55.2039 247.901 55.9194H248.807Z" fill="#1B1616"/>
</g>
<defs>
<clipPath id="clip0">
<rect width="514" height="441" fill="white"/>
</clipPath>
</defs>
</svg>
