<svg xmlns="http://www.w3.org/2000/svg" width="588" height="441" fill="none"  xmlns:v="https://vecta.io/nano"><style><![CDATA[.B{fill:#1b1616}.C{fill:#6d6c6c}.D{fill:#fff}.E{stroke:#1b1616}.F{stroke-width:.578}.G{stroke-miterlimit:10}.H{fill:#c92627}]]></style><g fill="#e8e8e8"><path d="M83.937 374.923c18.081.809 36.162 1.213 54.243 1.176.698 0 .698-1.102 0-1.102-18.081.037-36.162-.368-54.243-1.176-.698-.037-.698 1.066 0 1.102zm110.434-.367h177.024c.699 0 .699-1.102 0-1.102H194.371c-.735 0-.735 1.102 0 1.102zm155.746-90.037v16.096c0 .698 1.103.698 1.103 0v-16.096c0-.699-1.103-.699-1.103 0zm-25.357 18.558h53.471c.698 0 .698-1.102 0-1.102H324.76c-.699 0-.735 1.102 0 1.102z"/><path d="M336.74 303.371v13.928c0 .699 1.103.699 1.103 0v-13.928c0-.735-1.103-.735-1.103 0zm27.563-.294v12.275c0 .698 1.102.698 1.102 0v-12.275c0-.698-1.102-.698-1.102 0zm-17.457 15.288h40.903c.698 0 .698-1.102 0-1.102h-40.903c-.698 0-.698 1.102 0 1.102zm-30.833 66.849h90.295c.698 0 .698-1.103 0-1.103h-90.295c-.698 0-.698 1.103 0 1.103zm124.472-9.519H554.08c.698 0 .698-1.102 0-1.102H440.485c-.698 0-.698 1.102 0 1.102zm-366.36 18.816h90.883c.698 0 .698-1.102 0-1.102H74.125c-.698 0-.698 1.102 0 1.102zm61.078 11.025h74.198c.699 0 .699-1.102 0-1.102h-74.198c-.735 0-.735 1.102 0 1.102zm399.914-174.452v13.267c0 .698 1.102.698 1.102 0v-13.267c0-.698-1.102-.698-1.102 0z"/><path d="M521.776 245.968h30.025c.698 0 .698-1.103 0-1.103h-30.025c-.698 0-.698 1.103 0 1.103z"/><path d="M526.003 246.299v6.247c0 .698 1.102.698 1.102 0v-6.247c0-.699-1.102-.699-1.102 0zm16.059.33v7.424c0 .698 1.103.698 1.103 0v-7.424c0-.735-1.103-.735-1.103 0z"/><path d="M534.271 255.486h20.838c.698 0 .698-1.102 0-1.102h-20.838c-.698 0-.698 1.102 0 1.102z"/></g><g class="B"><path d="M279.998 362.943c11.577-7.828 17.383-11.76 18.89-12.238 3.675-1.176 15.582-4.961 25.982 1.397 7.46 4.557 14.333 14.443 11.466 21.058-2.058 4.704-8.342 6.174-14.038 7.533-8.416 1.985-15.619.882-19.662-.073-1.58 1.543-4.116 3.601-7.68 4.961-5.917 2.279-12.753 1.874-13.083.515-.147-.699 1.323-2.058 8.452-4.851-.845-.919-2.095-2.022-3.859-2.793-5.218-2.389-10.437-.074-11.429.404 5.108 2.977 6.211 4.52 5.954 5.365-.662 2.132-11.062 2.83-13.855-2.058-.294-.477-1.103-2.131-.441-5.255 1.323-5.733 6.1-9.077 13.303-13.965z"/><path d="M330.419 371.101c1.176-2.425 6.468-1.837 8.526-1.617 2.646.294 4.998.552 7.13 2.426 1.617 1.396 3.969 4.447 3.124 6.909-.772 2.352-3.675 2.168-9.298 4.924-.956.478-10.143 4.998-9.518 7.975.257 1.213 1.911 1.176 7.166 3.418 4.557 1.911 7.24 3.087 9.481 5.659 1.103 1.287 3.308 3.822 2.72 6.395-1.103 4.741-10.952 5.549-11.209 4.814-.22-.625 6.689-2.352 6.762-5.586.074-2.462-3.785-4.447-6.211-5.733-7.129-3.712-11.943-2.389-13.818-5.953-1.065-2.022-.477-4.19-.367-4.594.551-1.985 2.095-3.675 9.628-7.46 6.873-3.455 9.923-4.263 9.886-5.807-.037-1.433-2.683-2.609-4.3-3.013-4.557-1.213-7.901 1.653-9.444.036-.662-.735-.625-1.984-.258-2.793zm-62.769-17.786l6.946 5.182 9.886-.956 6.174-5.99.551 5.439c1.286 12.238 1.397 13.303.625 14.7-2.536 4.52-11.099 6.358-16.023 3.197-2.389-1.543-3.308-3.859-5.035-8.305a48.6 48.6 0 0 1-3.124-13.267z"/></g><g class="D"><path d="M276.985 366.03c-.552 1.139-1.764 1.838-3.014 1.617-.33-.073-.477.478-.147.515 1.507.257 3.014-.478 3.638-1.875.147-.294-.294-.588-.477-.257zm5.108-.367c1.213 1.176 2.83 1.69 4.484 1.433.367-.037.183-.588-.147-.514-1.47.22-2.904-.258-3.969-1.287-.258-.257-.625.111-.368.368zm-1.948 3.491c-.11 0-.184-.037-.294-.037.037-.037.037-.11.074-.147.073.074.184.147.257.221 0-.074-.037-.111-.037-.184-.11-.331-.624-.184-.514.147.184.808.477 2.058-.515 2.462-.331.147-.183.662.147.515 1.323-.552 1.176-1.985.919-3.161-.184.037-.368.11-.515.147 0 .074.037.11.037.184.037.11.147.22.257.22.956-.073.184-1.396-.257-.624-.184.257.257.551.441.257z"/><path d="M279.778 369.411c.184.625.22 1.323.625 1.874.33.441.845.662 1.396.552.331-.074.184-.588-.147-.515-1.029.221-1.176-1.396-1.36-2.058-.073-.331-.588-.184-.514.147zm-1.764.514a6.97 6.97 0 0 0-3.344-.624c-.368.036-.368.588 0 .551 1.065-.074 2.094.11 3.05.551.331.147.625-.331.294-.478zm-.956.736c-.918.073-1.727.441-2.352 1.065-.257.258.147.625.405.405.551-.515 1.212-.846 1.984-.919.294-.037.294-.588-.037-.551zm5.255-.993a7.09 7.09 0 0 1 3.271-.441c.368.037.368-.514 0-.551-1.176-.11-2.315.074-3.418.478-.33.11-.22.661.147.514zm.736.993c.808-.11 1.58-.037 2.352.257.33.11.477-.404.147-.514-.809-.294-1.654-.368-2.499-.258-.368 0-.368.588 0 .515zm-8.673-6.248a1.69 1.69 0 0 1 1.764 0c.294.184.588-.294.294-.478-.735-.404-1.581-.404-2.316 0-.33.184-.036.662.258.478zm7.717-.735c.551-.294 1.176-.367 1.837-.294.331.037.515-.478.147-.514-.771-.111-1.543 0-2.241.367-.368.11-.074.588.257.441z"/></g><g class="B"><path d="M273.31 352.138l3.381-1.47c-.221-.147-.404-.294-.625-.477-.441 1.396-1.102 2.646-1.984 3.822-.221.294.147.735.477.624l3.749-1.396c.478-.184.294-.992-.221-.809l-3.748 1.397c.147.22.294.404.478.625.955-1.213 1.617-2.536 2.094-4.006.111-.368-.294-.588-.624-.478l-3.381 1.47c-.515.221-.074.919.404.698zm1.837-6.688c.772-.441 1.544-.735 2.389-.919-.147-.22-.294-.404-.478-.624a12.22 12.22 0 0 1-1.212 2.131c-.184.294.073.588.367.625.992.073 1.911-.184 2.683-.772.404-.331 0-1.029-.405-.698-.661.514-1.396.735-2.241.661.11.221.22.405.367.625.478-.698.882-1.396 1.213-2.131.147-.331-.11-.699-.478-.625a8.34 8.34 0 0 0-2.609.992c-.478.294-.073.992.404.735zm6.064 8.894c-1.213-1.213.882-1.911 1.102-2.977.221-1.25-1.249-2.426.405-3.381.477-.257.036-.992-.405-.698-.588.33-1.065.845-1.212 1.543-.221 1.176.808 1.874-.074 2.94-.404.515-.882.662-1.029 1.36s.147 1.286.625 1.801c.404.367.992-.221.588-.588z"/><path fill-rule="evenodd" d="M277.031 44.031c.381.061.621.319.778.741l-.245 44.497c0 .554-.354.976-.926.975l-57.229-.03c-.5 0-.808-.174-.808-.759l.023-44.674c.011-.541.3-.77.786-.782l57.621.03zm-57.428 45.182l57.013.03.243-44.158-57.233-.03c-.219.272-.023 44.158-.023 44.158z"/><path d="M282.163 61.999l-.025 47.605c0 1.285 1.254 1.285 1.255.001l.025-47.606c0-.247-1.255-1.459-1.255-.001z"/><path d="M283.218 62.237l64.06.033c1.366 2.069 1.146-1.25.001-1.25l-64.061-.017c-1.149 0-1.612 1.234 0 1.234z"/><path d="M347.075 62.508l-.139 46.726c-.001 1.285 1.149 1.285 1.149 0l.14-46.726c.001-1.285-1.149-1.285-1.15-.001z"/><path d="M283.068 110.553l63.635.016c1.293 0 1.293-1.26.001-1.261l-63.447-.033c-1.292 0-.826 1.278-.189 1.278zM117.446 78.628h53.618c.698 0 .698-1.102 0-1.102h-53.618c-.698 0-.698 1.102 0 1.102zm20.065 4.52h55.236c.698 0 .698-1.103 0-1.103h-55.236c-.735 0-.735 1.103 0 1.103zm53.479 138.181h4.777c.699 0 .699-1.103 0-1.103h-4.777c-.698 0-.698 1.103 0 1.103zm8.93 0h12.201c.698 0 .698-1.103 0-1.103H199.92c-.698 0-.698 1.103 0 1.103zm21.425-.589h14.59c.698 0 .698-1.102 0-1.102h-14.59c-.698 0-.698 1.102 0 1.102zm-23.777 8.306h17.86c.699 0 .699-1.103 0-1.103h-17.86c-.735 0-.735 1.103 0 1.103zm8.599-4.153h20.838c.698 0 .698-1.102 0-1.102h-20.838c-.698 0-.698 1.102 0 1.102zM71.694 260.601h35.096c.698 0 .698-1.102 0-1.102H71.694c-.698 0-.698 1.102 0 1.102zm28.848 2.977h18.449c.698 0 .698-1.102 0-1.102h-18.449c-.698 0-.698 1.102 0 1.102zm16.06-4.484h18.155c.698 0 .698-1.102 0-1.102h-18.155c-.698 0-.698 1.102 0 1.102zm202.315-112.572h33.626c.698 0 .698-1.103 0-1.103h-33.626c-.699 0-.699 1.103 0 1.103zm-10.401 1.764h10.694c.699 0 .699-1.103 0-1.103h-10.694c-.735 0-.735 1.103 0 1.103zm2.058 2.976h35.978c.699 0 .699-1.102 0-1.102h-35.978c-.698 0-.698 1.102 0 1.102zm44.357-2.682h6.836c.698 0 .698-1.103 0-1.103h-6.836c-.735 0-.735 1.103 0 1.103zm-8.93 44.908h10.106c.699 0 .699-1.102 0-1.102h-10.106c-.735 0-.735 1.102 0 1.102zm-6.541 2.977h10.988c.698 0 .698-1.103 0-1.103H339.46c-.735 0-.735 1.103 0 1.103zm5.329 2.977h21.719c.698 0 .698-1.103 0-1.103h-21.719c-.699 0-.699 1.103 0 1.103zm13.707-3.565h6.542c.698 0 .698-1.102 0-1.102h-6.542c-.735 0-.735 1.102 0 1.102zM207.123 150.05h15.398c.699 0 .699-1.103 0-1.103h-15.398c-.698 0-.698 1.103 0 1.103zm11.209 3.16h22.748c.698 0 .698-1.102 0-1.102h-22.748c-.699 0-.735 1.102 0 1.102zm19.955-4.226h12.936c.698 0 .698-1.103 0-1.103h-12.936c-.698 0-.698 1.103 0 1.103zm113.664 86.132l-55.309 1.653c-.698.037-.698 1.14 0 1.103l55.309-1.654c.698 0 .698-1.102 0-1.102zm75.709 153.001v12.422c-29.4 11.649-35.39 15.802-34.949 17.309.11.367.882 1.47 16.317-.331 15.288-1.801 27.672-4.41 36.272-6.541l-4.557-25.468-13.083 2.609z"/></g><path d="M440.853 212.342c-.845 1.58-1.139 2.866-1.213 3.16-5.255 22.344-12.127 35.538-16.611 61.446-8.562 49.907-1.176 106.612-.477 111.941 2.352 1.029 6.872 2.572 12.642 2.352 5.071-.221 9.003-1.727 11.245-2.793-.845-16.28 0-36.383 5.623-58.543 6.872-27.158 15.582-36.162 23.41-67.914 5.806-23.52 12.531-50.899.918-59.02-8.893-6.321-29.73-1.691-35.537 9.371z" fill="#272727"/><g class="C"><path opacity=".2" d="M461.176 224.065c-5.88 26.828-11.356 55.419-15.987 85.664-4.373 28.445-7.644 55.677-10.069 81.549l11.098-2.316c-.477-11.429.037-21.168.772-28.628.882-9.261 3.124-30.833 12.128-52.369 1.176-2.756 2.683-6.1 5.145-12.384 4.152-10.401 7.166-19.294 8.526-23.484 6.394-19.992 9.591-43.181 10.584-50.825l-22.197 2.793z"/><path opacity=".19" d="M473.303 270.775c-14.406 18.779-21.131 35.794-24.512 47.223-3.087 10.401-4.447 19.588-6.211 31.495-2.499 16.905-3.454 31.164-3.858 41.307l7.239-1.801c-.404-14.222.588-26.386 1.801-35.868 1.47-11.245 3.161-24.291 9.041-39.984 2.131-5.696 3.16-7.313 8.011-19.624l8.489-22.748z"/></g><path d="M507.04 383.89l6.21 15.362c-17.272 10.988-25.431 17.382-24.512 19.257 1.139 2.315 16.06-2.279 44.762-13.708l-9.151-29.731-17.309 8.82z" class="B"/><path d="M492.854 212.782c9.004 8.232 8.71 19.772 9.849 38.882 0 0 2.793 47.003 12.165 84.782 2.352 9.445 6.615 24.108 14.516 41.675-1.323 1.69-4.925 5.806-11.246 7.974-6.468 2.205-11.98 1.029-14.038.478-11.246-19.183-19.22-35.537-24.365-46.856-23.851-52.259-25.762-79.784-25.762-94.154 0-14.773.257-32.487 11.245-38.403 8.269-4.447 20.397-.993 27.636 5.622z" fill="#272727"/><g class="C"><path opacity=".15" d="M467.35 218.405l13.193 47.811c12.274 41.969 25.615 81.622 39.616 118.813 1.36-.698 3.014-1.654 4.704-2.94 1.728-1.323 3.087-2.646 4.116-3.822a304.27 304.27 0 0 1-7.35-18.779c-4.226-12.091-11.098-34.325-14.663-63.945-3.418-28.445-5.145-42.667-4.998-51.634.11-7.387.772-22.417-8.783-30.502-1.985-1.654-3.932-2.646-5.292-3.234l-20.543 8.232z"/><path opacity=".22" d="M502.409 253.464c-1.69 17.089-2.242 39.984 1.874 66.444 4.153 26.607 11.687 48.327 18.486 64.129l6.284-5.218c-2.499-5.917-5.77-14.149-9.041-24.219-6.284-19.367-9.003-34.471-11.355-48.032a501.9 501.9 0 0 1-6.248-53.104z"/></g><g class="D"><g class="E F G"><path d="M330.346 78.535c-1.47.735-3.491 2.021-5.072 4.226-.845 1.139-1.874 2.646-2.021 4.777-.037.845-.147 2.683 1.029 3.895.331.368 1.213 1.066 5.549.919 3.859-.147 5.807-.221 6.799-1.249 1.911-1.984 1.213-5.733 0-7.975-1.911-3.565-5.659-4.447-6.284-4.594z"/><path d="M352.543 87.759c5.182 5.917 13.487 9.445 28.738 15.729 19.221 7.938 28.849 11.907 40.242 13.304 12.311 1.506 18.889-.074 21.168 3.932 2.976 5.182-4.006 14.884-11.209 23.005-5.366-1.176-10.915-2.646-16.648-4.557-31.421-10.4-54.133-28.701-69.053-43.916-1.874.404-5.072.808-8.71-.294-3.124-.919-7.534-3.271-7.276-5.145.33-2.278 8.305-2.683 8.783-2.719a46.44 46.44 0 0 1-9.702-5.439c-1.103-.808-7.424-5.476-6.652-6.946.662-1.286 6.395.478 11.797 2.132 4.924 1.507 8.342 2.573 12.091 5.145 3.601 2.425 5.696 4.924 6.431 5.77z"/></g><path d="M327.112 78.939c.882.992 1.066 2.315 1.837 3.344.662.919 1.617 1.58 2.61 2.132 2.976 1.654 6.137 3.014 9.187 4.52.515.257 1.176-.441.662-.882-1.581-1.36-3.271-2.572-5.035-3.675-.588-.367-1.176.588-.551.956 1.69 1.066 3.307 2.205 4.814 3.491l.661-.882-8.673-4.263c-1.359-.698-2.572-1.507-3.27-2.903-.478-.956-.735-1.874-1.47-2.683-.478-.441-1.25.331-.772.845z"/><path d="M329.978 82.798a22.41 22.41 0 0 1 4.778 2.83c.551.441 1.323-.331.772-.772-1.544-1.213-3.198-2.205-4.998-3.013-.662-.294-1.213.662-.552.956z"/><path d="M325.642 78.278c1.396 2.242 3.234 4.079 5.402 5.549.588.404 1.139-.551.551-.956-2.021-1.36-3.712-3.087-4.998-5.182-.367-.551-1.323 0-.955.588z"/></g><g class="B"><path d="M327.296 81.291c.735.992 1.543 1.911 2.462 2.719.661.588 3.565 2.683 2.058 3.749-.294.184 0 .661.294.478 1.029-.698.625-1.948 0-2.793-.478-.625-1.139-1.102-1.764-1.654-.956-.845-1.801-1.764-2.573-2.756-.22-.331-.698-.037-.477.257z"/><path d="M326.524 85.113c1.102 1.507 3.197 3.638 5.255 3.014.331-.11.184-.625-.147-.514-1.764.551-3.712-1.47-4.63-2.756-.221-.294-.699-.037-.478.257zm-1.617 2.573a6.53 6.53 0 0 0 5.035 2.719c.367.037.367-.514 0-.551a6.07 6.07 0 0 1-4.557-2.462c-.221-.294-.699 0-.478.294zm-1.176 3.307c1.727 1.801 4.594 1.837 6.321 0 .257-.257-.147-.662-.404-.404-1.507 1.617-4.006 1.58-5.513 0-.257-.257-.661.147-.404.404zm.367-12.789c4.08 2.683 7.02 7.203 12.128 8.085.331.074.514-.478.147-.514-5.035-.845-7.975-5.365-11.981-8.011-.33-.257-.588.221-.294.441z"/></g><g class="C"><path opacity=".2" d="M323.657 90.221c-1.323-1.801-.22-5.659 2.977-9.298l10.768 6.321c-.662 0-6.468.073-6.872 1.874-.074.294 0 .735.551 1.36a21.97 21.97 0 0 0 8.893 2.168c2.058.037 3.859-.221 5.256-.551 7.497 7.57 20.69 18.999 40.094 27.305a127.01 127.01 0 0 0 42.446 9.959l-.992 12.973c-16.648-4.41-39.212-12.789-61.63-29.621-7.644-5.733-14.185-11.649-19.771-17.346-5.145.845-8.343-.037-10.364-1.066-1.727-.882-2.83-1.984-5.108-2.168-1.507-.11-2.793.257-4.447-.551-.184-.074-1.249-.625-1.801-1.36z"/><path opacity=".14" d="M370.991 116.167c5.145 2.756 11.099 5.549 17.898 7.938 14.81 5.255 28.224 6.909 38.477 7.276l-.404 11.282c-10.658-2.499-24.035-6.872-38.22-14.81-6.799-3.785-12.679-7.791-17.751-11.686z"/></g><path d="M429.093 126.64c-2.095 4.741-2.205 8.673-2.389 15.729-.147 5.329.221 11.062 3.087 26.13 3.492 18.228 5.145 21.168 5.697 30.833a93.16 93.16 0 0 1-.699 17.897c4.631 2.536 12.385 5.99 22.528 6.762 17.934 1.36 31.201-6.541 35.758-9.555l1.69-34.655a185.68 185.68 0 0 0-6.137-22.638c-5.439-15.986-10.51-23.557-7.276-31.568 1.8-4.447 5.365-7.167 7.827-8.673-1.727-1.323-19.845-14.737-39.616-7.791-2.058.698-15.068 5.292-20.47 17.529z" class="D E F G"/><g class="C"><path opacity=".19" d="M449.489 109.074c5.513 8.82 8.6 16.611 10.364 22.05 0 0 8.636 26.24 2.315 61.446-1.36 7.497-3.785 18.155-8.563 30.356a38.43 38.43 0 0 0 6.542.845s3.859.184 8.195-.368c5.292-.698 14.369-3.528 25.064-8.967l.551-36.897a308.45 308.45 0 0 0-7.534-24.585c-4.961-13.929-8.452-20.47-5.586-27.379 1.874-4.52 5.696-7.313 8.673-8.93-3.895-2.573-11.098-6.579-20.947-8.122-8.122-1.25-14.811-.368-19.074.551z"/><path opacity=".11" d="M454.524 108.229c5.917 7.276 12.826 17.897 17.089 31.899 12.091 39.984-7.791 75.043-12.385 82.724 3.859-.037 8.379-.368 13.304-1.323 8.783-1.69 15.802-4.704 20.837-7.387l.551-34.361-10.069-34.361c-2.72-9.371-4.851-17.052-.846-23.189 1.948-2.977 4.668-4.631 6.726-5.586l-35.207-8.416z"/></g><g class="D E F G"><path d="M451.805 183.309l-.295-23.557 56.596-2.866 2.021 21.829-58.322 4.594z"/><path d="M446.072 180.737v-8.6l72.654-5.439.588 10.621-73.242 3.418z"/><path d="M448.093 167.801l.845 12.642 67.216-5.439.588-11.503-68.649 4.3z"/><path d="M442.617 177.282l2.021 50.274 74.97-8.342 2.315-49.392-79.306 7.46z"/></g><g class="B"><path d="M446.88 183.824c11.356-1.507 22.712-2.573 34.141-3.234.514-.037.514-.845 0-.845-11.429.661-22.822 1.727-34.141 3.233-.514.074-.514.919 0 .846zm12.679 2.241l26.166-3.344c.514-.073.514-.882 0-.845l-26.166 3.344c-.515.11-.515.919 0 .845zm41.858 23.52c-.147 2.316-.147 4.668.074 6.983.036.514.882.514.845 0-.221-2.315-.257-4.667-.074-6.983.037-.514-.808-.514-.845 0z"/><path d="M501.785 209.659c4.557.11 9.077-.147 13.597-.735l-.404-.404c-.074 2.131 0 4.226.147 6.321.037.514.882.514.845 0-.184-2.095-.22-4.227-.147-6.321 0-.221-.184-.442-.404-.405-4.52.588-9.041.809-13.598.735-.588-.037-.588.772-.036.809z"/><path d="M502.115 217.229c4.52.074 8.967-.404 13.377-1.396.515-.11.294-.919-.22-.809-4.337.956-8.71 1.434-13.157 1.36-.514 0-.514.809 0 .845zm1.728-4.997c2.793.183 5.549.036 8.342-.405.514-.073.294-.882-.221-.808-2.682.441-5.402.551-8.121.367-.515-.036-.515.809 0 .846zm1.764 2.315c2.903-.074 5.696-.625 8.452-1.617.478-.184.294-.993-.22-.809-2.646.992-5.403 1.507-8.232 1.617-.515-.037-.552.809 0 .809z"/></g><g class="C"><path opacity=".2" d="M454.487 225.645l1.948-46.562 64.423-5.145-1.47 44.1-64.901 7.607z"/><path opacity=".2" d="M512.773 163.905c.11 4.263-.11 9.335-1.213 14.957-2.719 13.818-9.261 23.778-13.708 29.4l9.078 12.018-27.673 3.197 4.41-50.458-1.47-6.615 30.576-2.499z"/></g><path d="M487.195 115.91c7.68-1.029 16.831 16.611 20.469 29.289 4.19 14.59 2.352 27.195.846 33.847-2.94 13.046-9.041 22.234-12.863 27.195.588 1.948 1.948 7.24-.294 13.046-3.307 8.489-12.274 12.569-12.973 11.797-.22-.257.221-1.323 3.712-5.329-.735.772-6.027 6.027-11.98 4.778-1.029-.221-2.316-.478-3.051-1.507-1.727-2.499 1.14-8.158 7.24-14.443-6.652 1.654-8.416 1.213-8.746.478-.846-1.764 5.953-6.762 8.415-8.6 3.639-2.682 6.909-4.52 9.151-5.659 6.284-13.046 5.954-23.226 5.402-28.003-.808-7.056-3.454-14.737-3.969-16.207-1.47-4.226-2.168-5.182-5.108-12.789-4.741-12.201-4.741-14.296-4.557-15.913.662-4.851 3.932-11.392 8.306-11.98z" class="D E F G"/><path d="M471.208 227.997c4.08-2.315 7.644-5.292 10.621-8.893.441-.551-.331-1.323-.772-.772-2.903 3.528-6.394 6.468-10.4 8.747-.625.294-.073 1.249.551.918zm3.602 2.463c4.042-2.095 7.497-4.998 10.29-8.599.441-.552-.515-1.103-.956-.552-2.646 3.455-6.027 6.211-9.885 8.196-.625.33-.074 1.286.551.955z" class="B"/><g class="C"><path opacity=".17" d="M484.108 117.674c-7.314 6.358 22.527 34.251 17.419 65.93-3.491 21.719-17.971 35.904-17.971 35.904-4.042 4.043-11.649 9.004-10.731 10.731.662 1.25 5.256.111 6.909-.404 3.124-.955 5.292-2.572 6.505-3.638-1.837 2.058-3.932 4.594-3.491 5.108.625.662 5.843-2.058 9.114-5.88 5.659-6.615 4.851-15.802 4.3-19.551 1.323-1.727 3.05-4.153 4.814-7.24 1.617-2.756 6.284-11.355 8.305-23.042 3.565-20.69-3.748-37.007-6.688-43.402-2.646-5.696-7.13-15.141-13.928-15.545-.882-.11-3.124-.22-4.557 1.029z"/><path opacity=".22" d="M508.877 175.004c-1.984 5.77-4.336 11.834-7.129 18.191a231.47 231.47 0 0 1-6.064 12.753c-1.029 3.307-2.977 8.268-6.836 13.377-4.042 5.365-8.489 8.636-11.466 10.51.846.037 1.875-.037 3.014-.331 2.866-.661 4.777-2.241 5.733-3.197l-3.344 4.153c.882-.147 2.278-.404 3.822-1.103 8.085-3.638 9.775-13.524 9.885-14.185.294-1.801.478-4.888-.624-8.71 2.646-3.124 5.99-7.791 8.673-14.075 2.976-6.909 3.969-13.12 4.336-17.383z"/></g><path d="M420.641 91.728c-5.917 6.762-1.838 16.206-1.287 17.493 2.058 4.777 7.387 11.576 14.149 11.025 4.924-.441 8.048-4.594 8.82-5.697 5.439-7.827 3.638-22.785-5.549-26.643-5.072-2.132-12.054-.882-16.133 3.822z" class="H"/><g class="D E F G"><path d="M435.561 97.754c.257 2.903 3.307 3.528 5.365 8.306 1.47 3.454 1.47 6.835 1.213 9.261 2.389.22 6.799.33 11.797-1.581 3.932-1.506 6.688-3.675 8.342-5.181l-3.271-7.277c-5.88-12.826-6.835-13.928-8.268-14.479-5.733-2.168-15.656 5.549-15.178 10.951z"/><path d="M414.393 59.792c-1.25 1.764-2.021 3.932-2.132 13.23-.073 7.938.368 15.178 1.103 21.609l4.961-2.867c.735 1.801 1.985 4.263 4.116 6.652 4.226 4.741 9.371 6.358 11.65 6.946 2.389-.588 8.342-2.426 12.862-8.049 2.977-3.749 3.933-7.46 4.153-8.305 1.36-5.549.037-10.143-.661-12.054.882-.404 2.241-1.176 3.27-2.572 2.169-2.94 2.757-8.195.074-9.959-1.984-1.323-5.513-.551-8.159 2.168-.588-1.36-1.506-3.234-2.976-5.182-.368-.478-3.124-4.079-6.505-5.954-6.505-3.748-17.273-1.984-21.756 4.337z"/></g><path d="M411.71 71.332c-1.47-.257-4.189-1.029-5.476-3.271-2.205-3.785 1.029-9.555 1.838-10.988.661-1.213 2.425-4.116 9.922-9.371 5.697-4.006 8.563-5.99 11.65-6.946 10.952-3.271 20.984 2.389 22.859 3.454 3.932 2.242 6.431 4.667 8.415 6.578 3.051 2.94 6.468 6.321 10.29 10.217 9.813 12.715 13.267 24.329 14.664 31.274 1.58 7.865 3.197 15.876-1.507 20.58s-13.304 3.749-18.559 1.507c-7.313-3.124-10.437-9.739-12.862-14.847-4.116-8.747-4.374-17.126-3.969-22.565 3.675-1.066 5.549-4.52 4.704-7.129-.662-2.058-3.124-4.116-5.66-3.381-1.948.551-3.344 2.572-3.234 4.924a19.19 19.19 0 0 1-10.951-3.822c-3.271-2.462-4.925-5.402-5.697-7.019-2.021.257-6.063.992-10.143 3.932-3.417 2.352-5.328 5.182-6.284 6.872z" class="H"/><path opacity=".24" d="M436.039 78.35c4.41 5.329 5.806 10.951 5.806 10.951 1.433 6.321-.625 11.686-1.543 13.855l6.982-5.292 4.814 16.06c1.213-.11 3.712-.551 6.211-2.315 1.911-1.36 3.05-2.94 3.675-3.932-2.977-2.756-8.673-8.857-11.282-18.449-1.25-4.63-1.433-8.746-1.286-11.833 3.344-1.36 5.071-4.63 4.373-7.35-.515-1.984-2.536-4.373-5.145-4.006-2.168.331-3.969 2.462-3.932 5.072-1.654 0-5.55-.184-9.629-2.646-4.226-2.536-6.247-6.064-7.019-7.571.184 7.056 2.352 11.135 4.3 13.561 1.286 1.654 1.874 1.727 3.675 3.895z" class="C"/><g class="B"><path d="M418.95 76.807c-.404 1.47-.368 2.977.184 4.41.183.514.882.551 1.065 0 .441-1.323.441-2.719.037-4.042-.22-.662-1.286-.404-1.066.294.368 1.176.331 2.315-.036 3.491h1.065c-.477-1.249-.551-2.536-.183-3.822.183-.735-.846-1.029-1.066-.331zm-1.323-2.278c.955-.588 2.131-.478 2.94.294.514.478 1.286-.294.772-.772-1.14-1.103-2.904-1.323-4.263-.478-.588.368-.037 1.323.551.956zm3.969 9.334c.698 0 .698-1.102 0-1.102-.735 0-.735 1.102 0 1.102zm2.425-3.197v.11c0 .294.258.551.552.551s.551-.257.551-.551v-.11c0-.294-.257-.551-.551-.551a.54.54 0 0 0-.552.551zm.111 2.756c.698 0 .698-1.103 0-1.103s-.699 1.103 0 1.103zm-3.381 12.311c2.829-.514 5.292-2.021 7.129-4.263.331-.404-.257-.992-.588-.588-1.727 2.132-4.042 3.528-6.762 4.043-.514.11-.294.919.221.808z"/><path d="M426.484 90.955c.661.221 1.212.551 1.69 1.029.368.368.956-.22.588-.588a5.18 5.18 0 0 0-2.058-1.249c-.514-.147-.735.662-.22.808z"/></g><path opacity=".45" d="M449.379 42.887c4.667 6.468 10.657 15.619 16.354 27.305 6.027 12.348 10.437 21.646 7.019 25.321-4.52 4.888-20.139-2.867-22.638-4.153.514 3.344 1.801 8.673 5.586 14.001 1.911 2.683 5.255 7.424 11.429 9.629 3.712 1.323 7.019 1.249 8.306 1.139 1.727-.11 3.711-.257 5.88-1.433 0 0 2.829-1.507 4.74-4.594 2.904-4.704 1.36-11.062-.698-19.036-2.462-9.555-5.77-15.913-9.004-22.197-.808-1.544-1.764-3.344-3.307-5.439-1.544-2.131-2.683-3.271-7.46-7.864-7.093-6.872-8.196-7.864-10.327-9.298-2.352-1.617-4.447-2.683-5.88-3.381z" fill="#990900"/><path opacity=".43" d="M440.522 105.398c.294.846.956 3.234 0 5.88-1.433 3.933-5.402 5.256-6.027 5.439-4.52 1.47-10.216-.845-14.038-5.88.514 1.323 1.653 3.675 4.005 5.733 1.176 1.029 4.374 3.786 8.894 3.455.772-.074 5.733-.441 8.011-4.741 1.654-3.05 1.287-6.872-.845-9.886z" class="H"/><path d="M318.957 53.008c.353.286.412.817.042 1.082a3.07 3.07 0 0 1-3.637-.042 3.05 3.05 0 0 1-.537-.518c-.287-.353-.091-.849.325-1.032l.087-.038c.368-.162.793.029 1.115.272a1.42 1.42 0 0 0 .668.273c.243.032.488.002.716-.088.374-.149.834-.222 1.147.032l.074.059zm3.85 2.911a6.34 6.34 0 0 0-.484-2.432 6.35 6.35 0 0 0-3.439-3.439 6.36 6.36 0 0 0-2.432-.484c-.835 0-1.66.164-2.431.484a6.38 6.38 0 0 0-2.062 1.377 6.35 6.35 0 0 0-1.377 2.062 6.34 6.34 0 0 0-.484 2.432h.906a5.46 5.46 0 0 1 .414-2.085 5.44 5.44 0 0 1 1.182-1.768 5.45 5.45 0 0 1 5.938-1.181 5.45 5.45 0 0 1 1.767 1.181c.506.506.908 1.107 1.182 1.768s.414 1.37.414 2.085h.906z" class="B"/></svg>