<svg xmlns="http://www.w3.org/2000/svg" width="156" height="121" fill="none"  xmlns:v="https://vecta.io/nano"><path d="M84.801 71.051c-.289 0-.938 0-1.372-.614h-.036c-.09-.054-.144-.09-.235-.108a.69.69 0 0 1-.343-.523v-.144c-.036-.181-.036-.343-.036-.523v-15.38c0-1.246.523-1.805 1.787-1.805h11.081c1.137 0 1.714.578 1.714 1.697v.379l.957-.939.108-.108 2.021-1.895.09-.054.181-.108c.09-.054.144-.09.198-.144 1.372-1.029 2.924-1.661 4.512-1.895.758-.09 1.552-.145 2.364-.145 1.173 0 2.455.108 3.88.325l1.895.271 3.7.56c.649.09 1.245.343 1.786.668 1.227.848 1.841 2.022 1.841 3.502l1.083-.469 2.562-1.083.867-.379 7.435-3.123 2.075-.939.289-.09.469-.18c.379-.181.812-.271 1.245-.271 1.101 0 2.13.56 2.617 1.462.812 1.426.469 3.159-.866 4.116l-4.837 3.538-5.919 4.314-6.262 4.639c-1.317 1.029-2.887 1.48-4.818 1.48h-.379l-9.98-.271-1.336-.054a60.49 60.49 0 0 0-2.562-.054l-1.552.036c-.866.054-1.751.235-2.653.433l-1.029.235v2.13c-.036.939-.614 1.552-1.516 1.552H85.396c-.162-.036-.596-.036-.596-.036z" fill="#2b2a29"/><g fill="#fefefe"><path d="M94.402 68.019v-2.654l.036-10.47H85.83v13.124h8.572zm24.994 10.36c-.812-.036-1.516-.704-1.516-1.552 0-.379.145-.794.469-1.101a1.6 1.6 0 0 1 1.083-.469c.415 0 .794.18 1.083.469a1.48 1.48 0 0 1 .487 1.101c-.036.866-.704 1.552-1.57 1.552h-.036z"/><path d="M119.414 78.091c-.704 0-1.281-.559-1.281-1.245a1.34 1.34 0 0 1 1.281-1.281c.704-.036 1.281.578 1.281 1.281 0 .722-.541 1.245-1.281 1.245zm22.576.288c-.866-.036-1.552-.704-1.552-1.552 0-.415.181-.812.47-1.101s.703-.469 1.082-.469c.415 0 .812.18 1.101.469s.469.704.469 1.101c0 .848-.703 1.552-1.57 1.552z"/><path d="M141.99 78.09c-.703 0-1.245-.559-1.245-1.245-.036-.704.578-1.281 1.245-1.317a1.35 1.35 0 0 1 1.318 1.317c-.036.686-.614 1.245-1.318 1.245z"/></g><g fill="#2b2a29"><path d="M130.729 53.198c-.992 0-2.021.181-2.977.469-4.025 1.282-6.714 4.838-6.822 9.098-.036 1.047-.036 2.13-.036 3.177v1.426c0 .181 0 .379.036.433 0-.036.199-.036.379-.036h13.914l4.981.036c.198 0 .27-.054.27-.054s.055-.054.055-.235c-.036-.849-.036-1.697-.036-2.545v-1.986c0-1.625-.379-3.159-1.101-4.513-1.715-3.249-5.035-5.271-8.663-5.271zm-11.315 22.619c-.234 0-.487.108-.704.325-.198.181-.288.433-.288.704 0 .56.433.993.992.993.578 0 1.029-.433 1.029-.993a.96.96 0 0 0-.325-.722c-.199-.199-.433-.307-.704-.307zm22.576 0c-.234 0-.487.108-.703.289-.181.199-.289.469-.289.722 0 .56.433.993.992.993s1.029-.433 1.029-.993a.96.96 0 0 0-.325-.722c-.18-.18-.433-.289-.704-.289v-.289.289zm-33.241 35.616c.036 0 .036.054.036.108l-.325 6.102v.415c.036-.036.234-.036.343-.036h43.745c.198 0 .415 0 .469-.037-.036 0-.036-.198-.054-.379l-.488-10.379-.342-6.77-.235-4.549-.325-5.668-.271-5.398-.198-4.838-.235-4.26a114.09 114.09 0 0 1-.198-3.502c-.036-.379 0-.758 0-1.137v-.271h-7.183v.343c0 .614 0 1.246.036 1.859.036 0 .091.054.289.18 1.516.812 2.238 2.094 2.22 3.791-.054 2.094-1.859 3.791-4.025 3.791h-.324c-2.094-.18-3.79-2.076-3.682-4.134.09-1.552.812-2.708 2.166-3.376.288-.18.379-.289.379-.614-.054-.578-.036-1.173-.036-1.697.036-.144 0-.181 0-.181s-.055-.036-.145-.036c-.487.036-.956.036-1.425.036h-8.428c-3.086 0-6.208 0-9.312-.036-.235 0-.289.054-.289.054s-.036.036 0 .235c.036.523.036 1.083 0 1.661-.036.271.054.379.325.487 1.516.794 2.274 2.076 2.22 3.737-.091 2.166-1.859 3.845-4.061 3.845h-.325a3.96 3.96 0 0 1-2.689-1.408c-.703-.812-1.046-1.841-.956-2.852.108-1.48.848-2.617 2.165-3.267.289-.181.379-.289.379-.614-.054-.433-.036-.866-.036-1.318v-.578c-1.371.036-2.743.036-4.078.036h-3.032l-1.949 38.829-.036.144-.036.578c.036.144.036.325.036.469v.18c0 .055-.036.109-.054.145l-.036.307zM106.908 121c-.469-.036-.866-.18-1.137-.469-.271-.271-.379-.65-.379-1.101l.18-3.322.091-2.022-.036-.108.324-5.776v-.091l.091-2.166.379-7.491.343-6.571.198-4.062.559-10.939.343-7.401c.054-1.137.614-1.661 1.751-1.697h8.337c-.036-.036-.036-.198-.036-.379v-1.462c0-1.047-.036-2.166.036-3.231.181-4.982 2.545-8.755 7.02-11.12 1.697-.939 3.556-1.372 5.541-1.372a12.4 12.4 0 0 1 1.985.144c4.169.614 7.381 2.834 9.474 6.625.993 1.751 1.48 3.701 1.48 5.813v4.766c0 .18.036.199.036.199s.036.054.235.054c1.173-.036 2.31-.036 3.447-.036h4.493c1.318 0 1.841.523 1.895 1.859l.524 10.56.379 7.239.559 10.885.343 7.257.523 10.849c.054.993.109 1.986.109 2.979.036.487-.109.866-.379 1.137-.271.289-.704.433-1.228.433h-47.48V121z"/><path d="M152.548 118.31h-43.745c-.65 0-.65-.036-.614-.668l.289-6.101v-.108l.036-.416h.036c0-.198.054-.433 0-.613l.036-.759h.036l1.949-39.117h7.345c.289 0 .325.144.325.379v1.751c.036.469-.144.668-.523.866-1.246.65-1.895 1.697-2.022 3.069-.144 1.986 1.462 3.791 3.411 3.935 2.166.18 3.971-1.426 4.061-3.556.054-1.552-.668-2.78-2.076-3.466-.342-.181-.487-.379-.469-.758a12.23 12.23 0 0 0 0-1.625c-.036-.469.108-.578.578-.578h19.129c.379 0 .469.108.469.469a12.78 12.78 0 0 0 0 1.661c.036.433-.108.668-.523.866-1.281.65-1.931 1.751-2.021 3.159-.091 1.841 1.371 3.683 3.41 3.845 2.094.181 4.025-1.426 4.061-3.538.054-1.57-.65-2.78-2.039-3.538-.181-.09-.433-.235-.433-.379-.055-.848-.037-1.697-.037-2.545h7.706l.036 1.661.416 7.762.469 10.271.577 10.181.433 9.224.415 7.907c0 .758 0 .758-.721.758zm-33.134-42.764c.704-.036 1.281.578 1.281 1.282 0 .722-.559 1.246-1.281 1.246-.704 0-1.281-.56-1.281-1.246a1.34 1.34 0 0 1 1.281-1.282zm1.227-12.799c.145-4.35 2.924-8.015 7.02-9.333 4.692-1.48 9.655.578 11.965 4.964.794 1.426 1.137 2.996 1.173 4.639v4.513c0 .433-.144.56-.577.56h-18.895c-.668 0-.704 0-.668-.704l-.018-4.639zm21.349 12.781a1.35 1.35 0 0 1 1.318 1.318 1.31 1.31 0 0 1-1.318 1.246c-.704 0-1.245-.56-1.245-1.246-.036-.704.578-1.3 1.245-1.318zm13.644 40.923l-.56-10.831-.343-7.293-.559-10.885-.343-7.203-.56-10.596c-.036-1.173-.433-1.571-1.606-1.571h-7.94c-.415 0-.56-.108-.56-.56l.036-4.73c0-2.022-.487-3.935-1.461-5.686-2.04-3.646-5.108-5.867-9.276-6.48-2.599-.379-5.071-.036-7.381 1.191-4.35 2.311-6.678 5.957-6.876 10.903-.054 1.553 0 3.087 0 4.675 0 .668 0 .668-.704.668h-7.904c-.993 0-1.426.433-1.462 1.426l-.343 7.401-1.137 21.518-.469 9.658.036.108-.325 5.741h.036l-.27 5.451c-.037.813.433 1.282 1.227 1.282h47.516c.867 0 1.372-.433 1.336-1.246-.018-.938-.036-1.949-.108-2.942z"/></g><path d="M118.169 77.098c.036.144.108.325.198.433a1.26 1.26 0 0 0 1.047.559c.722 0 1.281-.523 1.281-1.245 0-.271-.09-.487-.234-.704-.109-.235-.325-.379-.56-.487-.144-.054-.325-.108-.487-.09-.271 0-.487.054-.704.199-.198.144-.379.343-.469.578a1 1 0 0 0-.108.487c0 .09.036.181.036.271zm22.649.235c.198.433.649.758 1.173.758.27 0 .523-.054.721-.198.055-.054.109-.09.181-.144.108-.108.234-.271.289-.415s.108-.325.108-.487c0-.271-.09-.487-.235-.704a1.18 1.18 0 0 0-.433-.415.92.92 0 0 0-.379-.18c-.09 0-.18-.036-.271-.036s-.18.036-.234.036c-.181.054-.325.108-.469.198-.343.271-.578.65-.56 1.083.036.18.054.361.109.505z" fill="#fefefe"/><path d="M124.702 54.931a9.65 9.65 0 0 1 2.977-1.516c.47-.144.939-.235 1.372-.325l3.357-1.408 1.66-.722-1.57-.325c-2.599-.379-5.071-.036-7.381 1.191-2.473 1.318-4.259 3.069-5.432 5.217l.108-.036 4.909-2.076zm-4.241 21.211c-.109-.235-.325-.379-.56-.487.253.108.451.253.56.487zm-1.751-.379c-.198.144-.379.343-.469.578a1.34 1.34 0 0 1 .469-.578zm23.551-.217c.144.036.271.09.379.18a1.05 1.05 0 0 0-.379-.18zm-1.444 1.787c.199.433.65.758 1.173.758-.523 0-.956-.325-1.173-.758z" fill="#2b2a29"/><path d="M108.008 51.682h-.794a12.23 12.23 0 0 0-2.743.487c-1.083.289-1.949 1.029-2.833 1.805l-1.606 1.48-2.653 2.419-.054.054.036 4.675V64.3l.758-.18c.794-.144 1.606-.325 2.418-.343h2.021l3.844.036 2.238.036h1.137l3.465.054 1.805.09 2.183.09h.09c.867 0 1.57-.199 2.184-.65l5.053-3.737 6.713-4.874 3.267-2.401 2.364-1.715c.09-.09.108-.181.108-.235h-.09l-.108.036-.109.036-.108.036-7.435 3.177-9.132 3.881c-1.082.469-2.165.704-3.302.704h-.199l-2.977-.036h-4.259c-.054 0-.109.036-.181.036-.09 0-.325 0-.559-.181-.343-.235-.668-.487-.848-.849-.289-.65-.055-1.336.559-1.697.379-.199.812-.271 1.101-.271h7.2c.758 0 1.372-.578 1.372-1.318 0-.704-.577-1.282-1.335-1.336l-3.826-.524c-1.588-.253-3.158-.487-4.765-.487z" fill="#fefefe"/><path d="M120.641 63.415v-.668c.108-3.177 1.624-6.011 4.061-7.816l-4.891 2.094-.108.036c-.848 1.661-1.372 3.538-1.462 5.686l-.036 1.931c.613-.108 1.191-.325 1.714-.704.235-.217.488-.379.722-.56z" fill="#252422"/><path d="M14.221 7.78c0 .758-.054 1.426-.199 2.022s-.487 1.047-1.083 1.426h3.555V4.892h-2.274V7.78zm5.829-5.795v9.242h1.462v5.343h-3.086v-2.419h-6.822v2.419H8.518v-5.343c.054 0 .108 0 .18-.036.054 0 .09 0 .144-.036.487-.09.956-.343 1.372-.794.433-.433.668-1.083.722-1.95V1.967h9.114v.018z" fill="#c92627"/><path d="M22.919 1.985h7.471v2.906h-3.916v1.697h3.519v2.69h-3.519v1.95h3.916v2.924h-7.471V1.985zm20.176 0v12.167H39.54V4.91h-2.274v5.632l-.144.903c-.144.722-.523 1.372-1.101 1.95-.614.578-1.624.867-3.158.867l-.18.036c-.18 0-.343-.036-.487-.036s-.271-.036-.415-.036c-.09-.036-.18-.036-.235-.054-.09-.036-.181-.036-.271-.036V11.21h.18c.108.036.199.054.325.054.108.036.235.036.343.054.758-.036 1.191-.289 1.335-.812s.235-1.137.235-1.841V1.949h9.402v.036zm5.829 0v7.022l4.53-7.022h3.501v12.167h-3.447v-7.04l-4.458 7.04h-3.59V1.985h3.465zm18.787 11.986a5.85 5.85 0 0 1-.722.271 5.73 5.73 0 0 1-.938.18c-.289.036-.614.054-.902.054h-.18c-1.696 0-3.158-.56-4.367-1.697-1.227-1.101-1.805-2.69-1.805-4.729 0-2.094.614-3.701 1.895-4.784s2.689-1.625 4.259-1.625h.181c.198 0 .415.036.65.036l.668.108c.343.054.704.181 1.029.325.343.108.668.289.993.524v3.502h-.181c-.054-.054-.144-.144-.235-.271l-.325-.289c-.271-.199-.578-.415-.957-.614-.343-.181-.794-.271-1.281-.289-.938.036-1.696.379-2.22 1.083a3.89 3.89 0 0 0-.794 2.419c0 1.047.289 1.841.866 2.401.614.578 1.317.867 2.13.867.613 0 1.173-.144 1.624-.433a6.2 6.2 0 0 0 1.173-.867h.18v3.466l-.74.361zm7.471-2.274c.487 0 .902-.09 1.227-.271s.469-.524.469-1.029c0-.469-.144-.812-.469-.993-.289-.181-.704-.271-1.227-.271h-1.281v2.545h1.281v.018zm-4.873-9.712H73.9v4.748h1.787l.956.036c.379.036.794.09 1.227.199.65.199 1.227.56 1.787 1.047.523.524.812 1.318.812 2.401 0 1.101-.289 1.895-.812 2.419-.559.487-1.137.848-1.751 1.047-.433.108-.848.199-1.245.199l-.956.054h-5.396V1.985z" fill="#252422"/><path d="M5.703 25.706c0 .794-.054 1.462-.199 2.04s-.487 1.047-1.083 1.408h3.555v-6.3H5.703v2.852zm5.847-5.776v9.224h1.462v5.343H9.926v-2.419h-6.84v2.419H0v-5.343h.18c.036 0 .09-.036.144-.036.487-.09.956-.343 1.372-.794.433-.433.668-1.083.722-1.95v-6.444h9.132z" fill="#c92627"/><path d="M20.808 29.46a.97.97 0 0 0 .379-.09c.56-.144 1.047-.487 1.516-1.029s.704-1.318.704-2.365-.235-1.841-.704-2.365-.956-.866-1.516-1.029c-.108-.036-.271-.054-.379-.09s-.235-.036-.343-.036-.271 0-.415.036c-.108.036-.271.054-.379.108-.559.145-1.029.487-1.48 1.029-.433.523-.668 1.318-.668 2.329 0 1.029.235 1.805.668 2.329.469.524.938.867 1.48 1.029a1.17 1.17 0 0 0 .379.108c.144.036.271.036.379.036s.271.036.379 0zm-5.306 1.029a6.69 6.69 0 0 1-1.66-4.495c0-1.697.559-3.213 1.66-4.495 1.083-1.282 2.707-1.931 4.873-1.931h.18c2.166 0 3.79.65 4.873 1.931 1.101 1.282 1.66 2.798 1.66 4.495 0 1.715-.559 3.213-1.66 4.459-1.083 1.282-2.707 1.932-4.873 1.95h-.18c-2.129 0-3.736-.632-4.873-1.913zm18.263-.848c.487 0 .902-.09 1.227-.271s.469-.524.469-1.029c0-.487-.144-.812-.469-.993-.289-.181-.704-.289-1.227-.289h-1.281v2.563h1.281v.018zm-4.873-9.712h9.15v2.924h-5.576v1.805h1.787l.956.036a6.63 6.63 0 0 1 1.227.235c.65.18 1.227.523 1.787 1.047.523.487.812 1.282.812 2.329 0 1.101-.289 1.932-.812 2.419-.559.523-1.137.866-1.751 1.083-.433.108-.848.198-1.245.235l-.956.036h-5.36V19.929h-.018zm15.467 5.452h.812c.487 0 .848-.09 1.083-.235.235-.181.379-.343.469-.524a.97.97 0 0 0 .09-.379c0-.09.036-.198.036-.271s0-.145-.036-.199c0-.09 0-.144-.036-.199-.054-.271-.181-.469-.415-.668s-.65-.325-1.191-.325h-.812v2.798zm-3.573-5.452h5.27c1.317 0 2.274.271 2.924.812.65.56 1.083 1.173 1.281 1.841a4.22 4.22 0 0 1 .18.722c.036.235.054.469.054.668s-.036.433-.054.668c-.036.235-.09.469-.18.722-.198.668-.65 1.282-1.281 1.841-.65.56-1.606.848-2.924.848h-1.714v3.989h-3.555V19.929zM58.67 29.46a.97.97 0 0 0 .379-.09c.559-.144 1.047-.487 1.516-1.029s.704-1.318.704-2.365-.235-1.841-.704-2.365-.956-.866-1.516-1.029c-.108-.036-.271-.054-.379-.09s-.235-.036-.343-.036-.271 0-.415.036c-.108.036-.271.054-.379.108-.559.145-1.029.487-1.48 1.029-.433.523-.65 1.318-.65 2.329 0 1.029.199 1.805.65 2.329.469.524.938.867 1.48 1.029.108.054.271.09.379.108.144.036.271.036.379.036a.68.68 0 0 0 .379 0zm-5.27 1.029a6.55 6.55 0 0 1-1.696-4.495c0-1.697.559-3.213 1.66-4.495 1.083-1.282 2.707-1.931 4.873-1.931h.181c2.166 0 3.79.65 4.891 1.931 1.083 1.282 1.624 2.798 1.624 4.495 0 1.715-.559 3.213-1.624 4.459-1.101 1.282-2.743 1.932-4.891 1.95h-.181c-2.129 0-3.736-.632-4.836-1.913zm14.275-10.56h3.573l2.039 7.112 2.057-7.112h3.573l1.769 12.131h-3.447l-.83-6.625-1.931 6.625h-2.364l-1.931-6.625-.83 6.625h-3.447l1.769-12.131zm34.559 9.333c.487-.054.992-.181 1.515-.343l.109-.054c1.101-.325 2.093-.993 3.032-2.022.794-.849 1.191-2.473 1.191-4.675 0-2.744-.65-4.549-1.931-5.506-1.101-.812-2.401-1.336-3.934-1.57v14.171h.018zM74.893 52.801c-1.552.235-2.851.758-3.934 1.57-1.281.957-1.931 2.834-1.931 5.506 0 2.22.415 3.827 1.191 4.675.938 1.047 1.931 1.697 3.032 2.04l.108.036a10.34 10.34 0 0 0 1.516.379V52.801h.018zm-.505 29.262c-8.049 0-13.932-2.365-17.559-7.022-3.447-4.459-5.161-9.531-5.161-15.145 0-.867.09-2.184.271-4.062.18-2.04.794-4.224 1.805-6.444 1.281-2.924 3.537-5.596 6.623-7.961 3.303-2.509 7.868-3.701 14.022-3.701h10.828V2.798C85.216 1.246 86.497 0 88.049 0h14.69c6.154 0 10.738 1.191 14.004 3.683 3.122 2.365 5.36 5.073 6.677 7.997.993 2.22 1.606 4.368 1.787 6.444.18 1.841.271 3.177.271 4.062 0 5.578-1.715 10.669-5.162 15.109-3.609 4.694-9.51 7.058-17.559 7.058H91.911v34.894c0 1.57-1.245 2.834-2.797 2.834H74.388v-.018z" fill="#252422"/><path d="M108.983 28.738c-1.281 1.408-2.707 2.329-4.295 2.834a11.85 11.85 0 0 1-2.509.56l-2.093.108h-.65V12.094h.65c3.158 0 5.721.758 7.778 2.274 2.039 1.553 3.068 4.134 3.068 7.78 0 2.997-.65 5.181-1.949 6.589zM77.69 69.949h-.65a22.92 22.92 0 0 1-2.093-.108c-.812-.054-1.66-.271-2.508-.56-1.57-.469-2.996-1.408-4.313-2.798-1.281-1.408-1.931-3.61-1.931-6.589 0-3.646 1.029-6.246 3.068-7.762 2.039-1.552 4.638-2.311 7.778-2.311h.65v20.128zm44.702-51.573c-.181-1.751-.704-3.61-1.57-5.578-1.101-2.509-3.032-4.784-5.775-6.878-2.743-2.076-6.858-3.123-12.308-3.123h-14.69v37.746H74.406c-5.45 0-9.565 1.029-12.308 3.123-2.743 2.076-4.674 4.368-5.775 6.878-.902 1.95-1.426 3.791-1.57 5.542-.18 1.751-.271 2.997-.271 3.791 0 4.982 1.552 9.459 4.602 13.412 3.032 3.971 8.139 5.921 15.304 5.921h14.69V41.482h13.643c7.146 0 12.253-1.986 15.303-5.957 3.068-3.971 4.602-8.43 4.602-13.394.036-.758-.054-2.004-.234-3.755z" fill="#c92627"/></svg>