<svg xmlns="http://www.w3.org/2000/svg" width="938" height="805" fill="none"  xmlns:v="https://vecta.io/nano"><style><![CDATA[.B{fill:#1b1616}.C{fill:#161616}.D{fill:#353535}.E{opacity:.09}]]></style><path d="M124.877 714.505c44.494 0 85.859 20.79 129.437 27.579 42.358 6.533 84.257-4.243 125.927-11.541 20.988-3.649 42.204-6.534 63.497-5.346 21.98 1.273 42.358 7.892 62.353 17.735 18.088 8.995 35.794 19.432 54.95 25.457 18.24 5.77 37.015 6.025 55.637 2.376 43.807-8.571 84.103-35.13 129.36-34.876 1.45 0 1.45-2.546 0-2.546-39.609-.254-75.708 19.857-113.257 30.803-19.538 5.685-39.915 8.74-59.911 4.667-20.224-4.073-38.846-14.425-57.315-23.929-18.317-9.419-36.862-17.65-57.011-20.705-20.758-3.14-41.746-1.782-62.429 1.273-41.975 6.025-83.722 18.753-126.308 15.868-49.226-3.394-95.093-29.275-144.777-29.275-1.603-.085-1.603 2.46-.153 2.46z" class="B"/><path d="M63.517 724.688c9.082-3.818 18.393-6.534 28.009-8.146 1.45-.255.839-2.715-.611-2.461-9.616 1.528-18.927 4.243-28.009 8.146-1.374.594-.763 3.055.611 2.461z" class="C"/><path d="M47.184 746.75c51.134-25.032 106.313 3.225 156.302 17.565 14.653 4.243 29.612 7.382 44.799 8.316 1.45.085 1.45-2.461 0-2.546-55.102-3.309-105.168-37.506-160.957-35.469-14.195.509-28.238 3.648-41.212 10.013-1.374.594-.229 2.8 1.069 2.121zm308.009 47.808c7.433-1.48 14.481-4.761 21.576-7.978 7.048-3.152 14.143-5.854 21.384-7.849 14.964-4.053 30.313-5.404 45.518-3.989 8.834.837 17.619 2.638 26.211 5.276.917.257 1.303-1.608.386-1.866-29.831-9.2-61.399-7.527-90.554 5.083-8.254 3.538-16.315 7.72-24.956 9.457-.869.193-.482 2.059.435 1.866zm202.185 2.343c15.874 9.079 34.038 9.249 51.362 6.619 20.072-2.97 39.763-8.91 59.224-15.359 38.694-12.813 77.235-28.427 117.913-31.142 22.361-1.528 44.876 1.103 65.863 10.013 1.374.594 1.985-1.867.611-2.461-76.853-32.754-154.699 17.395-229.339 33.688-21.14 4.582-44.57 7.721-64.413-3.649-1.374-.679-2.519 1.527-1.221 2.291zm234.223-59.909c17.324-.509 34.496 3.225 50.371 11.201 1.297.679 2.518-1.527 1.144-2.206-16.179-8.146-33.733-12.05-51.515-11.541-1.527.085-1.527 2.631 0 2.546z" class="B"/><path d="M37.492 487.177c50.447-1.357 99.596 12.814 147.448 29.191s95.323 35.384 144.93 44.464c24.88 4.582 50.142 6.364 75.327 4.243 27.704-2.291 54.95-8.571 81.814-16.208 27.399-7.806 54.492-16.886 81.891-24.947 27.475-8.146 55.102-15.529 82.959-21.893 56.247-12.898 113.41-21.553 170.954-23.081l20.912-.254c1.45 0 1.45-2.546 0-2.546-56.4-.17-112.647 6.789-168.131 18.159-55.942 11.541-110.587 28.257-165.384 45.059-27.169 8.4-54.568 16.122-82.501 20.535-26.635 4.158-53.499 4.667-80.211 1.188-50.218-6.449-98.375-24.778-146.304-41.665-47.317-16.631-95.627-32.499-145.464-34.621-6.106-.254-12.211-.254-18.317-.084-1.45 0-1.45 2.545.076 2.46zm496.837 13.069c52.126-15.953 102.955-36.403 154.546-54.392 51.439-17.99 103.947-33.688 157.752-39.798 29.993-3.394 60.292-3.818 90.285 0 1.451.17 1.451-2.376 0-2.545-53.27-6.704-107.075-.17-159.201 12.643-52.889 12.983-104.176 32.415-155.538 51.253-29.307 10.777-58.614 21.299-88.378 30.378-1.526.425-.916 2.885.534 2.461zM366.504 634.997c19.537 5.006 39.685 2.715 59.223-1.273 20.454-4.158 40.526-10.098 60.598-16.377 40.449-12.559 80.669-25.372 122.721-28.936 23.735-1.951 47.623-1.442 71.282 1.358 1.45.17 1.45-2.376 0-2.546a353.27 353.27 0 0 0-123.027 6.874c-40.22 9.418-79.143 24.692-119.286 34.281-23.125 5.516-47.395 10.183-70.825 4.158-1.526-.339-2.137 2.121-.686 2.461zM1.088 389.594c52.889-.679 105.702 10.013 154.927 31.481 14.119 6.195 27.933 13.323 41.365 21.214 1.298.764 2.443-1.442 1.145-2.206-46.936-27.663-98.604-44.973-151.417-50.828-15.264-1.697-30.68-2.461-46.02-2.207-1.45 0-1.45 2.546 0 2.546zm53.27-99.536c41.747 11.625 79.83 34.451 119.287 53.035 39.839 18.753 81.662 31.736 124.477 38.185 24.116 3.649 48.539 5.261 72.884 4.836 1.45 0 1.45-2.545 0-2.545-43.883.764-87.843-5.176-130.276-17.565-20.836-6.11-41.213-13.747-61.132-22.911-19.767-9.08-39.152-19.432-58.689-29.021-21.446-10.522-43.197-20.195-65.94-26.475-1.374-.424-1.984 2.037-.611 2.461zM338.8 436.604c39.609 16.971 83.111 7.722 121.958-7.213 20.911-8.061 41.212-17.735 61.971-26.135 20.377-8.231 41.059-15.359 62.047-21.384A613.94 613.94 0 0 1 658.5 365.58c1.451-.255.84-2.716-.61-2.461-42.968 6.788-85.249 18.159-126.232 33.942-40.296 15.529-79.295 37.506-121.958 44.21-23.582 3.733-47.928 2.461-70.29-7.128-1.373-.594-1.984 1.867-.61 2.461z" fill="#f3f3f3"/><path d="M90.687 145.294c56.934 9.928 109.441 46.162 142.945 98.348 9.387 14.68 17.248 30.548 23.201 47.264.534 1.528 2.748.849 2.213-.679-21.369-59.908-66.016-107.766-119.363-132.289-15.569-7.128-31.825-12.22-48.386-15.105-1.45-.254-2.061 2.207-.611 2.461zm180.875 147.735c26.941-23.25 62.658-29.021 95.705-23.59 35.259 5.77 67.237 24.608 96.085 47.18 17.401 13.577 33.81 28.596 50.218 43.616 1.145 1.018 2.748-.764 1.603-1.782-29.612-27.154-59.681-54.647-94.559-73.061-31.138-16.462-66.245-24.693-100.589-18.159-18.164 3.479-35.412 11.371-50.065 23.929-1.145 1.103.458 2.885 1.602 1.867z" class="B"/><path d="M512.578 344.535c13.127-63.047 48.921-119.052 96.849-155.455 13.738-10.437 28.467-19.262 43.884-26.22 1.373-.594.763-3.055-.611-2.461-54.644 24.778-100.36 72.382-125.927 131.526-7.174 16.632-12.669 34.027-16.408 51.932-.306 1.612 1.908 2.291 2.213.678zM174.605 201.943c11.447 5.431 20.071 16.207 28.238 26.305 8.471 10.438 16.256 21.554 23.43 33.179 13.89 22.656 24.956 47.264 32.893 73.23.458 1.528 2.671.849 2.213-.679-8.166-26.559-19.614-51.846-33.885-75.012a312.32 312.32 0 0 0-23.049-32.5c-8.318-10.182-17.095-21.214-28.696-26.644-1.297-.764-2.518 1.442-1.144 2.121z" fill="#f3f3f3"/><path d="M505.252 299.901c11.982-34.366 31.291-65.169 56.018-89.692 1.069-1.103-.534-2.885-1.603-1.782-25.032 24.862-44.494 56.004-56.628 90.795-.535 1.528 1.679 2.122 2.213.679zm-40.473-30.507c11.169-23.28 29.248-41.803 51.208-53.24 1.609-.81.19-3.442-1.42-2.632-22.433 11.64-40.89 30.669-52.249 54.354-.852 1.721 1.609 3.34 2.461 1.518zM371.667 84.067c6.716-5.176 14.5-7.552 22.667-7.043 1.45.085 1.45-2.461 0-2.546-8.548-.509-16.791 2.036-23.812 7.467-1.221.849-.076 3.055 1.145 2.121zm18.545-22.911c6.64 1.527 13.051 3.649 19.309 6.449 1.374.594 1.985-1.867.611-2.461-6.258-2.8-12.669-4.922-19.309-6.449-1.45-.339-2.061 2.121-.611 2.461zM262.48 168.799c2.824 8.146 3.13 16.632.993 25.032-.382 1.613 1.831 2.292 2.213.679 2.29-8.825 1.908-17.819-.992-26.39-.534-1.527-2.748-.848-2.214.679zm19.539 2.8c4.044 5.431 9.082 9.843 14.729 12.983 1.298.764 2.442-1.443 1.145-2.206-5.571-3.055-10.379-7.298-14.272-12.644-.916-1.188-2.518.594-1.602 1.867zm248.876-16.714c3.434 4.243 4.96 9.758 4.121 15.444-.229 1.612 1.984 2.291 2.213.678.992-6.618-.687-12.982-4.732-17.904-.992-1.273-2.594.509-1.602 1.782zm19.003-3.906l8.396 10.607c.992 1.273 2.594-.594 1.602-1.782l-8.395-10.607c-.916-1.273-2.518.509-1.603 1.782zm-110.739 30.38c5.266-10.267 12.212-19.177 20.683-26.305 1.145-1.018 0-3.224-1.145-2.206-8.777 7.467-16.027 16.547-21.522 27.239-.687 1.442 1.298 2.715 1.984 1.272z" class="B"/><path d="M173.492 82.417c1.069 6.194 2.366 12.728 4.045 19.517 5.571 22.147 13.509 40.646 21.369 55.411 2.29.594 5.572 1.442 9.617 1.951 5.571.764 14.577 2.037 24.727-1.188 2.442-.763 1.374-.678 12.135-5.6s11.371-4.752 15.493-6.788c7.021-3.395 13.355-8.316 25.795-17.905l14.348-11.54c.382-2.716.84-6.704.764-11.541-.153-7.637-1.603-13.152-3.664-21.129L291.1 57.3c-2.9-2.037-6.029-4.073-9.616-5.94-11.83-6.364-23.049-8.91-31.673-9.928a99.6 99.6 0 0 0-20.606 3.988c-20.759 6.364-35.03 18.329-43.883 25.881-5.266 4.413-9.311 8.401-11.83 11.116zm322.525-31.142c-6.105 7.298-12.593 16.038-18.774 26.305a214.85 214.85 0 0 0-8.09 14.765l14.043 23.081 31.367 13.577 29.84-34.706-7.708-27.918c-5.113-2.885-10.99-5.77-17.706-8.401-8.548-3.224-16.256-5.346-22.972-6.704z" fill="#fff"/><g class="C"><path d="M172.729 83.18c2.595 27.323 13.432 52.186 25.185 76.03.687 1.443 2.671.17 1.985-1.273-11.525-23.335-22.362-47.858-24.88-74.757-.153-1.612-2.443-1.697-2.29 0z"/><path d="M174.866 83.859c18.698-22.656 44.341-37.336 71.74-41.325 1.45-.17 1.45-2.715 0-2.546-28.009 4.073-54.263 18.838-73.419 42.003-.916 1.273.687 3.055 1.679 1.867z"/><path d="M246.758 42.196c12.441 20.79 18.241 44.974 23.812 68.818.382 1.612 2.595.933 2.213-.679-5.647-24.099-11.524-48.452-24.04-69.412-.84-1.358-2.824-.085-1.985 1.273z"/><path d="M200.586 159.129c13.966-4.668 27.398-10.862 40.22-18.584 6.334-3.818 12.44-8.061 18.393-12.643 5.342-4.074 10.913-8.316 13.813-14.935.687-1.443-1.297-2.715-1.984-1.273-3.129 7.043-9.54 11.456-15.187 15.698a205.8 205.8 0 0 1-17.325 11.626c-12.287 7.297-25.185 13.152-38.465 17.65-1.45.509-.839 2.97.535 2.461zM247.98 42.366c15.111.679 29.612 6.279 41.823 16.292 1.221.933 2.366-1.273 1.145-2.206-12.517-10.268-27.399-15.953-42.968-16.632-1.45-.085-1.45 2.461 0 2.546z"/><path d="M289.65 57.555c6.945 17.735 10.608 36.743 10.685 56.174 0 1.613 2.289 1.613 2.289 0-.152-19.856-3.892-39.288-11.066-57.447-.534-1.527-2.442-.255-1.908 1.273z"/><path d="M271.562 113.22c9.464 6.788 20.683 4.921 30.986 1.867 1.45-.425.84-2.885-.61-2.461-9.693 2.885-20.225 4.752-29.154-1.612-1.298-.849-2.443 1.357-1.222 2.206zm-72.198 46.331c13.585 3.394 27.704 2.291 40.678-3.394 1.374-.594.763-3.055-.61-2.461-12.593 5.516-26.254 6.789-39.457 3.394-1.45-.339-2.061 2.122-.611 2.461z"/><path d="M240.653 155.987c22.667-9.504 43.731-23.166 62.2-40.646 1.145-1.103-.534-2.885-1.602-1.782-18.164 17.141-38.847 30.633-61.132 39.967-1.45.594-.839 3.055.534 2.461z"/></g><path d="M494.261 51.019c-9.692 12.728-18.545 26.22-26.482 40.307-.764 1.358 1.221 2.63 1.984 1.273 7.861-13.916 16.637-27.239 26.101-39.797.992-1.188-.611-3.055-1.603-1.782z" class="B"/><g class="C"><path d="M495.33 53.228c13.738 2.461 26.941 7.298 39.228 14.341 1.298.764 2.442-1.442 1.145-2.206-12.516-7.213-25.872-12.05-39.839-14.595-1.373-.255-1.984 2.206-.534 2.461zm-27.475 40.815c11.906 6.025 23.659 12.305 35.336 18.923 1.297.764 2.442-1.442 1.145-2.206-11.677-6.534-23.43-12.813-35.336-18.923-1.374-.679-2.519 1.527-1.145 2.206z"/><path d="M535.169 66.378c-10.227 15.189-20.149 30.633-29.765 46.331.534-.169 1.068-.339 1.603-.424-.84-.509-1.679-1.103-2.595-1.612-1.298-.849-2.442 1.357-1.145 2.206.84.509 1.679 1.103 2.595 1.612.534.34 1.221.085 1.603-.424 9.54-15.698 19.461-31.227 29.764-46.331.763-1.358-1.221-2.63-2.06-1.358z"/><path d="M534.94 67.822c3.434 8.91 5.952 18.074 7.631 27.578.306 1.612 2.519.933 2.214-.679-1.679-9.674-4.351-19.093-7.861-28.172-.534-1.442-2.519-.17-1.984 1.273zm-28.772 46.841c2.976 4.413 5.571 8.995 7.861 13.917.686 1.442 2.671.169 1.984-1.273-2.29-4.922-4.885-9.504-7.861-13.916-.84-1.273-2.824 0-1.984 1.272z"/><path d="M516.013 128.409c9.921-10.182 19.232-20.874 28.085-32.16.992-1.273-.687-3.055-1.603-1.782-8.853 11.286-18.164 22.063-28.085 32.16-1.068 1.104.534 2.886 1.603 1.782zM468.084 94.72l14.654 21.213c.915 1.273 2.9 0 1.984-1.272l-14.653-21.214c-.916-1.273-2.9-.085-1.985 1.273z"/><path d="M483.195 116.868l30.68 12.983c1.374.594 1.985-1.867.611-2.461l-30.68-12.983c-1.374-.594-1.984 1.867-.611 2.461z"/></g><g fill="#ff5050"><path fill-rule="evenodd" d="M209.097 96.226l-12.251-35.957c3.053-2.206 6.411-4.582 10.303-6.704 2.977-1.782 5.877-3.309 8.624-4.667l29.765 86.638L226 145.888l-16.903-49.662z"/><path d="M247.827 152.677L226 145.888l19.538-10.352 18.545 8.91-16.256 8.231z"/></g><path d="M266.678 43.468c6.259 12.559 13.051 30.124 15.875 51.932.916 7.128 1.297 13.916 1.297 20.026-12.135 10.352-26.94 21.299-44.723 31.481a295.5 295.5 0 0 1-28.467 14.341h14.882a302.51 302.51 0 0 0 34.802-19.008c13.508-8.57 25.109-17.48 34.801-25.796l-5.952-31.142-7.251-34.027a24.6 24.6 0 0 0-6.945-5.346c-3.358-1.697-6.334-2.291-8.319-2.461z" fill="#e93a3a"/><g fill="#ff5050"><path d="M206.08 53.82c-1.679-1.527.535-10.692 6.64-13.577 4.656-2.206 10.685-.424 14.882 4.667-2.365.764-5.953 1.952-10.226 3.903-7.632 3.479-10.151 6.025-11.296 5.007z"/><path d="M216.689 44.911c3.587-2.546 8.777-6.958 13.279-14.001 7.709-12.134 8.319-24.523 8.243-29.699 1.297-.424 9.006-3.055 13.28 1.103 5.8 5.6.457 19.008-.687 21.808-3.358 8.401-8.853 12.983-10.609 14.341-9.769 7.637-20.453 6.788-23.506 6.449zM177.614 22.34c3.816-.679 5.953 6.873 13.89 14.341 7.097 6.619 15.035 9.589 21.216 11.116-2.594 2.206-7.479 5.855-14.271 6.788-9.845 1.358-23.277-2.8-26.483-13.238-2.366-7.892 1.374-18.329 5.648-19.008z"/></g><g class="B"><path d="M510.06 54.5l-29.612 43.786 10.608 21.383 9.158 4.158-6.716-17.904 26.407-48.029-9.845-3.394z"/><path d="M539.977 78.089l-30.299 37.337-35.259-11.456 5.953 8.401 33.122 12.219 28.544-35.809a264.83 264.83 0 0 0-2.061-10.692zm-20.072-20.534c.382-1.782 6.029-3.564 9.845-.34 2.443 2.037 3.893 6.025 2.824 7.213-1.984 2.206-13.203-4.158-12.669-6.873z"/><path d="M513.952 30.147c1.679-1.018 5.037 2.206 5.953 3.055s4.121 4.073 6.334 13.322c1.145 4.667 2.824 11.625 1.069 12.559-1.984 1.103-8.014-5.855-11.295-13.322-2.519-5.94-4.274-14.256-2.061-15.613zm44.265 30.122c.153-2.036-3.969-3.649-5.113-4.073-1.069-.424-5.114-1.867-13.738.255-4.35 1.103-10.761 2.715-10.837 4.752-.076 2.376 8.319 4.667 15.874 4.243 6.029-.339 13.585-2.546 13.814-5.176z"/></g><path d="M247.827 152.678L226 145.889l19.538-10.352 18.545 8.91-16.256 8.231z" fill="#d33939"/><path opacity=".12" d="M199.975 158.787c4.503-1.782 11.143-4.413 19.08-8.146 13.508-6.28 23.048-10.692 33.657-18.669 5.266-3.988 12.363-10.097 19.919-19.007 3.74-8.316 8.319-20.705 10.074-36.488 1.069-9.589.916-18.074.305-24.947l8.167 5.261c2.747 7.977 5.571 17.735 7.555 29.021 1.984 10.946 2.824 20.874 3.053 29.275-8.243 7.977-15.569 13.916-21.064 18.074-26.483 20.111-44.723 24.863-48.768 25.881-6.258 1.528-11.066 1.782-13.203 1.867-8.014.34-14.501-1.018-18.775-2.121z" class="D"/><g class="B"><path d="M469.381 92.685l14.577 23.081 30.528 13.153 29.078-35.046-7.174-26.984-29.765 44.804-37.244-19.008z" class="E"/><path d="M344.066 745.563c3.052-4.243 4.884-6.194 5.571-5.685 1.755 1.188-4.503 18.329-18.851 51.507-35.183 1.867-53.042.934-53.5-2.885-.381-3.309 12.669-8.825 39.152-16.462l17.401-40.985 10.227 14.51z"/><path d="M361.924 475.044l-9.921 69.666c-10.837 69.242-24.041 134.836-38.77 196.526 2.137 2.63 7.708 8.655 16.866 11.455 11.525 3.479 21.064-.339 23.812-1.527l51.668-201.193c22.667-27.493 18.317-63.047.992-75.946-11.448-8.485-29.154-7.297-44.647 1.019z"/></g><g class="D"><path opacity=".15" d="M362.84 476.486c2.213.255.839 38.355-.916 72.636-3.968 77.813-17.019 146.122-32.512 203.06-1.679-.509-3.663-1.273-5.647-2.376-4.885-2.715-8.167-6.279-10.075-8.825 4.656-18.499 11.372-46.331 18.317-80.443 21.751-106.833 27.704-184.307 30.833-184.052z"/><path opacity=".13" d="M349.942 565.5c-1.679 22.402-4.121 45.992-7.555 70.6-5.571 40.476-12.974 77.643-21.141 111.33-.915-.17-2.289-.594-3.816-1.697-2.06-1.527-3.052-3.479-3.434-4.412l18.011-85.535 17.935-90.286z"/></g><g class="B"><path d="M490.216 743.016c-3.358-4.243-5.418-6.195-6.181-5.685-1.908 1.188 4.96 18.328 20.682 51.507 38.694 1.867 58.232.933 58.766-2.885.458-3.309-13.89-8.825-43.044-16.462l-19.156-40.985-11.067 14.51z"/><path d="M391.231 495.324c-2.824 15.105 3.587 27.579 5.953 31.736l75.479 224.613c4.274.679 13.127 1.358 23.354-2.63 11.524-4.498 18.24-12.559 20.835-16.123-15.035-35.639-24.499-65.508-30.299-85.789-15.187-53.035-35.641-104.287-50.142-157.577-2.442-8.91-6.563-24.523-15.874-26.475-10.837-2.206-26.025 14.426-29.306 32.245z"/></g><g class="D"><path opacity=".1" d="M414.89 463.588c-5.266 4.242 4.503 26.899 9.158 38.185 11.219 27.238 17.019 56.853 27.78 84.346 11.601 29.615 28.62 77.558 52.66 158.001 1.679-.933 3.816-2.206 5.953-4.158a31.72 31.72 0 0 0 5.953-7.212c-6.029-14.511-14.729-36.488-23.888-63.897-3.281-9.758-3.663-11.54-7.25-23.759l-10.99-36.658c-5.724-18.329-5.724-15.868-16.485-48.368l-9.158-28.766-4.198-14.34c-.152-.509-5.189-17.905-12.287-38.525-1.832-5.43-3.816-10.776-8.777-13.577-.305-.254-5.876-3.394-8.471-1.272z"/><path opacity=".12" d="M452.134 542.589c-.458.169 9.768 35.554 58.689 196.95l5.953-6.449c-2.977-7.383-7.632-19.093-12.974-33.688-12.288-33.348-17.554-52.78-31.291-95.632l-20.377-61.181z"/></g><path d="M473.732 226.587c-1.756.17-2.977-5.601-4.885-5.516-1.526.085-2.595 3.904-2.671 4.413-.916 3.479-.458 7.043 2.671 16.377a188.91 188.91 0 0 0 3.74 10.183c-.84 6.618-2.366 15.783-5.113 26.559-3.435 13.323-9.235 35.215-24.575 57.787-4.732 6.958-11.83 16.207-22.133 25.711-3.434 9.165-3.892 16.802-3.739 21.554.076 2.8.381 15.443 4.579 16.631 2.824.764 6.182-3.818 7.861-6.109 17.095-24.014 25.719-35.979 29.154-42.937 8.013-15.953 14.5-28.936 19.995-48.453 4.045-14.255 5.953-26.729 7.021-35.894 1.756-3.224 4.198-7.806 7.022-13.407 7.708-15.274 10.456-22.147 12.135-29.784 1.755-7.892 2.06-14.68.305-15.444-1.298-.509-2.9 2.122-4.35 1.443-2.137-1.019.152-8.062-2.137-9.589-.84-.594-2.519-.509-5.953 2.037-2.366-5.516-3.892-6.534-4.885-6.449-2.06.339-3.052 6.618-3.51 13.746-.611-3.479-2.137-10.777-4.045-10.777-1.603 0-3.282 5.346-3.74 9.589-.687 5.855.84 10.098-1.068 16.038-.382.848-.916 2.121-1.679 2.291z" fill="#fff"/><g class="C"><path d="M471.061 250.94c-.229 11.2-3.435 21.977-6.487 32.584-2.977 10.013-6.335 19.941-10.456 29.445-7.632 17.65-17.935 33.772-31.444 46.416-1.144 1.018.535 2.885 1.603 1.782 14.043-13.068 24.575-29.954 32.359-48.283 4.045-9.504 7.403-19.347 10.303-29.36 3.053-10.522 6.182-21.299 6.335-32.5.153-1.697-2.137-1.697-2.213-.084zm13.584 14.766c-2.06 26.815-12.592 52.017-23.277 75.776-9.769 21.723-21.598 42.852-39.228 57.702-1.145 1.018 0 3.225 1.145 2.206 18.011-15.189 30.146-36.488 40.067-58.635 10.914-24.184 21.446-49.81 23.583-77.049.076-1.612-2.213-1.612-2.29 0z"/><path d="M472.969 249.583c-2.595-6.194-5.038-13.407-5.419-20.28-.076-.933-.229-4.922.381-5.431 1.908-1.442 2.443 1.018 2.901 2.037.839 1.782 1.45 3.055 3.052 4.073 1.298.764 2.443-1.358 1.145-2.206-2.671-1.698-2.442-6.365-5.495-7.637-2.595-1.104-3.51 1.272-4.045 3.733-1.831 8.74 2.137 19.178 5.343 26.984.839 1.528 2.747.17 2.137-1.273z"/><path d="M475.563 229.217c2.595-6.618 1.985-13.407 2.214-20.45.076-1.612-.229-5.346.61-6.619 1.527-2.121 2.671 2.376 3.053 3.819 1.068 4.582 1.297 9.164.992 13.831-.153 1.613 2.137 1.613 2.29 0 .229-3.224-.077-25.711-6.564-22.062-2.671 1.527-2.518 7.552-2.595 10.183-.229 6.703.611 13.577-1.908 19.941-.61 1.527 1.374 2.885 1.908 1.357z"/><path d="M484.951 219.968l1.068-9.25c.229-3.479-.229-7.382.763-10.691.84-3.055 1.298-3.649 2.442-.934.84 1.952 1.145 3.988 1.374 6.025.382 3.818.687 8.316-.381 12.049-.458 1.613 1.755 2.207 2.213.679 1.221-4.497.916-10.013.229-14.595-.382-2.461-1.603-8.91-4.579-8.91-2.595 0-3.664 4.837-3.893 6.874-.763 5.939-.61 12.049-1.45 17.989-.229 1.697 1.985 2.376 2.214.764z"/><path d="M493.27 217.763c.305-2.631.305-5.346.305-7.977.076-2.291-.076-8.401 2.518-8.146 1.908.17 1.756 1.952 1.908 3.818l.077 3.904c0 3.139-.153 6.194-.687 9.334-.305 1.612 1.908 2.291 2.213.679.763-4.158 3.358-21.214-3.511-21.384-6.334-.17-4.655 15.953-5.113 19.856-.153 1.528 2.137 1.528 2.29-.084z"/><path d="M501.436 210.294l2.671-.255.382 2.376.229 4.497c-.077 2.716-.458 5.516-1.145 8.147-1.221 5.176-3.282 10.097-5.571 14.849-4.198 8.825-8.701 17.565-13.051 26.306-.687 1.442 1.297 2.715 1.984 1.272l11.067-22.147c3.434-6.873 6.868-14.086 8.318-21.893.764-4.242 2.366-14.001-1.602-16.971-2.519-1.951-5.801.679-5.495 3.904.076 1.527 2.366 1.527 2.213-.085z"/></g><g class="D"><path opacity=".08" d="M497.544 200.705c-1.145.085-1.45 5.346-2.214 11.625-1.221 11.031-2.594 23.42-7.326 33.773-1.527 3.394-4.274 8.4-9.235 13.831-.763 6.025-2.213 14.68-4.655 24.863-4.274 17.819-10.532 43.106-28.238 66.781-4.808 6.364-12.211 15.189-23.125 23.76l-.992 24.862c4.732-3.988 11.6-10.352 18.698-19.432 9.311-11.964 15.34-25.541 27.017-52.186 9.311-21.298 11.829-29.529 13.356-35.469a185.81 185.81 0 0 0 5.113-27.069c5.19-9.08 9.006-17.141 11.677-23.505 4.655-11.032 12.135-28.851 7.556-33.264-1.298-1.188-3.206-1.103-4.656-.848-.687-3.564-1.908-7.807-2.976-7.722z"/><path opacity=".1" d="M494.643 250.433l-12.135 14.34c-.381 4.073-1.068 10.098-2.671 17.311-3.052 13.577-7.479 23.08-9.234 27.069-4.503 10.013-10.38 25.287-16.027 48.113 2.518-4.837 15.874-30.633 23.353-52.696 2.824-8.485 4.35-12.898 5.572-19.771 1.526-8.231 1.144-12.049 3.129-18.668 2.213-7.213 5.571-12.474 8.013-15.698z"/></g><path d="M282.629 208.004c-2.443.764-2.519 8.146-2.137 12.304.61 7.382 3.205 12.898 4.35 15.274l14.424 28.511c.611 6.11 1.679 14.426 3.816 24.099 3.74 16.971 8.548 28.512 15.188 44.38 10.532 25.032 16.79 39.373 30.146 54.647 5.037 5.685 9.616 9.928 12.745 12.643 1.145-1.442 8.166-10.437 6.792-23.25-1.068-10.437-7.021-16.802-8.7-18.499-3.663-3.394-9.235-8.91-14.959-16.716-12.058-16.632-17.095-33.264-24.422-58.211-1.984-6.789-4.655-16.377-7.326-28.172 1.45-5.261 2.671-9.419 3.51-12.05 2.519-8.061 4.122-12.134 2.977-17.31-.305-1.358-.916-3.904-2.442-4.413-1.756-.509-4.427 1.867-6.487 6.195-1.145-6.958-1.68-12.729-1.908-17.056-.306-6.28-.153-10.862-1.374-11.201-1.298-.34-3.282 4.752-3.511 5.261-1.908 4.752-1.908 9.249-1.603 12.049.611-15.783-.992-19.771-2.747-20.28-1.45-.424-3.282 1.697-3.816 2.376-3.587 4.243-1.755 10.437-1.603 10.861-1.602-9.419-3.281-10.013-3.816-10.013-1.373-.084-2.747 3.31-3.281 5.261-.611 2.376-.229 4.498 0 5.601-1.222-1.273-2.672-2.631-3.816-2.291z" fill="#fff"/><g class="C"><path d="M311.859 251.111c.229 10.861 3.053 21.383 5.953 31.736 2.9 10.267 6.181 20.365 10.226 30.123 7.556 18.244 17.783 35.131 31.444 48.283 1.145 1.103 2.747-.763 1.603-1.782-13.204-12.728-23.125-28.851-30.528-46.416-4.045-9.504-7.327-19.432-10.151-29.445-3.052-10.607-6.105-21.383-6.334-32.584 0-1.528-2.29-1.528-2.213.085zm-13.127 14.848c1.984 26.814 12.058 52.016 22.438 76.03 9.616 22.317 21.445 44.04 39.151 59.484 1.145 1.018 2.748-.764 1.603-1.782-17.324-15.02-28.772-36.064-38.312-57.702-10.456-23.929-20.683-49.216-22.667-75.946-.076-1.697-2.366-1.697-2.213-.084z"/><path d="M314.225 251.11c3.206-7.976 7.25-18.753 5.037-27.663-.534-2.206-1.526-3.988-3.816-2.969-2.976 1.272-2.671 5.939-5.342 7.637-1.297.848-.153 3.054 1.145 2.206 1.221-.764 1.908-1.782 2.595-3.14.305-.679.61-2.206 1.144-2.715 2.977-2.461 2.443 2.885 2.443 4.412-.153 7.128-2.672 14.595-5.266 21.044-.535 1.358 1.45 2.631 2.06 1.188z"/><path d="M311.63 228.115c-2.366-6.11-1.679-12.729-1.831-19.178-.077-2.715.229-9.334-2.595-10.946-6.335-3.649-6.716 18.923-6.487 22.062.152 1.613 2.442 1.613 2.289 0-.305-4.412-.152-8.825.764-13.152.228-1.103 1.068-6.195 2.976-5.261.839.424.763 6.279.763 7.297.153 7.043-.381 13.832 2.137 20.451.611 1.527 2.595.254 1.984-1.273z"/><path d="M302.777 219.458c-.839-5.94-.687-11.964-1.45-17.819-.229-2.122-1.221-6.959-3.892-7.043-2.748-.085-3.969 6.024-4.35 8.231-.84 4.836-1.145 10.522.076 15.274.382 1.527 2.595.933 2.213-.679-.916-3.394-.687-7.298-.458-10.862.153-2.121.458-4.327 1.145-6.364 1.145-3.224 1.603-3.903 2.671 0 .84 3.14.458 6.789.687 10.013.229 3.309.611 6.619 1.145 9.928.229 1.612 2.442.934 2.213-.679z"/><path d="M294.764 217.93c-.458-3.818 1.221-20.11-5.037-19.856-6.716.255-4.122 17.311-3.435 21.384.306 1.612 2.519.933 2.213-.679-.534-3.055-.686-6.194-.686-9.334 0-2.291-.611-7.467 1.831-7.722 2.519-.255 2.366 5.94 2.443 8.146.076 2.716 0 5.346.305 7.977.229 1.697 2.595 1.782 2.366.084z"/><path d="M286.902 210.464c.306-3.139-2.823-5.855-5.342-3.903-3.74 2.885-2.366 12.134-1.679 16.208 1.221 7.552 4.274 14.51 7.556 21.298l11.371 23.505c.687 1.443 2.671.17 1.985-1.272l-13.051-26.985c-2.061-4.497-3.969-9.164-5.037-14.17-.611-2.631-.992-5.346-1.069-8.147 0-1.018 0-2.036.077-3.139a14.85 14.85 0 0 1 .381-3.225c.077-1.273.992-1.358 2.595-.254-.229 1.697 2.061 1.697 2.213.084z"/></g><g class="D"><path d="M290.337 200.196c2.137.849.611 11.031.229 14.85-.839 8.74.916 21.977 13.356 40.815 3.282 18.16 9.54 42.937 22.361 69.752 10.838 22.741 23.125 40.052 33.352 52.44l2.213 22.487c-4.732-3.649-11.295-9.419-17.782-17.82-5.648-7.382-9.006-13.831-13.89-24.098-12.593-26.56-18.927-39.883-23.354-56.005-2.442-8.825-5.342-21.553-7.021-37.337-6.03-8.655-10.151-16.631-12.898-22.741-5.343-11.795-6.716-19.262-6.564-25.966.153-7.637 1.374-8.655 1.908-8.91 1.145-.509 2.671.51 3.664 1.358-.077-.424-.84-4.243 1.45-7.043.381-.339 1.908-2.206 2.976-1.782z" class="E"/><path d="M284.231 230.49c.764-.424 5.419 6.873 8.777 12.983 7.861 14.34 11.066 27.154 11.906 30.293 5.037 19.432 11.524 35.894 24.575 68.733 3.968 9.928 9.997 24.354 18.469 41.41-2.442-2.546-5.953-6.364-9.693-11.371-3.281-4.327-14.042-19.007-25.261-52.695-4.351-13.153-9.464-30.888-13.127-52.696-2.595-4.921-6.182-11.964-9.998-20.789-1.679-3.988-6.487-15.359-5.648-15.868z" class="E"/></g><path d="M392.605 350.731c-2.672-.254-7.403-.679-13.585 0-7.174.849-13.585 1.528-18.393 6.195-3.587 3.479-4.656 7.806-6.64 16.377-1.145 5.006-2.671 11.795-2.518 20.959.305 16.971 6.105 19.178 9.158 39.713 1.526 9.928 1.374 17.65 1.297 26.899a223.6 223.6 0 0 1-2.518 30.802c3.282 2.886 8.319 6.789 15.187 9.844 4.198 1.866 16.104 6.873 31.367 3.903 16.027-3.055 25.873-13.068 29.154-16.717-5.342-16.037-5.876-28.935-5.418-37.675.61-10.607 2.595-12.898 5.418-35.725 2.137-16.971 2.061-24.014 1.908-27.832-.534-15.274-.839-22.996-5.418-28.172-4.503-5.092-16.027-6.28-38.999-8.571z" fill="#fff"/><g class="C"><path d="M388.789 350.137a62.5 62.5 0 0 0-16.867 1.018c-4.732.933-9.616 1.867-12.745 6.194-5.724 7.807-8.166 18.584-8.624 28.427-1.145 25.117 10.074 48.028 13.89 72.297.229 1.612 2.442.933 2.213-.679-3.434-21.893-12.898-42.343-13.814-64.745-.381-10.267.992-20.789 5.724-29.784 1.603-3.055 3.358-6.025 6.487-7.298 2.137-.848 4.503-1.357 6.717-1.866 5.571-1.188 11.295-1.443 16.942-1.103 1.527.169 1.527-2.376.077-2.461z"/><path d="M359.177 433.633c2.213 18.668 1.985 37.506-.763 56.089-.229 1.613 1.984 2.291 2.213.679 2.824-18.838 3.129-37.845.84-56.768-.229-1.612-2.519-1.612-2.29 0zm38.999-81.206c10.227-.679 22.819.678 31.52 7.467 5.266 4.158 5.495 11.116 6.029 17.65.534 5.855.763 11.71.382 17.65-1.527 23.165-9.922 45.143-9.846 68.563 0 1.612 2.29 1.612 2.29 0-.076-26.39 10.761-51.253 9.998-77.728-.305-10.097 0-23.08-8.701-29.02-9.082-6.195-21.216-7.807-31.672-7.128-1.526.085-1.526 2.63 0 2.546z"/><path d="M428.627 438.3c-.153 16.632 1.679 33.094 5.342 49.216.382 1.612 2.595.934 2.214-.679-3.587-15.868-5.419-32.16-5.266-48.537 0-1.612-2.29-1.612-2.29 0z"/><path d="M358.566 492.098c10.379 9.589 23.583 15.359 37.168 15.444 15.34.085 28.161-8.231 39.991-18.329 1.145-1.018 0-3.224-1.145-2.206-11.219 9.504-23.201 17.65-37.625 17.904-13.356.255-26.483-5.261-36.71-14.68-1.221-1.018-2.824.764-1.679 1.867z"/></g><g class="D"><path opacity=".11" d="M416.34 351.832c2.366 6.364 5.418 15.953 6.945 27.918 2.976 24.014-2.061 42.427-8.09 63.726a305.62 305.62 0 0 1-25.338 62.284 50.34 50.34 0 0 0 15.187-.764c15.112-3.054 25.186-12.219 29.689-16.886-.535-4.243-1.45-10.861-2.748-18.838-2.061-12.474-2.747-13.407-2.976-17.904-.306-5.516.534-4.837 5.037-28.172 1.755-9.165 3.053-17.481 3.816-28.342.076-.934.076-1.867.152-2.8.382-14.002.535-22.572-4.808-29.87-5.113-6.958-12.516-9.419-16.866-10.352z"/><path opacity=".08" d="M438.396 392.479c-.534-.17-3.205 4.497-9.463 23.081-6.869 20.45-15.34 49.895-21.904 87.995a44.34 44.34 0 0 0 13.127-4.158c6.869-3.479 11.448-8.146 14.043-11.286-2.29-8.91-4.884-22.147-4.808-38.27.076-31.736 10.227-56.938 9.005-57.362z"/></g><path d="M365.053 288.954c-2.976 6.788-2.137 13.662-1.45 16.886-.305 0-3.892-.17-5.8 2.715-2.29 3.395-.153 7.637.229 8.316.534 1.019 1.221 2.461 2.671 2.885 2.29.764 4.427-1.442 4.579-1.612 1.145 3.225 3.053 7.298 6.029 11.456 4.58 6.449 9.693 10.267 13.127 12.388l.382 12.135c.84.848 2.595 2.376 5.19 2.885 5.113 1.103 9.082-2.631 9.54-3.14l-.229-15.274c1.984-1.697 4.274-4.073 6.487-7.212 4.426-6.45 6.029-12.983 6.64-16.887.839.34 2.213.679 3.968.679 1.679 0 3.816-.085 4.808-1.612 1.069-1.697-.076-4.158-1.221-6.789-1.145-2.46-1.984-2.8-2.289-2.885-1.298-.424-2.519.425-2.901.679.306-2.715.458-7.807-1.45-13.492-.534-1.612-3.587-10.267-10.99-14.85-12.134-7.297-31.214-1.103-37.32 12.729z" fill="#fff"/><g class="C"><path d="M363.68 289.125c-4.503 21.978 2.824 50.32 25.261 55.072 1.45.339 2.061-2.122.611-2.461-21.217-4.497-27.857-31.227-23.659-51.932.305-1.612-1.908-2.291-2.213-.679z"/><path d="M389.246 344.111c3.129 1.018 7.403-2.291 9.922-4.158 3.358-2.461 6.334-5.6 8.7-9.249 5.877-8.74 8.09-19.771 7.174-30.463-.153-1.612-2.442-1.612-2.29 0 .84 9.249-.686 18.668-5.189 26.56-1.908 3.309-4.274 6.279-7.022 8.825-2.213 2.036-7.632 6.958-10.684 6.024-1.45-.424-2.061 2.037-.611 2.461zm-6.715-2.037c1.145 3.479 1.45 7.128.916 10.777-.229 1.612 1.984 2.291 2.213.679.61-4.158.381-8.146-.916-12.135-.458-1.527-2.671-.933-2.213.679z"/><path d="M398.328 339.189a40.24 40.24 0 0 0 .916 12.813c.382 1.613 2.595.934 2.214-.679-.916-3.988-1.145-8.061-.84-12.134.153-1.612-2.137-1.612-2.29 0z"/><path d="M383.523 354.463c5.266 6.534 16.256 6.364 18.164-3.564.305-1.612-1.908-2.291-2.214-.679-1.602 8.061-10.15 7.552-14.348 2.461-.992-1.188-2.595.594-1.602 1.782zm.457-10.692c4.427 4.497 11.372 3.479 14.196-2.546.686-1.442-1.298-2.715-1.985-1.273-2.137 4.498-7.25 5.516-10.608 2.037-1.068-1.103-2.671.679-1.603 1.782z"/><path d="M388.56 345.637c1.068-.085 2.06 0 3.052.34 1.451.424 2.061-2.037.611-2.461-1.221-.339-2.442-.509-3.663-.424-1.45.085-1.45 2.63 0 2.545zM363.909 318.4c-3.13 2.8-5.877-1.103-6.182-4.412-.382-3.225 2.137-7.213 5.342-5.007 1.221.849 2.366-1.357 1.145-2.206-4.732-3.309-9.311 2.291-8.777 7.552.611 5.601 5.571 9.928 10.074 5.855 1.145-1.018-.458-2.8-1.602-1.782zm51.515-12.39c2.442-2.546 4.808 2.291 4.732 4.497 0 1.358-.611 2.716-1.679 3.479-.84.594-2.824 1.358-3.511.17-.763-1.358-2.747-.085-1.984 1.273 1.145 2.121 3.739 2.206 5.647 1.358 2.214-1.019 3.664-3.31 3.74-5.94.229-4.667-4.579-10.862-8.624-6.619-.992 1.103.61 2.97 1.679 1.782zm-30.681-17.141c.611 5.94.306 11.541-.229 17.481-.305 3.988 1.603 5.685 4.427 8.231 1.145 1.018 2.747-.764 1.603-1.782-1.985-1.867-3.74-3.14-3.664-6.534 0-1.613.382-3.395.535-5.007.305-4.158.152-8.316-.306-12.389-.229-1.612-2.518-1.612-2.366 0zm-12.745 12.051c-.076-1.867 2.366-3.055 3.74-2.97 1.603 0 2.442 1.443 3.282 2.8s2.823.085 1.984-1.273c-1.527-2.46-3.282-4.497-6.182-3.988-2.442.509-5.266 2.461-5.19 5.516.077 1.612 2.366 1.612 2.366-.085zm26.178-2.292c2.06-4.328 7.632-3.649 8.624 1.188.305 1.612 2.518.933 2.213-.679-1.374-6.958-9.845-8.061-12.821-1.867-.611 1.443 1.297 2.801 1.984 1.358zm-28.391-6.702c1.297-2.206 3.51-3.649 5.876-3.988 1.45-.17 1.45-2.716 0-2.546-3.281.424-6.029 2.206-7.861 5.261-.839 1.358 1.145 2.63 1.985 1.273zm28.391-4.753c2.747-.169 5.266.764 7.25 2.801 1.069 1.103 2.748-.679 1.603-1.782-2.442-2.461-5.571-3.734-8.929-3.564-1.45.085-1.45 2.63.076 2.545zm-25.567 20.28v-.17c0-.679-.534-1.273-1.145-1.273s-1.145.594-1.145 1.273v.17c0 .678.535 1.272 1.145 1.272s1.145-.509 1.145-1.272zm3.51-.594h.153c.611 0 1.145-.594 1.145-1.273s-.534-1.273-1.145-1.273h-.153c-.61 0-1.144.594-1.144 1.273.076.679.534 1.273 1.144 1.273zm-.152 5.6h.153c.61 0 1.144-.594 1.144-1.273s-.534-1.272-1.144-1.272h-.153c-.611 0-1.145.593-1.145 1.272s.534 1.273 1.145 1.273zm24.727-7.467h.153c.61 0 1.145-.594 1.145-1.273s-.535-1.272-1.145-1.272h-.153c-.61 0-1.145.594-1.145 1.272.077.679.535 1.273 1.145 1.273zm6.716-.167c1.45 0 1.45-2.546 0-2.546s-1.45 2.546 0 2.546zm-2.518 4.071c1.45 0 1.45-2.546 0-2.546-1.527 0-1.527 2.546 0 2.546zm-25.262 11.116c4.656 9.334 16.867 7.977 19.843-2.121.458-1.528-1.755-2.206-2.213-.679-2.366 8.146-11.982 8.825-15.646 1.527-.686-1.442-2.671-.169-1.984 1.273z"/></g><path d="M352.386 299.223c-2.824 4.667-6.869 12.728-8.472 23.505-1.144 7.722-3.129 21.214 4.503 31.906 2.061 2.885 9.616 12.304 19.996 10.776 6.945-1.018 14.348-6.788 15.721-14.849.687-3.734-.076-6.959-.763-8.825-3.281-1.782-9.158-5.516-13.737-12.814-2.29-3.564-3.664-7.043-4.427-9.758-.381.339-1.602 1.358-3.281 1.273-1.985-.085-3.206-1.613-3.511-2.037-2.366-2.97-2.137-9.079.992-11.116 1.603-1.018 3.434-.679 4.427-.424-.458-3.14-.916-9.843 2.289-16.886 2.137-4.752 5.419-8.231 12.974-13.492 6.259-4.328 9.006-3.989 9.998-3.819 3.358.679 5.419 3.649 6.487 5.176l18.546 26.305c.305-.169 2.366-1.272 4.426-.254 1.45.764 2.137 2.206 2.595 3.309.382.934.992 2.291.687 3.904-.305 2.036-1.755 3.903-3.74 4.582-2.442.848-4.426-.594-4.731-.849-.611 3.225-1.832 8.062-4.732 13.238-2.977 5.261-6.411 8.74-8.777 10.776-.305 2.037-.687 5.771.763 10.013 2.29 6.959 8.243 11.371 13.738 12.729 10.303 2.461 18.622-6.11 20.759-8.401 7.326-7.637 11.753-20.45 8.013-32.754-2.824-9.165-9.082-14.171-11.524-15.953-2.977-7.637-6.029-13.577-8.472-17.82-6.868-11.964-11.6-20.026-20.224-22.996-5.266-1.782-10.074-1.103-13.28-.254-5.189-1.273-9.234-.764-11.982 0-12.669 3.479-22.285 17.565-25.261 35.809z" fill="#c92627"/><g class="D"><path opacity=".08" d="M404.739 289.803c-.611.255.61 4.667 1.221 9.08.076.594 1.374 11.54-2.29 21.977-4.121 11.71-12.669 17.99-16.408 20.366l7.174 1.867 1.984 13.831 4.655-6.11c.687 1.443 1.908 3.564 3.816 5.516.611.679 5.037 5.091 11.601 5.685 7.327.764 12.745-3.648 15.798-6.109 2.061-1.613 8.166-6.704 10.99-16.462 3.053-10.607.076-19.517-.84-21.978-.992 4.243-3.052 10.607-7.479 16.802-1.068 1.527-10.685 14.849-16.637 12.558-5.114-1.952-6.869-15.359-4.351-32.924.153.17 1.374 1.782 3.129 1.697 2.214-.085 3.206-2.545 3.358-2.8 1.069-2.546-.228-5.346-1.526-6.873-1.679-2.037-3.969-2.376-4.655-2.376-.993-1.103-2.443-2.8-3.969-5.007-3.663-5.006-5.037-8.91-5.571-8.74z"/><path d="M386.27 308.641c.61-1.103 3.968-1.358 4.96.933.764 1.782-.229 4.158-1.297 4.413-1.679.509-4.503-3.904-3.663-5.346zm-17.63 35.893c-1.602 3.055-4.808 5.855-8.013 5.516-1.908-.17-4.045-1.442-11.448-14.595-2.442-4.328-4.35-8.061-5.648-10.522-.686 2.8-1.602 7.807-.839 13.831.305 2.376 1.068 6.449 3.129 10.862 1.297 2.8 4.35 8.994 10.837 12.898 1.908 1.188 5.266 3.14 9.769 3.14 7.556-.085 12.44-5.686 13.432-6.874 1.756-1.951 4.274-4.921 4.656-9.588.381-4.498-1.527-7.977-1.985-8.656-2.289-3.903-4.731-3.479-8.624-7.212-4.96-4.752-6.334-10.607-6.945-10.353-.916.594 6.03 13.238 1.679 21.553z" class="E"/><path opacity=".13" d="M413.668 308.812c-.458-.17-1.831 5.176-5.8 12.389-5.648 10.267-12.593 16.971-17.63 21.044 3.511-1.103 9.769-3.649 14.959-9.928 8.242-9.843 9.158-23.25 8.471-23.505z"/></g><path d="M416.017 381.13c.125-.013.255-.044.39-.084l.028-.013c.283-.079.539-.242.78-.492.205-.207.307-.603.307-1.14 0-.668-.167-1.108-.497-1.341-.284-.198-.618-.326-1.013-.383v3.453h.005zm-7.038 5.736c-.4.057-.734.184-1.013.382-.33.233-.497.691-.497 1.342 0 .541.107.932.307 1.139.241.255.497.414.78.497l.028.009a2.8 2.8 0 0 0 .39.092v-3.461h.005zm-.13 7.13c-2.072 0-3.587-.577-4.52-1.711-.888-1.087-1.329-2.323-1.329-3.691 0-.211.023-.532.07-.989.046-.497.204-1.03.464-1.571.33-.712.911-1.363 1.705-1.939.85-.612 2.026-.902 3.61-.902h2.787v-8.511c0-.379.33-.682.729-.682h3.782c1.584 0 2.764.29 3.605.897.803.576 1.379 1.236 1.718 1.949.256.541.414 1.064.46 1.57l.07.99c0 1.359-.441 2.599-1.329 3.681-.929 1.144-2.448 1.72-4.52 1.72h-2.792v8.502c0 .383-.32.691-.72.691h-3.79v-.004z" fill="#252422"/><path d="M417.754 381.002c-.33.343-.697.568-1.105.691a3.24 3.24 0 0 1-.646.136l-.539.027h-.167v-4.909h.167c.813 0 1.473.185 2.002.554.525.378.79 1.007.79 1.896 0 .73-.167 1.262-.502 1.605zm-8.055 10.042h-.167a6.47 6.47 0 0 1-.539-.026c-.209-.013-.428-.066-.646-.137-.404-.114-.771-.343-1.11-.681-.33-.343-.497-.88-.497-1.606 0-.888.265-1.522.79-1.891.524-.378 1.193-.563 2.002-.563h.167v4.904zm11.507-12.566c-.047-.427-.181-.88-.404-1.36-.284-.611-.781-1.165-1.487-1.675s-1.765-.761-3.168-.761h-3.782v9.197h-3.512c-1.402 0-2.462.251-3.168.761s-1.203 1.064-1.486 1.676c-.233.475-.367.923-.404 1.35l-.07.924c0 1.214.399 2.305 1.184 3.268s2.096 1.443 3.94 1.443h3.781v-9.193h3.512c1.84 0 3.155-.484 3.94-1.452s1.184-2.054 1.184-3.264c.009-.184-.014-.488-.06-.914z" fill="#c92627"/></svg>