<svg width="288" height="266" viewBox="0 0 288 266" fill="none" xmlns="http://www.w3.org/2000/svg">
<path d="M38.3419 238.348C52.0032 238.348 64.7038 244.701 78.0839 246.776C91.089 248.772 103.954 245.479 116.748 243.249C123.192 242.134 129.706 241.252 136.244 241.615C142.993 242.004 149.249 244.027 155.388 247.035C160.942 249.784 166.378 252.973 172.26 254.814C177.86 256.578 183.625 256.655 189.342 255.54C202.793 252.921 215.165 244.805 229.061 244.883C229.506 244.883 229.506 244.105 229.061 244.105C216.899 244.027 205.816 250.173 194.287 253.518C188.288 255.255 182.031 256.189 175.892 254.944C169.682 253.699 163.965 250.536 158.294 247.631C152.67 244.753 146.976 242.238 140.79 241.304C134.416 240.345 127.972 240.759 121.622 241.693C108.734 243.534 95.9162 247.424 82.8407 246.542C67.7266 245.505 53.6435 237.596 38.3888 237.596C37.8967 237.57 37.8967 238.348 38.3419 238.348Z" fill="#1B1616"/>
<path d="M19.5019 241.46C22.2904 240.293 25.1492 239.463 28.1017 238.971C28.5469 238.893 28.3594 238.141 27.9142 238.219C24.9617 238.685 22.1029 239.515 19.3144 240.708C18.8926 240.889 19.0801 241.641 19.5019 241.46Z" fill="#161616"/>
<path d="M14.4875 248.202C30.1874 240.552 47.1293 249.187 62.4777 253.569C66.9768 254.866 71.5696 255.825 76.2327 256.111C76.6779 256.137 76.6779 255.359 76.2327 255.333C59.3143 254.321 43.9424 243.871 26.8131 244.494C22.4546 244.649 18.143 245.609 14.1594 247.553C13.7376 247.735 14.0891 248.409 14.4875 248.202Z" fill="#1B1616"/>
<path d="M109.057 262.812C111.339 262.36 113.503 261.357 115.682 260.374C117.846 259.41 120.024 258.585 122.247 257.975C126.842 256.737 131.555 256.324 136.223 256.756C138.935 257.012 141.633 257.562 144.271 258.368C144.552 258.447 144.671 257.877 144.389 257.798C135.23 254.987 125.538 255.498 116.586 259.352C114.052 260.433 111.577 261.711 108.924 262.242C108.657 262.301 108.775 262.871 109.057 262.812Z" fill="#1B1616"/>
<path d="M171.135 263.528C176.009 266.302 181.586 266.354 186.906 265.55C193.069 264.643 199.114 262.828 205.09 260.857C216.97 256.941 228.803 252.17 241.293 251.34C248.159 250.873 255.072 251.677 261.516 254.4C261.937 254.581 262.125 253.829 261.703 253.648C238.106 243.638 214.205 258.964 191.288 263.943C184.797 265.343 177.603 266.302 171.51 262.828C171.089 262.62 170.737 263.294 171.135 263.528Z" fill="#1B1616"/>
<path d="M243.05 245.22C248.369 245.064 253.642 246.205 258.516 248.643C258.914 248.85 259.289 248.176 258.867 247.968C253.9 245.479 248.51 244.286 243.05 244.442C242.582 244.468 242.582 245.246 243.05 245.22Z" fill="#1B1616"/>
<path d="M77.4043 245.738C75.5766 243.612 74.1472 241.096 73.2333 238.322C72.835 237.077 72.5303 235.806 72.3429 234.51C72.2257 233.732 71.7571 231.554 73.3739 232.046C74.0066 232.254 74.733 233.343 75.0845 233.913C75.3423 234.328 75.9515 233.939 75.6937 233.524C74.4752 231.579 73.5614 229.427 72.999 227.145C72.7178 226.004 72.5303 224.811 72.4132 223.619C72.3663 223.048 72.3429 222.478 72.3429 221.881C72.3429 221.596 72.3429 221.311 72.3663 221.025C72.3194 220.455 72.5538 220.014 73.1161 219.703C73.3505 219.625 73.5614 219.573 73.7957 219.495C73.4208 218.432 73.1396 217.343 72.9521 216.228C72.8584 215.606 72.7881 214.958 72.7412 214.309C72.7412 214.231 72.7881 211.846 73.163 212.287C73.3973 212.572 73.866 212.287 73.7488 211.898C72.5538 207.723 72.3194 203.288 73.163 198.984C73.327 198.154 73.4676 196.935 74.0066 196.261C74.7096 195.379 75.7172 195.846 76.2327 196.676C76.5608 197.195 76.7717 197.791 76.9591 198.387C77.5449 200.358 77.7558 202.485 78.1073 204.507C79.6304 213.35 81.0833 222.218 81.9269 231.191C82.3955 236.221 82.6767 241.278 82.6767 246.334C82.6767 246.827 83.3797 246.827 83.3797 246.334C83.3797 235.832 82.1612 225.382 80.5677 215.035C79.771 209.927 78.9743 204.767 77.9901 199.684C77.6621 198.024 77.1231 195.639 75.5063 194.964C74.3112 194.472 73.4442 195.535 73.0459 196.676C71.3821 201.447 71.7336 207.282 73.0927 212.079C73.2802 211.949 73.4911 211.82 73.6785 211.69C72.8115 210.705 72.1085 211.975 72.0382 212.883C71.8742 215.139 72.3897 217.551 73.1161 219.625C73.2802 220.092 73.9363 219.91 73.7957 219.418C73.5848 218.666 72.7647 218.432 72.2023 218.951C71.265 219.807 71.6165 222.218 71.7102 223.333C71.9679 227.119 73.163 230.724 75.0845 233.835C75.2954 233.706 75.4829 233.576 75.6937 233.447C75.0845 232.487 73.6551 230.49 72.3897 231.035C71.1009 231.579 71.5462 233.784 71.7102 234.873C72.3663 239.151 74.2175 243.093 76.9122 246.231C77.2169 246.646 77.7324 246.101 77.4043 245.738Z" fill="#F3F3F3"/>
<path d="M82.419 226.731C82.419 224.19 82.6299 221.674 83.0751 219.211C83.2626 218.251 84.3874 212.054 85.395 212.235C85.559 212.261 85.7933 212.183 85.8168 211.976C86.2854 209.227 86.9415 206.53 87.8086 203.911C88.6521 201.422 89.5894 198.206 91.5344 196.495C91.3703 196.495 91.2063 196.495 91.0423 196.495C92.2842 197.999 91.9327 200.722 91.9561 202.615C91.9561 204.689 91.9093 206.764 91.7921 208.864C91.5578 213.247 91.0891 217.603 90.4564 221.908C89.2379 230.335 87.4102 238.659 85.559 246.957C85.4419 247.45 86.1214 247.657 86.2386 247.165C88.2538 238.218 90.1987 229.272 91.4172 220.144C92.003 215.814 92.4014 211.483 92.5654 207.127C92.6591 204.793 92.6826 202.459 92.6123 200.125C92.5654 198.621 92.4951 197.117 91.5344 195.976C91.3938 195.821 91.1829 195.847 91.0423 195.976C89.1677 197.61 88.2772 200.462 87.4336 202.848C86.4026 205.752 85.6527 208.735 85.1372 211.794C85.2778 211.717 85.4184 211.613 85.559 211.535C84.8326 211.405 84.4577 211.872 84.1531 212.572C83.5438 214.025 83.122 215.632 82.7705 217.188C82.0207 220.326 81.6926 223.567 81.6926 226.809C81.7161 227.224 82.419 227.224 82.419 226.731Z" fill="#F3F3F3"/>
<path d="M187.866 255.177C186.695 253.051 185.71 250.821 184.937 248.461C184.586 247.398 184.281 246.309 184.023 245.194C183.883 244.597 183.766 244.001 183.648 243.405C183.602 243.119 183.531 242.808 183.484 242.497C183.25 241.875 183.484 241.46 184.164 241.252C184.398 241.226 184.633 241.175 184.843 241.149C184.211 239.23 183.766 237.259 183.531 235.21C183.414 234.199 183.344 233.214 183.344 232.202C183.344 231.71 183.672 229.324 183.414 229.013C183.625 229.272 184.023 229.065 184.023 228.728C183.976 226.264 184.094 223.827 184.469 221.389C184.633 220.274 184.867 219.185 185.125 218.096C185.265 217.551 185.406 217.007 185.546 216.462C185.64 216.151 185.734 215.84 185.828 215.554C185.921 214.88 186.296 214.595 186.999 214.725C187.14 215.114 187.702 215.088 187.679 214.621C187.655 212.054 188.007 209.538 188.827 207.127C189.038 206.53 189.717 204.119 190.514 204.067C191.545 204.015 191.569 207.101 191.615 207.723C192.014 212.832 192.318 217.966 192.482 223.1C192.834 233.551 192.74 244.001 192.178 254.425C192.154 254.918 192.857 254.918 192.881 254.425C193.373 245.272 193.514 236.118 193.303 226.964C193.185 222.426 192.998 217.888 192.717 213.376C192.576 211.146 192.436 208.942 192.225 206.712C192.108 205.338 191.873 204.067 190.795 203.237C190.678 203.159 190.561 203.185 190.444 203.237C188.921 204.041 188.335 206.115 187.866 207.801C187.234 210.005 186.952 212.313 186.976 214.647C187.21 214.621 187.444 214.569 187.655 214.543C187.421 213.843 186.741 213.532 186.109 213.869C185.078 214.388 184.82 216.436 184.539 217.447C183.602 221.13 183.203 224.942 183.297 228.753C183.508 228.65 183.695 228.572 183.906 228.468C183.859 228.416 183.836 228.39 183.789 228.339C183.719 228.235 183.555 228.183 183.437 228.235C182.922 228.442 182.805 228.805 182.711 229.376C182.5 230.75 182.57 232.254 182.664 233.629C182.828 236.274 183.344 238.867 184.164 241.356C184.281 241.745 184.89 241.719 184.843 241.252C184.773 240.448 184 240.008 183.32 240.423C182.219 241.071 182.828 243.068 183.016 244.053C183.836 248.124 185.289 251.988 187.234 255.54C187.491 255.981 188.101 255.592 187.866 255.177Z" fill="#F3F3F3"/>
<path d="M193.513 235.729C193.49 234.329 193.607 232.955 193.865 231.58C193.982 230.958 194.146 230.336 194.333 229.739C194.404 229.532 195.154 227.146 195.599 227.872C195.786 228.183 196.232 228.08 196.255 227.665C196.325 226.524 196.466 225.409 196.747 224.319C196.864 223.853 197.895 220.611 198.364 220.922C198.598 221.104 198.879 220.871 198.903 220.585C199.043 218.303 199.512 216.073 200.356 213.999C200.754 212.988 201.246 212.002 201.809 211.095C202.254 210.343 202.933 209.072 203.636 208.579C205.464 207.283 205.136 210.446 205.113 211.38C205.066 212.547 204.995 213.714 204.925 214.906C204.761 217.422 204.527 219.911 204.222 222.401C203.004 232.54 200.848 242.497 198.715 252.429C198.622 252.922 199.278 253.129 199.395 252.636C201.41 243.327 203.425 233.992 204.667 224.501C205.253 219.989 205.675 215.451 205.839 210.887C205.886 209.798 206.026 208.035 204.949 207.438C203.824 206.816 202.886 208.346 202.277 209.15C199.864 212.417 198.458 216.41 198.2 220.637C198.387 220.533 198.551 220.404 198.739 220.3C196.724 218.874 195.622 226.55 195.575 227.716C195.786 227.639 196.021 227.587 196.232 227.509C195.435 226.212 194.427 227.483 194.052 228.443C193.185 230.75 192.81 233.266 192.834 235.755C192.81 236.222 193.513 236.222 193.513 235.729Z" fill="#F3F3F3"/>
<path d="M25.2664 238.062C24.3291 237.648 23.4386 237.051 22.8528 236.118C22.5716 235.677 22.3842 235.184 22.2201 234.691C22.1733 234.588 21.7281 233.006 22.2904 233.317C22.6654 233.524 22.97 233.058 22.7122 232.695C21.4469 230.905 20.533 228.857 20.0878 226.627C19.9706 226.03 19.6894 225.175 19.8066 224.578C20.0409 223.385 21.1188 223.23 21.8218 223.982C22.5716 224.786 23.2278 225.771 23.8136 226.73C25.9928 230.231 27.3285 234.276 27.7268 238.503C27.7737 238.996 28.4767 238.996 28.4298 238.503C28.1721 235.625 27.4925 232.85 26.4146 230.205C25.407 227.768 23.9307 224.812 22.0093 223.126C21.3766 222.581 20.4861 222.218 19.7597 222.737C18.9161 223.308 19.1036 224.578 19.1973 225.486C19.5254 228.364 20.6033 231.009 22.2201 233.291C22.3607 233.084 22.5013 232.876 22.6419 232.669C22.2436 232.461 21.8218 232.435 21.4937 232.85C21.0016 233.447 21.3063 234.277 21.5406 234.925C22.1967 236.87 23.3215 238.088 25.0555 238.866C25.5007 238.996 25.6882 238.244 25.2664 238.062Z" fill="#F3F3F3"/>
<path d="M26.0396 229.662C25.0788 225.616 24.1415 221.675 23.6729 217.526C23.5557 216.54 23.4385 215.529 23.3682 214.544C23.2979 213.532 23.0636 212.054 23.2979 211.069C23.2979 210.913 23.3214 210.732 23.3214 210.576C24.0478 209.695 24.5867 209.643 24.9382 210.472C25.1491 210.81 25.3366 211.199 25.5006 211.588C25.9458 212.443 26.3442 213.325 26.7191 214.233C29.8591 221.519 31.3119 229.584 31.0073 237.648C30.9839 238.141 31.6869 238.141 31.7103 237.648C32.0852 228.287 30.1169 218.459 25.7115 210.421C25.1726 209.435 23.8603 208.087 22.9464 209.435C22.5481 210.006 22.595 210.939 22.595 211.613C22.5481 212.936 22.6418 214.284 22.7824 215.607C23.0167 217.941 23.2276 220.326 23.6963 222.634C24.1884 225.098 24.8211 227.509 25.4069 229.947C25.4772 230.336 26.1567 230.128 26.0396 229.662Z" fill="#F3F3F3"/>
<path d="M11.5115 168.878C27.0005 168.463 42.0912 172.794 56.7835 177.799C71.4758 182.803 86.051 188.612 101.282 191.387C108.921 192.787 116.678 193.332 124.41 192.683C132.916 191.983 141.282 190.064 149.53 187.73C157.943 185.345 166.261 182.57 174.674 180.107C183.109 177.617 191.592 175.361 200.145 173.416C217.415 169.475 234.966 166.83 252.634 166.363C254.767 166.311 256.922 166.285 259.055 166.285C259.5 166.285 259.5 165.507 259.055 165.507C241.738 165.455 224.468 167.582 207.433 171.057C190.256 174.583 173.479 179.692 156.654 184.826C148.312 187.393 139.899 189.753 131.323 191.101C123.145 192.372 114.897 192.528 106.695 191.464C91.2765 189.494 76.4904 183.893 61.7747 178.732C47.2464 173.65 32.4135 168.801 17.1119 168.152C15.2373 168.074 13.3626 168.074 11.488 168.126C11.0428 168.126 11.0428 168.904 11.5115 168.878Z" fill="#F3F3F3"/>
<path d="M164.058 172.872C180.063 167.997 195.669 161.747 211.51 156.25C227.303 150.753 243.425 145.955 259.945 144.088C269.154 143.051 278.457 142.921 287.666 144.088C288.111 144.14 288.111 143.362 287.666 143.31C271.31 141.262 254.79 143.258 238.785 147.174C222.547 151.141 206.8 157.08 191.029 162.837C182.031 166.13 173.033 169.345 163.894 172.12C163.426 172.25 163.613 173.002 164.058 172.872Z" fill="#F3F3F3"/>
<path d="M112.53 214.051C118.529 215.581 124.715 214.88 130.714 213.662C136.994 212.391 143.157 210.576 149.319 208.657C161.739 204.819 174.088 200.903 186.999 199.814C194.287 199.218 201.621 199.374 208.885 200.229C209.331 200.281 209.331 199.503 208.885 199.451C196.279 197.947 183.531 198.647 171.112 201.552C158.763 204.43 146.812 209.098 134.486 212.028C127.386 213.713 119.935 215.14 112.741 213.299C112.272 213.195 112.085 213.947 112.53 214.051Z" fill="#F3F3F3"/>
<path d="M229.014 219.081C244.714 218.148 259.242 225.901 274.309 229.428C278.527 230.413 282.792 231.062 287.104 231.139C287.549 231.139 287.549 230.361 287.104 230.361C271.427 230.076 257.063 222.115 241.785 219.237C237.567 218.433 233.302 218.044 229.014 218.303C228.569 218.355 228.545 219.133 229.014 219.081Z" fill="#F3F3F3"/>
<path d="M0.333917 139.057C16.5728 138.85 32.7883 142.117 47.9024 148.678C52.2374 150.571 56.4788 152.749 60.6029 155.161C61.0013 155.394 61.3528 154.72 60.9544 154.486C46.5433 146.033 30.6793 140.743 14.4639 138.953C9.77731 138.435 5.0439 138.201 0.333917 138.279C-0.111306 138.279 -0.111306 139.057 0.333917 139.057Z" fill="#F3F3F3"/>
<path d="M16.6901 108.64C29.5079 112.193 41.2008 119.168 53.3155 124.847C65.5474 130.578 78.3885 134.545 91.5343 136.516C98.939 137.631 106.438 138.124 113.913 137.994C114.358 137.994 114.358 137.216 113.913 137.216C100.439 137.45 86.9415 135.634 73.9129 131.849C67.5158 129.981 61.2592 127.648 55.1433 124.847C49.0742 122.072 43.1223 118.909 37.1235 115.979C30.5389 112.763 23.8606 109.807 16.8776 107.888C16.4558 107.758 16.2684 108.51 16.6901 108.64Z" fill="#F3F3F3"/>
<path d="M167.238 139.462C179.399 144.648 192.756 141.822 204.683 137.258C211.104 134.794 217.337 131.838 223.711 129.271C229.967 126.756 236.317 124.578 242.761 122.736C250.213 120.61 257.782 118.95 265.397 117.758C265.843 117.68 265.655 116.928 265.21 117.006C252.017 119.08 239.036 122.555 226.452 127.378C214.08 132.124 202.106 138.84 189.007 140.888C181.766 142.029 174.291 141.64 167.425 138.71C167.003 138.529 166.816 139.281 167.238 139.462Z" fill="#F3F3F3"/>
<path d="M22.2792 44.8309C41.4514 48.1585 59.1329 60.3024 70.4152 77.7932C73.5763 82.7134 76.2234 88.0317 78.228 93.6344C78.4079 94.1463 79.1532 93.9188 78.9733 93.4069C71.7773 73.3281 56.7428 57.2878 38.7786 49.0685C33.5358 46.6796 28.0617 44.9731 22.4848 44.0062C21.9965 43.9209 21.7909 44.7456 22.2792 44.8309Z" fill="#F3F3F3"/>
<path d="M45.613 112.569C53.8848 105.464 64.8513 103.701 74.9977 105.36C85.8236 107.124 95.6419 112.88 104.499 119.778C109.842 123.927 114.88 128.517 119.918 133.107C120.27 133.418 120.762 132.873 120.41 132.562C111.318 124.264 102.086 115.862 91.3772 110.235C81.8166 105.205 71.0375 102.689 60.4928 104.686C54.9158 105.749 49.62 108.161 45.1209 111.999C44.7694 112.336 45.2615 112.88 45.613 112.569Z" fill="#F3F3F3"/>
<path d="M192.755 120.746C197.175 99.615 209.229 80.8444 225.368 68.6436C229.994 65.1454 234.954 62.1876 240.146 59.8555C240.608 59.6564 240.403 58.8317 239.94 59.0308C221.539 67.3353 206.145 83.2903 197.535 103.113C195.119 108.687 193.269 114.518 192.01 120.519C191.907 121.059 192.652 121.286 192.755 120.746Z" fill="#F3F3F3"/>
<path d="M77.2036 60.7642C81.0586 62.5843 83.9627 66.1962 86.7126 69.5806C89.5653 73.0788 92.1867 76.8045 94.6024 80.7008C99.2798 88.2943 103.006 96.542 105.679 105.245C105.833 105.757 106.579 105.529 106.424 105.017C103.675 96.1154 99.8195 87.6402 95.0136 79.876C92.6492 76.065 90.0536 72.4247 87.2523 68.9834C84.451 65.5706 81.4955 61.8733 77.5891 60.0532C77.1522 59.7972 76.741 60.5366 77.2036 60.7642Z" fill="#1B1616"/>
<path d="M179.881 100.515C183.916 88.9969 190.418 78.673 198.745 70.4538C199.105 70.0841 198.565 69.4868 198.205 69.8566C189.776 78.1896 183.222 88.6271 179.136 100.288C178.956 100.8 179.701 100.999 179.881 100.515Z" fill="#1B1616"/>
<path d="M166.252 90.2901C170.013 82.4875 176.101 76.2794 183.496 72.446C184.038 72.1746 183.56 71.2925 183.018 71.5639C175.464 75.4652 169.249 81.843 165.424 89.7812C165.137 90.3579 165.965 90.9007 166.252 90.2901Z" fill="#1B1616"/>
<path d="M149.992 29.0164C152.254 27.2815 154.875 26.4852 157.625 26.6558C158.113 26.6843 158.113 25.8311 157.625 25.8026C154.746 25.632 151.971 26.4852 149.606 28.3054C149.195 28.5898 149.581 29.3292 149.992 29.0164Z" fill="#EC615B"/>
<path d="M156.237 21.3375C158.473 21.8494 160.632 22.5604 162.739 23.4989C163.202 23.698 163.407 22.8732 162.945 22.6741C160.837 21.7356 158.678 21.0246 156.442 20.5127C155.954 20.3989 155.749 21.2237 156.237 21.3375Z" fill="#EC615B"/>
<path d="M98.1298 56.5747C99.0807 59.3049 99.1835 62.149 98.4639 64.9646C98.3354 65.5049 99.0807 65.7324 99.2092 65.1921C99.9802 62.2343 99.8517 59.2196 98.8751 56.3472C98.6952 55.8352 97.9499 56.0627 98.1298 56.5747Z" fill="#1B1616"/>
<path d="M104.709 57.513C106.071 59.3332 107.767 60.8121 109.669 61.8644C110.106 62.1203 110.491 61.3809 110.054 61.1249C108.178 60.1011 106.559 58.679 105.248 56.8873C104.94 56.4891 104.4 57.0864 104.709 57.513Z" fill="#1B1616"/>
<path d="M188.516 51.9115C189.673 53.3335 190.187 55.1821 189.904 57.0876C189.827 57.628 190.572 57.8555 190.649 57.3151C190.983 55.0968 190.418 52.9638 189.056 51.3142C188.722 50.8876 188.182 51.4849 188.516 51.9115Z" fill="#1B1616"/>
<path d="M194.915 50.6024C195.866 51.7969 196.792 52.9629 197.742 54.1574C198.077 54.584 198.616 53.9583 198.282 53.5602C197.331 52.3657 196.406 51.1996 195.455 50.0052C195.147 49.5786 194.607 50.1758 194.915 50.6024Z" fill="#1B1616"/>
<path d="M157.625 60.7844C159.398 57.3431 161.737 54.3569 164.59 51.9679C164.975 51.6267 164.59 50.8872 164.204 51.2285C161.249 53.7312 158.807 56.7743 156.957 60.3578C156.725 60.8413 157.394 61.2679 157.625 60.7844Z" fill="#1B1616"/>
<path d="M68.1635 27.6229C68.5233 29.699 68.9602 31.8889 69.5256 34.1641C71.4017 41.587 74.0745 47.787 76.7216 52.7356C77.4926 52.9347 78.5977 53.2191 79.9598 53.3897C81.8359 53.6457 84.8685 54.0723 88.2866 52.9916C89.109 52.7356 88.7492 52.764 92.3729 51.1145C95.9966 49.465 96.2022 49.5218 97.5899 48.8393C99.9543 47.7017 102.087 46.0521 106.277 42.8384C107.484 41.8999 109.155 40.5916 111.108 38.9705C111.237 38.0604 111.391 36.7237 111.365 35.1026C111.314 32.543 110.825 30.6944 110.132 28.021C109.026 23.8403 108.255 20.9963 107.767 19.2046C106.791 18.522 105.737 17.8394 104.529 17.2137C100.545 15.0807 96.7675 14.2275 93.8635 13.8862C90.8823 14.1422 88.5179 14.7394 86.9245 15.2229C79.9341 17.3559 75.1282 21.366 72.147 23.8972C70.3737 25.3761 69.0116 26.7128 68.1635 27.6229Z" fill="white"/>
<path d="M176.771 17.1855C174.715 19.6314 172.531 22.5608 170.449 26.002C169.421 27.7084 168.522 29.358 167.725 30.9506C169.293 33.5387 170.86 36.1268 172.454 38.6864C175.975 40.1937 179.496 41.7011 183.016 43.2368C186.357 39.369 189.724 35.5011 193.065 31.6048C192.191 28.4763 191.318 25.3763 190.469 22.2479C188.748 21.2809 186.769 20.314 184.507 19.4323C181.629 18.3516 179.033 17.6406 176.771 17.1855Z" fill="white"/>
<path d="M67.9062 27.8784C68.78 37.0362 72.4294 45.3692 76.3872 53.3609C76.6185 53.8444 77.2867 53.4178 77.0554 52.9343C73.1747 45.1132 69.5253 36.894 68.6772 27.8784C68.6258 27.338 67.8548 27.3096 67.9062 27.8784Z" fill="#161616"/>
<path d="M68.6258 28.1062C74.9223 20.5127 83.5575 15.5925 92.7838 14.2558C93.2721 14.199 93.2721 13.3457 92.7838 13.4026C83.3519 14.7678 74.5111 19.7164 68.0604 27.4806C67.752 27.9072 68.2917 28.5044 68.6258 28.1062Z" fill="#161616"/>
<path d="M92.8354 14.1426C97.0245 21.1105 98.9777 29.216 100.854 37.2077C100.982 37.7481 101.728 37.5205 101.599 36.9802C99.6973 28.9031 97.7184 20.7408 93.5036 13.716C93.2209 13.261 92.5527 13.6876 92.8354 14.1426Z" fill="#161616"/>
<path d="M77.2869 53.3335C81.99 51.7692 86.5132 49.6931 90.8308 47.105C92.9639 45.8252 95.0199 44.4032 97.0245 42.8674C98.8235 41.5023 100.7 40.0803 101.676 37.8619C101.907 37.3785 101.239 36.9519 101.008 37.4353C99.9543 39.7959 97.7955 41.2748 95.8937 42.6968C94.0176 44.0904 92.0644 45.3986 90.0598 46.5931C85.9221 49.039 81.5788 51.0014 77.107 52.5087C76.6187 52.6793 76.8243 53.5041 77.2869 53.3335Z" fill="#161616"/>
<path d="M93.2469 14.1991C98.3354 14.4266 103.218 16.3037 107.33 19.6597C107.742 19.9725 108.127 19.2331 107.716 18.9202C103.501 15.4789 98.4896 13.5734 93.2469 13.3459C92.7586 13.3175 92.7586 14.1707 93.2469 14.1991Z" fill="#161616"/>
<path d="M107.279 19.29C109.617 25.234 110.851 31.6046 110.877 38.1175C110.877 38.6578 111.648 38.6578 111.648 38.1175C111.596 31.4624 110.337 24.9496 107.921 18.8634C107.741 18.3515 107.099 18.7781 107.279 19.29Z" fill="#161616"/>
<path d="M101.188 37.947C104.374 40.2222 108.152 39.5965 111.622 38.5727C112.11 38.4305 111.905 37.6057 111.416 37.7479C108.152 38.7149 104.606 39.3405 101.599 37.2075C101.162 36.9231 100.776 37.6626 101.188 37.947Z" fill="#161616"/>
<path d="M76.8756 53.4756C81.4502 54.6132 86.2047 54.2434 90.5737 52.3379C91.0363 52.1389 90.8307 51.3141 90.3681 51.5132C86.1276 53.3618 81.5273 53.7884 77.0812 52.6508C76.5929 52.537 76.3873 53.3618 76.8756 53.4756Z" fill="#161616"/>
<path d="M90.7797 52.2808C98.4126 49.0955 105.506 44.5166 111.725 38.6579C112.111 38.2882 111.545 37.6909 111.185 38.0607C105.069 43.8056 98.1042 48.3276 90.5998 51.456C90.1115 51.6551 90.3171 52.4799 90.7797 52.2808Z" fill="#161616"/>
<path d="M176.18 17.0996C172.916 21.3656 169.935 25.8876 167.262 30.6087C167.005 31.0637 167.673 31.4903 167.93 31.0353C170.578 26.3711 173.533 21.906 176.72 17.6968C177.054 17.2987 176.514 16.673 176.18 17.0996Z" fill="#1B1616"/>
<path d="M176.54 17.8397C181.166 18.6645 185.612 20.2856 189.749 22.6461C190.186 22.9021 190.572 22.1627 190.135 21.9067C185.92 19.4893 181.423 17.8682 176.72 17.015C176.257 16.9296 176.051 17.7544 176.54 17.8397Z" fill="#161616"/>
<path d="M167.288 31.5197C171.297 33.539 175.255 35.6436 179.187 37.8619C179.624 38.1179 180.01 37.3784 179.573 37.1225C175.641 34.9326 171.683 32.828 167.674 30.7803C167.211 30.5527 166.826 31.2922 167.288 31.5197Z" fill="#161616"/>
<path d="M189.956 22.2473C186.512 27.3381 183.171 32.5142 179.933 37.7757C180.113 37.7188 180.292 37.6619 180.472 37.6335C180.19 37.4628 179.907 37.2637 179.599 37.0931C179.162 36.8087 178.776 37.5482 179.213 37.8326C179.496 38.0032 179.778 38.2023 180.087 38.3729C180.267 38.4867 180.498 38.4014 180.627 38.2307C183.839 32.9693 187.18 27.7647 190.65 22.7023C190.907 22.2473 190.238 21.8207 189.956 22.2473Z" fill="#161616"/>
<path d="M189.878 22.7316C191.035 25.7178 191.883 28.7893 192.448 31.9746C192.551 32.515 193.296 32.2875 193.194 31.7471C192.628 28.5049 191.729 25.3481 190.546 22.305C190.367 21.8215 189.698 22.2481 189.878 22.7316Z" fill="#161616"/>
<path d="M180.189 38.4305C181.192 39.9094 182.065 41.4451 182.836 43.0947C183.068 43.5781 183.736 43.1515 183.505 42.6681C182.734 41.0185 181.86 39.4827 180.858 38.0039C180.575 37.5772 179.907 38.0039 180.189 38.4305Z" fill="#161616"/>
<path d="M183.505 43.0375C186.846 39.6247 189.981 36.0412 192.962 32.2587C193.296 31.8321 192.731 31.2348 192.423 31.6614C189.441 35.444 186.306 39.0559 182.965 42.4403C182.605 42.81 183.145 43.4072 183.505 43.0375Z" fill="#161616"/>
<path d="M167.366 31.7463C169.01 34.1068 170.655 36.4958 172.3 38.8563C172.608 39.2829 173.277 38.8563 172.968 38.4297C171.323 36.0692 169.679 33.6802 168.034 31.3197C167.725 30.8931 167.057 31.2912 167.366 31.7463Z" fill="#161616"/>
<path d="M172.454 39.1695C175.897 40.6199 179.341 42.0704 182.785 43.5209C183.248 43.7199 183.453 42.8952 182.991 42.6961C179.547 41.2456 176.103 39.7952 172.659 38.3447C172.197 38.1456 171.991 38.9704 172.454 39.1695Z" fill="#161616"/>
<path fill-rule="evenodd" clip-rule="evenodd" d="M80.153 32.2511C78.7759 28.2326 77.3995 24.2161 76.0277 20.1997C77.0557 19.4602 78.1865 18.6639 79.4972 17.9529C80.4995 17.3556 81.4761 16.8437 82.4013 16.3887C84.0718 21.2235 85.7423 26.0655 87.4127 30.9074C89.0832 35.7494 90.7537 40.5913 92.4242 45.4262L85.8451 48.8959C83.953 43.3399 82.0523 37.7935 80.153 32.2511Z" fill="#FF5050"/>
<path d="M93.1952 51.1711C90.7537 50.4032 88.2866 49.6638 85.8451 48.8959L92.4242 45.4262L98.6693 48.4124C96.8446 49.3225 95.0199 50.261 93.1952 51.1711Z" fill="#FF5050"/>
<path d="M99.543 14.5688C101.65 18.778 103.938 24.6651 104.889 31.9743C105.197 34.3633 105.325 36.6385 105.325 38.6862C101.239 42.1559 96.2534 45.8247 90.2653 49.2375C86.9243 51.143 83.6861 52.7357 80.6792 54.0439C82.3497 54.0439 84.0202 54.0439 85.6907 54.0439C89.263 52.3944 93.2208 50.3182 97.4099 47.6733C101.959 44.8008 105.865 41.8146 109.129 39.0275C108.512 35.6146 107.844 32.1165 107.124 28.5899C106.328 24.6936 105.505 20.911 104.683 17.1853C104.22 16.6734 103.449 15.9624 102.344 15.3936C101.213 14.8248 100.211 14.6257 99.543 14.5688Z" fill="#E93A3A"/>
<path d="M79.1372 18.0385C78.5718 17.5266 79.3171 14.455 81.3731 13.4881C82.9409 12.7486 84.9712 13.3459 86.3847 15.0523C85.588 15.3082 84.38 15.7064 82.9408 16.3605C80.3708 17.5266 79.5227 18.3798 79.1372 18.0385Z" fill="#FF5050"/>
<path d="M82.7094 15.0524C83.9173 14.1992 85.6649 12.7203 87.1812 10.3597C89.7769 6.29277 89.9825 2.14049 89.9568 0.405632C90.3937 0.263431 92.9894 -0.618217 94.4286 0.775357C96.3818 2.65241 94.5828 7.14598 94.1973 8.08451C93.0665 10.9001 91.2161 12.4359 90.625 12.8909C87.3354 15.4505 83.7374 15.1661 82.7094 15.0524Z" fill="#FF5050"/>
<path d="M69.5512 7.48742C70.8362 7.2599 71.5558 9.79108 74.2286 12.2938C76.6186 14.5122 79.2914 15.5076 81.3731 16.0195C80.4993 16.7589 78.8545 17.9819 76.5672 18.2947C73.252 18.7498 68.7288 17.3562 67.6494 13.858C66.8527 11.2131 68.112 7.71494 69.5512 7.48742Z" fill="#FF5050"/>
<path d="M181.5 18.2661C178.185 23.1578 174.844 28.0496 171.529 32.9413C172.711 35.3303 173.893 37.7193 175.101 40.1082C176.129 40.5633 177.157 41.0468 178.185 41.5018C177.44 39.511 176.694 37.4917 175.923 35.5009C178.879 30.1257 181.86 24.7789 184.815 19.4037C183.71 19.034 182.605 18.6643 181.5 18.2661Z" fill="#1B1616"/>
<path d="M191.575 26.1724C188.182 30.3531 184.764 34.5054 181.372 38.6861C177.414 37.4063 173.456 36.1265 169.498 34.8466C170.167 35.7852 170.835 36.7237 171.503 37.6622C175.229 39.0274 178.93 40.3925 182.657 41.7576C185.869 37.7475 189.056 33.7659 192.269 29.7558C192.063 28.5613 191.832 27.3669 191.575 26.1724Z" fill="#1B1616"/>
<path d="M184.816 19.2903C184.944 18.693 186.846 18.0958 188.131 19.1765C188.953 19.8591 189.442 21.1958 189.082 21.5939C188.414 22.3334 184.636 20.2004 184.816 19.2903Z" fill="#1B1616"/>
<path d="M182.811 10.104C183.376 9.76274 184.507 10.8435 184.816 11.1279C185.124 11.4123 186.203 12.493 186.949 15.593C187.334 17.1572 187.9 19.4893 187.308 19.8021C186.64 20.1719 184.61 17.8398 183.505 15.337C182.657 13.3462 182.066 10.5591 182.811 10.104Z" fill="#1B1616"/>
<path d="M197.717 20.1999C197.768 19.5174 196.381 18.977 195.995 18.8348C195.635 18.6926 194.273 18.2091 191.369 18.9201C189.904 19.2899 187.745 19.8302 187.72 20.5128C187.694 21.3091 190.521 22.077 193.065 21.9348C195.096 21.821 197.64 21.0816 197.717 20.1999Z" fill="#1B1616"/>
<path d="M93.1953 51.1717C90.7539 50.4038 88.2867 49.6643 85.8452 48.8965L92.4244 45.4268L98.6694 48.413C96.8447 49.3231 95.02 50.2616 93.1953 51.1717Z" fill="#D33939"/>
<path opacity="0.12" d="M77.0813 53.219C78.5976 52.6217 80.8335 51.7401 83.5063 50.4887C88.0552 48.3842 91.2677 46.9053 94.84 44.2319C96.6133 42.8952 99.0034 40.8475 101.548 37.8613C102.807 35.0741 104.349 30.9218 104.94 25.6319C105.3 22.4182 105.249 19.5742 105.043 17.2705C105.968 17.8678 106.868 18.465 107.793 19.0338C108.718 21.7072 109.669 24.9778 110.337 28.7604C111.005 32.4292 111.288 35.7567 111.365 38.5723C108.59 41.2456 106.122 43.2365 104.272 44.63C95.354 51.3704 89.2117 52.963 87.8496 53.3043C85.7422 53.8162 84.1231 53.9016 83.4035 53.93C80.705 54.0438 78.5205 53.5887 77.0813 53.219Z" fill="#353535"/>
<path opacity="0.09" d="M167.802 31.0643C169.447 33.6524 171.066 36.2404 172.711 38.8C176.129 40.2789 179.573 41.7294 182.991 43.2083C186.255 39.2835 189.519 35.3872 192.782 31.4625C191.986 28.4478 191.163 25.4331 190.367 22.4185C187.026 27.4239 183.685 32.4294 180.344 37.4349C176.155 35.3303 171.966 33.1973 167.802 31.0643Z" fill="#1B1616"/>
<path d="M125.603 249.883C126.631 248.461 127.248 247.807 127.479 247.978C128.07 248.376 125.963 254.121 121.131 265.241C109.283 265.867 103.27 265.554 103.115 264.274C102.987 263.165 107.382 261.316 116.299 258.757C118.253 254.178 120.206 249.599 122.159 245.02C123.316 246.641 124.446 248.262 125.603 249.883Z" fill="#1B1616"/>
<path d="M131.617 159.216C130.64 166.867 129.509 174.659 128.276 182.566C124.626 205.773 120.18 227.757 115.22 248.433C115.94 249.315 117.816 251.334 120.9 252.273C124.78 253.439 127.993 252.159 128.918 251.761C134.726 229.293 140.509 206.797 146.317 184.329C153.95 175.114 152.485 163.198 146.651 158.875C142.796 156.031 136.834 156.429 131.617 159.216Z" fill="#1B1616"/>
<path opacity="0.15" d="M131.925 159.699C132.671 159.785 132.208 172.554 131.617 184.044C130.281 210.124 125.886 233.018 120.669 252.102C120.103 251.931 119.435 251.675 118.767 251.305C117.122 250.395 116.017 249.201 115.375 248.348C116.942 242.148 119.204 232.819 121.543 221.386C128.867 185.58 130.872 159.614 131.925 159.699Z" fill="#353535"/>
<path opacity="0.13" d="M127.582 189.533C127.016 197.041 126.194 204.948 125.037 213.196C123.161 226.762 120.668 239.218 117.919 250.509C117.61 250.452 117.148 250.31 116.634 249.94C115.94 249.428 115.606 248.774 115.477 248.461C117.533 238.991 119.538 229.435 121.542 219.794C123.624 209.612 125.629 199.516 127.582 189.533Z" fill="#353535"/>
<path d="M174.818 249.03C173.687 247.608 172.993 246.954 172.736 247.124C172.094 247.522 174.407 253.267 179.701 264.388C192.731 265.013 199.31 264.7 199.49 263.421C199.644 262.311 194.813 260.463 184.995 257.903C182.837 253.324 180.703 248.745 178.545 244.167C177.311 245.788 176.077 247.409 174.818 249.03Z" fill="#1B1616"/>
<path d="M141.485 166.013C140.534 171.075 142.693 175.256 143.49 176.65C151.971 201.734 160.426 226.847 168.907 251.931C170.346 252.159 173.328 252.386 176.771 251.049C180.652 249.542 182.914 246.84 183.787 245.646C178.725 233.701 175.538 223.69 173.585 216.893C168.47 199.118 161.583 181.94 156.7 164.079C155.877 161.093 154.49 155.86 151.354 155.206C147.705 154.466 142.59 160.041 141.485 166.013Z" fill="#1B1616"/>
<path opacity="0.1" d="M149.453 155.376C147.679 156.798 150.969 164.392 152.537 168.174C156.314 177.304 158.268 187.229 161.891 196.444C165.798 206.37 171.529 222.438 179.624 249.4C180.19 249.087 180.909 248.66 181.629 248.006C182.58 247.153 183.222 246.271 183.633 245.589C181.603 240.725 178.673 233.359 175.589 224.173C174.484 220.903 174.356 220.305 173.148 216.21C171.863 211.858 169.858 205.26 169.447 203.924C167.52 197.781 167.52 198.605 163.896 187.713C163.125 185.409 162.071 182.224 160.812 178.071C160.195 176.052 159.732 174.431 159.398 173.265C159.347 173.094 157.651 167.264 155.261 160.353C154.644 158.533 153.976 156.741 152.305 155.803C152.202 155.717 150.326 154.665 149.453 155.376Z" fill="#353535"/>
<path opacity="0.12" d="M161.994 181.854C161.84 181.911 165.284 193.771 181.757 247.864C182.426 247.153 183.094 246.442 183.762 245.703C182.76 243.228 181.192 239.304 179.393 234.412C175.255 223.235 173.482 216.722 168.856 202.36C166.286 194.368 162.148 181.797 161.994 181.854Z" fill="#353535"/>
<path d="M169.267 75.9432C168.676 76.0001 168.265 74.0661 167.622 74.0946C167.108 74.123 166.748 75.4028 166.723 75.5735C166.414 76.7395 166.569 77.934 167.622 81.0624C167.931 81.9725 168.342 83.1386 168.882 84.4753C168.599 86.6936 168.085 89.7652 167.16 93.3771C166.003 97.8422 164.05 105.18 158.884 112.745C157.291 115.077 154.901 118.177 151.431 121.362C150.275 124.434 150.121 126.993 150.172 128.586C150.198 129.525 150.301 133.762 151.714 134.16C152.665 134.416 153.796 132.881 154.361 132.113C160.118 124.064 163.022 120.054 164.178 117.722C166.877 112.375 169.061 108.024 170.912 101.483C172.274 96.7046 172.916 92.5239 173.276 89.4523C173.867 88.3716 174.69 86.8358 175.641 84.9587C178.236 79.8395 179.162 77.5358 179.727 74.9762C180.318 72.3313 180.421 70.0561 179.83 69.8001C179.393 69.6294 178.853 70.5111 178.365 70.2836C177.645 69.9423 178.416 67.5817 177.645 67.0698C177.363 66.8707 176.797 66.8992 175.641 67.7524C174.844 65.9038 174.33 65.5625 173.996 65.5909C173.302 65.7047 172.968 67.8093 172.814 70.1983C172.608 69.0322 172.094 66.5863 171.452 66.5863C170.912 66.5863 170.346 68.3781 170.192 69.8001C169.961 71.7625 170.475 73.1845 169.832 75.1753C169.704 75.4597 169.524 75.8863 169.267 75.9432Z" fill="white"/>
<path d="M168.368 84.1049C168.291 87.859 167.211 91.4709 166.183 95.026C165.181 98.3819 164.05 101.709 162.662 104.895C160.092 110.81 156.623 116.214 152.074 120.452C151.688 120.793 152.254 121.418 152.614 121.049C157.342 116.669 160.889 111.009 163.51 104.866C164.873 101.681 166.003 98.3819 166.98 95.026C168.008 91.4994 169.062 87.8875 169.113 84.1334C169.164 83.5645 168.393 83.5645 168.368 84.1049Z" fill="#161616"/>
<path d="M172.942 89.0542C172.249 98.0413 168.702 106.488 165.104 114.451C161.814 121.732 157.831 128.814 151.894 133.791C151.509 134.132 151.894 134.871 152.28 134.53C158.345 129.439 162.431 122.301 165.772 114.878C169.447 106.772 172.994 98.1835 173.713 89.0542C173.739 88.5138 172.968 88.5138 172.942 89.0542Z" fill="#161616"/>
<path d="M169.01 83.6503C168.136 81.5742 167.314 79.1568 167.185 76.8531C167.159 76.5403 167.108 75.2036 167.314 75.0329C167.956 74.5494 168.136 75.3742 168.29 75.7155C168.573 76.3127 168.779 76.7393 169.318 77.0806C169.755 77.3366 170.141 76.6256 169.704 76.3412C168.804 75.7724 168.881 74.2082 167.853 73.7816C166.98 73.4118 166.671 74.2082 166.491 75.0329C165.874 77.9623 167.211 81.4604 168.29 84.0769C168.573 84.5888 169.215 84.1338 169.01 83.6503Z" fill="#161616"/>
<path d="M169.884 76.8247C170.758 74.6064 170.552 72.3312 170.629 69.9706C170.655 69.4303 170.552 68.1789 170.835 67.7523C171.349 67.0413 171.734 68.5486 171.863 69.0321C172.223 70.5679 172.3 72.1037 172.197 73.6679C172.145 74.2082 172.916 74.2082 172.968 73.6679C173.045 72.5871 172.942 65.0505 170.758 66.2734C169.858 66.7853 169.91 68.8046 169.884 69.6862C169.807 71.933 170.089 74.2367 169.241 76.3697C169.036 76.8816 169.704 77.3367 169.884 76.8247Z" fill="#161616"/>
<path d="M173.045 73.7247C173.199 72.7008 173.328 71.677 173.405 70.6247C173.482 69.4587 173.328 68.1504 173.662 67.0412C173.944 66.0174 174.099 65.8183 174.484 66.7284C174.767 67.3825 174.87 68.0651 174.947 68.7476C175.075 70.0275 175.178 71.5348 174.818 72.7862C174.664 73.3265 175.409 73.5256 175.564 73.0137C175.975 71.5064 175.872 69.6577 175.641 68.122C175.512 67.2972 175.101 65.1357 174.099 65.1357C173.225 65.1357 172.865 66.7568 172.788 67.4394C172.531 69.4302 172.582 71.4779 172.3 73.4687C172.223 74.0375 172.968 74.2651 173.045 73.7247Z" fill="#161616"/>
<path d="M175.846 72.9854C175.949 72.1038 175.949 71.1937 175.949 70.312C175.975 69.5442 175.923 67.4965 176.797 67.5818C177.44 67.6387 177.388 68.2359 177.44 68.8616C177.465 69.2882 177.465 69.7432 177.465 70.1698C177.465 71.2221 177.414 72.246 177.234 73.2983C177.131 73.8386 177.876 74.0662 177.979 73.5258C178.236 72.1322 179.11 66.4157 176.797 66.3588C174.664 66.302 175.229 71.7056 175.075 73.0139C175.024 73.5258 175.795 73.5258 175.846 72.9854Z" fill="#161616"/>
<path d="M178.596 70.4819C178.905 70.4535 179.187 70.4251 179.496 70.3966C179.547 70.6526 179.598 70.9085 179.624 71.1929C179.676 71.7049 179.701 72.1883 179.701 72.7003C179.676 73.6104 179.547 74.5489 179.316 75.4305C178.905 77.1654 178.211 78.8149 177.44 80.4076C176.026 83.3654 174.51 86.2947 173.045 89.224C172.814 89.7075 173.482 90.1341 173.713 89.6507C174.947 87.1763 176.206 84.7021 177.44 82.2278C178.596 79.9241 179.753 77.5067 180.241 74.8902C180.498 73.4682 181.038 70.1975 179.701 69.2021C178.853 68.548 177.748 69.4296 177.851 70.5104C177.877 71.0223 178.648 71.0223 178.596 70.4819Z" fill="#161616"/>
<path opacity="0.08" d="M177.285 67.2685C176.9 67.2969 176.797 69.0602 176.54 71.1648C176.129 74.862 175.666 79.0143 174.073 82.484C173.559 83.6216 172.634 85.2996 170.963 87.1198C170.706 89.139 170.218 92.04 169.395 95.4528C167.956 101.425 165.849 109.9 159.886 117.835C158.267 119.968 155.774 122.926 152.099 125.799C151.997 128.586 151.894 131.344 151.765 134.132C153.359 132.795 155.672 130.662 158.062 127.619C161.197 123.609 163.227 119.058 167.16 110.128C170.295 102.989 171.143 100.231 171.657 98.2399C172.634 94.5996 173.122 91.4427 173.379 89.1675C175.127 86.1244 176.412 83.4226 177.311 81.2895C178.879 77.5923 181.397 71.6198 179.855 70.141C179.418 69.7428 178.776 69.7712 178.288 69.8566C178.056 68.6621 177.645 67.24 177.285 67.2685Z" fill="#353535"/>
<path opacity="0.1" d="M176.309 83.9351C174.947 85.5277 173.585 87.1488 172.223 88.7415C172.094 90.1066 171.863 92.1258 171.323 94.5433C170.295 99.0937 168.804 102.279 168.213 103.616C166.697 106.972 164.718 112.091 162.816 119.741C163.664 118.12 168.162 109.474 170.681 102.08C171.631 99.2359 172.145 97.757 172.557 95.4534C173.071 92.6947 172.942 91.4148 173.61 89.1965C174.356 86.7791 175.486 85.0158 176.309 83.9351Z" fill="#353535"/>
<path d="M104.914 69.7145C104.092 69.9705 104.066 72.4448 104.195 73.8383C104.4 76.3126 105.274 78.1613 105.66 78.9576C107.305 82.3135 108.898 85.4704 110.517 88.5135C110.723 90.5612 111.082 93.3483 111.802 96.5905C113.061 102.279 114.68 106.146 116.916 111.465C120.463 119.855 122.57 124.661 127.068 129.78C128.764 131.686 130.306 133.108 131.36 134.018C131.745 133.534 134.11 130.52 133.647 126.225C133.287 122.727 131.283 120.594 130.717 120.025C129.484 118.888 127.607 117.039 125.68 114.423C121.619 108.848 119.923 103.274 117.456 94.9126C116.788 92.6373 115.888 89.4236 114.989 85.4704C115.477 83.7071 115.888 82.3135 116.171 81.4319C117.019 78.7301 117.559 77.3649 117.173 75.6301C117.07 75.175 116.865 74.3218 116.351 74.1512C115.76 73.9805 114.86 74.7769 114.166 76.2273C113.781 73.8952 113.601 71.9613 113.524 70.5108C113.421 68.4063 113.472 66.8705 113.061 66.7567C112.624 66.643 111.956 68.3494 111.879 68.52C111.237 70.1127 111.237 71.62 111.339 72.5585C111.545 67.2687 111.005 65.932 110.414 65.7613C109.926 65.6191 109.309 66.3301 109.129 66.5576C107.921 67.9797 108.538 70.0558 108.59 70.198C108.05 67.0411 107.484 66.842 107.305 66.842C106.842 66.8136 106.379 67.9512 106.199 68.6053C105.994 69.4017 106.122 70.1127 106.199 70.4824C105.788 70.0558 105.3 69.6008 104.914 69.7145Z" fill="white"/>
<path d="M114.757 84.1623C114.835 87.8027 115.785 91.3293 116.762 94.799C117.739 98.2403 118.844 101.625 120.206 104.895C122.75 111.01 126.194 116.67 130.794 121.078C131.18 121.447 131.719 120.822 131.334 120.481C126.888 116.214 123.547 110.811 121.054 104.924C119.692 101.738 118.587 98.4109 117.636 95.0549C116.608 91.4999 115.58 87.888 115.503 84.1339C115.503 83.622 114.732 83.622 114.757 84.1623Z" fill="#161616"/>
<path d="M110.337 89.1386C111.005 98.1257 114.397 106.572 117.893 114.621C121.131 122.101 125.114 129.382 131.077 134.558C131.462 134.899 132.002 134.302 131.616 133.96C125.783 128.926 121.928 121.873 118.715 114.621C115.194 106.601 111.75 98.1257 111.082 89.167C111.056 88.5982 110.286 88.5982 110.337 89.1386Z" fill="#161616"/>
<path d="M115.554 84.1623C116.634 81.4889 117.996 77.877 117.25 74.8908C117.07 74.1514 116.736 73.5541 115.965 73.8954C114.963 74.322 115.066 75.8862 114.166 76.455C113.729 76.7394 114.115 77.4789 114.552 77.1945C114.963 76.9385 115.194 76.5972 115.426 76.1422C115.528 75.9147 115.631 75.4027 115.811 75.2321C116.813 74.4073 116.634 76.1991 116.634 76.711C116.582 79.1 115.734 81.6027 114.86 83.7642C114.68 84.2192 115.349 84.6458 115.554 84.1623Z" fill="#161616"/>
<path d="M114.68 76.4552C113.884 74.4075 114.115 72.1892 114.064 70.0277C114.038 69.1176 114.141 66.8993 113.19 66.3589C111.057 65.136 110.928 72.7011 111.005 73.7534C111.057 74.2937 111.828 74.2937 111.776 73.7534C111.674 72.2745 111.725 70.7956 112.033 69.3451C112.111 68.9754 112.393 67.269 113.036 67.5818C113.318 67.724 113.293 69.6864 113.293 70.0277C113.344 72.3882 113.164 74.6635 114.012 76.8818C114.218 77.3937 114.886 76.9671 114.68 76.4552Z" fill="#161616"/>
<path d="M111.699 73.5535C111.416 71.5627 111.468 69.5434 111.211 67.5811C111.134 66.87 110.8 65.2489 109.9 65.2205C108.975 65.1921 108.564 67.2398 108.435 67.9792C108.152 69.6003 108.05 71.5058 108.461 73.0985C108.589 73.6104 109.335 73.4113 109.206 72.8709C108.898 71.7333 108.975 70.4251 109.052 69.2306C109.103 68.5196 109.206 67.7801 109.437 67.0976C109.823 66.0168 109.977 65.7893 110.337 67.0976C110.62 68.1499 110.491 69.3728 110.568 70.4535C110.645 71.5627 110.774 72.6719 110.954 73.781C111.031 74.3214 111.776 74.0939 111.699 73.5535Z" fill="#161616"/>
<path d="M109.001 73.0417C108.847 71.7619 109.412 66.3014 107.305 66.3867C105.043 66.4721 105.917 72.1885 106.148 73.5537C106.251 74.094 106.996 73.8665 106.894 73.3261C106.714 72.3023 106.662 71.25 106.662 70.1977C106.662 69.4298 106.457 67.695 107.279 67.6097C108.127 67.5243 108.076 69.6005 108.102 70.3399C108.127 71.25 108.102 72.1317 108.204 73.0133C108.281 73.5821 109.078 73.6105 109.001 73.0417Z" fill="#161616"/>
<path d="M106.353 70.5395C106.456 69.4872 105.402 68.5771 104.554 69.2312C103.295 70.1982 103.758 73.2982 103.989 74.6633C104.4 77.1945 105.428 79.5266 106.533 81.8018C107.792 84.4468 109.103 87.0633 110.362 89.6798C110.594 90.1633 111.262 89.7367 111.031 89.2532C109.566 86.2385 108.049 83.2523 106.636 80.2092C105.942 78.7018 105.3 77.1376 104.94 75.4596C104.734 74.578 104.606 73.6679 104.58 72.7294C104.58 72.3881 104.58 72.0468 104.606 71.6771C104.606 71.3074 104.657 70.9376 104.734 70.5963C104.76 70.1697 105.068 70.1413 105.608 70.511C105.531 71.0798 106.302 71.0798 106.353 70.5395Z" fill="#161616"/>
<path opacity="0.09" d="M107.51 67.0981C108.23 67.3825 107.716 70.7953 107.587 72.0751C107.305 75.0044 107.896 79.4411 112.085 85.7549C113.19 91.8411 115.297 100.146 119.615 109.133C123.264 116.755 127.402 122.557 130.846 126.709C131.103 129.212 131.334 131.714 131.591 134.245C129.998 133.023 127.787 131.089 125.603 128.273C123.701 125.799 122.57 123.637 120.926 120.196C116.685 111.294 114.552 106.829 113.061 101.425C112.239 98.4677 111.262 94.2016 110.697 88.9117C108.667 86.0108 107.279 83.3374 106.354 81.2897C104.555 77.3365 104.092 74.8338 104.144 72.587C104.195 70.0274 104.606 69.6861 104.786 69.6008C105.172 69.4302 105.686 69.7714 106.02 70.0558C105.994 69.9136 105.737 68.6338 106.508 67.6953C106.636 67.5815 107.15 66.9559 107.51 67.0981Z" fill="#353535"/>
<path opacity="0.09" d="M105.454 77.251C105.711 77.1088 107.279 79.5547 108.41 81.6024C111.057 86.4088 112.136 90.7033 112.419 91.7556C114.115 98.2684 116.299 103.786 120.694 114.792C122.031 118.12 124.061 122.955 126.914 128.671C126.091 127.818 124.909 126.538 123.65 124.86C122.545 123.41 118.921 118.489 115.143 107.199C113.678 102.79 111.956 96.8464 110.723 89.5372C109.849 87.8877 108.641 85.5272 107.356 82.5694C106.791 81.2327 105.171 77.4217 105.454 77.251Z" fill="#353535"/>
<path d="M141.948 117.552C141.049 117.466 139.455 117.324 137.373 117.552C134.958 117.836 132.799 118.063 131.18 119.628C129.972 120.794 129.612 122.244 128.944 125.117C128.558 126.795 128.044 129.07 128.096 132.141C128.199 137.829 130.152 138.569 131.18 145.451C131.694 148.779 131.642 151.367 131.617 154.467C131.565 158.591 131.18 162.089 130.769 164.791C131.874 165.758 133.57 167.066 135.883 168.09C137.296 168.716 141.306 170.394 146.446 169.398C151.842 168.374 155.158 165.018 156.263 163.795C154.464 158.42 154.284 154.097 154.438 151.168C154.644 147.613 155.312 146.845 156.263 139.195C156.982 133.507 156.957 131.146 156.905 129.866C156.725 124.747 156.623 122.159 155.081 120.424C153.564 118.718 149.684 118.319 141.948 117.552Z" fill="white"/>
<path d="M140.663 117.352C138.761 117.21 136.859 117.324 134.983 117.694C133.39 118.006 131.745 118.319 130.691 119.77C128.764 122.386 127.942 125.998 127.787 129.297C127.402 137.715 131.18 145.394 132.465 153.528C132.542 154.069 133.287 153.841 133.21 153.301C132.054 145.963 128.867 139.109 128.558 131.601C128.43 128.159 128.892 124.633 130.486 121.618C131.026 120.594 131.617 119.599 132.67 119.172C133.39 118.888 134.187 118.717 134.932 118.547C136.808 118.149 138.736 118.063 140.637 118.177C141.151 118.234 141.151 117.381 140.663 117.352Z" fill="#161616"/>
<path d="M130.692 145.337C131.437 151.594 131.36 157.907 130.435 164.136C130.358 164.676 131.103 164.904 131.18 164.363C132.131 158.05 132.234 151.679 131.463 145.337C131.386 144.797 130.615 144.797 130.692 145.337Z" fill="#161616"/>
<path d="M143.824 118.12C147.268 117.892 151.508 118.347 154.438 120.623C156.212 122.016 156.289 124.348 156.469 126.538C156.648 128.5 156.726 130.463 156.597 132.454C156.083 140.218 153.256 147.584 153.282 155.433C153.282 155.974 154.053 155.974 154.053 155.433C154.027 146.588 157.676 138.255 157.419 129.382C157.317 125.998 157.419 121.646 154.49 119.656C151.431 117.579 147.345 117.039 143.824 117.267C143.31 117.295 143.31 118.148 143.824 118.12Z" fill="#161616"/>
<path d="M154.078 146.901C154.027 152.475 154.644 157.993 155.877 163.396C156.006 163.937 156.751 163.709 156.623 163.169C155.415 157.85 154.798 152.39 154.849 146.901C154.849 146.361 154.078 146.361 154.078 146.901Z" fill="#161616"/>
<path d="M130.485 164.932C133.981 168.146 138.427 170.08 143.001 170.108C148.167 170.137 152.485 167.349 156.468 163.965C156.854 163.624 156.468 162.884 156.083 163.226C152.305 166.411 148.27 169.141 143.413 169.226C138.915 169.312 134.495 167.463 131.051 164.306C130.64 163.965 130.1 164.562 130.485 164.932Z" fill="#161616"/>
<path opacity="0.11" d="M149.94 117.92C150.737 120.053 151.765 123.267 152.279 127.277C153.281 135.326 151.585 141.497 149.555 148.636C148.038 153.954 145.494 161.292 141.022 169.511C142.436 169.653 144.184 169.653 146.137 169.255C151.225 168.231 154.618 165.16 156.134 163.595C155.954 162.173 155.646 159.955 155.209 157.282C154.515 153.101 154.284 152.788 154.206 151.281C154.104 149.432 154.386 149.66 155.903 141.839C156.494 138.767 156.931 135.98 157.188 132.34C157.213 132.027 157.213 131.714 157.239 131.401C157.368 126.708 157.419 123.836 155.62 121.39C153.898 119.058 151.405 118.233 149.94 117.92Z" fill="#353535"/>
<path opacity="0.08" d="M157.368 131.543C157.188 131.487 156.289 133.051 154.181 139.279C151.868 146.133 149.015 156.002 146.805 168.772C147.936 168.601 149.504 168.231 151.226 167.378C153.539 166.212 155.081 164.648 155.954 163.596C155.183 160.609 154.31 156.173 154.335 150.769C154.361 140.132 157.779 131.686 157.368 131.543Z" fill="#353535"/>
<path d="M132.67 96.8458C131.668 99.1211 131.951 101.425 132.182 102.505C132.079 102.505 130.871 102.449 130.229 103.416C129.458 104.553 130.178 105.975 130.306 106.203C130.486 106.544 130.717 107.027 131.206 107.17C131.977 107.426 132.696 106.686 132.748 106.629C133.133 107.71 133.776 109.075 134.778 110.469C136.32 112.63 138.042 113.91 139.198 114.621C139.25 115.986 139.301 117.323 139.327 118.688C139.609 118.972 140.201 119.484 141.074 119.655C142.796 120.025 144.133 118.773 144.287 118.603C144.261 116.896 144.235 115.19 144.21 113.483C144.878 112.915 145.649 112.118 146.394 111.066C147.885 108.904 148.424 106.715 148.63 105.406C148.913 105.52 149.375 105.634 149.966 105.634C150.532 105.634 151.251 105.605 151.586 105.093C151.945 104.525 151.56 103.7 151.174 102.818C150.789 101.994 150.506 101.88 150.403 101.851C149.966 101.709 149.555 101.994 149.427 102.079C149.53 101.169 149.581 99.4623 148.939 97.5568C148.759 97.0165 147.731 94.1156 145.238 92.5798C141.151 90.1339 134.726 92.2101 132.67 96.8458Z" fill="white"/>
<path d="M132.208 96.9032C130.691 104.269 133.159 113.768 140.714 115.361C141.203 115.475 141.408 114.65 140.92 114.536C133.775 113.029 131.54 104.07 132.953 97.1307C133.056 96.5904 132.311 96.3629 132.208 96.9032Z" fill="#161616"/>
<path d="M140.817 115.333C141.871 115.674 143.31 114.565 144.158 113.939C145.289 113.114 146.291 112.062 147.088 110.839C149.067 107.91 149.812 104.212 149.504 100.629C149.452 100.089 148.681 100.089 148.733 100.629C149.015 103.729 148.501 106.886 146.985 109.531C146.342 110.64 145.546 111.635 144.621 112.488C143.875 113.171 142.051 114.821 141.023 114.508C140.534 114.366 140.329 115.19 140.817 115.333Z" fill="#161616"/>
<path d="M138.556 114.65C138.941 115.816 139.044 117.039 138.864 118.262C138.787 118.802 139.532 119.03 139.609 118.489C139.815 117.096 139.738 115.759 139.301 114.422C139.147 113.91 138.401 114.109 138.556 114.65Z" fill="#161616"/>
<path d="M143.876 113.683C143.747 115.133 143.85 116.555 144.184 117.977C144.313 118.517 145.058 118.29 144.929 117.75C144.621 116.413 144.544 115.048 144.647 113.683C144.698 113.142 143.927 113.142 143.876 113.683Z" fill="#161616"/>
<path d="M138.89 118.802C140.663 120.992 144.364 120.935 145.006 117.607C145.109 117.067 144.364 116.839 144.261 117.38C143.721 120.082 140.843 119.911 139.43 118.205C139.095 117.806 138.556 118.404 138.89 118.802Z" fill="#161616"/>
<path d="M139.044 115.219C140.534 116.726 142.873 116.385 143.824 114.365C144.055 113.882 143.387 113.455 143.156 113.939C142.436 115.446 140.714 115.787 139.583 114.621C139.224 114.252 138.684 114.849 139.044 115.219Z" fill="#161616"/>
<path d="M140.586 115.844C140.946 115.816 141.28 115.844 141.614 115.958C142.102 116.1 142.308 115.276 141.819 115.133C141.408 115.02 140.997 114.963 140.586 114.991C140.098 115.02 140.098 115.873 140.586 115.844Z" fill="#161616"/>
<path d="M132.285 106.715C131.231 107.654 130.306 106.345 130.203 105.236C130.075 104.155 130.923 102.819 132.002 103.558C132.413 103.843 132.799 103.103 132.388 102.819C130.794 101.71 129.252 103.587 129.432 105.35C129.638 107.227 131.308 108.677 132.825 107.312C133.21 106.971 132.67 106.374 132.285 106.715Z" fill="#161616"/>
<path d="M149.632 102.562C150.454 101.709 151.251 103.33 151.225 104.07C151.225 104.525 151.02 104.98 150.66 105.236C150.377 105.435 149.709 105.691 149.478 105.293C149.221 104.838 148.553 105.264 148.81 105.719C149.195 106.43 150.069 106.459 150.711 106.174C151.457 105.833 151.945 105.065 151.971 104.184C152.048 102.619 150.429 100.543 149.067 101.965C148.733 102.335 149.272 102.961 149.632 102.562Z" fill="#161616"/>
<path d="M139.301 96.8179C139.506 98.8087 139.404 100.686 139.224 102.677C139.121 104.013 139.763 104.582 140.714 105.435C141.1 105.777 141.639 105.179 141.254 104.838C140.586 104.212 139.995 103.786 140.02 102.648C140.02 102.108 140.149 101.51 140.2 100.97C140.303 99.5766 140.252 98.183 140.097 96.8179C140.02 96.2775 139.249 96.2775 139.301 96.8179Z" fill="#161616"/>
<path d="M135.009 100.857C134.983 100.231 135.806 99.8329 136.268 99.8614C136.808 99.8614 137.09 100.345 137.373 100.8C137.656 101.255 138.324 100.828 138.041 100.373C137.527 99.5485 136.936 98.866 135.96 99.0366C135.137 99.2072 134.186 99.8614 134.212 100.885C134.238 101.426 135.009 101.426 135.009 100.857Z" fill="#161616"/>
<path d="M143.824 100.088C144.518 98.6378 146.394 98.8653 146.728 100.486C146.831 101.027 147.576 100.799 147.473 100.259C147.011 97.9268 144.158 97.5571 143.156 99.6332C142.95 100.117 143.593 100.572 143.824 100.088Z" fill="#161616"/>
<path d="M134.263 97.842C134.7 97.1026 135.446 96.6191 136.242 96.5053C136.731 96.4485 136.731 95.5953 136.242 95.6521C135.137 95.7943 134.212 96.3916 133.595 97.4154C133.313 97.8705 133.981 98.2971 134.263 97.842Z" fill="#161616"/>
<path d="M143.824 96.2494C144.749 96.1925 145.597 96.5053 146.265 97.1879C146.625 97.5576 147.191 96.9604 146.805 96.5906C145.983 95.7659 144.929 95.3393 143.798 95.3961C143.31 95.4246 143.31 96.2778 143.824 96.2494Z" fill="#161616"/>
<path d="M135.214 103.046C135.214 103.017 135.214 103.017 135.214 102.989C135.214 102.762 135.035 102.562 134.829 102.562C134.623 102.562 134.443 102.762 134.443 102.989C134.443 103.017 134.443 103.017 134.443 103.046C134.443 103.273 134.623 103.472 134.829 103.472C135.035 103.472 135.214 103.302 135.214 103.046Z" fill="#161616"/>
<path d="M136.397 102.847C136.422 102.847 136.448 102.847 136.448 102.847C136.654 102.847 136.834 102.648 136.834 102.421C136.834 102.193 136.654 101.994 136.448 101.994C136.422 101.994 136.397 101.994 136.397 101.994C136.191 101.994 136.011 102.193 136.011 102.421C136.037 102.648 136.191 102.847 136.397 102.847Z" fill="#161616"/>
<path d="M136.345 104.724C136.371 104.724 136.397 104.724 136.397 104.724C136.602 104.724 136.782 104.525 136.782 104.298C136.782 104.07 136.602 103.871 136.397 103.871C136.371 103.871 136.345 103.871 136.345 103.871C136.14 103.871 135.96 104.07 135.96 104.298C135.96 104.525 136.14 104.724 136.345 104.724Z" fill="#161616"/>
<path d="M144.672 102.221C144.698 102.221 144.724 102.221 144.724 102.221C144.929 102.221 145.109 102.022 145.109 101.795C145.109 101.567 144.929 101.368 144.724 101.368C144.698 101.368 144.672 101.368 144.672 101.368C144.467 101.368 144.287 101.567 144.287 101.795C144.312 102.022 144.467 102.221 144.672 102.221Z" fill="#161616"/>
<path d="M146.934 102.165C147.422 102.165 147.422 101.312 146.934 101.312C146.445 101.312 146.445 102.165 146.934 102.165Z" fill="#161616"/>
<path d="M146.086 103.529C146.574 103.529 146.574 102.676 146.086 102.676C145.572 102.676 145.572 103.529 146.086 103.529Z" fill="#161616"/>
<path d="M137.579 107.255C139.146 110.384 143.258 109.929 144.261 106.544C144.415 106.032 143.67 105.805 143.515 106.317C142.719 109.047 139.481 109.275 138.247 106.829C138.016 106.345 137.347 106.772 137.579 107.255Z" fill="#161616"/>
<path d="M128.404 100.288C127.454 101.852 126.091 104.554 125.552 108.166C125.166 110.754 124.498 115.276 127.068 118.859C127.762 119.826 130.306 122.983 133.801 122.471C136.14 122.13 138.633 120.196 139.096 117.494C139.327 116.243 139.07 115.162 138.839 114.537C137.734 113.939 135.755 112.688 134.213 110.242C133.442 109.048 132.979 107.882 132.722 106.971C132.594 107.085 132.182 107.426 131.617 107.398C130.949 107.37 130.538 106.858 130.435 106.715C129.638 105.72 129.715 103.672 130.769 102.99C131.309 102.648 131.925 102.762 132.259 102.848C132.105 101.795 131.951 99.5485 133.03 97.188C133.75 95.5953 134.855 94.4293 137.399 92.666C139.507 91.2155 140.432 91.3293 140.766 91.3861C141.897 91.6137 142.591 92.6091 142.951 93.121C144.57 95.3962 146.677 98.3256 149.196 101.937C149.299 101.881 149.992 101.511 150.686 101.852C151.175 102.108 151.406 102.592 151.56 102.961C151.689 103.274 151.894 103.729 151.791 104.27C151.689 104.952 151.2 105.578 150.532 105.805C149.71 106.09 149.042 105.606 148.939 105.521C148.733 106.602 148.322 108.223 147.345 109.958C146.343 111.721 145.187 112.887 144.39 113.57C144.287 114.252 144.159 115.503 144.647 116.926C145.418 119.258 147.422 120.737 149.273 121.192C152.742 122.016 155.544 119.144 156.263 118.376C158.73 115.816 160.221 111.522 158.962 107.398C158.011 104.326 155.903 102.648 155.081 102.051C154.079 99.4916 153.051 97.5008 152.228 96.0788C149.915 92.0687 148.322 89.3669 145.418 88.3715C143.645 87.7742 142.025 88.0018 140.946 88.2862C139.198 87.8596 137.836 88.0302 136.911 88.2862C132.645 89.4522 129.407 94.1733 128.404 100.288Z" fill="#C92627"/>
<path opacity="0.08" d="M146.034 97.1307C145.829 97.216 146.24 98.6949 146.445 100.174C146.471 100.373 146.908 104.042 145.674 107.54C144.287 111.465 141.408 113.569 140.149 114.365C140.946 114.565 141.768 114.764 142.565 114.991C142.796 116.527 143.002 118.091 143.233 119.627C143.747 118.944 144.287 118.262 144.801 117.579C145.032 118.063 145.443 118.774 146.086 119.428C146.291 119.655 147.782 121.134 149.992 121.333C152.459 121.589 154.284 120.11 155.312 119.286C156.006 118.745 158.062 117.039 159.013 113.768C160.041 110.213 159.038 107.227 158.73 106.402C158.396 107.824 157.702 109.957 156.211 112.033C155.852 112.545 152.613 117.01 150.609 116.243C148.887 115.588 148.296 111.095 149.144 105.208C149.195 105.265 149.607 105.805 150.198 105.777C150.943 105.748 151.277 104.923 151.328 104.838C151.688 103.985 151.251 103.046 150.814 102.534C150.249 101.852 149.478 101.738 149.247 101.738C148.913 101.368 148.424 100.799 147.91 100.06C146.677 98.3821 146.214 97.0738 146.034 97.1307Z" fill="#353535"/>
<path opacity="0.09" d="M139.815 103.444C140.02 103.075 141.151 102.989 141.485 103.757C141.742 104.355 141.408 105.151 141.048 105.236C140.483 105.407 139.532 103.928 139.815 103.444Z" fill="#353535"/>
<path opacity="0.09" d="M133.878 115.475C133.338 116.498 132.259 117.437 131.18 117.323C130.537 117.266 129.817 116.84 127.325 112.431C126.502 110.981 125.86 109.73 125.423 108.905C125.191 109.843 124.883 111.521 125.14 113.541C125.243 114.337 125.5 115.702 126.194 117.181C126.631 118.119 127.659 120.196 129.843 121.504C130.486 121.902 131.616 122.556 133.133 122.556C135.677 122.528 137.322 120.651 137.656 120.253C138.247 119.598 139.095 118.603 139.224 117.039C139.352 115.531 138.71 114.365 138.555 114.138C137.784 112.83 136.962 112.972 135.651 111.72C133.981 110.128 133.518 108.165 133.313 108.251C133.004 108.45 135.343 112.687 133.878 115.475Z" fill="#353535"/>
<path opacity="0.13" d="M149.041 103.502C148.887 103.445 148.424 105.237 147.088 107.654C145.186 111.095 142.847 113.342 141.151 114.707C142.333 114.338 144.441 113.484 146.188 111.38C148.964 108.081 149.272 103.587 149.041 103.502Z" fill="#353535"/>
</svg>
