<svg xmlns="http://www.w3.org/2000/svg" width="1001" height="542" fill="none"  xmlns:v="https://vecta.io/nano"><g fill="#e8e8e8"><path d="M173.869 446H998.13c1.16 0 1.16-2 0-2H173.869c-1.159 0-1.159 2 0 2z"/><path d="M287.18 443.014c-7.414-3.417-13.737-8.868-17.953-15.919-1.962-3.271-3.634-6.978-4.506-10.685-.799-3.708.654-7.487 5.015-6.906 2.835.364 5.088 2.253 7.123 3.998l1.308-1.745c-4.724-3.052-8.431-7.268-10.684-12.429-1.526-3.562-5.088-14.829 1.018-15.919.726-.146.944-1.018.654-1.599-5.815-11.994-7.196-25.369-8.431-38.453-.582-6.251-1.163-13.811 3.706-18.608 5.742-5.815 13.665-1.744 18.462 3.198 8.94 9.232 13.592 22.388 18.316 34.091 4.942 12.285 9.231 24.787 12.356 37.58 3.562 14.829 5.451 30.021 4.652 45.213-.073 1.381 2.108 1.381 2.18 0 1.599-31.111-7.777-61.277-19.624-89.625-4.87-11.631-10.394-26.604-21.878-33.292-4.433-2.544-9.812-3.271-14.173-.218-4.434 3.126-6.105 8.65-6.396 13.811-.363 7.923 1.018 16.282 2.253 24.06 1.236 8.068 3.271 15.991 6.832 23.333.218-.509.436-1.09.655-1.599-6.397 1.163-5.088 10.394-3.853 14.828 1.963 7.269 6.687 13.448 13.011 17.518 1.017.655 2.253-.945 1.308-1.744-3.489-2.908-7.923-6.179-12.647-4.071-5.015 2.254-3.634 8.069-2.18 12.212 3.779 10.976 12.065 19.989 22.531 24.787 1.091.654 2.253-1.236.945-1.817z"/><path d="M310.366 379.773c-2.325-17.373-1.599-34.382 3.853-51.1l8.067-24.06c2.181-6.47 6.033-18.463 15.264-12.866 6.614 3.998 7.85 14.61 9.376 21.516 1.89 8.431 3.198 16.936 3.997 25.586 1.527 16.282 1.309 32.783-.436 49.065-2.035 19.19-6.032 38.161-11.484 56.624-.363 1.382 1.672 1.89 2.108.582 10.539-35.836 15.845-73.706 11.484-110.923a204.82 204.82 0 0 0-4.797-26.677c-1.672-6.542-3.416-14.756-10.03-18.099-5.451-2.69-10.685-.073-13.592 4.87-1.672 2.835-2.616 6.106-3.707 9.159l-4.797 14.319c-3.198 9.595-6.614 19.045-7.922 29.148-1.381 10.904-.945 21.952.509 32.856.072 1.381 2.253 1.381 2.107 0zm-43.682-56.405c20.933 37.29 37.432 77.85 41.211 120.882.146 1.381 2.326 1.381 2.181 0-3.852-43.395-20.352-84.247-41.502-121.972-.654-1.236-2.544-.145-1.89 1.09z"/><path d="M333.406 290.729c1.745 12.721 1.091 25.587.582 38.38l-1.526 37.798c-1.018 25.586-1.672 51.391-6.397 76.614-.218 1.381 1.817 1.963 2.108.581 4.725-25.441 5.451-51.391 6.469-77.195l1.599-39.179c.509-12.503 1.018-25.078-.727-37.508-.145-1.454-2.253-.799-2.108.509z"/><path d="M312.547 327.437c9.231 12.43 15.845 26.531 19.334 41.578.29 1.381 2.398.8 2.107-.582-3.561-15.264-10.175-29.584-19.551-42.159-.8-1.09-2.69 0-1.89 1.163zm34.669-15.119c-5.887 10.686-10.539 21.952-13.955 33.728-.363 1.381 1.745 1.963 2.108.581 3.343-11.557 7.995-22.678 13.737-33.218.654-1.163-1.236-2.326-1.89-1.091zm-78.933 70.873c15.336 6.251 28.056 17.663 36.124 32.128.654 1.236 2.543.146 1.889-1.09-8.358-14.974-21.587-26.604-37.431-33.073-1.309-.654-1.818 1.454-.582 2.035zm20.496-49.065c-1.308 12.429-.726 24.859 1.599 37.144.291 1.381 2.399.799 2.108-.582a128.48 128.48 0 0 1-1.526-36.562c.145-1.381-2.035-1.381-2.181 0zM29.519 443.449c-1.672-4.87-2.907-9.958-3.489-15.119-.218-2.181-.363-4.361-.363-6.615 0-1.163-.218-2.835.073-3.925 0-.436.073-.872.073-1.308 1.381-1.018 2.544-.873 3.489.363.654.582 1.962.218 1.89-.799-.218-2.981-.218-5.961.145-8.941.218-1.454.436-2.908.8-4.289.145-.509 1.89-5.451 2.035-5.233.509.727 1.744.727 1.962-.291 3.125-12.866 8.722-24.86 15.554-36.126 1.744-2.908 3.634-5.815 5.524-8.65 2.108-3.126 5.597-8.069 8.795-2.617 3.271 5.524 4.216 13.593 4.506 19.917.727 13.374-2.326 26.676-6.614 39.251-4.143 12.285-9.303 24.569-18.171 34.237-.945 1.017.581 2.544 1.526 1.526 7.704-8.359 12.574-18.608 16.572-29.148 4.216-11.267 7.632-22.97 8.649-34.963.509-5.815.436-11.703-.436-17.518-.727-5.016-1.817-11.412-4.942-15.628-6.469-8.577-13.955 7.051-16.644 11.412-7.268 11.775-13.156 24.278-16.426 37.725.654-.072 1.308-.145 1.962-.29-1.817-2.399-4.07 0-4.87 2.035-2.253 5.452-2.689 11.775-2.181 17.518.654-.291 1.236-.509 1.89-.8-1.381-1.235-3.634-2.835-5.597-1.89-2.035 1.018-1.744 3.78-1.744 5.67-.218 8.505 1.163 16.864 3.925 24.932.436 1.454 2.544.873 2.108-.436z"/><path d="M63.099 347.427c-2.471 17.155-6.614 34.019-12.501 50.301-5.451 15.264-14.609 30.02-16.644 46.303-.145 1.381 2.035 1.381 2.18 0 1.09-8.65 4.434-16.646 7.922-24.497 3.271-7.414 6.396-14.901 9.085-22.533 5.597-15.919 9.594-32.347 11.993-49.065.218-1.308-1.89-1.89-2.035-.509z"/><path d="M43.038 373.376c.799 11.557 1.962 23.042 3.489 34.527.218 1.381 2.253.799 2.108-.582-1.526-11.266-2.689-22.606-3.416-33.945-.073-1.381-2.253-1.454-2.18 0zm13.592 13.012c5.815-5.742 10.83-12.212 15.045-19.19.727-1.235-1.163-2.326-1.89-1.09-4.143 6.833-9.013 13.084-14.682 18.754-1.018.945.509 2.471 1.526 1.526zm-35.178 55.971c-5.015-7.197-9.231-14.902-12.429-23.115-1.454-3.708-2.689-7.56-3.707-11.413l-1.454-6.178c-.291-1.236-2.18-9.304.436-8.795.872.145 1.526-.509 1.308-1.309-1.817-10.031-2.98-20.135-3.343-30.311-.145-4.652-.218-9.45.8-13.956.509-2.181 1.236-4.725 2.689-6.542 3.343-4.071 6.832-.727 9.013 2.326 10.466 14.683 17.153 32.346 20.351 50.01.218 1.381 2.326.799 2.108-.582a137.34 137.34 0 0 0-9.958-31.692c-2.399-5.234-5.088-10.249-8.141-15.047-2.035-3.198-4.652-8.214-8.795-9.086C1.246 334.779.083 350.625.01 356.222c-.145 12.067 1.308 24.206 3.489 36.054l1.308-1.308c-8.722-1.527-1.526 18.463-.436 21.879 3.416 10.976 8.577 21.37 15.118 30.82.872.945 2.762-.145 1.962-1.308z"/><path d="M7.133 338.923c8.141 25.223 15.045 50.882 20.715 76.759.291 1.381 2.399.799 2.108-.582-5.669-25.877-12.574-51.536-20.715-76.759-.436-1.308-2.544-.727-2.108.582z"/><path d="M1.827 372.652c8.649 3.707 15.7 10.031 20.206 18.245.654 1.235 2.544.145 1.89-1.091-4.724-8.577-11.993-15.192-21.005-19.044-1.308-.509-2.399 1.381-1.09 1.89zm20.279-18.538a111.59 111.59 0 0 0-3.489 21.879c-.073 1.381 2.108 1.381 2.18 0 .363-7.196 1.526-14.319 3.416-21.298.363-1.381-1.744-1.962-2.108-.581zm879.609-238.139c-5.742-13.956-7.414-29.148-4.507-43.977-.363.291-.726.509-1.017.8 1.672-.291 2.907.436 3.779 2.253.364 1.018 2.254 1.018 2.108-.291-.654-6.397-.654-12.866.146-19.263.436-3.198 1.017-6.324 1.817-9.449.363-1.454.799-2.908 1.235-4.361.291-.8.509-1.672.8-2.471.509-1.163.799-2.399.799-3.707.582.363 1.236.727 1.817 1.09 2.472-13.302 8.94-25.296 18.535-34.745H925.7c3.344 3.562 3.489 8.65 3.998 13.229a239.38 239.38 0 0 1 1.09 14.392 260.64 260.64 0 0 1 0 28.203 277.93 277.93 0 0 1-8.867 57.351c-.364 1.381 1.744 1.963 2.108.582 5.16-19.844 8.213-40.197 9.012-60.696.436-10.322.218-20.644-.509-30.893-.508-7.342.073-17.882-5.378-23.697-.436-.436-1.163-.436-1.526 0-9.885 9.668-16.572 22.097-19.116 35.69-.218 1.018 1.017 1.89 1.817 1.09l.363-.363c.291-.291.436-.654.291-1.09-.581-1.672-2.108-2.181-3.416-.8-.945.945-1.308 2.617-1.744 3.852-.873 2.471-1.599 4.943-2.254 7.487-2.325 9.377-2.907 19.045-1.889 28.639.727-.073 1.453-.218 2.107-.291-1.017-2.544-3.052-4.071-5.887-3.853-.436 0-.945.291-1.017.8-2.908 15.192-1.381 30.82 4.506 45.14.799 1.163 2.907.654 2.326-.654z"/><path d="M934.131 57.316c1.89-12.939 7.05-25.296 15.191-35.617 1.962-2.471 3.997-4.725 6.251-6.905 1.453-1.381 4.724-5.306 6.977-2.035.872 1.236.8 3.271.8 4.725-.073 7.051-1.018 14.247-2.108 21.298-4.143 27.258-13.883 53.499-28.492 76.905-.727 1.163 1.163 2.326 1.89 1.09a207.47 207.47 0 0 0 27.401-69.926c1.163-5.961 2.035-11.921 2.617-17.954.509-4.87 2.035-11.485.218-16.21-3.852-10.176-15.263 5.088-18.025 8.65-7.923 10.322-13.011 22.533-14.828 35.399-.145 1.381 1.963 1.963 2.108.581z"/><path d="M932.896 51.864a280.52 280.52 0 0 1-5.015 36.49c-.291 1.381 1.817 1.963 2.108.581 2.544-12.212 4.215-24.569 5.088-37.071.072-1.381-2.108-1.381-2.181 0zm28.055-40.998l-35.832 104.381c-.436 1.309 1.671 1.89 2.107.582l35.833-104.381c.436-1.308-1.672-1.89-2.108-.582zm-35.614-8.139l-17.081 113.322c-.218 1.381 1.89 1.963 2.108.582l17.08-113.322c.218-1.381-1.889-2.035-2.107-.582z"/><path d="M906.294 35.074l7.196 43.977c.218 1.381 2.325.8 2.107-.582l-7.195-43.977c-.218-1.381-2.326-.8-2.108.581zm24.494-11.197a170.09 170.09 0 0 0-12.429 25.95c-.509 1.308 1.599 1.89 2.108.582 3.343-8.795 7.414-17.3 12.211-25.368.726-1.308-1.163-2.399-1.89-1.163zm9.158 8.579v37.58c0 1.381 2.181 1.381 2.181 0v-37.58c0-1.381-2.181-1.381-2.181 0zM259.343 473.979c4.797-3.053 10.539-3.998 15.99-2.326 4.724 1.454 8.649 3.416 13.737 3.198 4.725-.218 9.304-1.454 14.028-1.744 2.544-.146 5.088-.073 7.559.799s4.216 2.181 6.832 2.326c1.381.073 1.381-2.108 0-2.18-2.98-.146-5.524-2.254-8.431-2.835-2.326-.436-4.724-.436-7.123-.218-5.088.509-10.103 1.962-15.191 1.672-5.306-.291-9.812-3.49-15.045-3.998-4.797-.436-9.449.872-13.446 3.416-1.163.727-.073 2.617 1.09 1.89zm184.76-6.179l21.732-.727c3.562-.146 7.268-.509 10.83-.218 2.98.218 5.233 1.889 7.995 2.544 2.253.509 4.434.145 6.687-.364 3.852-.872 7.632-1.672 11.629-1.817 6.905-.363 13.81.436 20.642 1.236 1.381.145 1.381-2.036 0-2.181-6.832-.8-13.737-1.599-20.642-1.236a55.08 55.08 0 0 0-9.739 1.309c-3.853.872-6.833 1.526-10.539-.146-5.379-2.326-11.048-1.526-16.717-1.308l-21.733.727c-1.526.073-1.526 2.253-.145 2.181zm261.223 73.197c7.341 1.09 14.536-.291 21.732-1.672 4.433-.872 8.867-1.744 13.446-1.89 4.506-.145 8.722.873 13.083 1.89 3.78.873 7.414 1.236 11.266.8 3.852-.509 7.559-1.527 11.411-1.963 8.359-1.017 16.208 3.053 24.567 2.544 1.381-.072 1.381-2.253 0-2.18-7.777.436-15.045-3.198-22.822-2.762-3.707.218-7.269 1.163-10.976 1.817-4.942.872-9.303.509-14.173-.654-7.268-1.818-14.028-1.963-21.441-.655-8.504 1.454-16.935 3.853-25.585 2.617-1.308-.218-1.889 1.89-.508 2.108zm201.477-399.579c14.536-4.87 30.309-.291 45.281-2.326 4.216-.582 8.504-1.309 12.793-.945 3.561.291 6.905 1.672 10.393 2.035 3.634.291 7.196-.727 10.757-1.09 4.434-.436 8.795-.146 13.156.654 1.377.291 1.967-1.817.581-2.108-3.634-.654-7.341-1.018-11.047-.945-3.925.145-7.705 1.236-11.63 1.309-3.706.072-7.195-1.527-10.902-1.963-3.998-.509-7.995 0-11.993.509-8.504 1.163-16.644 1.09-25.148.654-7.777-.364-15.482-.436-22.895 2.108-1.236.436-.727 2.544.654 2.108z"/></g><g fill="#1b1616"><path d="M305.642 526.605h179.963c1.381 0 1.381-2.181 0-2.181H305.642c-1.381 0-1.381 2.181 0 2.181zm80.448 13.365h92.38c1.381 0 1.381-2.181 0-2.181h-92.38c-1.453 0-1.453 2.181 0 2.181zm321.343-36.262h97.105c1.381 0 1.381-2.181 0-2.181h-97.105c-1.381 0-1.381 2.181 0 2.181zm134.173 3.199h57.638c1.381 0 1.381-2.18 0-2.18h-57.638c-1.381 0-1.381 2.18 0 2.18zm-673.57-2.803h102.628c1.381 0 1.381-2.18 0-2.18H168.036c-1.381 0-1.381 2.18 0 2.18zm97.904-7.923h56.838c1.381 0 1.381-2.181 0-2.181H265.94c-1.381 0-1.381 2.181 0 2.181zm209.562-1.559h74.5c1.381 0 1.381-2.181 0-2.181h-74.5c-1.454 0-1.454 2.181 0 2.181zm31.883-364.833a43.41 43.41 0 0 0-8.085 8.69c-2.403 3.432-3.933 6.718-4.879 9.273 2.185 1.023 6.846 3.578 7.793 8.106 1.092 4.965-2.986 9.492-8.376 15.334-3.569 3.797-9.031 8.909-17.043 13.582-1.384 0-4.152-.146-7.211-1.753-3.641-1.971-5.389-4.892-6.045-6.06a47.71 47.71 0 0 0-11.289 4.892c-4.006 2.41-7.065 5.039-9.25 7.229 1.02 2.337 4.079 8.763 10.998 11.538 2.695 1.095 6.118 1.679 12.454.584 6.41-1.096 15.077-3.724 25.347-10.734 14.639-10.004 21.923-21.688 23.962-25.193 5.098-8.689 8.74-14.896 6.628-21.979-2.695-8.836-12.746-12.706-15.004-13.509zm-43.294 31.773c3.924-5.524 9.303-9.668 15.554-12.139 1.308-.509.727-2.617-.582-2.108-6.832 2.689-12.574 7.123-16.862 13.157-.872 1.163 1.017 2.253 1.89 1.09zm-11.993 1.308c5.887-12.866 17.298-22.315 31.108-25.732 1.381-.363.8-2.471-.581-2.108-14.246 3.489-26.239 13.375-32.417 26.677-.581 1.381 1.236 2.471 1.89 1.163zm-10.103 2.327c1.672-10.032 7.123-18.827 14.9-25.442 7.414-6.323 18.825-13.156 28.928-11.848 1.381.146 1.381-2.035 0-2.18-10.321-1.309-21.805 5.451-29.582 11.702-8.431 6.833-14.537 16.355-16.354 27.113-.218 1.454 1.89 2.036 2.108.655z"/><path d="M566.065 489.605l.799 28.349c-30.018 8.868-44.772 14.683-44.264 17.445.655 3.489 24.713 2.326 72.174-3.489l-3.125-48.483-25.584 6.178z" stroke="#1b1616" stroke-width="2" stroke-miterlimit="10"/></g><path d="M661.061 303.304c-4.361 1.309-3.416 1.818-26.965 19.917-24.93 19.117-37.359 28.712-46.009 33.582-5.015 2.835-9.085 4.87-14.1 9.522-8.286 7.778-12.502 16.646-15.772 25.296-10.176 26.968-11.702 52.772-11.993 64.257-.291 10.613-.073 25.586 2.471 43.541 7.85 1.889 14.391 2.398 19.043 2.471 8.068.145 19.552.291 31.472-5.815 3.489-1.817 6.178-3.707 7.85-4.943-2.108-12.43-3.707-28.058-2.908-46.012.655-14.465 2.617-27.186 4.943-37.725 3.852-2.908 9.739-7.051 17.371-11.195 8.795-4.724 17.589-8.213 41.865-15.337 29.074-8.504 30.091-7.559 34.379-11.194 11.121-9.304 19.116-28.058 12.865-44.34-8.14-21.443-36.777-27.186-54.512-22.025z" fill="#fff"/><g fill="#1b1616"><path d="M649.868 310.645l-40.266 28.204c-11.92 8.359-24.713 16.209-35.615 26.022-10.466 9.377-16.281 21.08-20.06 34.455-4.143 14.828-6.833 30.165-8.214 45.503-1.599 17.663-1.235 35.399.8 52.99.145 1.381 2.326 1.381 2.18 0-3.561-30.093-1.817-60.695 5.306-90.061 3.416-14.175 7.923-27.84 18.462-38.38 10.175-10.177 22.967-17.882 34.669-26.095l43.828-30.748c1.163-.799.073-2.689-1.09-1.89zm41.211 61.641c-15.99 4.579-31.762 9.668-47.316 15.483-6.833 2.544-13.81 5.088-20.497 8.068-5.524 2.472-10.684 5.597-13.882 10.904-.727 1.235 1.163 2.326 1.889 1.09 3.489-5.888 9.74-8.795 15.773-11.267 6.977-2.835 14.027-5.524 21.15-8.141 14.319-5.234 28.783-9.886 43.392-14.029 1.381-.363.8-2.471-.509-2.108z"/><path d="M610.329 395.837c-7.559 30.893-8.94 63.021-4.07 94.423.218 1.381 2.326.799 2.107-.582-4.797-31.038-3.416-62.803 4.071-93.259.29-1.382-1.817-1.963-2.108-.582z"/><path d="M547.458 497.747c.363 4.07 6.687 3.416 9.449 3.707 6.686.654 13.373 1.163 20.133.799 10.902-.581 21.587-3.634 30.163-10.612 1.091-.872-.436-2.399-1.526-1.527-7.341 5.961-16.426 8.869-25.73 9.741-4.797.436-9.594.436-14.391.145-1.744-.073-15.772-.436-15.918-2.253-.145-1.381-2.325-1.381-2.18 0z"/></g><g fill="#666"><path opacity=".11" d="M690.425 347.79c-10.03-5.089-21.514 7.923-49.86 20.861-23.186 10.613-28.928 7.996-38.014 13.52-15.99 9.668-30.163 37.217-19.987 117.247 2.253 0 4.869-.218 7.777-.799 7.631-1.599 13.083-5.234 16.353-7.778-2.544-15.919-4.07-35.981-1.599-58.878 1.018-9.667 2.617-18.535 4.507-26.531a228.22 228.22 0 0 1 31.471-15.119c33.507-13.157 54.295-12.357 57.638-24.133 1.744-6.615-2.326-15.41-8.286-18.39z"/><path opacity=".12" d="M683.084 374.757c-.363-1.962-23.912-.945-48.625 7.342-15.772 5.233-24.348 8.141-31.835 16.355-11.92 12.938-12.574 29.584-13.519 52.699-.436 10.976-.145 26.822 3.707 45.794l14.319-4.507c-1.817-13.52-2.98-29.802-2.036-48.192.727-13.739 2.399-26.023 4.507-36.781 2.108-2.253 5.306-5.452 9.812-8.577 9.812-6.906 18.461-8.65 28.637-11.412 13.156-3.707 35.397-10.831 35.033-12.721z"/></g><path d="M804.974 440.104c15.845-5.161 29.291-8.068 39.103-9.813 14.028-2.471 17.299-1.962 19.915 0 4.507 3.344 3.562 8.287 5.233 39.107.582 10.103.873 12.648-1.162 15.773-6.905 10.976-29.873 10.467-31.618 5.67-.654-1.89 1.527-5.379 12.429-12.43l-1.163-20.716-37.213 9.013-5.524-26.604z" fill="#1b1616" stroke="#1b1616" stroke-width="2" stroke-miterlimit="10"/><path d="M677.997 314.934c-4.798 11.267-1.382 23.333.218 29.003 1.817 6.542 3.561 7.414 6.468 16.21 3.126 9.449 4.071 16.282 5.379 24.496 1.89 11.993 4.07 25.659 7.486 39.324 4.216 16.864 6.542 25.514 13.519 34.891 3.053 4.143 10.249 13.447 22.895 18.39 2.399.945 5.597 1.963 13.519 2.98 8.722 1.163 22.241 2.908 40.121.727 15.264-1.817 27.983-5.887 37.505-9.74a48.1 48.1 0 0 0 1.526-16.5c-.436-4.652-1.163-13.302-7.486-20.644-1.817-2.108-4.507-5.161-9.013-6.76-4.942-1.672-9.376-.581-17.226 1.526-9.085 2.399-12.429 5.016-18.389 3.78-2.543-.509-4.433-1.526-5.596-2.253-1.744-2.69-4.143-6.76-6.396-11.994-5.888-13.665-6.324-24.641-7.123-36.708-1.817-27.185-2.762-40.778-7.123-55.824-4.579-15.774-5.887-23.697-12.72-28.494-7.05-4.943-15.045-4.58-19.987-4.362-12.138.509-30.891 6.324-37.577 21.952z" fill="#fff"/><g fill="#1b1616"><path d="M739.05 302.359c11.92 25.005 12.865 53.063 15.482 80.103 1.889 19.554 3.561 46.376 23.404 56.697 1.235.655 2.326-1.235 1.09-1.889-10.176-5.307-15.264-15.774-18.098-26.459-3.053-11.703-3.852-23.987-4.87-36.054-2.18-25.005-4.143-50.518-15.045-73.561-.654-1.236-2.544-.145-1.963 1.163zm-59.091 49.792c12.792 29.003 9.594 62.076 22.023 91.152 4.942 11.63 12.356 22.533 22.895 29.729 12.792 8.65 29.437 10.395 44.482 10.177 18.97-.291 37.65-4.652 55.239-11.558 1.308-.509.727-2.617-.581-2.108-15.337 6.033-31.472 10.177-47.971 11.194-15.7 1.018-33.58.218-47.462-7.923-24.349-14.319-30.818-45.067-34.743-70.726-2.616-17.372-4.942-34.891-12.138-51.1-.436-1.163-2.325-.073-1.744 1.163z"/><path d="M767.542 430.728c13.155 7.705 28.201-7.124 42.083-2.617 7.705 2.544 11.484 10.83 13.592 18.099 2.326 7.851 2.617 16.065 1.018 24.06-.291 1.381 1.817 1.963 2.107.582 1.454-7.56 1.381-15.338-.363-22.824-1.672-6.833-4.579-14.611-10.321-19.118-5.306-4.216-12.356-4.288-18.752-3.053-8.577 1.672-19.843 7.996-28.274 3.053-1.236-.726-2.326 1.091-1.09 1.818z"/></g><g fill="#666"><path opacity=".11" d="M728.293 301.415c-12.211 11.993 12.429 38.379 12.865 82.719.364 34.673-7.85 49.065 3.198 60.695 15.845 16.646 51.678 7.051 55.603 5.961 6.25-1.745 19.624-4.289 20.714-11.049.654-4.434-3.997-9.449-8.722-11.921-14.391-7.632-27.837 9.232-40.484 3.707-9.522-4.216-11.629-18.172-15.627-44.122-3.271-21.297-1.235-25.804-5.088-49.21-2.834-17.227-6.469-38.743-15.19-39.979-3.489-.581-6.687 2.544-7.269 3.199z"/><path opacity=".17" d="M748.063 329.908c-1.163.073-1.236 14.029-1.381 31.257-.363 48.919 2.399 59.314 8.722 68.472 2.617 3.78 7.559 10.758 16.572 14.684 19.915 8.795 46.371-2.763 46.444-10.104 0-3.707-6.76-6.47-7.85-6.906-6.905-2.762-12.21-.072-26.238 2.326-5.815 1.018-10.757 1.527-14.246 1.818-2.617-3.271-6.251-8.36-9.158-15.192-5.597-12.866-5.161-23.333-5.524-34.455-.8-27.476-5.887-51.972-7.341-51.9z"/></g><path d="M477.973 208.736c.146-1.672 3.998-2.544 6.324-3.053 9.521-2.108 17.734-.509 19.915.364l12.283 4.797c.218-1.236.872-3.852 2.98-5.815 3.78-3.416 9.158-2.108 10.612-1.672 1.89.509 4.87 1.672 9.957 7.196 5.234 5.67 5.96 8.578 8.94 12.285 6.905 8.577 17.299 10.83 22.532 11.921 4.579 1.017 13.81 2.98 24.204-1.381 9.158-3.853 14.318-10.613 16.571-13.666 2.181-2.98 2.908-4.725 7.269-14.683 8.867-20.28 11.702-26.531 17.88-32.783 3.343-3.416 7.413-7.414 11.629-6.469 5.16 1.163 7.341 9.231 8.286 12.648 1.017 3.78 2.326 10.976-.654 23.551-1.018 4.361-4.507 17.227-14.61 31.402-4.215 5.96-10.103 14.028-20.569 20.861-4.579 2.98-12.065 7.778-22.895 9.232-9.594 1.308-16.935-.655-23.186-2.399-6.905-1.89-18.389-6.106-30.527-16.064-7.777.363-13.737.872-17.88 1.381-7.05.799-10.03 1.454-13.228-.364-1.09-.654-2.689-1.817-4.943-1.671-2.107.145-2.834 1.308-4.651 1.671-2.035.437-5.379.073-7.269-2.398-1.526-1.963-1.381-4.434-1.308-5.234-1.235-1.09-3.198-3.126-4.143-6.178-.654-2.108-.581-3.853-.581-5.816.072-2.326.072-3.489.654-4.434 1.672-2.907 6.469-2.762 7.196-2.689-2.326-1.745-4.434-2.69-5.742-3.198-4.507-1.818-6.905-1.236-11.048-3.489-1.672-1.018-4.143-2.399-3.998-3.853z" fill="#fff"/><g fill="#1b1616"><path d="M649.723 164.832c-6.323-2.398-11.048 2.908-14.391 7.633-5.015 7.051-9.304 14.61-12.938 22.461-6.832 14.973-11.484 32.419-25.511 42.45-1.163.799-.073 2.689 1.09 1.89 11.338-8.214 17.008-21.08 22.168-33.655 3.126-7.56 6.469-14.974 10.539-22.025 2.035-3.416 4.143-6.833 6.469-10.031 2.762-3.852 6.469-8.65 11.92-6.615 1.381.509 1.962-1.599.654-2.108z"/><path d="M522.6 212.153c-3.125 1.017-4.361-2.835-3.416-4.943.727-1.672 2.617-2.544 4.216-3.053 3.053-.872 6.541-.291 9.376 1.09 4.724 2.326 7.414 7.051 10.321 11.267 5.088 7.414 11.847 13.375 20.06 17.009 16.354 7.196 35.47 3.344 48.044-9.304 1.017-1.017-.582-2.544-1.526-1.526-8.577 8.722-20.715 13.374-32.926 12.211-12.501-1.163-23.84-8.431-31.108-18.535-5.379-7.633-12.138-17.882-23.259-14.175-3.125 1.018-6.178 3.78-5.669 7.342.436 3.198 3.343 5.742 6.542 4.652 1.235-.363.654-2.471-.655-2.035zm-7.558-2.98c-5.815-2.908-11.92-5.161-18.389-5.815-5.67-.582-13.592-.364-18.244 3.489-4.215 3.489 1.309 5.742 4.289 6.978 6.832 2.835 14.536 3.707 21.15 7.123 1.236.655 2.326-1.235 1.091-1.89-4.071-2.108-8.432-3.125-12.793-4.361-2.325-.654-4.579-1.381-6.832-2.253-1.235-.436-3.707-.945-4.652-1.963-1.671-1.744.437-2.835 2.036-3.416 10.103-4.143 22.023-.654 31.326 3.998 1.163.581 2.253-1.309 1.018-1.89z"/><path d="M503.34 219.566c-3.126-1.889-7.05-2.107-10.176-.145-2.544 1.527-4.652 4.87-3.489 7.851 1.309 3.416 6.396 3.779 9.376 4.361 4.579.799 8.94.799 13.156-1.309 1.236-.654.145-2.544-1.09-1.889-4.725 2.398-9.958 1.526-14.973.363-1.962-.436-2.035-.363-3.271-2.471-1.599-1.309-1.526-2.69.073-3.998.436-.364.872-.655 1.308-1.018 2.472-1.526 5.524-1.308 7.996.145 1.162.727 2.253-1.163 1.09-1.89z"/><path d="M490.838 228.508c-1.453 3.998.436 8.141 4.143 10.104 4.797 2.544 10.248.654 14.827-1.163 1.309-.509.727-2.617-.581-2.108-3.053 1.236-6.396 2.544-9.74 2.253-4.361-.363-8.213-3.925-6.541-8.504.436-1.309-1.672-1.89-2.108-.582z"/><path d="M494.254 237.667c-1.308 4.07 1.962 7.487 5.669 8.577 5.451 1.526 9.812-1.526 13.737-4.943 1.091-.945-.508-2.471-1.526-1.526-2.471 2.108-5.015 4.361-8.359 4.652s-8.867-1.745-7.413-6.179c.436-1.308-1.672-1.89-2.108-.581zm12.647-14.248c2.181.727 5.524 2.69 3.78 5.379-.727 1.163 1.162 2.254 1.889 1.091 1.018-1.599.945-3.707-.145-5.307-1.09-1.744-3.053-2.689-5.015-3.27-1.309-.437-1.89 1.671-.509 2.107z"/><path d="M510.026 230.834c1.527 1.672.873 4.288-1.308 4.943-1.308.363-.799 2.471.582 2.108 3.852-1.091 4.942-5.743 2.326-8.65-1.018-.945-2.544.581-1.6 1.599z"/><path d="M511.044 236.213c1.454.799 1.672 2.98.509 4.07-1.018.945.509 2.544 1.526 1.527 2.181-2.108 1.744-6.034-.945-7.487-1.163-.655-2.326 1.235-1.09 1.89zm2.544-25.296l4.797 2.253c1.236.582 2.399-1.308 1.09-1.89l-4.797-2.253c-1.235-.582-2.326 1.308-1.09 1.89zm9.885 3.344c1.599-1.382 3.779-1.963 5.887-1.454 1.381.291 1.962-1.818.581-2.108-2.907-.654-5.741.072-7.995 2.035-1.09.945.436 2.472 1.527 1.527zm1.236 2.617c-2.036 6.033.363 12.72 5.814 15.991 1.236.727 2.326-1.163 1.09-1.89-4.651-2.762-6.541-8.504-4.797-13.52.436-1.381-1.671-1.963-2.107-.581zm-15.337 27.839c4.361 3.126 9.086 3.78 14.246 2.763 7.196-1.309 14.101-1.963 21.442-1.163 1.381.145 1.381-2.036 0-2.181-5.67-.654-11.339-.582-17.008.291-6.469 1.017-11.775 2.544-17.59-1.6-1.163-.799-2.253 1.091-1.09 1.89z"/><path d="M543.17 245.371c10.394 4.943 19.988 11.558 30.745 15.628 9.885 3.708 20.715 4.434 31.036 1.89 10.611-2.616 19.188-8.868 26.674-16.645 7.777-7.996 14.755-17.01 19.697-27.113 5.815-11.776 8.65-24.86 7.196-37.944-.146-1.381-2.326-1.381-2.181 0 1.599 14.393-2.107 28.712-9.23 41.215-6.614 11.63-15.991 23.26-26.966 31.11-11.048 7.851-25.366 10.468-38.594 7.487-13.519-3.053-24.931-11.702-37.359-17.59-1.163-.509-2.254 1.381-1.018 1.962z"/></g><g fill="#666"><path opacity=".16" d="M652.63 173.265c-2.834.145-2.471 12.211-5.887 24.568-5.015 17.882-19.406 41.36-40.557 48.557-14.973 5.088-30.091.872-54.149-5.888-7.631-2.108-21.078-6.542-39.685-7.705-15.336-.945-19.115 1.235-19.261 2.398-.072.727 1.309 1.236 2.108 3.562.654 1.963-.073 2.617.582 3.853 1.163 2.253 4.651 2.544 5.887 2.689 3.053.291 5.524-.799 6.832-1.454 1.381.655 3.562 1.527 6.251 2.108 5.233 1.091 8.213.073 14.827-.581 6.832-.654 11.339-1.09 16.281.291 4.725 1.308 6.905 3.489 10.975 6.251 1.236.799 12.865 8.577 27.256 10.976 4.507.727 14.828 2.326 26.312-2.108 6.541-2.472 10.684-5.888 15.408-9.74 2.98-2.472 16.281-13.811 26.021-34.964 4.288-9.231 7.777-17.009 6.832-27.258-.799-7.487-3.634-15.701-6.033-15.555z"/><path opacity=".17" d="M513.515 238.393c3.489-1.745 7.559-.291 9.158.291 9.085 3.125 9.958.945 23.695 2.98 11.338 1.672 11.774 4.943 26.674 9.74 14.319 4.652 25.876 8.359 37.287 4.725 16.208-5.161 23.694-21.516 24.276-21.007.581.436-5.96 16.282-21.587 23.697-14.173 6.76-28.928 3.343-33.143 2.398-6.833-1.599-12.356-4.216-18.389-7.123-7.05-3.344-12.574-6.833-16.572-9.45-5.088-.218-9.085.218-11.847.582-6.76 1.017-9.594 2.544-15.118 1.744-1.454-.218-7.487-1.09-7.995-3.852-.291-1.817 1.671-3.78 3.561-4.725z"/></g><path d="M642.091 167.594c-1.962 2.399-4.506 6.397-6.396 38.162-1.017 17.591-2.035 36.054-.508 63.167.654 11.048 1.889 26.168 4.433 44.049 8.141 4.652 22.968 11.558 42.592 12.721 31.472 1.889 54.44-12.358 62.144-17.591-3.925-7.778-9.303-19.844-12.719-35.254-4.216-18.899-2.181-27.258-4.434-50.446-2.98-30.675-4.434-46.012-13.737-55.316-17.807-17.882-56.911-17.3-71.375.508z" fill="#1b1616"/><g fill="#666"><path opacity=".22" d="M681.704 154.51c5.16 7.705 11.775 19.117 17.008 33.946 2.253 6.469 13.446 39.761 5.305 82.574-4.288 22.752-12.646 41.069-20.641 54.59 5.596.363 12.138.29 19.333-.655 19.116-2.616 33.434-10.54 41.938-16.355-2.689-4.942-6.105-11.921-9.012-20.643-.582-1.89-3.416-10.395-5.306-23.624-1.309-9.013-1.091-11.994-1.963-26.677-.218-3.416-1.09-17.3-2.98-33.291-2.762-23.406-4.869-28.494-8.358-33.001-4.943-6.397-11.193-9.813-13.955-11.339-8.722-4.507-16.863-5.379-21.369-5.525z"/><path opacity=".22" d="M725.459 209.1c-1.091 11.776-2.544 23.915-4.289 36.417-3.997 28.203-9.303 54.444-15.336 78.504 4.943-.654 11.266-1.963 18.171-4.652 9.013-3.489 15.772-8.141 20.351-11.776-9.667-17.009-13.01-31.256-14.246-41.432-1.235-10.249-.799-20.135-3.198-44.268l-1.453-12.793z"/></g><path d="M612.436 81.094c-1.453 3.562-1.38 7.778-1.38 16.282 0 6.033.072 14.465 3.198 24.423 2.398 7.705 4.724 15.41 11.92 22.243 2.035 1.962 10.829 10.322 23.258 10.322 2.399 0 4.434-.291 5.742-.582.582 2.181 1.817 5.234 4.143 8.359 1.236 1.599 2.471 2.835 3.561 3.78 1.745 0 6.179-.291 10.758-3.198 4.361-2.835 6.396-6.542 7.122-8.141-1.308-1.309-4.724-5.161-4.942-10.758-.073-1.527.145-2.835.363-3.998 2.399-3.053 4.943-7.051 7.123-11.921 1.091-2.399 1.89-4.652 2.617-6.76 1.09.291 3.271.654 5.378-.364 2.254-1.163 3.053-3.416 3.998-6.178 1.381-4.071 2.907-8.65 1.018-12.721-1.817-3.852-4.652-2.98-7.123-6.542-3.78-5.306-.073-10.685-1.599-16.5-2.326-8.941-15.264-12.793-20.279-14.32-20.569-6.106-48.479.727-54.876 16.573z" fill="#fff"/><path d="M610.547 91.562c1.817.291 2.98-2.544 5.814-5.379 2.908-2.835 7.777-5.815 16.499-6.615l21.369-2.253c2.253.145 7.414.727 12.574 4.289 4.143 2.908 6.396 6.397 7.487 8.287l6.686.291 1.381 8.069c.291-.291 4.216-3.78 8.286-2.472 3.271 1.018 4.652 4.506 5.233 6.106 1.818 4.434.582 7.995 1.672 8.286 1.308.436 3.852-4.361 4.143-5.015.654-1.236 2.762-5.525 3.344-12.212.436-5.452.726-9.086-1.381-12.502-.727-1.163-1.454-1.89-1.672-3.344-.364-2.762 1.817-4.289 3.053-6.905.654-1.381.799-2.689-1.091-12.721-2.035-10.758-2.762-12.212-3.852-12.502-1.454-.291-2.762 1.672-4.434 3.344-2.907 2.98-7.922 6.251-17.225 7.487 0-3.271-.437-5.888-.8-7.778-.654-2.907-1.018-2.907-3.343-9.74-1.309-3.852-1.599-5.452-2.472-5.524-1.453-.145-1.962 3.562-5.378 4.87-1.526.581-2.108.073-4.143.363-1.817.218-4.288 1.018-7.123 3.416 0 0-4.361 2.98-11.629 6.687-8.068 4.071-10.757-.363-19.116 3.344-6.251 2.762-10.03 7.705-11.629 9.958s-6.105 8.795-6.105 17.809c-.146 5.161 1.308 11.994 3.852 12.357z" fill="#c92627"/><g fill="#1b1616"><path d="M610.62 94.469c-1.236 12.357.799 24.933 6.032 36.199 4.434 9.523 11.484 18.972 21.66 22.752 10.394 3.852 22.314 1.018 30.963-5.524 8.794-6.688 14.318-16.646 17.589-27.041.436-1.308-1.672-1.889-2.108-.581-3.125 9.886-8.358 19.408-16.717 25.804-8.649 6.542-20.787 9.305-30.89 4.507-9.085-4.289-15.191-13.229-19.116-22.17-4.724-10.685-6.396-22.388-5.233-33.946.145-1.381-2.035-1.381-2.18 0z"/><path d="M683.884 99.921c1.018-4.434 6.178-4.289 8.795-1.454 2.253 2.326 2.762 5.743 2.835 8.868.145 5.234-1.745 14.901-9.231 12.503-1.309-.436-1.89 1.672-.582 2.108 10.612 3.416 12.938-11.34 11.63-18.463-.8-4.144-3.489-8.578-8.068-9.159-3.489-.436-6.687 1.745-7.487 5.161-.29 1.163 1.818 1.744 2.108.436zm-46.299-4.579l-4.943 10.394c-.799 1.818-1.671 3.635-1.526 5.743.364 4.288 4.143 7.123 8.068 8.068 1.381.364 1.962-1.744.581-2.108-4.724-1.163-7.631-4.943-5.596-9.74 1.599-3.78 3.489-7.487 5.306-11.267.581-1.236-1.309-2.326-1.89-1.09zm-10.612 9.522c-.436-.509-.727-1.163-.799-1.817-.073-.291-.073-.654 0-.945 0-.218.363-.873.363-1.018-.145 0-.218.073-.363.073.072.218.072.436.072.654v1.09c-.072.945-.29 1.818-.654 2.69l1.817-.509c-.726-.654-1.017-1.308-.944-2.326.145-1.381-2.036-1.381-2.181 0-.145 1.454.436 2.908 1.599 3.852.654.582 1.526.291 1.817-.508.654-1.672.945-3.562.654-5.307-.218-1.235-1.235-2.471-2.544-1.89-1.235.509-1.744 2.254-1.744 3.562 0 1.454.509 2.835 1.526 3.925.8 1.091 2.326-.508 1.381-1.526zm27.765-1.09c-.218-.582-.363-1.091-.363-1.672 0-.291.072-.582.145-.872 0-.073.073-.219.073-.291.145-.218.072-.218-.291 0 0 .072.145.436.145.581 0 .291 0 .582-.072.873-.146.654-.437 1.235-.8 1.744l1.744.218c-.872-1.236-.799-2.689.146-3.925l-1.745.218c.727.872.218 2.181-.654 2.617l1.599.654c-.218-.582-.363-1.09-.436-1.745 0-.363.073-.726.073-1.09 0-.145.073-.218.073-.363-.219-.291-.291-.364-.146-.146.218.582.364 1.018.291 1.672 0 .291-.145.727-.145.945 0 .145-.073.218-.073.364.509-.073.581-.219.291-.509-.8-1.163-2.69-.073-1.89 1.09s2.544 2.181 3.489.509c.726-1.381.726-3.78 0-5.088-.8-1.381-2.69-1.817-3.635-.291-.872 1.454-.654 3.634-.072 5.161.29.654.945 1.017 1.599.654 2.253-1.163 2.689-4.143 1.09-6.033-.509-.582-1.308-.291-1.744.218-1.309 1.744-1.381 4.289-.146 6.106.364.509 1.236.799 1.745.218 1.308-1.672 2.689-5.597.072-6.833-1.163-.509-2.18.218-2.544 1.308-.508 1.382-.508 2.908.073 4.216s2.689.8 2.108-.508z"/><path d="M631.48 91.562c-3.78-2.471-8.722-1.308-11.121 2.399-.727 1.163 1.163 2.253 1.89 1.09 1.744-2.762 5.378-3.416 8.14-1.672 1.163.8 2.253-1.09 1.091-1.817zm20.06.581c3.344-2.835 8.504-1.963 10.03 2.326.436 1.308 2.544.727 2.108-.582-2.108-5.888-9.085-7.269-13.664-3.271-1.018.872.509 2.399 1.526 1.526zm2.689 62.44c1.163 4.289 3.416 8.141 6.687 11.194 1.017.945 2.544-.581 1.526-1.526-2.98-2.835-5.088-6.252-6.105-10.249-.436-1.381-2.544-.8-2.108.581zm20.061-13.448c.654 4.87 2.326 9.304 5.16 13.375.8 1.163 2.689.073 1.89-1.09-2.617-3.708-4.288-7.778-4.87-12.285-.145-1.308-2.326-1.381-2.18 0z"/><path d="M661.061 166.141c7.85 2.689 16.863-3.635 19.77-10.831.509-1.308-1.599-1.89-2.108-.581-2.471 6.106-10.539 11.557-17.08 9.304-1.308-.436-1.89 1.672-.582 2.108zm-5.523-10.395c5.233-.872 9.884-3.344 13.591-7.124.945-1.017-.581-2.544-1.526-1.526-3.489 3.562-7.777 5.742-12.647 6.615-1.381.218-.799 2.253.582 2.035z"/><path d="M656.773 157.199c6.105-1.744 13.01-6.542 15.772-12.357.582-1.235-1.308-2.398-1.89-1.09-2.543 5.306-8.867 9.813-14.536 11.412-1.308.364-.727 2.399.654 2.035zm-45.79-71.016c-4.143-4.87-2.471-13.593-.436-19.117 2.471-6.76 7.341-11.848 14.391-13.811 6.178-1.745 12.792-1.526 18.825-3.852 6.687-2.617 11.556-9.813 19.261-9.304 1.381.073 1.381-2.108 0-2.181-8.795-.581-14.173 7.85-22.096 10.104-7.631 2.253-16.135 1.454-23.04 5.888-5.451 3.489-8.868 9.377-10.394 15.555-1.526 5.888-2.326 13.375 1.89 18.245.945 1.09 2.544-.436 1.599-1.527zm23.258-8.214c-.581-5.306.582-10.54 3.707-14.901 3.489-4.87 8.795-7.051 14.028-9.522 4.361-2.035 8.358-4.579 11.484-8.286 3.052-3.489 4.579-8.65 8.431-11.339-.509-.145-1.018-.291-1.526-.364 3.634 8.505 10.902 18.899 4.361 27.913-.8 1.163 1.09 2.253 1.889 1.09 7.051-9.74-.436-20.862-4.361-30.093-.218-.509-1.017-.727-1.526-.363-4.216 2.835-5.669 7.923-8.94 11.63-4.288 5.016-9.885 7.269-15.627 10.031-9.449 4.579-15.481 13.447-14.246 24.205.291 1.381 2.544 1.381 2.326 0z"/><path d="M654.811 76.951c4.652-8.65 12.283-15.41 21.587-18.681 4.361-1.526 8.94-2.399 13.083-4.507 3.997-1.963 7.413-4.725 10.393-7.996l-1.744-.218c2.689 5.742 5.233 12.212 5.742 18.536.509 6.833-3.271 12.066-7.414 17.082-.872 1.09.655 2.617 1.527 1.526 4.143-5.088 8.213-10.467 8.068-17.3-.146-7.196-3.126-14.538-6.106-20.934-.291-.654-1.235-.727-1.744-.218-3.78 4.071-8.286 7.269-13.519 9.159-4.434 1.599-9.086 2.471-13.374 4.579-7.922 3.852-14.391 10.176-18.534 17.881-.509 1.236 1.381 2.326 2.035 1.09z"/><path d="M700.601 77.387c5.233 10.177 4.288 22.243-2.399 31.475-.799 1.163 1.09 2.253 1.89 1.09 7.196-9.886 7.995-22.824 2.399-33.655-.655-1.236-2.544-.145-1.89 1.09z"/></g><path opacity=".14" d="M673.563 89.164c.218 3.562.364 8.723 0 14.901-.727 11.048-1.308 20.571-6.178 29.511-6.105 11.122-16.571 16.937-23.549 19.844 3.343.218 8.722.073 14.9-1.962 5.088-1.672 8.94-4.071 11.411-5.961l4.216 16.355 6.469-7.923-5.67-11.412c1.527-2.471 2.98-5.088 4.434-7.923a132.19 132.19 0 0 0 6.469-14.174c.945.363 3.707 1.308 6.178 0 2.762-1.454 3.416-4.725 3.997-7.705.582-3.126 2.181-11.485-2.762-15.12-2.035-1.526-5.596-2.544-8.431-1.018-1.526.872-2.326 2.181-2.762 2.98l-1.017-8.941c-2.544-.436-5.161-.945-7.705-1.454z" fill="#666"/><g fill="#212121"><path opacity=".2" d="M656.919 76.806c4.07-4.434 8.94-10.758 13.155-19.117 2.98-5.96 4.943-11.485 6.178-16.137 3.271 5.888 2.98 10.613 2.762 12.648-1.235 9.304-9.667 15.119-14.391 18.39-2.98 2.035-5.742 3.344-7.704 4.216z"/><path opacity=".16" d="M671.819 84.947c4.143-1.454 9.013-3.562 14.173-6.687 9.376-5.742 15.7-12.575 19.624-17.591.509 3.053 1.018 9.086-2.253 14.61-5.233 9.013-18.098 13.375-31.544 9.668z"/><path opacity=".22" d="M624.211 81.022c-.145-3.053.073-7.414 1.454-12.43 3.271-11.485 11.411-20.062 12.647-19.335 1.017.581-1.454 7.414-14.101 31.765z"/></g><g fill="#1b1616"><path d="M627.773 127.834a63.14 63.14 0 0 0 31.108-6.47c.945-.436.145-1.89-.8-1.381-9.448 4.652-19.769 6.76-30.236 6.251-1.163-.072-1.09 1.527-.072 1.6z"/><path d="M628.863 128.124c1.453 2.617 2.471 5.452 3.052 8.359.219 1.018 1.745.582 1.599-.436-.581-3.053-1.671-6.033-3.198-8.795-.508-.872-1.962 0-1.453.872z"/><path d="M632.061 136.556c4.361 4.216 11.411 2.108 16.063-.582 5.596-3.125 9.667-8.359 11.047-14.61.219-1.018-1.381-1.454-1.599-.436-1.163 5.161-4.142 9.522-8.503 12.575-4.143 2.835-11.63 6.033-15.845 1.89-.727-.727-1.89.436-1.163 1.163z"/><path d="M631.044 131.104c4.942 1.309 10.611-.145 15.336-1.599 4.579-1.381 8.794-3.634 11.992-7.269.727-.799-.436-1.962-1.163-1.163-3.052 3.417-6.905 5.525-11.266 6.833-4.433 1.309-9.884 2.835-14.463 1.599-1.018-.218-1.454 1.381-.436 1.599z"/><path d="M631.77 131.904l1.745 4.143c.363.873 1.817.218 1.526-.654-.509-1.308-.872-2.544-1.163-3.925l-1.017 1.018a32.07 32.07 0 0 0 5.305.436c.873 0 1.163-1.454.218-1.599-1.671-.291-2.98-.219-4.651.29-.509.146-.8.727-.509 1.236l1.381 2.035c.581.873 1.89.146 1.381-.799l-.654-1.89-1.527.654c.727.945 1.018 1.963.727 3.053l1.527-.436c-1.018-1.672-1.89.291-2.108.799-.218.655.654 1.381 1.235.945 5.96-4.506 12.938-6.76 19.988-8.94 1.018-.291.582-1.89-.436-1.6-7.196 2.181-14.318 4.507-20.351 9.087.436.29.799.581 1.235.944.291-.654 1.163-.799 1.309-1.817.145-.872-.218-2.18-1.163-2.471-2.617-.872-1.672 2.835-1.018 3.852.436.727 1.454.364 1.527-.436.145-1.526-.146-2.617-.945-3.852-.509-.727-1.745-.291-1.527.654.291 1.236.291 1.163.8 2.326a13.45 13.45 0 0 1 1.381-.8l-1.381-2.035c-.145.436-.291.8-.509 1.236 1.236-.509 2.471-.582 3.78-.291l.218-1.599c-1.672 0-3.126-.073-4.87-.364a.82.82 0 0 0-1.018 1.018c.291 1.381.655 2.617 1.163 3.925l1.527-.654-1.745-4.143c-.363-1.163-1.817-.291-1.381.654z"/><path d="M636.422 134.521c2.544-1.527 5.16-2.69 7.995-3.707l-.654-1.527-7.559 3.417c-.8.363-.218 1.817.654 1.526 6.832-2.689 13.592-5.452 19.77-9.522-.436-.291-.8-.582-1.236-.945-.945 2.544-5.16 2.835-7.341 3.634-1.817.655-3.561 1.527-5.378 2.181-2.544.872-5.524.727-7.487 2.908-.726.799.436 1.962 1.163 1.163 1.599-1.818 4.579-1.745 6.76-2.472s4.288-1.817 6.541-2.544c3.053-.945 6.106-1.018 7.341-4.361.218-.654-.654-1.309-1.235-.945-6.033 3.925-12.72 6.687-19.407 9.304l.654 1.526 7.56-3.416c.872-.363.218-1.817-.655-1.526-2.907 1.017-5.669 2.326-8.358 3.852-.872.582 0 2.035.872 1.454z"/><path d="M656.046 126.525c0-.073-.072-.145-.072-.218s0 0 0 .146l-.291.29h.072c-.218 0-.436.073-.654.073-.363-.073-.363-.727-.436-.291 0 .146 0 .218.073.364.073.29.218.436.509.654.363.291.945.073 1.09-.291.218-.436.073-.872-.291-1.09 0 0-.072 0-.072-.073l.29.291c.073.218.073.218.073.073v-.146c0-.218-.073-.436-.145-.581-.218-.291-.509-.509-.873-.509-.945 0-1.09 1.09-.799 1.744.145.436.509.727 1.017.582.364-.146.727-.654.509-1.018zm.146-6.615c1.381.582 2.544 1.527 3.343 2.835.509.872 1.963.073 1.381-.799-1.017-1.672-2.471-2.908-4.288-3.562-1.018-.436-1.454 1.163-.436 1.526z"/><path d="M636.349 137.719c5.742-4.07 12.065-6.905 18.898-8.432 1.017-.218.581-1.817-.436-1.599-7.051 1.527-13.447 4.434-19.334 8.578-.8.654 0 2.108.872 1.453z"/><path d="M634.896 136.411c7.122-.364 13.737-2.544 19.624-6.542.872-.582.073-2.036-.8-1.381-5.669 3.852-11.992 6.033-18.824 6.323-1.091.073-1.091 1.672 0 1.6z"/><path d="M641.51 134.594c3.997-.873 7.704-2.399 11.193-4.58.872-.581.073-1.962-.799-1.381-3.344 2.108-6.905 3.562-10.758 4.434-1.09.146-.654 1.745.364 1.527z"/><path d="M636.495 137.428c5.814-.145 11.193-1.817 15.99-5.088.872-.582.073-2.035-.8-1.381-4.579 3.125-9.666 4.724-15.19 4.87-1.018 0-1.018 1.672 0 1.599z"/><path d="M636.494 137.283c-.072 1.236 1.091 1.381 2.036 1.236 2.18-.291 4.288-.8 6.396-1.309 1.017-.291.581-1.817-.436-1.599l-3.344.727c-.509.073-2.98.218-3.053.872.146-.945-1.526-.945-1.599.073z"/></g><path d="M650.377 145.787c.727-2.035 7.268-1.599 12.937-.872 0-1.09.218-2.689.873-4.434.508-1.381 1.308-2.762 4.215-5.96 3.126-3.417 4.725-5.089 6.76-6.324 1.526-.945 4.07-2.181 7.631-2.762a106.08 106.08 0 0 0 4.434 1.453l2.98-9.086c1.09-3.416 1.744-5.161 3.198-5.742 1.454-.509 3.416 0 4.434 1.236 1.453 1.817.145 4.434-.654 8.868-.437 2.544-.073 2.108-.218 11.63-.146 9.74-.509 9.667-.437 13.738.073 3.78.582 9.159 2.326 15.628a16.7 16.7 0 0 1 7.196-1.454c7.123.073 12.138 4.725 15.845 8.287 7.268 6.905 10.393 14.538 12.501 19.917 4.07 10.394 4.579 19.044 4.652 22.824.073 5.888.218 11.412-2.762 17.809-.945 2.035-3.561 7.486-9.521 11.63-2.472 1.744-7.123 4.943-13.156 4.434-3.489-.291-6.614-1.745-9.958-4.434-11.193-9.086-16.353-25.587-17.952-31.329-3.053-10.467-6.396-25.659-6.978-44.631-1.599-.073-3.489-.436-5.524-1.236-7.486-3.125-10.393-10.612-10.975-12.502-1.526.072-6.977 0-10.394-3.78-.726-.872-1.744-1.963-1.453-2.908z" fill="#fff"/><g fill="#1b1616"><path d="M660.48 150.875c-3.852-.291-8.286-1.744-9.304-5.96-.218.436-.508.872-.726 1.308 5.596-1.163 11.193.509 16.789-.291 1.381-.218.8-2.326-.581-2.108-5.597.8-11.193-.872-16.79.291-.581.146-.872.8-.727 1.309 1.236 5.233 6.542 7.196 11.412 7.559 1.381.146 1.38-2.035-.073-2.108z"/><path d="M664.623 143.098c-.872-5.161 7.05-4.87 10.03-4.071 1.381.364 1.962-1.744.581-2.108-4.869-1.308-13.882-.363-12.719 6.688.218 1.453 2.326.872 2.108-.509z"/><path d="M667.748 138.082c.654-2.544 2.035-4.87 4.506-6.033 2.908-1.308 5.815 0 8.504 1.163 1.236.582 2.399-1.308 1.091-1.89-3.344-1.526-6.905-2.98-10.467-1.308-3.053 1.381-4.942 4.289-5.742 7.487-.29 1.381 1.817 1.963 2.108.581z"/><path d="M675.38 129.36c-.145-.146 2.326-2.181 2.689-2.399 1.018-.509 2.181-.8 3.344-.8 2.834 0 5.378 1.381 7.631 2.835 1.163.727 2.254-1.09 1.091-1.89-3.635-2.326-8.068-4.143-12.357-2.399-1.817.727-6.178 3.998-3.997 6.252 1.017.945 2.544-.582 1.599-1.599z"/><path d="M696.967 147.75c.872-6.179 1.163-12.284.726-18.536-.218-3.561.146-6.324 1.018-9.813.436-1.817.799-3.707.291-5.524-.8-2.471-3.562-4.507-6.178-3.198-1.672.872-2.108 2.835-2.69 4.506-1.09 3.126-2.107 6.324-3.125 9.45-.436 1.308 1.672 1.89 2.108.581.581-1.817 1.163-3.634 1.817-5.379.363-1.09.945-4.724 1.817-5.379 3.634-.436 5.088.582 4.216 3.199-.218.872-.436 1.672-.727 2.544-.364 1.381-.727 2.689-.872 4.07-.291 3.49.363 7.124.363 10.686 0 4.143-.291 8.214-.872 12.284-.146 1.309 1.962 1.89 2.108.509zm-37.65 5.451c3.779.291 4.724 4.216 6.469 6.833.872 1.381 1.962 2.617 3.27 3.635 2.544 2.035 5.524 3.125 8.795 3.416 1.381.145 1.381-2.035 0-2.181-5.524-.509-9.013-3.707-11.557-8.359-1.599-2.908-3.488-5.234-6.977-5.452-1.454-.145-1.381 2.036 0 2.108z"/><path d="M677.488 166.14c2.253 7.778 2.471 15.773 3.125 23.769.582 6.76 1.672 13.52 3.562 19.989 3.706 12.503 10.103 24.06 19.333 33.365 1.018 1.017 2.544-.582 1.527-1.527-9.522-9.595-15.991-21.661-19.407-34.672-3.634-13.666-2.108-27.986-6.032-41.506-.437-1.308-2.544-.727-2.108.582zm17.371-19.263c1.09 12.139 4.652 23.988 10.612 34.6 5.814 10.322 14.754 19.263 16.789 31.329.218 1.381 2.326.8 2.108-.581-1.817-10.976-9.303-19.336-15.045-28.494-6.905-11.122-11.048-23.77-12.284-36.781-.145-1.454-2.325-1.454-2.18-.073z"/><path d="M699.874 163.741c10.83-3.489 21.514 5.234 27.183 13.665 5.96 8.868 8.65 19.772 9.885 30.312 1.163 10.321.364 21.588-6.541 29.875-6.396 7.705-18.244 10.758-26.312 3.78-1.09-.945-2.616.654-1.526 1.526 7.632 6.615 18.898 5.67 26.384-.727 9.158-7.778 11.411-20.425 10.466-31.838-1.017-12.429-4.143-25.731-11.702-35.908-6.323-8.432-17.371-16.355-28.346-12.866-1.381.509-.872 2.617.509 2.181z"/></g><g fill="#666"><path opacity=".15" d="M695.149 114.604c-3.852 1.454-3.561 11.339-3.27 18.463 1.017 21.152 1.526 31.765 5.669 48.047 5.96 23.188 11.411 29.221 14.391 32.056 4.288 4.07 12.502 9.958 15.99 7.632 5.524-3.707-3.27-25.804-5.451-31.183-7.341-18.318-8.94-24.424-14.391-26.314-3.271-1.09-6.469-.654-8.722 0-3.125-6.687-3.634-12.066-3.561-15.773.072-3.126.581-3.126.799-7.85.436-8.578-1.09-9.087-.291-14.684.8-5.451 2.908-8.722 1.381-10.031-.508-.727-1.744-.654-2.544-.363z"/><path opacity=".15" d="M701.4 167.012c5.161 5.016 8.722 9.813 11.121 13.593 5.887 9.086 8.358 17.227 9.231 20.353 1.235 4.434 1.817 8.286 2.18 11.121-1.236-3.78-3.561-9.449-7.632-15.773-3.27-5.088-5.378-6.833-8.14-11.412-2.253-3.78-5.088-9.595-6.76-17.882z"/></g></svg>